<svg xmlns="http://www.w3.org/2000/svg" xmlns:xlink="http://www.w3.org/1999/xlink" width="619" height="706"><defs><filter id="a" width="165.4%" height="172.1%" x="-32.7%" y="-30.2%" filterUnits="objectBoundingBox"><feOffset dy="5" in="SourceAlpha" result="shadowOffsetOuter1"/><feGaussianBlur in="shadowOffsetOuter1" result="shadowBlurOuter1" stdDeviation="3.5"/><feColorMatrix in="shadowBlurOuter1" result="shadowMatrixOuter1" values="0 0 0 0 0 0 0 0 0 0 0 0 0 0 0 0 0 0 0.142068614 0"/><feMerge><feMergeNode in="shadowMatrixOuter1"/><feMergeNode in="SourceGraphic"/></feMerge></filter><linearGradient id="b" x1="50%" x2="50%" y1="18.541%" y2="82.401%"><stop offset="0%" stop-color="#13228D"/><stop offset="100%" stop-color="#0B115C"/></linearGradient><path id="c" d="M9.996 8.726L.428 3.437V.451l9.036 4.791a1 1 0 0 1 .532.884v2.6z"/><filter id="d" width="131.4%" height="136.3%" x="-15.7%" y="-18.1%" filterUnits="objectBoundingBox"><feGaussianBlur in="SourceAlpha" result="shadowBlurInner1" stdDeviation="1"/><feOffset dx="-1" dy="1" in="shadowBlurInner1" result="shadowOffsetInner1"/><feComposite in="shadowOffsetInner1" in2="SourceAlpha" k2="-1" k3="1" operator="arithmetic" result="shadowInnerInner1"/><feColorMatrix in="shadowInnerInner1" values="0 0 0 0 0 0 0 0 0 0 0 0 0 0 0 0 0 0 0.2 0"/></filter><linearGradient id="e" x1="91.561%" x2="35.647%" y1="50%" y2="33.564%"><stop offset="0%" stop-color="#13228D"/><stop offset="100%" stop-color="#0A1461"/></linearGradient><path id="f" d="M30.304 5.293l-17.12 8.981.037-2.798a1 1 0 0 1 .533-.87l16.484-8.712.066 3.4z"/><filter id="g" width="123.4%" height="132.3%" x="-11.7%" y="-16.2%" filterUnits="objectBoundingBox"><feGaussianBlur in="SourceAlpha" result="shadowBlurInner1" stdDeviation="1.5"/><feOffset dx="1" dy="1" in="shadowBlurInner1" result="shadowOffsetInner1"/><feComposite in="shadowOffsetInner1" in2="SourceAlpha" k2="-1" k3="1" operator="arithmetic" result="shadowInnerInner1"/><feColorMatrix in="shadowInnerInner1" values="0 0 0 0 0 0 0 0 0 0 0 0 0 0 0 0 0 0 0.25 0"/></filter><linearGradient id="j" x1="0%" y1="7.52%" y2="7.52%"><stop offset="0%" stop-color="#00EFE4"/><stop offset="39.593%" stop-color="#05CDC4"/><stop offset="50.188%" stop-color="#23ADB9"/><stop offset="60.933%" stop-color="#07B3C9"/><stop offset="100%" stop-color="#117CC0"/></linearGradient><path id="i" d="M51.324.143v3.262L26.55 15.618a2 2 0 0 1-1.773-.001L0 3.34V.163l24.77 12.274a2 2 0 0 0 1.776 0L51.324.142z"/><filter id="h" width="123.4%" height="182.9%" x="-11.7%" y="-44.6%" filterUnits="objectBoundingBox"><feOffset in="SourceAlpha" result="shadowOffsetOuter1"/><feGaussianBlur in="shadowOffsetOuter1" result="shadowBlurOuter1" stdDeviation="2"/><feComposite in="shadowBlurOuter1" in2="SourceAlpha" operator="out" result="shadowBlurOuter1"/><feColorMatrix in="shadowBlurOuter1" result="shadowMatrixOuter1" values="0 0 0 0 0 0 0 0 0 0.870588235 0 0 0 0 0.843137255 0 0 0 0.4 0"/><feOffset dy="-1" in="SourceAlpha" result="shadowOffsetOuter2"/><feComposite in="shadowOffsetOuter2" in2="SourceAlpha" operator="out" result="shadowOffsetOuter2"/><feColorMatrix in="shadowOffsetOuter2" result="shadowMatrixOuter2" values="0 0 0 0 0 0 0 0 0 0 0 0 0 0 0 0 0 0 0.06 0"/><feMerge><feMergeNode in="shadowMatrixOuter1"/><feMergeNode in="shadowMatrixOuter2"/></feMerge></filter><linearGradient id="k" x1="20.847%" x2="75.606%" y1="20.937%" y2="75.78%"><stop offset="0%" stop-color="#1283E0"/><stop offset="100%" stop-color="#0A47B2"/></linearGradient><path id="m" d="M13.38 12.319L25.583 5.88c.2-.105.44-.106.64-.003l12.483 6.439a.692.692 0 0 1-.01 1.235L26.271 19.7a.818.818 0 0 1-.732-.003l-12.15-6.147a.692.692 0 0 1-.01-1.23z"/><filter id="l" width="115.3%" height="128.6%" x="-7.7%" y="-14.3%" filterUnits="objectBoundingBox"><feGaussianBlur in="SourceAlpha" result="shadowBlurInner1" stdDeviation="1.5"/><feOffset dx="1" dy="1" in="shadowBlurInner1" result="shadowOffsetInner1"/><feComposite in="shadowOffsetInner1" in2="SourceAlpha" k2="-1" k3="1" operator="arithmetic" result="shadowInnerInner1"/><feColorMatrix in="shadowInnerInner1" values="0 0 0 0 0 0 0 0 0 0 0 0 0 0 0 0 0 0 0.23 0"/></filter><filter id="n" width="239.3%" height="365%" x="-69.7%" y="-132.5%" filterUnits="objectBoundingBox"><feGaussianBlur in="SourceGraphic" stdDeviation="4"/></filter><linearGradient id="o" x1="3.209%" x2="82.465%" y1="0%" y2="0%"><stop offset="0%" stop-color="#0C6DC4"/><stop offset="100%" stop-color="#0D1569"/></linearGradient><ellipse id="p" cx="26.5" cy="13.123" rx="7" ry="2.915"/><filter id="q" width="121.4%" height="151.5%" x="-10.7%" y="-25.7%" filterUnits="objectBoundingBox"><feGaussianBlur in="SourceAlpha" result="shadowBlurInner1" stdDeviation="1"/><feOffset dy="1" in="shadowBlurInner1" result="shadowOffsetInner1"/><feComposite in="shadowOffsetInner1" in2="SourceAlpha" k2="-1" k3="1" operator="arithmetic" result="shadowInnerInner1"/><feColorMatrix in="shadowInnerInner1" values="0 0 0 0 0 0 0 0 0 0 0 0 0 0 0 0 0 0 0.5 0"/></filter><linearGradient id="u" x1="50%" x2="15.844%" y1="100%" y2=".49%"><stop offset="0%" stop-color="#2C7FC8"/><stop offset="99.167%" stop-color="#24A8C2" stop-opacity=".591"/></linearGradient><path id="t" d="M0 0h268L145.435 310.158H134z"/><filter id="r" width="152.2%" height="145.1%" x="-26.1%" y="-23.2%" filterUnits="objectBoundingBox"><feGaussianBlur in="SourceGraphic"/></filter><filter id="s" width="179.1%" height="168.4%" x="-39.6%" y="-34.8%" filterUnits="objectBoundingBox"><feOffset dy="-2" in="SourceAlpha" result="shadowOffsetOuter1"/><feGaussianBlur in="shadowOffsetOuter1" result="shadowBlurOuter1" stdDeviation="35"/><feComposite in="shadowBlurOuter1" in2="SourceAlpha" operator="out" result="shadowBlurOuter1"/><feColorMatrix in="shadowBlurOuter1" values="0 0 0 0 0.288655698 0 0 0 0 0.56455189 0 0 0 0 0.886238694 0 0 0 0.238734149 0"/></filter><path id="x" d="M43 92h184.25l-84.263 213.234h-7.862z"/><filter id="v" width="176%" height="165.7%" x="-38%" y="-33.8%" filterUnits="objectBoundingBox"><feGaussianBlur in="SourceGraphic"/></filter><filter id="w" width="215.1%" height="199.4%" x="-57.5%" y="-50.6%" filterUnits="objectBoundingBox"><feOffset dy="-2" in="SourceAlpha" result="shadowOffsetOuter1"/><feGaussianBlur in="shadowOffsetOuter1" result="shadowBlurOuter1" stdDeviation="35"/><feComposite in="shadowBlurOuter1" in2="SourceAlpha" operator="out" result="shadowBlurOuter1"/><feColorMatrix in="shadowBlurOuter1" values="0 0 0 0 0.288655698 0 0 0 0 0.56455189 0 0 0 0 0.886238694 0 0 0 0.238734149 0"/></filter><linearGradient id="A" x1="50%" x2="50%" y1="0%" y2="100%"><stop offset="0%" stop-color="#FAD961"/><stop offset="100%" stop-color="#F76B1C"/></linearGradient><path id="z" d="M477 121.996v8.734L238.5 251.81 0 130.73v-8.734L238.5 0z"/><filter id="y" width="148.2%" height="196.9%" x="-29.4%" y="-24.2%" filterUnits="objectBoundingBox"><feOffset dx="-25" dy="68" in="SourceAlpha" result="shadowOffsetOuter1"/><feGaussianBlur in="shadowOffsetOuter1" result="shadowBlurOuter1" stdDeviation="27"/><feColorMatrix in="shadowBlurOuter1" values="0 0 0 0 0 0 0 0 0 0 0 0 0 0 0 0 0 0 0.0673403533 0"/></filter><path id="B" d="M0 121.8L238.5 0 477 121.8 238.5 241.739z"/><filter id="D" width="165.4%" height="172.1%" x="-32.7%" y="-30.2%" filterUnits="objectBoundingBox"><feOffset dy="5" in="SourceAlpha" result="shadowOffsetOuter1"/><feGaussianBlur in="shadowOffsetOuter1" result="shadowBlurOuter1" stdDeviation="3.5"/><feColorMatrix in="shadowBlurOuter1" result="shadowMatrixOuter1" values="0 0 0 0 0 0 0 0 0 0 0 0 0 0 0 0 0 0 0.142068614 0"/><feMerge><feMergeNode in="shadowMatrixOuter1"/><feMergeNode in="SourceGraphic"/></feMerge></filter><path id="E" d="M9.996 8.726L.428 3.437V.451l9.036 4.791a1 1 0 0 1 .532.884v2.6z"/><filter id="F" width="131.4%" height="136.3%" x="-15.7%" y="-18.1%" filterUnits="objectBoundingBox"><feGaussianBlur in="SourceAlpha" result="shadowBlurInner1" stdDeviation="1"/><feOffset dx="-1" dy="1" in="shadowBlurInner1" result="shadowOffsetInner1"/><feComposite in="shadowOffsetInner1" in2="SourceAlpha" k2="-1" k3="1" operator="arithmetic" result="shadowInnerInner1"/><feColorMatrix in="shadowInnerInner1" values="0 0 0 0 0 0 0 0 0 0 0 0 0 0 0 0 0 0 0.2 0"/></filter><path id="G" d="M30.304 5.293l-17.12 8.981.037-2.798a1 1 0 0 1 .533-.87l16.484-8.712.066 3.4z"/><filter id="H" width="123.4%" height="132.3%" x="-11.7%" y="-16.2%" filterUnits="objectBoundingBox"><feGaussianBlur in="SourceAlpha" result="shadowBlurInner1" stdDeviation="1.5"/><feOffset dx="1" dy="1" in="shadowBlurInner1" result="shadowOffsetInner1"/><feComposite in="shadowOffsetInner1" in2="SourceAlpha" k2="-1" k3="1" operator="arithmetic" result="shadowInnerInner1"/><feColorMatrix in="shadowInnerInner1" values="0 0 0 0 0 0 0 0 0 0 0 0 0 0 0 0 0 0 0.25 0"/></filter><path id="J" d="M51.324.143v3.262L26.55 15.618a2 2 0 0 1-1.773-.001L0 3.34V.163l24.77 12.274a2 2 0 0 0 1.776 0L51.324.142z"/><filter id="I" width="123.4%" height="182.9%" x="-11.7%" y="-44.6%" filterUnits="objectBoundingBox"><feOffset in="SourceAlpha" result="shadowOffsetOuter1"/><feGaussianBlur in="shadowOffsetOuter1" result="shadowBlurOuter1" stdDeviation="2"/><feComposite in="shadowBlurOuter1" in2="SourceAlpha" operator="out" result="shadowBlurOuter1"/><feColorMatrix in="shadowBlurOuter1" result="shadowMatrixOuter1" values="0 0 0 0 0 0 0 0 0 0.870588235 0 0 0 0 0.843137255 0 0 0 0.4 0"/><feOffset dy="-1" in="SourceAlpha" result="shadowOffsetOuter2"/><feComposite in="shadowOffsetOuter2" in2="SourceAlpha" operator="out" result="shadowOffsetOuter2"/><feColorMatrix in="shadowOffsetOuter2" result="shadowMatrixOuter2" values="0 0 0 0 0 0 0 0 0 0 0 0 0 0 0 0 0 0 0.06 0"/><feMerge><feMergeNode in="shadowMatrixOuter1"/><feMergeNode in="shadowMatrixOuter2"/></feMerge></filter><path id="L" d="M13.38 12.319L25.583 5.88c.2-.105.44-.106.64-.003l12.483 6.439a.692.692 0 0 1-.01 1.235L26.271 19.7a.818.818 0 0 1-.732-.003l-12.15-6.147a.692.692 0 0 1-.01-1.23z"/><filter id="K" width="115.3%" height="128.6%" x="-7.7%" y="-14.3%" filterUnits="objectBoundingBox"><feGaussianBlur in="SourceAlpha" result="shadowBlurInner1" stdDeviation="1.5"/><feOffset dx="1" dy="1" in="shadowBlurInner1" result="shadowOffsetInner1"/><feComposite in="shadowOffsetInner1" in2="SourceAlpha" k2="-1" k3="1" operator="arithmetic" result="shadowInnerInner1"/><feColorMatrix in="shadowInnerInner1" values="0 0 0 0 0 0 0 0 0 0 0 0 0 0 0 0 0 0 0.23 0"/></filter><filter id="M" width="239.3%" height="365%" x="-69.7%" y="-132.5%" filterUnits="objectBoundingBox"><feGaussianBlur in="SourceGraphic" stdDeviation="4"/></filter><ellipse id="N" cx="26.5" cy="13.123" rx="7" ry="2.915"/><filter id="O" width="121.4%" height="151.5%" x="-10.7%" y="-25.7%" filterUnits="objectBoundingBox"><feGaussianBlur in="SourceAlpha" result="shadowBlurInner1" stdDeviation="1"/><feOffset dy="1" in="shadowBlurInner1" result="shadowOffsetInner1"/><feComposite in="shadowOffsetInner1" in2="SourceAlpha" k2="-1" k3="1" operator="arithmetic" result="shadowInnerInner1"/><feColorMatrix in="shadowInnerInner1" values="0 0 0 0 0 0 0 0 0 0 0 0 0 0 0 0 0 0 0.5 0"/></filter><linearGradient id="P" x1="50%" x2="50%" y1="0%" y2="100%"><stop offset="0%" stop-color="#AF9F87"/><stop offset="100%" stop-color="#E2D2BB"/></linearGradient><linearGradient id="Q" x1="50%" x2="50%" y1="0%" y2="100%"><stop offset="0%" stop-color="#D5C2A4"/><stop offset="100%" stop-color="#E2D2BB"/></linearGradient><path id="S" d="M22.26 104.108c-3.506 5.687-4.01 12.142-5.348 14.31-1.315 2.134-3.584 5.227-7.13 8.24-2.24 1.903-8.135 4.26-8.469 5.638-.333 1.378 6.686 0 6.686 1.734 0 1.735-7.019 1.735-6.686 2.602.122.317 9.82 2.719 15.6 2.169 4.774-.455 11.587-3.903 13.37-4.77 1.188-.579 1.188 5.348 0 17.78 1.77.163 3.85-.415 6.24-1.735s5.51-3.777 9.359-7.372l3.565 9.107s1.55-1.179 3.12-3.47c.657-.959 1.697-2.838 3.12-5.637 3.09 2.61 5.764 4.488 8.022 5.637 3.389 1.724 10.716 5.824 12.48 4.337.734-.62-1.873-1.894-3.566-4.337-1.015-1.465-2.674-3.469-2.228-6.505.196-1.34 1.798 2.421 6.685 2.602 2.493.093 10.25-2.602 10.25-3.469s-10.372-1.702-14.261-8.673c-3.89-6.971-2.06-19.082-2.674-21.683-.614-2.601-2.44-.392-3.566-4.77-1.125-4.379.309-8.12 0-9.108-.308-.986-1.114-1.703-3.12-.867-2.005.836-2.275 1.24-3.12 3.47-.843 2.228 1.85-2.431 0 4.77-1.85 7.2-4.051 13.182-4.902 14.31-.85 1.13.446-7.805-.891-7.805-.892 0-3.417.433-7.577 1.3l3.566-3.902c-2.687-.792-4.47-1.515-5.349-2.169-1.318-.98-3.12-1.734-2.228-3.469.594-1.156-4.457-1.735-15.153-1.735-2.932.804-4.864 1.96-5.794 3.47z"/><filter id="R" width="102.3%" height="107%" x="-1.2%" y="-1.7%" filterUnits="objectBoundingBox"><feOffset dy="2" in="SourceAlpha" result="shadowOffsetOuter1"/><feColorMatrix in="shadowOffsetOuter1" values="0 0 0 0 0.229963861 0 0 0 0 0.229963861 0 0 0 0 0.229963861 0 0 0 0.746744792 0"/></filter><linearGradient id="T" x1="86.613%" x2="20.219%" y1="25.334%" y2="100%"><stop offset="0%" stop-color="#CBCBCB"/><stop offset="97.665%" stop-color="#FFFBD3"/></linearGradient><linearGradient id="W" x1="7.273%" y1="100%" y2="13.513%"><stop offset="0%" stop-color="#C8C8C8"/><stop offset="100%" stop-color="#F1F1F1"/></linearGradient><path id="V" d="M70.476 45.43c7.582 4.74 19.072-7.924 9.082 11.888-9.99 19.813-25.697 33.4-35.874 41.827-3.6 2.98-9.354 4.088-14.077 5.724-2.786.965-6.872 2.286-12.26 3.962-6.66 0-10.747-.44-12.261-1.32-2.27-1.321-4.087-14.53-3.179-14.97.606-.294 9.84 1.32 27.7 4.843.914 1.645 1.67 2.525 2.27 2.642.601.116 1.358-.47 2.271-1.761.908-9.1.908-14.236 0-15.41-1.362-1.761-12.977-4.018-17.71-4.843C7.961 76.533 3.27 77.444 3.27 76.69c0-1.761 3.177-18.195 7.265-25.977 4.089-7.782 7.977-11.579 14.985-14.53 4.672-1.966 11.181-1.966 19.526 0 .995 0 16.261 3.515 25.43 9.247z"/><filter id="U" width="117.1%" height="118.9%" x="-8.6%" y="-6.7%" filterUnits="objectBoundingBox"><feOffset dy="2" in="SourceAlpha" result="shadowOffsetOuter1"/><feGaussianBlur in="shadowOffsetOuter1" result="shadowBlurOuter1" stdDeviation="2"/><feColorMatrix in="shadowBlurOuter1" values="0 0 0 0 0 0 0 0 0 0 0 0 0 0 0 0 0 0 0.5 0"/></filter><linearGradient id="X" x1="7.273%" y1="100%" y2="13.513%"><stop offset="0%" stop-color="#C8C8C8"/><stop offset="97.419%" stop-color="#B6B6B6"/></linearGradient><ellipse id="Y" cx="37.76" cy="60.372" rx="11.83" ry="11.452"/><filter id="Z" width="112.7%" height="113.1%" x="-6.3%" y="-6.5%" filterUnits="objectBoundingBox"><feGaussianBlur in="SourceAlpha" result="shadowBlurInner1" stdDeviation="1"/><feOffset dy="1" in="shadowBlurInner1" result="shadowOffsetInner1"/><feComposite in="shadowOffsetInner1" in2="SourceAlpha" k2="-1" k3="1" operator="arithmetic" result="shadowInnerInner1"/><feColorMatrix in="shadowInnerInner1" values="0 0 0 0 0 0 0 0 0 0 0 0 0 0 0 0 0 0 0.5 0"/></filter><ellipse id="ab" cx="3.475" cy="3.747" rx="3.304" ry="3.114"/><filter id="aa" width="221.1%" height="228.4%" x="-60.5%" y="-32.1%" filterUnits="objectBoundingBox"><feOffset dy="2" in="SourceAlpha" result="shadowOffsetOuter1"/><feGaussianBlur in="shadowOffsetOuter1" result="shadowBlurOuter1" stdDeviation="1"/><feColorMatrix in="shadowBlurOuter1" values="0 0 0 0 0 0 0 0 0 0 0 0 0 0 0 0 0 0 0.5 0"/></filter><path id="ac" d="M15.348 59.874c-5.29 5.856-7.935 9.092-7.935 9.709 0 .925 7.935 3.236 9.699 3.236 1.176 0 .588-4.315-1.764-12.945z"/><filter id="ad" width="129.2%" height="123.2%" x="-14.6%" y="-11.6%" filterUnits="objectBoundingBox"><feGaussianBlur in="SourceAlpha" result="shadowBlurInner1" stdDeviation="1"/><feOffset dy="1" in="shadowBlurInner1" result="shadowOffsetInner1"/><feComposite in="shadowOffsetInner1" in2="SourceAlpha" k2="-1" k3="1" operator="arithmetic" result="shadowInnerInner1"/><feColorMatrix in="shadowInnerInner1" values="0 0 0 0 0 0 0 0 0 0 0 0 0 0 0 0 0 0 0.5 0"/></filter><linearGradient id="ae" x1="80.868%" x2="51.177%" y1="85.668%" y2="99.454%"><stop offset="0%" stop-color="#FDFEFF"/><stop offset="100%" stop-color="#F7B0B0" stop-opacity=".425"/></linearGradient><path id="ag" d="M9.822 41.7c0-1.31-3.714-6.919 6.133-22.087 2.12-3.264 8.691-9.76 19.714-19.487-.377 7.507-1.983 13.57-4.819 18.188C25.513 27.008 9.822 42.664 9.822 41.7z"/><filter id="af" width="152.8%" height="133.6%" x="-26.4%" y="-12%" filterUnits="objectBoundingBox"><feOffset dy="2" in="SourceAlpha" result="shadowOffsetOuter1"/><feGaussianBlur in="shadowOffsetOuter1" result="shadowBlurOuter1" stdDeviation="2"/><feColorMatrix in="shadowBlurOuter1" values="0 0 0 0 0 0 0 0 0 0 0 0 0 0 0 0 0 0 0.229619565 0"/></filter><path id="ai" d="M22.26 104.108c-3.506 5.687-4.01 12.142-5.348 14.31-1.315 2.134-3.584 5.227-7.13 8.24-2.24 1.903-8.135 4.26-8.469 5.638-.333 1.378 6.686 0 6.686 1.734 0 1.735-7.019 1.735-6.686 2.602.122.317 9.82 2.719 15.6 2.169 4.774-.455 11.587-3.903 13.37-4.77 1.188-.579 1.188 5.348 0 17.78 1.77.163 3.85-.415 6.24-1.735s5.51-3.777 9.359-7.372l3.565 9.107s1.55-1.179 3.12-3.47c.657-.959 1.697-2.838 3.12-5.637 3.09 2.61 5.764 4.488 8.022 5.637 3.389 1.724 10.716 5.824 12.48 4.337.734-.62-1.873-1.894-3.566-4.337-1.015-1.465-2.674-3.469-2.228-6.505.196-1.34 1.798 2.421 6.685 2.602 2.493.093 10.25-2.602 10.25-3.469s-10.372-1.702-14.261-8.673c-3.89-6.971-2.06-19.082-2.674-21.683-.614-2.601-2.44-.392-3.566-4.77-1.125-4.379.309-8.12 0-9.108-.308-.986-1.114-1.703-3.12-.867-2.005.836-2.275 1.24-3.12 3.47-.843 2.228 1.85-2.431 0 4.77-1.85 7.2-4.051 13.182-4.902 14.31-.85 1.13.446-7.805-.891-7.805-.892 0-3.417.433-7.577 1.3l3.566-3.902c-2.687-.792-4.47-1.515-5.349-2.169-1.318-.98-3.12-1.734-2.228-3.469.594-1.156-4.457-1.735-15.153-1.735-2.932.804-4.864 1.96-5.794 3.47z"/><filter id="ah" width="102.3%" height="107%" x="-1.2%" y="-1.7%" filterUnits="objectBoundingBox"><feOffset dy="2" in="SourceAlpha" result="shadowOffsetOuter1"/><feColorMatrix in="shadowOffsetOuter1" values="0 0 0 0 0.229963861 0 0 0 0 0.229963861 0 0 0 0 0.229963861 0 0 0 0.746744792 0"/></filter><path id="ak" d="M70.476 45.43c7.582 4.74 19.072-7.924 9.082 11.888-9.99 19.813-25.697 33.4-35.874 41.827-3.6 2.98-9.354 4.088-14.077 5.724-2.786.965-6.872 2.286-12.26 3.962-6.66 0-10.747-.44-12.261-1.32-2.27-1.321-4.087-14.53-3.179-14.97.606-.294 9.84 1.32 27.7 4.843.914 1.645 1.67 2.525 2.27 2.642.601.116 1.358-.47 2.271-1.761.908-9.1.908-14.236 0-15.41-1.362-1.761-12.977-4.018-17.71-4.843C7.961 76.533 3.27 77.444 3.27 76.69c0-1.761 3.177-18.195 7.265-25.977 4.089-7.782 7.977-11.579 14.985-14.53 4.672-1.966 11.181-1.966 19.526 0 .995 0 16.261 3.515 25.43 9.247z"/><filter id="aj" width="117.1%" height="118.9%" x="-8.6%" y="-6.7%" filterUnits="objectBoundingBox"><feOffset dy="2" in="SourceAlpha" result="shadowOffsetOuter1"/><feGaussianBlur in="shadowOffsetOuter1" result="shadowBlurOuter1" stdDeviation="2"/><feColorMatrix in="shadowBlurOuter1" values="0 0 0 0 0 0 0 0 0 0 0 0 0 0 0 0 0 0 0.5 0"/></filter><ellipse id="al" cx="37.76" cy="60.372" rx="11.83" ry="11.452"/><filter id="am" width="112.7%" height="113.1%" x="-6.3%" y="-6.5%" filterUnits="objectBoundingBox"><feGaussianBlur in="SourceAlpha" result="shadowBlurInner1" stdDeviation="1"/><feOffset dy="1" in="shadowBlurInner1" result="shadowOffsetInner1"/><feComposite in="shadowOffsetInner1" in2="SourceAlpha" k2="-1" k3="1" operator="arithmetic" result="shadowInnerInner1"/><feColorMatrix in="shadowInnerInner1" values="0 0 0 0 0 0 0 0 0 0 0 0 0 0 0 0 0 0 0.5 0"/></filter><ellipse id="ao" cx="3.475" cy="3.747" rx="3.304" ry="3.114"/><filter id="an" width="221.1%" height="228.4%" x="-60.5%" y="-32.1%" filterUnits="objectBoundingBox"><feOffset dy="2" in="SourceAlpha" result="shadowOffsetOuter1"/><feGaussianBlur in="shadowOffsetOuter1" result="shadowBlurOuter1" stdDeviation="1"/><feColorMatrix in="shadowBlurOuter1" values="0 0 0 0 0 0 0 0 0 0 0 0 0 0 0 0 0 0 0.5 0"/></filter><path id="ap" d="M15.348 59.874c-5.29 5.856-7.935 9.092-7.935 9.709 0 .925 7.935 3.236 9.699 3.236 1.176 0 .588-4.315-1.764-12.945z"/><filter id="aq" width="129.2%" height="123.2%" x="-14.6%" y="-11.6%" filterUnits="objectBoundingBox"><feGaussianBlur in="SourceAlpha" result="shadowBlurInner1" stdDeviation="1"/><feOffset dy="1" in="shadowBlurInner1" result="shadowOffsetInner1"/><feComposite in="shadowOffsetInner1" in2="SourceAlpha" k2="-1" k3="1" operator="arithmetic" result="shadowInnerInner1"/><feColorMatrix in="shadowInnerInner1" values="0 0 0 0 0 0 0 0 0 0 0 0 0 0 0 0 0 0 0.5 0"/></filter><linearGradient id="ar" x1="50%" x2="50%" y1="95.202%" y2="5.748%"><stop offset="0%" stop-color="#EAEC51"/><stop offset="100%" stop-color="#C6C15B"/></linearGradient><path id="at" d="M9.822 41.7c0-1.31-3.714-6.919 6.133-22.087 2.12-3.264 8.691-9.76 19.714-19.487-.377 7.507-1.983 13.57-4.819 18.188C25.513 27.008 9.822 42.664 9.822 41.7z"/><filter id="as" width="152.8%" height="133.6%" x="-26.4%" y="-12%" filterUnits="objectBoundingBox"><feOffset dy="2" in="SourceAlpha" result="shadowOffsetOuter1"/><feGaussianBlur in="shadowOffsetOuter1" result="shadowBlurOuter1" stdDeviation="2"/><feColorMatrix in="shadowBlurOuter1" values="0 0 0 0 0 0 0 0 0 0 0 0 0 0 0 0 0 0 0.229619565 0"/></filter><path id="aw" d="M218.136 217.18L116.44 324.69 0 334.716V112.418L219.234 0v216.589l-1.098.592z"/><filter id="au" width="163.9%" height="141.8%" x="-31.9%" y="-21.5%" filterUnits="objectBoundingBox"><feGaussianBlur in="SourceGraphic"/></filter><filter id="av" width="196.7%" height="163.3%" x="-48.4%" y="-32.3%" filterUnits="objectBoundingBox"><feOffset dy="-2" in="SourceAlpha" result="shadowOffsetOuter1"/><feGaussianBlur in="shadowOffsetOuter1" result="shadowBlurOuter1" stdDeviation="35"/><feComposite in="shadowBlurOuter1" in2="SourceAlpha" operator="out" result="shadowBlurOuter1"/><feColorMatrix in="shadowBlurOuter1" values="0 0 0 0 0.288655698 0 0 0 0 0.56455189 0 0 0 0 0.886238694 0 0 0 0.238734149 0"/></filter><linearGradient id="ax" x1="57.985%" x2="50.758%" y1="171.258%" y2="-.75%"><stop offset="0%" stop-color="#3023AE"/><stop offset="100%" stop-color="#53A0FD"/></linearGradient><linearGradient id="ay" x1="50%" x2="50%" y1="0%" y2="100%"><stop offset="0%" stop-color="#F5515F"/><stop offset="100%" stop-color="#9F041B"/></linearGradient><radialGradient id="az" cy="39.158%" r="119.787%" fx="50%" fy="39.158%" gradientTransform="matrix(0 .83482 -1 0 .892 -.026)"><stop offset="0%" stop-color="#F2F2F2" stop-opacity=".56"/><stop offset="100%" stop-color="#4B74FF"/></radialGradient><filter id="aA" width="102.6%" height="102.2%" x="-1.3%" y="-1.1%" filterUnits="objectBoundingBox"><feGaussianBlur in="SourceGraphic" stdDeviation="0 0"/></filter><filter id="aB" width="102.6%" height="102.2%" x="-1.3%" y="-1.1%" filterUnits="objectBoundingBox"><feGaussianBlur in="SourceGraphic" stdDeviation="0 0"/></filter><filter id="aC" width="102.6%" height="102.2%" x="-1.3%" y="-1.1%" filterUnits="objectBoundingBox"><feGaussianBlur in="SourceGraphic" stdDeviation="0 0"/></filter><linearGradient id="aD" x1="50%" x2="50%" y1="0%" y2="98.124%"><stop offset="0%" stop-color="#EE5663"/><stop offset="100%" stop-color="#EE667A"/></linearGradient><filter id="aE" width="102.6%" height="102.2%" x="-1.3%" y="-1.1%" filterUnits="objectBoundingBox"><feGaussianBlur in="SourceGraphic" stdDeviation="0 0"/></filter></defs><g fill="none" fill-rule="evenodd"><g filter="url(#a)" transform="translate(277 628)"><path fill="#FFF" d="M51.315 13.59v15.561L25.71 42.273 0 29.15V13.59l25.658 13.121z"/><path fill="url(#b)" d="M25.658 28.85l25.657-13.12V.169l-25.657 13.12z" transform="translate(0 13.423)"/><path fill="#1283E0" d="M25.658 42.273L0 29.15V13.59l25.658 13.121z"/><g transform="translate(14.166 25.813)"><use fill="#1283E0" xlink:href="#c"/><use fill="#000" filter="url(#d)" xlink:href="#c"/><path stroke="#FFF" stroke-linejoin="square" stroke-opacity=".3" stroke-width=".2" d="M9.896 8.556v-2.43a.9.9 0 0 0-.479-.796L.527.617v2.761l9.369 5.178z"/></g><g transform="translate(14.166 25.813)"><use fill="url(#e)" xlink:href="#f"/><use fill="#000" filter="url(#g)" xlink:href="#f"/><path stroke="#FFF" stroke-linejoin="square" stroke-opacity=".15" stroke-width=".2" d="M30.202 5.233l-.06-3.175L13.8 10.694a.9.9 0 0 0-.48.784l-.034 2.63 16.915-8.875z"/></g><g transform="translate(0 13.423)"><use fill="#000" filter="url(#h)" xlink:href="#i"/><use fill="url(#j)" xlink:href="#i"/></g><path fill="url(#k)" d="M0 12.843L25.658 0l25.666 12.823-24.77 12.414a2 2 0 0 1-1.792 0L0 12.843z"/><use fill="#000" filter="url(#l)" xlink:href="#m"/><path fill="#000" d="M17.962 11.72l7.905-4.066a.692.692 0 0 1 .633 0l7.905 4.067a.692.692 0 0 1-.029 1.245l-7.852 3.59a.818.818 0 0 1-.68 0l-7.853-3.59a.692.692 0 0 1-.03-1.245z" filter="url(#n)" opacity=".302"/><path fill="url(#o)" d="M51.324 12.823v1.154L26.556 26.31a2 2 0 0 1-1.787-.002L0 13.913v-1.07l24.762 12.394a2 2 0 0 0 1.791 0l24.771-12.414z"/><use fill="#E5EBFF" xlink:href="#p"/><use fill="#000" filter="url(#q)" xlink:href="#p"/></g><g opacity=".911"><g filter="url(#r)" transform="translate(164 334)"><use fill="#000" filter="url(#s)" xlink:href="#t"/><path fill="url(#u)" fill-opacity=".38" d="M0 0h268L145.435 310.158H134z"/></g><g filter="url(#v)" transform="translate(164 334)"><use fill="#000" filter="url(#w)" xlink:href="#x"/><path fill="url(#u)" fill-opacity=".38" d="M43 92h184.25l-84.263 213.234h-7.862z"/></g></g><g transform="translate(75 267.594)"><use fill="#000" filter="url(#y)" xlink:href="#z"/><use fill="url(#A)" xlink:href="#z"/></g><g transform="translate(75 267.594)"><mask id="C" fill="#fff"><use xlink:href="#B"/></mask><use fill="#FFF" xlink:href="#B"/><g stroke="#9B9B9B" stroke-linecap="square" stroke-width=".2" mask="url(#C)"><path d="M-98.703-182.392l1002.718 510.91M-107.483-165.161l1002.718 510.91M-116.263-147.93L886.455 362.98M-265.518 145.001l1002.717 510.91m-862.241-786.61l1002.717 510.91M-133.822-113.467l1002.718 510.91M-142.602-96.236l1002.718 510.91M-151.382-79.005l1002.718 510.91M-160.161-61.774l1002.717 510.91M-168.941-44.542l1002.718 510.91M-177.72-27.311l1002.717 510.91M-186.5-10.08L816.216 500.83M-195.28 7.151l1002.717 510.91M-204.06 24.382l1002.718 510.91M-212.84 41.614l1002.718 510.91M-221.62 58.845l1002.718 510.91M-230.4 76.076l1002.718 510.91M-239.18 93.307l1002.72 510.91M-247.959 110.539L754.76 621.449M-256.739 127.77L745.98 638.68" opacity=".552"/><path d="M-133.822-113.467l1002.718 510.91M-195.28 7.151l1002.717 510.91M-177.72-27.311l1002.717 510.91" opacity=".1"/><path d="M783.718-266.067L-470.715 373.1M792.521-248.79L-461.912 390.376M801.324-231.513L-453.109 407.653M810.127-214.236L-444.306 424.93M818.93-196.96L-435.504 442.208m1263.237-621.89L-426.7 459.484m1263.236-621.89L-417.898 476.76M845.34-145.129L-409.096 494.037M854.142-127.852L-400.292 511.314M862.945-110.575L-391.489 528.591M871.748-93.298L-382.686 545.868M880.551-76.021L-373.883 563.145M889.354-58.745L-365.08 580.422M898.157-41.468L-356.277 597.698M906.96-24.19L-347.474 614.974M915.763-6.914L-338.67 632.252M924.566 10.363L-329.868 649.529M933.37 27.64L-321.066 666.806" opacity=".3"/><path d="M801.324-231.513L-453.109 407.653M862.945-110.575L-391.489 528.591M845.34-145.129L-409.096 494.037M854.142-127.852L-400.292 511.314" opacity=".1"/></g></g><g filter="url(#D)" transform="translate(427 388)"><path fill="#FFF" d="M51.315 13.59v15.561L25.71 42.273 0 29.15V13.59l25.658 13.121z"/><path fill="url(#b)" d="M25.658 28.85l25.657-13.12V.169l-25.657 13.12z" transform="translate(0 13.423)"/><path fill="#1283E0" d="M25.658 42.273L0 29.15V13.59l25.658 13.121z"/><g transform="translate(14.166 25.813)"><use fill="#1283E0" xlink:href="#E"/><use fill="#000" filter="url(#F)" xlink:href="#E"/><path stroke="#FFF" stroke-linejoin="square" stroke-opacity=".3" stroke-width=".2" d="M9.896 8.556v-2.43a.9.9 0 0 0-.479-.796L.527.617v2.761l9.369 5.178z"/></g><g transform="translate(14.166 25.813)"><use fill="url(#e)" xlink:href="#G"/><use fill="#000" filter="url(#H)" xlink:href="#G"/><path stroke="#FFF" stroke-linejoin="square" stroke-opacity=".15" stroke-width=".2" d="M30.202 5.233l-.06-3.175L13.8 10.694a.9.9 0 0 0-.48.784l-.034 2.63 16.915-8.875z"/></g><g transform="translate(0 13.423)"><use fill="#000" filter="url(#I)" xlink:href="#J"/><use fill="url(#j)" xlink:href="#J"/></g><path fill="url(#k)" d="M0 12.843L25.658 0l25.666 12.823-24.77 12.414a2 2 0 0 1-1.792 0L0 12.843z"/><use fill="#000" filter="url(#K)" xlink:href="#L"/><path fill="#000" d="M17.962 11.72l7.905-4.066a.692.692 0 0 1 .633 0l7.905 4.067a.692.692 0 0 1-.029 1.245l-7.852 3.59a.818.818 0 0 1-.68 0l-7.853-3.59a.692.692 0 0 1-.03-1.245z" filter="url(#M)" opacity=".302"/><path fill="url(#o)" d="M51.324 12.823v1.154L26.556 26.31a2 2 0 0 1-1.787-.002L0 13.913v-1.07l24.762 12.394a2 2 0 0 0 1.791 0l24.771-12.414z"/><use fill="#E5EBFF" xlink:href="#N"/><use fill="#000" filter="url(#O)" xlink:href="#N"/></g><path d="M44.341 17.041c0 .887 6.041 24.372 6.041 26.145 0 1.773-5.552-1.102-6.472 0-.92 1.102-1.295 5.318.431 6.204 1.726.886 15.966 0 18.123-3.545.828-1.36-2.572-11.68-4.315-18.612-.858-3.412-1.864-7.99-3.02-13.737l-9.925-4.43c-.575 4.726-.863 7.385-.863 7.975zm-18.619-4.862s-2.854.985-6.895 3.534c-1.454.916-3.017 1.767-4.31 3.534-1.293 1.767 6.033 13.694 4.31 15.461-1.724 1.767-12.954 3.26-14.223 3.093-1.27-.168-1.284-3.185 0-4.86 1.283-1.674 3.017-1.325 4.74-1.325 1.725 0-8.62-15.903-8.188-17.67.287-1.178 4.453-3.682 12.499-7.51l10.343-5.301 1.724 11.044z" fill="url(#P)" fill-rule="nonzero" transform="scale(-1 1) rotate(-8 2412.923 1540.106)"/><path d="M23.692 41.73c-1.875-1.049-7.677-5.88-10.83-11.046-1.082-1.773-1.963-3.688-2.256-5.302a8.258 8.258 0 0 1 0-3.093c-1.009.168-1.911-.568-2.708-2.21-.334-.688-.635-2.602-.902-5.743-1.51-1.382-2.563-2.266-3.16-2.652-.954-.618-1.804-.441-2.255-.883-.798-.781-1.354-1.368 0-3.093 1.353-1.725 6.678 4.72 7.22 3.976.542-.742-4.567-5.644-4.964-7.07-.397-1.424.054-2.65 2.707-1.325 2.654 1.326 3.154 6.92 4.062 7.512.908.592.902-3.08.902-5.302 0-2.223-2.572-3.615-.902-4.419 1.805-.869 2.432-.869 3.159.884.438 1.057.739 4.003.902 8.837 1.203.294 2.106 0 2.708-.884.902-1.326-.452-2.651.902-3.093 1.354-.442 3.406.767 2.708 3.093-.699 2.326-2.708 3.535-5.415 4.419-2.708.883 1.235 6.84 3.61 10.162 2.374 3.321 6.84 5.915 8.574 7.953 1.156 1.359 2.058 3.126 2.707 5.303-2.406 3.829-4.663 5.154-6.769 3.976zm22.344-1.984c1.201-.285 9.01-2.999 23.427-8.14l3.154 5.998c4.701-.422 8.456-1.421 11.263-2.998 4.21-2.366 9.01-7.283 8.56-8.14-.183-.348-2.325.274-3.154-.856-.808-1.102-1.108-2.815-.9-5.141.652-1.14 1.403-1.854 2.252-2.142 1.273-.432 2.954-.814 4.055 0 1.1.814.398 2.316 0 2.999-.4.682-2.253.119-2.253.857 0 .737-.063 3.128 2.253 1.713 2.315-1.415 2.172-4.348 4.054-5.569 1.883-1.22 3.022-1.188 4.506-.428 1.483.76 1.364 1.713.45 2.142-.914.428-.914-.964-2.703.428-1.79 1.392-3.86 4.03-2.253 4.284 1.607.254 4.388-2.325 6.308-2.142 1.919.182 2.802 1.262 1.802 2.57-.45.588-3.026-.444-4.506 0-.716.215-3.231.305-1.802 2.57.423.67 2.847.388 3.605.857.949.588 1.679 1.325 1.351 2.57-.327 1.246-.825.97-2.252.857-1.428-.113.825-2.007-1.803-1.713-1.017.114-2.902-.131-4.054.428-.832.404-5.186 6.684-10.362 10.281-3.452 2.398-7.957 4.255-13.516 5.57l-15.769 9.424c-9.01-10.567-12.915-15.993-11.713-16.279z" fill="url(#Q)" fill-rule="nonzero" transform="scale(-1 1) rotate(-8 1988.905 1625.883)"/><g fill-rule="nonzero" transform="scale(-1 1) rotate(-8 1515.458 1658.99)"><use fill="#000" filter="url(#R)" xlink:href="#S"/><use fill="#4E4F55" xlink:href="#S"/></g><path fill="url(#T)" fill-rule="nonzero" d="M4.178 77.058L3.27 91.954l31.786 8.512c3.33-13.903 4.693-20.855 4.087-20.855-.605 0-11.352-1.56-32.24-4.681l-2.725 2.128z" transform="scale(-1 1) rotate(-8 1503.661 1471.89)"/><path fill="#4F5056" fill-rule="nonzero" d="M175.706 265.38c.715 1.434 5.5 16.334 4.294 18.387-.804 1.37-2.746 2.134-5.825 2.294l-2.625-11.374-1.935-8.385c3.583-1.571 5.614-1.879 6.09-.923z"/><path fill="#FFFBD3" fill-rule="nonzero" d="M180.067 269.32c.305.61 2.342 6.954 1.828 7.829-.342.583-1.169.908-2.48.976l-1.117-4.843-.824-3.57c1.525-.669 2.39-.8 2.593-.393z"/><path stroke="#505050" stroke-width=".924" d="M174.628 307.74c-.415-.059-6.743-2.041-16.311-1.403-2.85.19-8.444 1.228-16.783 3.116"/><g fill-rule="nonzero" transform="scale(-1 1) rotate(-8 1503.661 1471.89)"><use fill="#000" filter="url(#U)" xlink:href="#V"/><use fill="url(#W)" xlink:href="#V"/></g><path fill="url(#X)" fill-rule="nonzero" d="M71.369 44.78c7.582 4.74 19.072-7.926 9.082 11.887C70.46 76.48 60.98 84.4 39.632 78.975c-5.388-1.37-12.08-6.14-15.205-9.72-9.254-10.6-3.253-31.516 1.986-33.722 4.672-1.967 11.181-1.967 19.527 0 .994 0 16.26 3.514 25.429 9.246z" transform="scale(-1 1) rotate(-8 1503.661 1471.89)"/><path stroke="#505050" stroke-width=".924" d="M167.187 298.69c-.27 3.53-.486 6.242-.645 8.136-.16 1.894-.4 4.601-.723 8.123m-9.731-15.595l-.857 15.886"/><g fill-rule="nonzero" transform="scale(-1 1) rotate(-8 1503.661 1471.89)"><use fill="#4F5056" xlink:href="#Y"/><use fill="#000" filter="url(#Z)" xlink:href="#Y"/></g><g fill-rule="nonzero" transform="scale(-1 1) rotate(-8 1889.075 1200.64)"><use fill="#000" filter="url(#aa)" xlink:href="#ab"/><use fill="#FFFBD3" xlink:href="#ab"/></g><g fill-rule="nonzero" transform="scale(-1 1) rotate(-8 1503.661 1471.89)"><use fill="#4F5056" xlink:href="#ac"/><use fill="#000" filter="url(#ad)" xlink:href="#ac"/></g><g fill-rule="nonzero"><path fill="url(#A)" d="M10.205 41.742c.567 0 8.379-.048 17.829-6.936 5.418-3.95 23.314-20.774 17.829-18.64-3.086 1.2-15.439 5.975-24.515 12.695-7.06 5.226-11.728 12.88-11.143 12.88z" opacity=".99" transform="scale(-1 1) rotate(-8 1495.815 1359.685)"/><path stroke="url(#ae)" stroke-width=".5" d="M10.378 40.881c2.091 0 8.215-4.294 18.37-12.881" transform="scale(-1 1) rotate(-8 1495.815 1359.685)"/><path fill="url(#A)" d="M10.42 41.011c-1.22-.33-6.492-3.585-7.746-7.482-1.756-5.46-1.63-20.245-.815-22.885.53-1.714 3.235 4.625 5.563 10.562 1.26 3.212 3.385 6.383 3.813 7.922 1.218 4.385 2.446 12.763-.815 11.883z" opacity=".99" transform="scale(-1 1) rotate(-8 1495.815 1359.685)"/><path stroke="url(#ae)" stroke-width=".5" d="M10.9 39.478c-2.163-2.26-3.764-4.526-4.803-6.794-1.039-2.27-2.16-5.95-3.362-11.041" transform="scale(-1 1) rotate(-8 1495.815 1359.685)"/><g opacity=".99" transform="scale(-1 1) rotate(-8 1495.815 1359.685)"><use fill="#000" filter="url(#af)" xlink:href="#ag"/><use fill="url(#A)" xlink:href="#ag"/></g><path stroke="url(#ae)" stroke-width=".5" d="M11.368 40.435s-.448-2.68 4.396-10.403c.711-1.134 5.804-7.524 7.297-9.017 2.003-2.004 3.576-4.437 4.72-7.3" transform="scale(-1 1) rotate(-8 1495.815 1359.685)"/></g><g fill-rule="nonzero"><path fill="#F5F2C6" d="M194.956 289.164c-2.36-.259-3.113-.81-4.795-2.132-1.515-1.191-1.949-3.145-1.844-3.94.221-1.68 1.57-1.621 1.623-3.101.053-1.48-1.623-1.938-1.402-3.036.222-1.099 5.102-4.006 5.532-4.587.431-.58-1.032-1.163-.737-1.873.295-.71 1.777-.717 1.991-1.292.215-.575-1.478-.052-.885-1.68.594-1.627 2.267-2.848 2.582-2.971.315-.123-.812 1.644-.59 2.196.222.552 1.124-.522 1.475 0 .35.522-.378 1.29 0 2.196.379.908 1.156-.02 1.402 1.163.245 1.183-.36 2.742-.517 3.1-.156.36-.538-.7-.664-.387-.126.313-.205.973.222 1.486 1.126 1.354 2.655 1.744 3.245 2.907.33.651-.347 1.916-.221 2.39.189.711 1.069.948 1.328 1.421.53.97.465 1.886.59 2.584.185 1.04-.417 1.605-.812 2.197-.263.394-.755.803-1.475 1.227.492-.818.615-1.227.369-1.227-.226 0-1.494 1.473-3.246 2.454-1.109.621-2.913.933-3.171.905z"/><path fill="#F9D850" d="M196.203 287.509c-.065-.059-5.424-.515-5.067-4.378.051-.555.31-1.704 1.213-2.834.507-.634 1.148-.891 1.713-1.867.566-.975.008-1.356.357-1.867.97-1.42 2.57-1.935 2.64-2.125.143-.386-.214 1.867-.214 1.867s.714-1.03.714-.58c0 .12-.112.838.428 1.933.385.779 1.38 1.824 1.713 2.64.258.63.424 1.338.5 2.124l.356-1.288c.449.535.71.965.785 1.288.271 1.173-.033 2.323-.285 2.705-1.591 2.413-4.782 2.446-4.853 2.382z"/><path fill="#F7A643" d="M196.19 286.703c-.087.008-2.616-.358-3.16-2.526-.262-1.048 1.09-4.406 1.293-4.6.203-.195.203 1.621.933.712.303-.377.028-1.565.216-2.202.265-.9.933-1.231.933-1.231s-.122.688.359 1.684c.525 1.088 2.939 2.88 2.8 4.86-.14 1.978-1.077 3.109-3.375 3.303z"/><path fill="#DB4029" d="M196.188 280.962c-.052-.062-.374.82-.551 1.025-.252.29-.345.478-.483.957-.127.437-.064.972-.276 1.025-.276.068-.414-1.401-.552-1.401-.138 0-.52 1.387-.345 2.152.14.615.923 1.162 1.31 1.162.897 0 1.729.044 2.07-.478.759-1.162.002-2.226-.207-2.46-.081-.092-.26.246-.345.54-.138.485-.276 1.031-.483.758-.207-.273.207-2.87-.138-3.28z"/><path fill="#F5F2C6" d="M98.52 298.803c2.36-.258 3.111-.81 4.794-2.132 1.515-1.191 1.949-3.144 1.844-3.94-.221-1.68-1.57-1.62-1.623-3.101-.053-1.48 1.623-1.938 1.402-3.036-.222-1.098-5.102-4.006-5.533-4.587-.43-.58 1.033-1.162.738-1.873-.295-.71-1.778-.717-1.992-1.292-.214-.575 1.48-.052.886-1.68-.594-1.627-2.267-2.848-2.582-2.97-.316-.124.812 1.644.59 2.195-.222.552-1.125-.522-1.475 0-.351.523.378 1.29 0 2.197-.379.907-1.156-.02-1.402 1.163-.245 1.182.36 2.741.517 3.1.156.36.537-.7.663-.387.126.312.206.972-.22 1.485-1.127 1.355-2.656 1.745-3.246 2.907-.331.652.347 1.916.22 2.39-.188.711-1.068.949-1.327 1.422-.53.97-.465 1.885-.59 2.584-.185 1.039.417 1.605.811 2.196.264.394.755.803 1.476 1.227-.492-.818-.615-1.227-.37-1.227.227 0 1.495 1.474 3.246 2.455 1.11.62 2.913.932 3.172.904z"/><path fill="#F9D850" d="M97.272 297.148c.065-.059 5.424-.515 5.067-4.378-.051-.554-.31-1.703-1.213-2.833-.507-.634-1.148-.892-1.713-1.867-.566-.976-.008-1.357-.357-1.868-.97-1.42-2.57-1.935-2.64-2.125-.143-.386.213 1.868.213 1.868s-.713-1.03-.713-.58c0 .119.111.837-.428 1.932-.385.78-1.38 1.824-1.713 2.64a7.487 7.487 0 0 0-.5 2.125l-.357-1.288c-.448.535-.71.964-.785 1.288-.27 1.172.034 2.322.286 2.704 1.591 2.414 4.781 2.447 4.853 2.382z"/><path fill="#F7A643" d="M97.285 296.343c.087.007 2.616-.359 3.16-2.527.262-1.048-1.09-4.406-1.293-4.6-.203-.194-.203 1.622-.933.713-.303-.378-.028-1.565-.216-2.203-.265-.9-.933-1.231-.933-1.231s.122.688-.359 1.684c-.525 1.089-2.94 2.88-2.8 4.86.14 1.979 1.077 3.11 3.374 3.304z"/><path fill="#DB4029" d="M97.286 290.601c.052-.062.375.82.552 1.025.252.291.345.479.483.957.126.437.063.972.276 1.025.276.068.414-1.4.552-1.4.138 0 .52 1.386.345 2.152-.14.615-.923 1.161-1.31 1.161-.898 0-1.73.044-2.07-.478-.76-1.162-.002-2.226.207-2.46.081-.092.26.246.345.541.137.484.275 1.03.482.757.207-.273-.207-2.87.138-3.28z"/></g><path d="M44.341 17.041c0 .887 6.041 24.372 6.041 26.145 0 1.773-5.552-1.102-6.472 0-.92 1.102-1.295 5.318.431 6.204 1.726.886 15.966 0 18.123-3.545.828-1.36-2.572-11.68-4.315-18.612-.858-3.412-1.864-7.99-3.02-13.737l-9.925-4.43c-.575 4.726-.863 7.385-.863 7.975zm-18.619-4.862s-2.854.985-6.895 3.534c-1.454.916-3.017 1.767-4.31 3.534-1.293 1.767 6.033 13.694 4.31 15.461-1.724 1.767-12.954 3.26-14.223 3.093-1.27-.168-1.284-3.185 0-4.86 1.283-1.674 3.017-1.325 4.74-1.325 1.725 0-8.62-15.903-8.188-17.67.287-1.178 4.453-3.682 12.499-7.51l10.343-5.301 1.724 11.044z" fill="url(#P)" fill-rule="nonzero" transform="scale(-1 1) rotate(-8 1991.106 2229.14)"/><path d="M23.692 41.73c-1.875-1.049-7.677-5.88-10.83-11.046-1.082-1.773-1.963-3.688-2.256-5.302a8.258 8.258 0 0 1 0-3.093c-1.009.168-1.911-.568-2.708-2.21-.334-.688-.635-2.602-.902-5.743-1.51-1.382-2.563-2.266-3.16-2.652-.954-.618-1.804-.441-2.255-.883-.798-.781-1.354-1.368 0-3.093 1.353-1.725 6.678 4.72 7.22 3.976.542-.742-4.567-5.644-4.964-7.07-.397-1.424.054-2.65 2.707-1.325 2.654 1.326 3.154 6.92 4.062 7.512.908.592.902-3.08.902-5.302 0-2.223-2.572-3.615-.902-4.419 1.805-.869 2.432-.869 3.159.884.438 1.057.739 4.003.902 8.837 1.203.294 2.106 0 2.708-.884.902-1.326-.452-2.651.902-3.093 1.354-.442 3.406.767 2.708 3.093-.699 2.326-2.708 3.535-5.415 4.419-2.708.883 1.235 6.84 3.61 10.162 2.374 3.321 6.84 5.915 8.574 7.953 1.156 1.359 2.058 3.126 2.707 5.303-2.406 3.829-4.663 5.154-6.769 3.976zm22.344-1.984c1.201-.285 9.01-2.999 23.427-8.14l3.154 5.998c4.701-.422 8.456-1.421 11.263-2.998 4.21-2.366 9.01-7.283 8.56-8.14-.183-.348-2.325.274-3.154-.856-.808-1.102-1.108-2.815-.9-5.141.652-1.14 1.403-1.854 2.252-2.142 1.273-.432 2.954-.814 4.055 0 1.1.814.398 2.316 0 2.999-.4.682-2.253.119-2.253.857 0 .737-.063 3.128 2.253 1.713 2.315-1.415 2.172-4.348 4.054-5.569 1.883-1.22 3.022-1.188 4.506-.428 1.483.76 1.364 1.713.45 2.142-.914.428-.914-.964-2.703.428-1.79 1.392-3.86 4.03-2.253 4.284 1.607.254 4.388-2.325 6.308-2.142 1.919.182 2.802 1.262 1.802 2.57-.45.588-3.026-.444-4.506 0-.716.215-3.231.305-1.802 2.57.423.67 2.847.388 3.605.857.949.588 1.679 1.325 1.351 2.57-.327 1.246-.825.97-2.252.857-1.428-.113.825-2.007-1.803-1.713-1.017.114-2.902-.131-4.054.428-.832.404-5.186 6.684-10.362 10.281-3.452 2.398-7.957 4.255-13.516 5.57l-15.769 9.424c-9.01-10.567-12.915-15.993-11.713-16.279z" fill="url(#Q)" fill-rule="nonzero" transform="scale(-1 1) rotate(-8 1567.088 2314.917)"/><g fill-rule="nonzero" transform="scale(-1 1) rotate(-8 1093.64 2348.023)"><use fill="#000" filter="url(#ah)" xlink:href="#ai"/><use fill="#4E4F55" xlink:href="#ai"/></g><path fill="url(#T)" fill-rule="nonzero" d="M4.178 77.058L3.27 91.954l31.786 8.512c3.33-13.903 4.693-20.855 4.087-20.855-.605 0-11.352-1.56-32.24-4.681l-2.725 2.128z" transform="scale(-1 1) rotate(-8 1081.844 2160.924)"/><path fill="#4F5056" fill-rule="nonzero" d="M275.706 213.38c.715 1.434 5.5 16.334 4.294 18.387-.804 1.37-2.746 2.134-5.825 2.294l-2.625-11.374-1.935-8.385c3.583-1.571 5.614-1.879 6.09-.923z"/><path fill="#FFFBD3" fill-rule="nonzero" d="M280.067 217.32c.305.61 2.342 6.954 1.828 7.829-.342.583-1.169.908-2.48.976l-1.117-4.843-.824-3.57c1.525-.669 2.39-.8 2.593-.393z"/><path stroke="#505050" stroke-width=".924" d="M274.628 255.74c-.415-.059-6.743-2.041-16.311-1.403-2.85.19-8.444 1.228-16.783 3.116"/><g fill-rule="nonzero" transform="scale(-1 1) rotate(-8 1081.844 2160.924)"><use fill="#000" filter="url(#aj)" xlink:href="#ak"/><use fill="url(#W)" xlink:href="#ak"/></g><path fill="url(#X)" fill-rule="nonzero" d="M71.369 44.78c7.582 4.74 19.072-7.926 9.082 11.887C70.46 76.48 60.98 84.4 39.632 78.975c-5.388-1.37-12.08-6.14-15.205-9.72-9.254-10.6-3.253-31.516 1.986-33.722 4.672-1.967 11.181-1.967 19.527 0 .994 0 16.26 3.514 25.429 9.246z" transform="scale(-1 1) rotate(-8 1081.844 2160.924)"/><path stroke="#505050" stroke-width=".924" d="M267.187 246.69c-.27 3.53-.486 6.242-.645 8.136-.16 1.894-.4 4.601-.723 8.123m-9.731-15.595l-.857 15.886"/><g fill-rule="nonzero" transform="scale(-1 1) rotate(-8 1081.844 2160.924)"><use fill="#4F5056" xlink:href="#al"/><use fill="#000" filter="url(#am)" xlink:href="#al"/></g><g fill-rule="nonzero" transform="scale(-1 1) rotate(-8 1467.258 1889.673)"><use fill="#000" filter="url(#an)" xlink:href="#ao"/><use fill="#FFFBD3" xlink:href="#ao"/></g><g fill-rule="nonzero" transform="scale(-1 1) rotate(-8 1081.844 2160.924)"><use fill="#4F5056" xlink:href="#ap"/><use fill="#000" filter="url(#aq)" xlink:href="#ap"/></g><g fill-rule="nonzero"><path fill="url(#ar)" d="M10.205 41.742c.567 0 8.379-.048 17.829-6.936 5.418-3.95 23.314-20.774 17.829-18.64-3.086 1.2-15.439 5.975-24.515 12.695-7.06 5.226-11.728 12.88-11.143 12.88z" opacity=".99" transform="scale(-1 1) rotate(-8 1073.998 2048.718)"/><path stroke="url(#ae)" stroke-linecap="round" stroke-width=".5" d="M10.378 40.881c2.091 0 8.215-4.294 18.37-12.881" transform="scale(-1 1) rotate(-8 1073.998 2048.718)"/><path fill="url(#ar)" d="M10.42 41.011c-1.22-.33-6.492-3.585-7.746-7.482-1.756-5.46-1.63-20.245-.815-22.885.53-1.714 3.235 4.625 5.563 10.562 1.26 3.212 3.385 6.383 3.813 7.922 1.218 4.385 2.446 12.763-.815 11.883z" opacity=".99" transform="scale(-1 1) rotate(-8 1073.998 2048.718)"/><path stroke="url(#ae)" stroke-linecap="round" stroke-width=".5" d="M10.9 39.478c-2.163-2.26-3.764-4.526-4.803-6.794-1.039-2.27-2.16-5.95-3.362-11.041" transform="scale(-1 1) rotate(-8 1073.998 2048.718)"/><g opacity=".99" transform="scale(-1 1) rotate(-8 1073.998 2048.718)"><use fill="#000" filter="url(#as)" xlink:href="#at"/><use fill="url(#ar)" xlink:href="#at"/></g><path stroke="url(#ae)" stroke-width=".5" d="M11.368 40.435s-.448-2.68 4.396-10.403c.711-1.134 5.804-7.524 7.297-9.017 2.003-2.004 3.576-4.437 4.72-7.3" transform="scale(-1 1) rotate(-8 1073.998 2048.718)"/></g><g fill-rule="nonzero"><path fill="#FFFEE4" d="M297.463 236.616c2.36-.258 3.112-.809 4.794-2.131 1.515-1.192 1.95-3.145 1.844-3.94-.221-1.68-1.57-1.622-1.623-3.102-.053-1.48 1.623-1.938 1.402-3.036-.221-1.098-5.101-4.006-5.532-4.586-.431-.58 1.032-1.163.737-1.874-.295-.71-1.777-.716-1.991-1.291-.214-.576 1.479-.053.885-1.68-.594-1.627-2.266-2.849-2.582-2.972-.315-.122.813 1.645.59 2.197-.222.552-1.124-.522-1.475 0-.35.522.379 1.289 0 2.196-.378.907-1.156-.02-1.401 1.163-.246 1.183.36 2.741.516 3.1.156.36.538-.7.664-.387.126.313.205.973-.221 1.486-1.127 1.354-2.656 1.744-3.246 2.907-.33.651.347 1.916.221 2.39-.188.71-1.069.948-1.327 1.42-.531.97-.466 1.886-.59 2.585-.186 1.039.416 1.605.81 2.196.264.394.756.803 1.476 1.228-.492-.819-.615-1.228-.369-1.228.226 0 1.494 1.474 3.246 2.455 1.109.621 2.913.933 3.172.904z"/><path fill="#F6E9AA" d="M296.215 234.962c.065-.06 5.424-.516 5.067-4.379-.051-.554-.31-1.703-1.213-2.833-.507-.634-1.147-.892-1.713-1.867-.565-.975-.007-1.356-.357-1.867-.97-1.42-2.57-1.936-2.64-2.125-.143-.387.214 1.867.214 1.867s-.714-1.03-.714-.58c0 .119.112.838-.428 1.932-.384.78-1.38 1.825-1.713 2.64a7.487 7.487 0 0 0-.5 2.125l-.356-1.288c-.449.535-.71.964-.785 1.288-.271 1.172.033 2.322.285 2.704 1.591 2.414 4.782 2.447 4.853 2.383z"/><path fill="#F3FF4B" d="M296.229 234.156c.087.007 2.615-.358 3.159-2.527.262-1.048-1.09-4.405-1.293-4.6-.203-.194-.203 1.622-.933.713-.303-.377-.027-1.565-.215-2.203-.265-.899-.934-1.23-.934-1.23s.122.688-.359 1.684c-.525 1.088-2.939 2.88-2.8 4.859.14 1.979 1.077 3.11 3.375 3.304z"/><path fill="#9EA012" d="M296.23 228.415c.052-.062.374.82.552 1.025.251.29.345.478.483.956.126.438.063.973.276 1.025.275.069.413-1.4.551-1.4.138 0 .52 1.387.345 2.152-.14.615-.923 1.161-1.31 1.161-.897 0-1.729.045-2.07-.478-.759-1.161-.002-2.225.207-2.46.082-.091.26.246.345.541.138.484.276 1.03.483.758.207-.274-.207-2.87.138-3.28z"/><path fill="#FFFEE4" d="M198.52 246.803c2.36-.258 3.111-.81 4.794-2.132 1.515-1.191 1.949-3.144 1.844-3.94-.221-1.68-1.57-1.62-1.623-3.101-.053-1.48 1.623-1.938 1.402-3.036-.222-1.098-5.102-4.006-5.533-4.587-.43-.58 1.033-1.162.738-1.873-.295-.71-1.778-.717-1.992-1.292-.214-.575 1.48-.052.886-1.68-.594-1.627-2.267-2.848-2.582-2.97-.316-.124.812 1.644.59 2.195-.222.552-1.125-.522-1.475 0-.351.523.378 1.29 0 2.197-.379.907-1.156-.02-1.402 1.163-.245 1.182.36 2.741.517 3.1.156.36.537-.7.663-.387.126.312.206.972-.22 1.485-1.127 1.355-2.656 1.745-3.246 2.907-.331.652.347 1.916.22 2.39-.188.711-1.068.949-1.327 1.422-.53.97-.465 1.885-.59 2.584-.185 1.039.417 1.605.811 2.196.264.394.755.803 1.476 1.227-.492-.818-.615-1.227-.37-1.227.227 0 1.495 1.474 3.246 2.455 1.11.62 2.913.932 3.172.904z"/><path fill="#F6E9AA" d="M197.272 245.148c.065-.059 5.424-.515 5.067-4.378-.051-.554-.31-1.703-1.213-2.833-.507-.634-1.148-.892-1.713-1.867-.566-.976-.008-1.357-.357-1.868-.97-1.42-2.57-1.935-2.64-2.125-.143-.386.213 1.868.213 1.868s-.713-1.03-.713-.58c0 .119.111.837-.428 1.932-.385.78-1.38 1.824-1.713 2.64a7.487 7.487 0 0 0-.5 2.125l-.357-1.288c-.448.535-.71.964-.785 1.288-.27 1.172.034 2.322.286 2.704 1.591 2.414 4.781 2.447 4.853 2.382z"/><path fill="#F3FF4B" d="M197.285 244.343c.087.007 2.616-.359 3.16-2.527.262-1.048-1.09-4.406-1.293-4.6-.203-.194-.203 1.622-.933.713-.303-.378-.028-1.565-.216-2.203-.265-.9-.933-1.231-.933-1.231s.122.688-.359 1.684c-.525 1.089-2.94 2.88-2.8 4.86.14 1.979 1.077 3.11 3.374 3.304z"/><path fill="#9EA012" d="M197.286 238.601c.052-.062.375.82.552 1.025.252.291.345.479.483.957.126.437.063.972.276 1.025.276.068.414-1.4.552-1.4.138 0 .52 1.386.345 2.152-.14.615-.923 1.161-1.31 1.161-.898 0-1.73.044-2.07-.478-.76-1.162-.002-2.226.207-2.46.081-.092.26.246.345.541.137.484.275 1.03.482.757.207-.273-.207-2.87.138-3.28z"/></g><g filter="url(#au)" opacity=".911" transform="translate(331 63)"><use fill="#000" filter="url(#av)" xlink:href="#aw"/><path fill="url(#u)" fill-opacity=".38" d="M218.136 217.18L116.44 324.69 0 334.716V112.418L219.234 0v216.589l-1.098.592z"/></g><path stroke="url(#ax)" stroke-width="1.2" d="M43.375 222.595c1.137 0 12.501-6.23 34.092-18.688v-70.375L93 123" transform="translate(331 63)"/><path stroke="url(#ay)" stroke-width="1.2" d="M178.937 143.944c1.136 0-13.15 8.685-42.859 26.056V99L116 112.951" transform="translate(331 63)"/><path stroke="url(#ax)" stroke-width="1.2" d="M104 286v-70.338l-47 26.563" transform="rotate(180 246 282.33)"/><path fill="url(#az)" stroke="#FFF" stroke-width=".6" d="M13.388 27.06C19.72 23.708 24.363 15.445 23.76 8.605c-.603-6.841-6.226-9.67-12.557-6.317C4.87 5.64.227 13.902.83 20.743c.604 6.84 6.226 9.668 12.557 6.317z" filter="url(#aA)" transform="translate(351 274)"/><path fill="#FFF" d="M360 296.424l3.786-9.725c.009-.84-.234-1.265-.727-1.276-.492-.012-1.143.394-1.95 1.215v-2.1a9.208 9.208 0 0 1 3.097-1.519c1.661-.45 4.3 7.071 4.59 7.413.193.228.594.03 1.204-.59v1.682c-1.477 1.119-2.424 1.49-2.842 1.111-.417-.377-1.136-1.621-2.158-3.73l-2.455 6.272-2.545 1.247z"/><path fill="url(#az)" stroke="#FFF" stroke-width=".6" d="M13.388 27.06C19.72 23.708 24.363 15.445 23.76 8.605c-.603-6.841-6.226-9.67-12.557-6.317C4.87 5.64.227 13.902.83 20.743c.604 6.84 6.226 9.668 12.557 6.317z" filter="url(#aB)" transform="translate(434 301)"/><path fill="#FFF" d="M443 323.424l3.786-9.725c.009-.84-.234-1.265-.727-1.276-.492-.012-1.143.394-1.95 1.215v-2.1a9.208 9.208 0 0 1 3.097-1.519c1.661-.45 4.3 7.071 4.59 7.413.193.228.594.03 1.204-.59v1.682c-1.477 1.119-2.424 1.49-2.842 1.111-.417-.377-1.136-1.621-2.158-3.73l-2.455 6.272-2.545 1.247z"/><path fill="url(#az)" stroke="#FFF" stroke-width=".6" d="M13.388 27.06C19.72 23.708 24.363 15.445 23.76 8.605c-.603-6.841-6.226-9.67-12.557-6.317C4.87 5.64.227 13.902.83 20.743c.604 6.84 6.226 9.668 12.557 6.317z" filter="url(#aC)" transform="translate(510 186)"/><path fill="#FFF" d="M519 208.424l3.786-9.725c.009-.84-.234-1.265-.727-1.276-.492-.012-1.143.394-1.95 1.215v-2.1a9.208 9.208 0 0 1 3.097-1.519c1.661-.45 4.3 7.071 4.59 7.413.193.228.594.03 1.204-.59v1.682c-1.477 1.119-2.424 1.49-2.842 1.111-.417-.377-1.136-1.621-2.158-3.73l-2.455 6.272-2.545 1.247z"/><path fill="url(#aD)" stroke="#FFF" stroke-width=".6" d="M13.388 27.06C19.72 23.708 24.363 15.445 23.76 8.605c-.603-6.841-6.226-9.67-12.557-6.317C4.87 5.64.227 13.902.83 20.743c.604 6.84 6.226 9.668 12.557 6.317z" filter="url(#aE)" transform="translate(423 166)"/><path fill="#FFF" d="M432 188.424l3.786-9.725c.009-.84-.234-1.265-.727-1.276-.492-.012-1.143.394-1.95 1.215v-2.1a9.208 9.208 0 0 1 3.097-1.519c1.661-.45 4.3 7.071 4.59 7.413.193.228.594.03 1.204-.59v1.682c-1.477 1.119-2.424 1.49-2.842 1.111-.417-.377-1.136-1.621-2.158-3.73l-2.455 6.272-2.545 1.247z"/></g></svg>