<svg xmlns="http://www.w3.org/2000/svg" width="26" height="44" viewBox="0 0 26 44">
    <g fill="none" fill-rule="nonzero">
        <path fill="#E4FFE4" d="M11.572 43.442c-4.07-.45-5.366-1.408-8.266-3.71-2.613-2.074-3.36-5.474-3.18-6.86.382-2.923 2.706-2.82 2.798-5.397C3.016 24.898.127 24.1.508 22.19c.382-1.912 8.795-6.974 9.538-7.984.743-1.01-1.78-2.024-1.272-3.261.509-1.237 3.064-1.248 3.434-2.25.369-1-2.55-.09-1.526-2.923C11.705 2.94 14.589.813 15.132.6c.544-.214-1.4 2.863-1.017 3.823s1.939-.909 2.544 0c.604.909-.653 2.244 0 3.823.652 1.58 1.992-.035 2.416 2.024.423 2.059-.621 4.773-.89 5.398-.27.625-.928-1.219-1.145-.675-.217.544-.355 1.693.382 2.586 1.942 2.358 4.578 3.036 5.595 5.06.57 1.134-.598 3.336-.382 4.161.326 1.238 1.843 1.65 2.29 2.474.915 1.688.802 3.282 1.017 4.498.32 1.809-.718 2.794-1.399 3.823-.454.686-1.302 1.398-2.543 2.137.847-1.425 1.06-2.137.635-2.137-.389 0-2.575 2.565-5.595 4.273-1.912 1.081-5.022 1.624-5.468 1.574z"/>
        <path fill="#ACF6AA" d="M13.722 40.562c-.112-.103-9.35-.897-8.735-7.622.088-.964.535-2.965 2.091-4.931.874-1.104 1.978-1.553 2.953-3.25.975-1.699.013-2.362.616-3.251 1.672-2.47 4.431-3.37 4.552-3.699.246-.672-.37 3.25-.37 3.25s1.231-1.793 1.231-1.008c0 .206-.192 1.457.738 3.362.663 1.357 2.379 3.176 2.953 4.596.445 1.098.732 2.33.862 3.698l.615-2.241c.773.93 1.224 1.678 1.353 2.241.467 2.042-.058 4.043-.492 4.708-2.743 4.202-8.244 4.259-8.367 4.147z"/>
        <path fill="#4BFF60" d="M13.699 39.16c-.15.012-4.51-.624-5.446-4.399-.453-1.824 1.878-7.669 2.228-8.007.35-.338.35 2.823 1.609 1.24.523-.656.047-2.724.371-3.834.457-1.565 1.61-2.143 1.61-2.143s-.21 1.199.618 2.933c.906 1.894 5.067 5.013 4.827 8.458-.24 3.445-1.856 5.413-5.817 5.752z"/>
        <path fill="#2FA012" d="M13.697 29.165c-.09-.107-.646 1.428-.951 1.785-.434.506-.595.832-.833 1.665-.217.761-.109 1.692-.476 1.784-.475.12-.713-2.438-.951-2.438s-.896 2.414-.595 3.747c.242 1.07 1.591 2.022 2.26 2.022 1.546 0 2.98.076 3.568-.833 1.308-2.022.003-3.874-.357-4.282-.14-.16-.45.428-.594.942-.238.842-.476 1.794-.833 1.318s.357-4.996-.238-5.71z"/>
    </g>
</svg>
