<svg xmlns="http://www.w3.org/2000/svg" width="57" height="96"><g fill="none"><path fill="#fff" d="M31.68 95.568c8.886-.995 11.716-3.117 18.05-8.211 5.704-4.588 7.337-12.113 6.942-15.178-.833-6.47-5.908-6.243-6.11-11.944-.2-5.7 6.11-7.464 5.277-11.694-.833-4.23-19.205-15.43-20.827-17.667-1.622-2.236 3.887-4.478 2.777-7.216-1.111-2.737-6.692-2.76-7.498-4.976-.806-2.215 5.567-.2 3.332-6.47C31.388 5.945 25.091 1.24 23.903.768c-1.187-.473 3.06 6.335 2.222 8.46-.837 2.125-4.233-2.01-5.553 0-1.32 2.01 1.424 4.966 0 8.46-1.425 3.494-4.352-.077-5.277 4.479-.924 4.555 1.356 10.56 1.944 11.943.588 1.383 2.025-2.697 2.5-1.493.474 1.204.774 3.746-.834 5.723-4.24 5.216-9.997 6.718-12.218 11.197-1.245 2.509 1.306 7.38.833 9.206-.71 2.74-4.024 3.652-4.999 5.474C.523 67.952.77 71.48.3 74.17c-.698 4.003 1.568 6.183 3.054 8.46.992 1.518 2.843 3.094 5.554 4.728-1.85-3.152-2.314-4.728-1.388-4.728.85 0 5.625 5.677 12.218 9.455 4.176 2.393 10.967 3.593 11.941 3.484z"/><path fill="#aabbf6" d="M26.983 89.194c.246-.227 20.42-1.984 19.076-16.865-.193-2.135-1.168-6.56-4.568-10.912-1.908-2.443-4.319-3.436-6.448-7.193-2.129-3.757-.028-5.224-1.343-7.192-3.653-5.467-9.678-7.455-9.941-8.184-.537-1.489.806 7.192.806 7.192s-2.687-3.968-2.687-2.232c0 .456.42 3.224-1.612 7.44-1.447 3.003-5.194 7.028-6.448 10.169-.97 2.429-1.597 5.157-1.88 8.184l-1.344-4.96C8.905 66.7 7.92 68.354 7.638 69.6c-1.02 4.517.127 8.945 1.075 10.417 5.99 9.297 18.002 9.424 18.27 9.176z"/><path fill="#4b74ff" d="M27.034 86.091c.327.028 9.848-1.38 11.893-9.732.988-4.037-4.101-16.97-4.865-17.719-.765-.748-.765 6.247-3.514 2.745-1.141-1.453-.103-6.027-.811-8.484-.998-3.464-3.514-4.742-3.514-4.742s.459 2.652-1.351 6.488C22.894 58.84 13.807 65.741 14.33 73.364c.524 7.623 4.054 11.978 12.703 12.727z"/><path fill="#1232a0" d="M27.038 63.976c.196-.238 1.41 3.159 2.078 3.948.947 1.121 1.299 1.843 1.818 3.685.475 1.685.238 3.745 1.039 3.948 1.039.263 1.558-5.395 2.078-5.395.519 0 1.956 5.343 1.298 8.29-.529 2.37-3.475 4.475-4.934 4.475-3.377 0-6.507.17-7.792-1.842-2.857-4.475-.007-8.573.78-9.476.306-.352.981.948 1.298 2.084.52 1.864 1.039 3.97 1.818 2.917.779-1.053-.78-11.055.52-12.634z"/></g></svg>