<svg xmlns="http://www.w3.org/2000/svg" width="102" height="88"><g fill="none" fill-rule="evenodd" stroke="#000" stroke-width="4.267" opacity=".087"><path d="M13.55 32.844h14.344v17.531H13.55"/><path d="M13.366 13.719h86.246v62.156h-58.88v-7.8H25.226v7.8h-13.27"/><path d="M61.932 31.331h23.174v23.174H61.932zm11.546-7.887v7.237m7.156-7.237v7.237m-14.311-7.237v7.237m26.752 12.197h-7.318m7.318 6.749h-7.318m7.318-13.579h-7.318m-24.395-.163h-7.236m7.236 7.155h-7.236m7.236 6.668h-7.236m19.352 5.448v7.318m7.156-7.318v7.318m-14.311-7.318v7.318M.8 2.563h6.865c2.34 0 4.291 2.054 4.291 4.519v79.95"/></g></svg>