<svg xmlns="http://www.w3.org/2000/svg" xmlns:xlink="http://www.w3.org/1999/xlink" width="90" height="96"><defs><path id="a" d="M0 95.625h89.25V0H0z"/></defs><g fill="none" fill-rule="evenodd" opacity=".087" transform="translate(.175 .188)"><path fill="#000" d="M86.063 84.469c0 .88-.715 1.594-1.594 1.594H4.78c-.88 0-1.593-.715-1.593-1.594V4.78c0-.88.713-1.593 1.593-1.593h79.69c.88 0 1.594.713 1.594 1.593v79.69zm-19.126 7.969H76.5V89.25h-9.563v3.188zm-54.187 0h9.563V89.25H12.75v3.188zM84.469 0H4.78A4.787 4.787 0 0 0 0 4.781V84.47a4.787 4.787 0 0 0 4.781 4.781h4.782v4.781c0 .882.712 1.594 1.593 1.594h12.75c.882 0 1.594-.712 1.594-1.594V89.25h38.25v4.781c0 .882.712 1.594 1.594 1.594h12.75c.881 0 1.594-.712 1.594-1.594V89.25h4.78a4.787 4.787 0 0 0 4.782-4.781V4.78A4.787 4.787 0 0 0 84.469 0z"/><path fill="#000" d="M44.625 35.063c5.274 0 9.563 4.288 9.563 9.562 0 5.274-4.29 9.563-9.563 9.563-5.274 0-9.563-4.29-9.563-9.563 0-5.274 4.29-9.563 9.563-9.563m0 22.313c7.03 0 12.75-5.72 12.75-12.75s-5.72-12.75-12.75-12.75-12.75 5.72-12.75 12.75 5.72 12.75 12.75 12.75"/><path fill="#000" d="M31.102 33.356a1.59 1.59 0 0 0 2.254 0 1.592 1.592 0 0 0 0-2.254l-1.066-1.066a19.027 19.027 0 0 1 10.743-4.454v1.512a1.593 1.593 0 1 0 3.188 0v-1.512a19.032 19.032 0 0 1 10.743 4.454l-1.066 1.066a1.592 1.592 0 0 0 1.127 2.72 1.59 1.59 0 0 0 1.126-.466l1.067-1.066a19.038 19.038 0 0 1 4.454 10.743h-1.516c-.88 0-1.593.713-1.593 1.594 0 .881.712 1.594 1.593 1.594h1.513a19.027 19.027 0 0 1-4.455 10.743l-1.066-1.066a1.592 1.592 0 0 0-2.253 0 1.592 1.592 0 0 0 0 2.253l1.066 1.067a19.027 19.027 0 0 1-10.744 4.454v-1.515a1.592 1.592 0 1 0-3.188 0v1.512a19.027 19.027 0 0 1-10.743-4.454l1.067-1.067a1.592 1.592 0 0 0 0-2.253 1.592 1.592 0 0 0-2.254 0l-1.066 1.066a19.027 19.027 0 0 1-4.455-10.744h1.516a1.592 1.592 0 1 0 0-3.188l-1.513.001a19.027 19.027 0 0 1 4.455-10.743l1.066 1.069zm-2.292-4.451c-4.013 4.035-6.497 9.592-6.497 15.72s2.484 11.686 6.497 15.721c.016.018.021.04.037.056.016.016.038.022.056.037 4.037 4.014 9.594 6.499 15.722 6.499s11.686-2.485 15.72-6.498c.018-.016.04-.02.057-.037.016-.015.022-.038.036-.055 4.015-4.037 6.5-9.595 6.5-15.723s-2.485-11.685-6.498-15.72c-.016-.018-.02-.04-.037-.056-.016-.016-.038-.023-.055-.037-4.037-4.015-9.595-6.5-15.723-6.5s-11.685 2.485-15.72 6.499c-.018.015-.04.02-.056.036-.016.016-.023.04-.039.058z"/><mask id="b" fill="#fff"><use xlink:href="#a"/></mask><path fill="#000" d="M43.031 46.219h3.188V43.03H43.03z" mask="url(#b)"/><path fill="#000" d="M76.5 33.469h3.188V25.5H76.5v7.969zm0 30.283h3.188v-7.97H76.5v7.97zm4.781-41.44h-1.594V12.75A3.19 3.19 0 0 0 76.5 9.562H36.656v3.188H76.5v9.563h-1.594c-.881 0-1.594.712-1.594 1.593v11.157c0 .88.713 1.593 1.594 1.593H76.5v15.938h-1.594c-.881 0-1.594.712-1.594 1.593v11.158c0 .882.713 1.594 1.594 1.594H76.5V76.5H12.75V12.75h14.342V9.562H12.75a3.19 3.19 0 0 0-3.188 3.188V76.5a3.19 3.19 0 0 0 3.188 3.188H76.5a3.19 3.19 0 0 0 3.188-3.188v-9.56h1.593c.882 0 1.594-.713 1.594-1.595V54.188c0-.882-.712-1.594-1.594-1.594h-1.594V36.656h1.594c.882 0 1.594-.712 1.594-1.593V23.905c0-.881-.712-1.593-1.594-1.593z" mask="url(#b)"/><path fill="#000" d="M30.28 12.75h3.189V9.562h-3.19z" mask="url(#b)"/></g></svg>