<svg xmlns="http://www.w3.org/2000/svg" width="77" height="99"><path fill="none" stroke="#111" stroke-linecap="square" stroke-width="6.4" d="M48.362 39.438s4.144-24.445-12.75-35.063A29.962 29.962 0 0 1 24.377 26.05C17.16 32.425 3.594 46.718 3.737 62.005c.118 12.352 6.838 27.46 22.348 32.831a13.692 13.692 0 0 1-.035-.956 23.565 23.565 0 0 1 6.206-15.278 18.93 18.93 0 0 0 5.527-11.848C46.91 71.835 51.55 85.242 51.55 93.211c0 .465 0 .934-.045 1.399a32.812 32.812 0 0 0 22.23-29.774c1.265-15.199-7.07-28.34-12.623-35.28" opacity=".087"/></svg>