<svg xmlns="http://www.w3.org/2000/svg" width="103" height="102"><g fill="#111" opacity=".087" transform="translate(.8)"><path d="M51.2 102.4C22.923 102.4 0 79.477 0 51.2 0 22.923 22.923 0 51.2 0v6.4C26.458 6.4 6.4 26.458 6.4 51.2 6.4 75.942 26.458 96 51.2 96 75.942 96 96 75.942 96 51.2h6.4c-.032 28.264-22.936 51.168-51.2 51.2z"/><circle cx="51.2" cy="51.2" r="9.6"/><path d="M51.2 83.2v-6.4c14.138 0 25.6-11.462 25.6-25.6 0-14.138-11.462-25.6-25.6-25.6-14.138 0-25.6 11.462-25.6 25.6h-6.4c0-17.673 14.327-32 32-32 17.673 0 32 14.327 32 32 0 17.673-14.327 32-32 32zm-10.669-1.82a31.872 31.872 0 0 1-19.52-19.52l6.035-2.132a25.84 25.84 0 0 0 15.607 15.603L40.53 81.38zm54.573-39.14A44.653 44.653 0 0 0 60.16 7.296l1.28-6.275a51.05 51.05 0 0 1 39.936 39.939l-6.272 1.28z"/></g></svg>