<svg xmlns="http://www.w3.org/2000/svg" xmlns:xlink="http://www.w3.org/1999/xlink" width="1440" height="1304"><defs><path id="a" d="M0 0h1440v1306H0z"/><linearGradient id="c" x1="82.422%" x2="14.078%" y1="80.178%" y2="11.255%"><stop offset="0%" stop-color="#09E" stop-opacity="0"/><stop offset="51.073%" stop-color="#09E"/><stop offset="100%" stop-color="#09E" stop-opacity="0"/></linearGradient></defs><g fill="none" fill-rule="evenodd" transform="translate(0 -2)"><mask id="b" fill="#fff"><use xlink:href="#a"/></mask><g stroke-linecap="square" mask="url(#b)" opacity=".4"><path d="M-169.674 274.502l1482.053 755.144M-179.97 294.707l1482.054 755.144M-190.264 314.912l1482.054 755.144M-365.276 658.392l1482.054 755.144M-200.559 335.117l1482.054 755.144m-1492.349-734.94L1271.2 1110.465M-221.148 375.526l1482.053 755.144M-231.443 395.73l1482.053 755.145m-1492.348-734.94l1482.053 755.144M-252.033 436.14l1482.054 755.144M-262.328 456.345l1482.054 755.144M-272.623 476.55l1482.054 755.144m-1492.348-734.94l1482.053 755.144M-293.212 516.959l1482.053 755.144M-303.507 537.164l1482.054 755.144m-1492.349-734.94l1482.054 755.144M-324.097 577.573l1482.054 755.144M-334.391 597.778l1482.053 755.144M-344.686 617.983l1482.053 755.144m-1492.348-734.94l1482.054 755.144M52.526-96.043l1549.84 789.683M42.231-75.838l1549.84 789.682M31.937-55.634l1549.84 789.683M21.642-35.429l1549.84 789.683M11.347-15.224l1549.84 789.682M1.052 4.98l1549.84 789.683M-9.243 25.185l1549.84 789.683M-19.538 45.39l1549.84 789.683M-29.832 65.595l1549.84 789.682M-40.127 85.8l1549.84 789.682M-50.422 106.004l1549.84 789.683M-60.717 126.209l1549.84 789.682M-71.012 146.413l1549.84 789.683M-81.306 166.618l1549.84 789.683M-91.601 186.823l1549.84 789.683M-101.896 207.028l1549.84 789.682M-112.19 227.232l1549.839 789.683M-122.486 247.437l1549.84 789.683M-132.78 267.642l1549.84 789.682M431.438-360.978L1602.44 235.678M421.143-340.773l1171.003 596.655M410.848-320.569L1581.85 276.087M400.553-300.364l1171.003 596.656M390.258-280.16l1171.003 596.657M379.963-259.955l1171.004 596.656M369.669-239.75l1171.003 596.656M359.374-219.545L1530.377 377.11M349.079-199.34l1171.003 596.655M338.784-179.136L1509.787 417.52M328.49-158.931l1171.002 596.656M318.195-138.726L1489.198 457.93M307.9-118.522l1171.003 596.656M297.605-98.317L1468.608 498.34M287.31-78.112l1171.003 596.656M277.015-57.907l1171.003 596.655M266.72-37.703l1171.004 596.656M256.426-17.498l1171.003 596.656M431.438-793.978L1602.44-197.322M421.143-773.773l1171.003 596.655M410.848-753.569L1581.85-156.913M400.553-733.364l1171.003 596.656M390.258-713.16l1171.003 596.657M379.963-692.955L1550.967-96.299M369.669-672.75L1540.672-76.094M359.374-652.545L1530.377-55.89M349.079-632.34L1520.082-35.685M338.784-612.136L1509.787-15.48M328.49-591.931L1499.491 4.725M318.195-571.726L1489.198 24.93M307.9-551.522L1478.903 45.134M297.605-531.317L1468.608 65.34M287.31-511.112L1458.313 85.544M277.015-490.907l1171.003 596.655M266.72-470.703l1171.004 596.656m226.808 199.443L193.628 1074.86m1481.184-729.287L203.909 1095.035m1481.183-729.286L214.19 1115.212m1481.183-729.287L224.469 1135.388m1481.184-729.286L234.75 1155.564m1481.183-729.286L245.03 1175.741m1481.184-729.286L255.31 1195.917m1481.184-729.286L265.591 1216.094m1481.184-729.287L275.87 1236.27m1481.185-729.286L286.152 1256.446M1767.335 527.16L296.432 1276.623m1481.184-729.286L306.713 1296.799m1481.183-729.286L316.993 1316.976M1798.177 587.69L327.273 1337.151m1481.184-729.285L337.554 1357.328m1481.183-729.286L347.834 1377.505m1481.184-729.286L358.114 1397.68m1481.184-729.285L368.395 1417.858M1380.728 37.467l-1623.746 827.34M1391.008 57.643l-1623.746 827.34M1401.289 77.82L-222.458 905.16M1411.57 97.996l-1623.747 827.34M1421.85 118.172l-1623.747 827.34M1432.13 138.349l-1623.747 827.34M1442.41 158.525l-1623.746 827.34M1452.69 178.702l-1623.746 827.34m1634.027-807.164l-1623.746 827.34m1634.026-807.164l-1623.746 827.34M1483.532 239.23l-1623.747 827.341m1634.027-807.164l-1623.746 827.34m1634.027-807.163l-1623.747 827.34M1514.373 299.76L-109.373 1127.1m1634.026-807.164l-1623.746 827.34m1634.027-807.163l-1623.747 827.34M1545.214 360.29L-78.532 1187.63m1459.26-1557.163l-1623.746 827.34m1634.026-807.164l-1623.746 827.34M1401.289-329.18L-222.458 498.16M1411.57-309.004l-1623.747 827.34M1421.85-288.828l-1623.747 827.34M1432.13-268.651l-1623.747 827.34M1442.41-248.475l-1623.746 827.34M1452.69-228.298l-1623.746 827.34m1634.027-807.164l-1623.746 827.34m1634.026-807.164l-1623.746 827.34M1483.532-167.77L-140.215 659.572m1634.027-807.165l-1623.746 827.34m1634.027-807.163l-1623.747 827.34M1514.373-107.24L-109.373 720.1M1524.653-87.064L-99.093 740.276M1534.934-66.887L-88.813 760.453M1380.728-750.533L-243.018 76.807m1634.026-807.164L-232.738 96.983M1401.289-710.18L-222.458 117.16M1411.57-690.004l-1623.747 827.34M1421.85-669.828l-1623.747 827.34M1432.13-649.651l-1623.747 827.34M1442.41-629.475l-1623.746 827.34M1452.69-609.298l-1623.746 827.34m1634.027-807.164l-1623.746 827.34m1634.026-807.164l-1623.746 827.34M1483.532-548.77L-140.215 278.572m1634.027-807.165l-1623.746 827.34m1634.027-807.163l-1623.747 827.34M1514.373-488.24L-109.373 339.1m1634.026-807.164L-99.093 359.276" stroke="#9B9B9B" stroke-width=".2"/><path d="M370.793 168.426l1549.84 789.683M602.793 108.426l1549.84 789.683M64 266l1549.84 789.683m190.298-968.166L180.39 914.857M1624.138.517L.39 827.857m2383.748-655.34L760.39 999.857m1623.748-623.34L760.39 1203.857" stroke="url(#c)" stroke-width=".6" transform="translate(-410 -387)"/></g></g></svg>