<svg xmlns="http://www.w3.org/2000/svg" xmlns:xlink="http://www.w3.org/1999/xlink" width="71" height="92"><defs><linearGradient id="a" x1="86.613%" x2="20.219%" y1="25.334%" y2="100%"><stop offset="0%" stop-color="#CBCBCB"/><stop offset="97.665%" stop-color="#FFFBD3"/></linearGradient><linearGradient id="d" x1="7.273%" y1="100%" y2="13.513%"><stop offset="0%" stop-color="#C8C8C8"/><stop offset="100%" stop-color="#F1F1F1"/></linearGradient><path id="c" d="M53.893 35.519c5.798 3.705 14.585-6.196 6.945 9.294-7.64 15.49-19.65 26.112-27.432 32.7-2.753 2.33-7.154 3.197-10.765 4.475-2.13.755-5.256 1.787-9.376 3.098-5.093 0-8.218-.344-9.376-1.032C2.153 83.02.764 72.694 1.46 72.35c.463-.23 7.523 1.033 21.182 3.787.698 1.286 1.277 1.974 1.736 2.065.46.091 1.038-.368 1.736-1.377.695-7.114.695-11.13 0-12.048-1.041-1.377-9.923-3.14-13.542-3.786-6.483-1.156-10.07-.444-10.07-1.033 0-1.377 2.429-14.225 5.555-20.309 3.127-6.084 6.1-9.052 11.46-11.36 3.572-1.537 8.55-1.537 14.931 0 .76 0 12.435 2.748 19.446 7.23z"/><filter id="b" width="122.4%" height="124.2%" x="-11.2%" y="-8.6%" filterUnits="objectBoundingBox"><feOffset dy="2" in="SourceAlpha" result="shadowOffsetOuter1"/><feGaussianBlur in="shadowOffsetOuter1" result="shadowBlurOuter1" stdDeviation="2"/><feColorMatrix in="shadowBlurOuter1" values="0 0 0 0 0 0 0 0 0 0 0 0 0 0 0 0 0 0 0.5 0"/></filter><linearGradient id="e" x1="7.273%" y1="100%" y2="13.513%"><stop offset="0%" stop-color="#C8C8C8"/><stop offset="97.419%" stop-color="#B6B6B6"/></linearGradient><ellipse id="f" cx="28.875" cy="47.2" rx="9.047" ry="8.953"/><filter id="g" width="116.6%" height="116.8%" x="-8.3%" y="-8.4%" filterUnits="objectBoundingBox"><feGaussianBlur in="SourceAlpha" result="shadowBlurInner1" stdDeviation="1"/><feOffset dy="1" in="shadowBlurInner1" result="shadowOffsetInner1"/><feComposite in="shadowOffsetInner1" in2="SourceAlpha" k2="-1" k3="1" operator="arithmetic" result="shadowInnerInner1"/><feColorMatrix in="shadowInnerInner1" values="0 0 0 0 0 0 0 0 0 0 0 0 0 0 0 0 0 0 0.5 0"/></filter><ellipse id="i" cx="2.482" cy="2.81" rx="2.36" ry="2.336"/><filter id="h" width="269.5%" height="271.3%" x="-84.7%" y="-42.8%" filterUnits="objectBoundingBox"><feOffset dy="2" in="SourceAlpha" result="shadowOffsetOuter1"/><feGaussianBlur in="shadowOffsetOuter1" result="shadowBlurOuter1" stdDeviation="1"/><feColorMatrix in="shadowBlurOuter1" values="0 0 0 0 0 0 0 0 0 0 0 0 0 0 0 0 0 0 0.5 0"/></filter><path id="j" d="M11.737 46.81c-4.046 4.579-6.069 7.11-6.069 7.591 0 .723 6.069 2.53 7.418 2.53.899 0 .45-3.373-1.349-10.12z"/><filter id="k" width="138.1%" height="129.6%" x="-19.1%" y="-14.8%" filterUnits="objectBoundingBox"><feGaussianBlur in="SourceAlpha" result="shadowBlurInner1" stdDeviation="1"/><feOffset dy="1" in="shadowBlurInner1" result="shadowOffsetInner1"/><feComposite in="shadowOffsetInner1" in2="SourceAlpha" k2="-1" k3="1" operator="arithmetic" result="shadowInnerInner1"/><feColorMatrix in="shadowInnerInner1" values="0 0 0 0 0 0 0 0 0 0 0 0 0 0 0 0 0 0 0.5 0"/></filter><linearGradient id="l" x1="50%" x2="50%" y1="0%" y2="100%"><stop offset="0%" stop-color="#EE5663"/><stop offset="98.124%" stop-color="#EE667A"/></linearGradient><linearGradient id="m" x1="80.868%" x2="51.177%" y1="85.668%" y2="99.454%"><stop offset="0%" stop-color="#FDFEFF"/><stop offset="100%" stop-color="#F7B0B0" stop-opacity=".425"/></linearGradient><linearGradient id="p" x1="50%" x2="50%" y1="0%" y2="98.124%"><stop offset="0%" stop-color="#EE5663"/><stop offset="100%" stop-color="#EE667A"/></linearGradient><path id="o" d="M7.571 32.764c0-1.03-2.863-5.436 4.728-17.354C13.933 12.845 18.998 7.742 27.495.1c-.29 5.899-1.529 10.662-3.714 14.29C19.666 21.22 7.57 33.522 7.57 32.765z"/><filter id="n" width="168.4%" height="142.8%" x="-34.2%" y="-15.3%" filterUnits="objectBoundingBox"><feOffset dy="2" in="SourceAlpha" result="shadowOffsetOuter1"/><feGaussianBlur in="shadowOffsetOuter1" result="shadowBlurOuter1" stdDeviation="2"/><feColorMatrix in="shadowBlurOuter1" values="0 0 0 0 0 0 0 0 0 0 0 0 0 0 0 0 0 0 0.229619565 0"/></filter></defs><g fill="none" fill-rule="evenodd"><path fill="url(#a)" fill-rule="nonzero" d="M3.195 60.245L2.5 71.891l24.308 6.655c2.546-10.87 3.588-16.304 3.125-16.304-.463 0-8.681-1.22-24.655-3.66l-2.083 1.663z" transform="matrix(-1 0 0 1 68 1)"/><path fill="#4F5056" fill-rule="nonzero" d="M61.46 34.93c.695 1.032 5.904 12.047 5.21 13.768-.464 1.148-1.853 1.951-4.168 2.41l-3.198-8.52-2.358-6.282c2.547-1.606 4.052-2.065 4.515-1.376z"/><path fill="#FFFBD3" fill-rule="nonzero" d="M65.183 37.505c.295.44 2.513 5.13 2.217 5.863-.197.489-.788.83-1.774 1.026l-1.362-3.628-1.004-2.674c1.085-.684 1.725-.88 1.923-.587z"/><path stroke="#505050" stroke-width=".924" d="M65.152 67.843c-.32 0-5.323-.847-12.5.688-2.138.457-6.264 1.87-12.378 4.239"/><g fill-rule="nonzero" transform="matrix(-1 0 0 1 68 1)"><use fill="#000" filter="url(#b)" xlink:href="#c"/><use fill="url(#d)" xlink:href="#c"/></g><path fill="url(#e)" fill-rule="nonzero" d="M54.576 35.01c5.798 3.705 14.585-6.197 6.945 9.293-7.64 15.49-14.888 21.684-31.214 17.44-4.12-1.07-9.238-4.8-11.627-7.598-7.077-8.288-2.488-24.64 1.518-26.364 3.573-1.538 8.55-1.538 14.932 0 .76 0 12.435 2.747 19.446 7.228z" transform="matrix(-1 0 0 1 68 1)"/><path stroke="#505050" stroke-width=".924" d="M58.555 61.647c.17 2.761.296 4.884.377 6.368.081 1.483.187 3.606.317 6.368M50.22 63.368l1.042 12.392"/><g fill-rule="nonzero" transform="matrix(-1 0 0 1 68 1)"><use fill="#4F5056" xlink:href="#f"/><use fill="#000" filter="url(#g)" xlink:href="#f"/></g><g fill-rule="nonzero" transform="matrix(-1 0 0 1 42 45)"><use fill="#000" filter="url(#h)" xlink:href="#i"/><use fill="#FFFBD3" xlink:href="#i"/></g><g fill-rule="nonzero" transform="matrix(-1 0 0 1 68 1)"><use fill="#4F5056" xlink:href="#j"/><use fill="#000" filter="url(#k)" xlink:href="#j"/></g><g fill-rule="nonzero"><path fill="url(#l)" d="M7.867 32.797c.436 0 6.458-.037 13.742-5.45 4.177-3.102 17.972-16.322 13.743-14.645-2.378.943-11.9 4.694-18.896 9.974-5.442 4.107-9.04 10.121-8.59 10.121z" opacity=".99" transform="matrix(-1 0 0 1 56 1)"/><path stroke="url(#m)" stroke-linecap="round" stroke-width=".5" d="M8 32.12c1.612 0 6.332-3.373 14.16-10.12" transform="matrix(-1 0 0 1 56 1)"/><path fill="url(#l)" d="M8.032 32.223c-.94-.259-5.004-2.817-5.97-5.879C.708 22.054.805 10.438 1.433 8.363c.408-1.347 2.494 3.634 4.288 8.299.971 2.523 2.61 5.015 2.94 6.224.938 3.445 1.885 10.029-.63 9.337z" opacity=".99" transform="matrix(-1 0 0 1 56 1)"/><path stroke="url(#m)" stroke-linecap="round" stroke-width=".5" d="M8.402 31.018C6.734 29.242 5.5 27.463 4.7 25.68c-.8-1.783-1.665-4.674-2.592-8.675" transform="matrix(-1 0 0 1 56 1)"/><g opacity=".99" transform="matrix(-1 0 0 1 56 1)"><use fill="#000" filter="url(#n)" xlink:href="#o"/><use fill="url(#p)" xlink:href="#o"/></g><path stroke="url(#m)" stroke-width=".5" d="M8.763 31.77s-.346-2.105 3.389-8.173c.548-.891 4.474-5.912 5.624-7.085 1.544-1.574 2.757-3.486 3.64-5.735" transform="matrix(-1 0 0 1 56 1)"/></g></g></svg>