<svg xmlns="http://www.w3.org/2000/svg" width="205" height="248"><defs><linearGradient id="a" x1="-95.949%" x2="51.98%" y1="0%" y2="102.386%"><stop offset="0%" stop-color="#0C054A"/><stop offset="44.601%" stop-color="#017A8B"/><stop offset="98.083%" stop-color="#0C054B"/></linearGradient><linearGradient id="b" x1="-95.949%" x2="51.98%" y1="0%" y2="102.386%"><stop offset="0%" stop-color="#170D62"/><stop offset="44.601%" stop-color="#017A8B"/><stop offset="100%" stop-color="#00E2AC"/></linearGradient></defs><g fill="none"><path fill="url(#a)" d="M0 0v164.403c34.076-3.2 52.483-3.2 55.22 0 4.106 4.802-35.14 23.487-35.14 23.487s14.017 18.69 45.18 46.972c6.315 5.732 18.308 14.679 35.977 26.841 5.33-6.59 8.956-12.182 10.876-16.775 1.676-4.007 3.907-11.277 6.694-21.81-.32 11.839-.877 20.227-1.674 25.165-1.417 8.788-6.23 18.917-5.02 20.13 2.231 2.238 30.12 16.777 83.667 43.618l3.347-53.683-33.467-23.486c22.311 2.237 33.467 2.237 33.467 0 0-3.355 0-41.94-3.347-48.65-2.231-4.474-12.271-10.065-30.12-16.776l26.773-1.677-23.426-55.36-80.32-20.132c19.892 3.83 33.278 6.068 40.16 6.71 22.497 2.103 33.466 3.356 36.813 0 2.231-2.236-6.693-15.657-26.773-40.261-38.487-1.119-53.547-1.678-45.18-1.678l18.406-20.131L66.933 0H0z" transform="rotate(84 134.054 171.222)"/><path fill="url(#b)" d="M0 0v164.403c34.076-3.2 52.483-3.2 55.22 0 4.106 4.802-35.14 23.487-35.14 23.487s14.017 18.69 45.18 46.972c6.315 5.732 18.308 14.679 35.977 26.841 5.33-6.59 8.956-12.182 10.876-16.775 1.676-4.007 3.907-11.277 6.694-21.81-.32 11.839-.877 20.227-1.674 25.165-1.417 8.788-6.23 18.917-5.02 20.13 2.231 2.238 30.12 16.777 83.667 43.618l3.347-53.683-33.467-23.486c22.311 2.237 33.467 2.237 33.467 0 0-3.355 0-41.94-3.347-48.65-2.231-4.474-12.271-10.065-30.12-16.776l26.773-1.677-23.426-55.36-80.32-20.132c19.892 3.83 33.278 6.068 40.16 6.71 22.497 2.103 33.466 3.356 36.813 0 2.231-2.236-6.693-15.657-26.773-40.261-38.487-1.119-53.547-1.678-45.18-1.678l18.406-20.131L66.933 0H0z" transform="rotate(84 153.613 160.554)"/><path stroke="#E5E5E5" stroke-width=".5" d="M296.068-7.57c-1.331 2.53-44.442 48.484-140.8 122.587-26.318 20.239-75.681 54.058-148.089 101.458"/></g></svg>