<svg xmlns="http://www.w3.org/2000/svg" width="305" height="258"><defs><linearGradient id="a" x1="-95.949%" x2="51.98%" y1="0%" y2="102.386%"><stop offset="0%" stop-color="#0C054A"/><stop offset="44.601%" stop-color="#017A8B"/><stop offset="98.083%" stop-color="#0C054B"/></linearGradient><linearGradient id="b" x1="-95.949%" x2="51.98%" y1="0%" y2="102.386%"><stop offset="0%" stop-color="#170D62"/><stop offset="44.601%" stop-color="#017A8B"/><stop offset="100%" stop-color="#00E2AC"/></linearGradient></defs><g fill="none"><path fill="url(#a)" d="M0 0v164.403c34.226-3.2 52.713-3.2 55.462 0 4.124 4.802-35.294 23.487-35.294 23.487s14.078 18.69 45.378 46.972c6.343 5.732 18.388 14.679 36.135 26.841 5.353-6.59 8.995-12.182 10.924-16.775 1.683-4.007 3.924-11.277 6.723-21.81-.32 11.839-.881 20.227-1.68 25.165-1.424 8.788-6.259 18.917-5.043 20.13 2.24 2.238 30.252 16.777 84.034 43.618L200 258.348l-33.613-23.486c22.409 2.237 33.613 2.237 33.613 0 0-3.355 0-41.94-3.361-48.65-2.241-4.474-12.325-10.065-30.252-16.776l26.89-1.677-23.53-55.36-80.671-20.132c19.979 3.83 33.424 6.068 40.336 6.71 22.596 2.103 33.613 3.356 36.975 0 2.24-2.236-6.723-15.657-26.891-40.261-38.656-1.119-53.782-1.678-45.378-1.678l18.487-20.131L67.227 0H0z" transform="scale(-1 1) rotate(84 -23.589 6.33)"/><path fill="url(#b)" d="M0 0v164.403c34.226-3.2 52.713-3.2 55.462 0 4.124 4.802-35.294 23.487-35.294 23.487s14.078 18.69 45.378 46.972c6.343 5.732 18.388 14.679 36.135 26.841 5.353-6.59 8.995-12.182 10.924-16.775 1.683-4.007 3.924-11.277 6.723-21.81-.32 11.839-.881 20.227-1.68 25.165-1.424 8.788-6.259 18.917-5.043 20.13 2.24 2.238 30.252 16.777 84.034 43.618L200 258.348l-33.613-23.486c22.409 2.237 33.613 2.237 33.613 0 0-3.355 0-41.94-3.361-48.65-2.241-4.474-12.325-10.065-30.252-16.776l26.89-1.677-23.53-55.36-80.671-20.132c19.979 3.83 33.424 6.068 40.336 6.71 22.596 2.103 33.613 3.356 36.975 0 2.24-2.236-6.723-15.657-26.891-40.261-38.656-1.119-53.782-1.678-45.378-1.678l18.487-20.131L67.227 0H0z" transform="scale(-1 1) rotate(84 -3.969 -4.407)"/><path stroke="#E5E5E5" stroke-width=".5" d="M9.099 1.436C10.429 3.976 53.52 50.11 149.85 124.49c26.31 20.315 75.659 54.258 148.049 101.83"/></g></svg>