<svg xmlns="http://www.w3.org/2000/svg" xmlns:xlink="http://www.w3.org/1999/xlink" width="331" height="926"><defs><linearGradient id="a" x1="50%" x2="50%" y1="0%" y2="100%"><stop offset="0%" stop-color="#AF9F87"/><stop offset="100%" stop-color="#E2D2BB"/></linearGradient><linearGradient id="b" x1="50%" x2="50%" y1="0%" y2="100%"><stop offset="0%" stop-color="#D5C2A4"/><stop offset="100%" stop-color="#E2D2BB"/></linearGradient><path id="d" d="M115.497 553.243c-18.196 30.223-20.811 64.527-27.749 76.05-6.826 11.338-18.596 27.775-36.998 43.786-11.621 10.11-42.206 22.635-43.936 29.959-1.729 7.324 34.686 0 34.686 9.218s-36.415 9.218-34.686 13.827c.632 1.683 50.952 14.447 80.934 11.523 24.775-2.416 60.123-20.74 69.372-25.35 6.167-3.073 6.167 28.423 0 94.487 9.182.868 19.974-2.205 32.374-9.219 12.4-7.014 28.587-20.073 48.56-39.177l18.5 48.396s8.043-6.263 16.186-18.437c3.41-5.096 8.805-15.083 16.187-29.959 16.03 13.867 29.904 23.854 41.623 29.96 17.58 9.157 55.6 30.946 64.748 23.045 3.812-3.293-9.716-10.063-18.5-23.046-5.268-7.787-13.874-18.436-11.562-34.568 1.021-7.121 9.333 12.865 34.686 13.827 12.936.491 53.186-13.827 53.186-18.436 0-4.61-53.819-9.047-73.997-46.091-20.178-37.044-10.691-101.405-13.875-115.227-3.183-13.823-12.662-2.083-18.499-25.35-5.836-23.267 1.601-43.153 0-48.396-1.6-5.243-5.783-9.052-16.187-4.609-10.403 4.444-11.808 6.593-16.186 18.437-4.379 11.843 9.599-12.917 0 25.35-9.6 38.266-21.022 70.05-25.437 76.05-4.415 6 2.313-41.482-4.625-41.482-4.624 0-17.728 2.304-39.31 6.913l18.499-20.74c-13.94-4.207-23.19-8.048-27.749-11.523-6.84-5.213-16.187-9.218-11.562-18.437 3.083-6.145-23.124-9.218-78.622-9.218-15.21 4.27-25.231 10.415-30.06 18.437z"/><filter id="c" width="100.4%" height="101.3%" x="-.2%" y="-.3%" filterUnits="objectBoundingBox"><feOffset dy="2" in="SourceAlpha" result="shadowOffsetOuter1"/><feColorMatrix in="shadowOffsetOuter1" values="0 0 0 0 0.229963861 0 0 0 0 0.229963861 0 0 0 0 0.229963861 0 0 0 0.746744792 0"/></filter><linearGradient id="e" x1="86.613%" x2="20.219%" y1="25.334%" y2="100%"><stop offset="0%" stop-color="#CBCBCB"/><stop offset="97.665%" stop-color="#FFFBD3"/></linearGradient><linearGradient id="h" x1="7.273%" y1="100%" y2="13.513%"><stop offset="0%" stop-color="#C8C8C8"/><stop offset="100%" stop-color="#F1F1F1"/></linearGradient><path id="g" d="M363.987 240.37c39.158 25.078 98.502-41.931 46.906 62.896S278.176 479.984 225.616 524.568c-18.59 15.77-48.314 21.63-72.703 30.284-14.388 5.105-35.496 12.093-63.323 20.965-34.397 0-55.505-2.33-63.322-6.988C14.54 561.84 5.16 491.955 9.85 489.626c3.127-1.553 50.814 6.988 143.062 25.624 4.717 8.702 8.625 13.361 11.726 13.977 3.1.616 7.01-2.49 11.726-9.318 4.69-48.143 4.69-75.32 0-81.532-7.036-9.318-67.02-21.257-91.465-25.625-43.782-7.823-68.013-3.002-68.013-6.988 0-9.318 16.407-96.268 37.524-137.44 21.117-41.173 41.2-61.264 77.394-76.874 24.13-10.407 57.745-10.407 100.847 0 5.135 0 83.98 18.592 131.335 48.92z"/><filter id="f" width="103.3%" height="103.6%" x="-1.7%" y="-1.3%" filterUnits="objectBoundingBox"><feOffset dy="2" in="SourceAlpha" result="shadowOffsetOuter1"/><feGaussianBlur in="shadowOffsetOuter1" result="shadowBlurOuter1" stdDeviation="2"/><feColorMatrix in="shadowBlurOuter1" values="0 0 0 0 0 0 0 0 0 0 0 0 0 0 0 0 0 0 0.5 0"/></filter><linearGradient id="i" x1="7.273%" y1="100%" y2="13.513%"><stop offset="0%" stop-color="#C8C8C8"/><stop offset="97.419%" stop-color="#B6B6B6"/></linearGradient><ellipse id="j" cx="195.018" cy="319.422" rx="61.1" ry="60.589"/><filter id="k" width="102.5%" height="102.5%" x="-1.2%" y="-1.2%" filterUnits="objectBoundingBox"><feGaussianBlur in="SourceAlpha" result="shadowBlurInner1" stdDeviation="1"/><feOffset dy="1" in="shadowBlurInner1" result="shadowOffsetInner1"/><feComposite in="shadowOffsetInner1" in2="SourceAlpha" k2="-1" k3="1" operator="arithmetic" result="shadowInnerInner1"/><feColorMatrix in="shadowInnerInner1" values="0 0 0 0 0 0 0 0 0 0 0 0 0 0 0 0 0 0 0.5 0"/></filter><ellipse id="m" cx="16.876" cy="19.205" rx="16.048" ry="15.96"/><filter id="l" width="124.9%" height="125.1%" x="-12.5%" y="-6.3%" filterUnits="objectBoundingBox"><feOffset dy="2" in="SourceAlpha" result="shadowOffsetOuter1"/><feGaussianBlur in="shadowOffsetOuter1" result="shadowBlurOuter1" stdDeviation="1"/><feColorMatrix in="shadowBlurOuter1" values="0 0 0 0 0 0 0 0 0 0 0 0 0 0 0 0 0 0 0.5 0"/></filter><path id="n" d="M79.27 316.787c-27.324 30.985-40.986 48.108-40.986 51.37 0 4.892 40.986 17.123 50.094 17.123 6.072 0 3.036-22.831-9.108-68.493z"/><filter id="o" width="105.6%" height="104.4%" x="-2.8%" y="-2.2%" filterUnits="objectBoundingBox"><feGaussianBlur in="SourceAlpha" result="shadowBlurInner1" stdDeviation="1"/><feOffset dy="1" in="shadowBlurInner1" result="shadowOffsetInner1"/><feComposite in="shadowOffsetInner1" in2="SourceAlpha" k2="-1" k3="1" operator="arithmetic" result="shadowInnerInner1"/><feColorMatrix in="shadowInnerInner1" values="0 0 0 0 0 0 0 0 0 0 0 0 0 0 0 0 0 0 0.5 0"/></filter><linearGradient id="p" x1="50%" x2="50%" y1="95.202%" y2="3.57%"><stop offset="0%" stop-color="#51ECCC"/><stop offset="100%" stop-color="#7AC65B"/></linearGradient><linearGradient id="q" x1="80.868%" x2="51.177%" y1="85.668%" y2="99.454%"><stop offset="0%" stop-color="#FDFEFF"/><stop offset="100%" stop-color="#F7B0B0" stop-opacity=".425"/></linearGradient><path id="s" d="M51.156 221.402c0-6.952-19.344-36.729 31.944-117.265C94.14 86.804 128.365 52.314 185.778.667 183.812 40.53 175.446 72.72 160.68 97.24 132.88 143.4 51.156 226.521 51.156 221.402z"/><filter id="r" width="110.1%" height="106.3%" x="-5.1%" y="-2.3%" filterUnits="objectBoundingBox"><feOffset dy="2" in="SourceAlpha" result="shadowOffsetOuter1"/><feGaussianBlur in="shadowOffsetOuter1" result="shadowBlurOuter1" stdDeviation="2"/><feColorMatrix in="shadowBlurOuter1" values="0 0 0 0 0 0 0 0 0 0 0 0 0 0 0 0 0 0 0.229619565 0"/></filter></defs><g fill="none" fill-rule="evenodd"><path d="M230.06 90.56c0 4.71 31.343 129.517 31.343 138.936 0 9.42-28.808-5.858-33.582 0-4.774 5.858-6.716 28.258 2.239 32.968 8.955 4.71 82.836 0 94.03-18.839 4.293-7.224-13.347-62.071-22.388-98.903-4.451-18.133-9.675-42.467-15.672-73l-51.493-23.549c-2.985 25.119-4.477 39.248-4.477 42.387zm-96.602-25.842s-14.81 5.235-35.778 18.78c-7.54 4.872-15.654 9.391-22.362 18.782-6.709 9.39 31.306 72.774 22.362 82.165-8.945 9.39-67.21 17.325-73.794 16.433-6.584-.892-6.66-16.925 0-25.824 6.66-8.898 15.653-7.042 24.598-7.042 8.945 0-44.723-84.513-42.487-93.903 1.49-6.26 23.107-19.563 64.849-39.91l53.668-28.17 8.944 58.69z" fill="url(#a)" fill-rule="nonzero" transform="scale(-1 1) rotate(-8 4927.638 2193.608)"/><path d="M122.925 221.76c-9.728-5.576-39.832-31.244-56.191-58.701-5.615-9.424-10.184-19.601-11.707-28.177-1.01-5.688-1.01-11.167 0-16.436-5.233.896-9.915-3.017-14.048-11.74-1.733-3.658-3.294-13.833-4.683-30.525-7.835-7.342-13.298-12.038-16.389-14.088-4.953-3.287-9.365-2.348-11.706-4.697-4.138-4.149-7.024-7.27 0-16.436s34.65 25.08 37.46 21.133c2.812-3.947-23.695-29.998-25.754-37.57-2.059-7.57.283-14.087 14.048-7.043 13.766 7.044 16.362 36.767 21.072 39.916 4.71 3.15 4.683-16.364 4.683-28.176 0-11.813-13.345-19.21-4.683-23.48 9.365-4.618 12.62-4.618 16.39 4.696 2.274 5.62 3.835 21.274 4.682 46.96 6.243 1.566 10.926 0 14.048-4.696 4.683-7.044-2.341-14.088 4.683-16.436 7.024-2.348 17.673 4.075 14.047 16.436-3.625 12.361-14.047 18.785-28.095 23.48-14.048 4.697 6.411 36.357 18.73 54.006 12.32 17.65 35.487 31.435 44.485 42.265 6 7.22 10.682 16.612 14.048 28.176-12.487 20.35-24.193 27.394-35.12 21.133zm115.926-10.544c6.234-1.517 46.75-15.935 121.551-43.253l16.363 31.871c24.394-2.242 43.874-7.554 58.438-15.935 21.846-12.572 46.75-38.7 44.413-43.253-.95-1.85-12.062 1.452-16.363-4.553-4.19-5.852-5.75-14.958-4.675-27.318 3.387-6.056 7.283-9.85 11.688-11.382 6.607-2.298 15.326-4.326 21.037 0 5.712 4.326 2.069 12.309 0 15.935-2.069 3.627-11.687.633-11.687 4.553s-.325 16.627 11.687 9.106c12.013-7.52 11.27-23.109 21.038-29.594 9.767-6.486 15.676-6.314 23.375-2.277 7.7 4.038 7.079 9.106 2.338 11.383-4.742 2.276-4.742-5.121-14.025 2.276-9.284 7.398-20.024 21.412-11.688 22.765 8.336 1.353 22.767-12.352 32.725-11.382 9.959.97 14.541 6.708 9.35 13.658-2.33 3.122-15.7-2.359-23.375 0-3.72 1.144-16.767 1.62-9.35 13.66 2.194 3.561 14.77 2.06 18.7 4.552 4.925 3.124 8.712 7.039 7.013 13.659-1.7 6.62-4.283 5.154-11.688 4.553s4.284-10.668-9.35-9.106c-5.279.605-15.058-.697-21.038 2.276-4.317 2.147-26.903 35.52-53.763 54.636-17.906 12.743-41.28 22.608-70.125 29.594l-81.813 50.082c-46.75-56.153-67.01-84.988-60.776-86.506z" fill="url(#b)" fill-rule="nonzero" transform="scale(-1 1) rotate(-8 2673.858 2642.415)"/><g fill-rule="nonzero" transform="scale(-1 1) rotate(-8 157.894 2818.348)"><use fill="#000" filter="url(#c)" xlink:href="#d"/><use fill="#4E4F55" xlink:href="#d"/></g><path fill="url(#e)" fill-rule="nonzero" d="M21.577 407.705l-4.69 78.815 164.169 45.037c17.199-73.56 24.234-110.34 21.107-110.34-3.127 0-58.632-8.258-166.514-24.771l-14.072 11.26z" transform="scale(-1 1) rotate(-8 96.849 1847.587)"/><path fill="#4F5056" fill-rule="nonzero" d="M180.499 252.694c3.672 7.574 28.135 86.288 21.869 97.17-4.178 7.254-14.224 11.33-30.14 12.23l-13.365-60.106-9.853-44.31c18.545-8.371 29.04-10.033 31.489-4.984z"/><path fill="#FFFBD3" fill-rule="nonzero" d="M202.966 273.455c1.563 3.225 11.979 36.74 9.311 41.374-1.779 3.088-6.056 4.824-12.833 5.207l-5.69-25.592-4.196-18.867c7.896-3.564 12.365-4.272 13.408-2.122z"/><path stroke="#505050" stroke-width=".924" d="M174.192 476.734c-2.14-.3-34.807-10.676-84.257-7.136-14.727 1.054-43.652 6.645-86.773 16.771"/><g fill-rule="nonzero" transform="scale(-1 1) rotate(-8 96.849 1847.587)"><use fill="#000" filter="url(#f)" xlink:href="#g"/><use fill="url(#h)" xlink:href="#g"/></g><path fill="url(#i)" fill-rule="nonzero" d="M368.6 236.923c39.158 25.078 98.5-41.931 46.905 62.896C363.909 404.647 314.949 446.56 204.69 417.847c-27.828-7.246-62.397-32.488-78.53-51.423-47.795-56.09-16.802-166.75 10.257-178.42 24.13-10.407 57.746-10.407 100.847 0 5.135 0 83.98 18.591 131.335 48.919z" transform="scale(-1 1) rotate(-8 96.849 1847.587)"/><path stroke="#505050" stroke-width=".924" d="M135.9 429.01c-1.458 18.669-2.615 33.012-3.472 43.031-.856 10.019-2.149 24.343-3.878 42.974M78.54 432.71l-4.703 84.025"/><g fill-rule="nonzero" transform="scale(-1 1) rotate(-8 96.849 1847.587)"><use fill="#4F5056" xlink:href="#j"/><use fill="#000" filter="url(#k)" xlink:href="#j"/></g><g fill-rule="nonzero" transform="scale(-1 1) rotate(-8 2138.185 443.105)"><use fill="#000" filter="url(#l)" xlink:href="#m"/><use fill="#FFFBD3" xlink:href="#m"/></g><g fill-rule="nonzero" transform="scale(-1 1) rotate(-8 96.849 1847.587)"><use fill="#4F5056" xlink:href="#n"/><use fill="#000" filter="url(#o)" xlink:href="#n"/></g><g fill-rule="nonzero"><path fill="url(#p)" d="M53.152 221.628c2.951 0 43.64-.252 92.858-36.826 28.217-20.968 121.43-110.3 92.858-98.97-16.071 6.374-80.41 31.726-127.68 67.404-36.768 27.752-61.083 68.392-58.036 68.392z" opacity=".99" transform="scale(-1 1) rotate(-8 56.326 1268.08)"/><path stroke="url(#q)" stroke-linecap="round" stroke-width=".5" d="M54.054 217.06c10.89 0 42.782-22.798 95.676-68.393" transform="scale(-1 1) rotate(-8 56.326 1268.08)"/><path fill="url(#p)" d="M54.27 217.75c-6.355-1.749-33.81-19.035-40.34-39.725C4.78 149.038 5.436 70.533 9.682 56.512c2.756-9.098 16.85 24.56 28.975 56.083 6.56 17.052 17.63 33.89 19.858 42.062 6.345 23.279 12.738 67.766-4.247 63.093z" opacity=".99" transform="scale(-1 1) rotate(-8 56.326 1268.08)"/><path stroke="url(#q)" stroke-linecap="round" stroke-width=".5" d="M56.769 209.61c-11.266-12.004-19.604-24.029-25.013-36.076-5.41-12.046-11.246-31.587-17.51-58.622" transform="scale(-1 1) rotate(-8 56.326 1268.08)"/><g opacity=".99" transform="scale(-1 1) rotate(-8 56.326 1268.08)"><use fill="#000" filter="url(#r)" xlink:href="#s"/><use fill="url(#p)" xlink:href="#s"/></g><path stroke="url(#q)" stroke-width=".5" d="M59.208 214.69s-2.335-14.224 22.897-55.235c3.704-6.02 30.23-39.949 38.002-47.875 10.432-10.638 18.629-23.557 24.59-38.755" transform="scale(-1 1) rotate(-8 56.326 1268.08)"/></g><g fill-rule="nonzero"><path fill="#E4FFE4" d="M292.14 376.151c12.218-1.359 16.11-4.256 24.818-11.21 7.844-6.265 10.089-16.539 9.546-20.725-1.145-8.833-8.124-8.523-8.4-16.307-.277-7.784 8.4-10.192 7.255-15.968-1.146-5.775-26.407-21.068-28.638-24.121-2.23-3.053 5.346-6.115 3.819-9.852-1.528-3.738-9.201-3.77-10.31-6.795-1.108-3.025 7.655-.274 4.582-8.833-3.073-8.56-11.731-14.983-13.364-15.628-1.633-.646 4.206 8.65 3.055 11.55-1.151 2.902-5.822-2.745-7.637 0-1.815 2.746 1.96 6.78 0 11.552-1.96 4.77-5.984-.105-7.255 6.115-1.27 6.22 1.864 14.419 2.673 16.307.809 1.89 2.785-3.682 3.437-2.038.652 1.644 1.064 5.115-1.146 7.814-5.831 7.122-13.746 9.173-16.8 15.288-1.711 3.425 1.796 10.077 1.145 12.57-.976 3.74-5.532 4.987-6.873 7.475-2.748 5.1-2.41 9.916-3.055 13.59-.96 5.464 2.157 8.44 4.2 11.55 1.363 2.073 3.909 4.225 7.637 6.455-2.545-4.303-3.182-6.455-1.909-6.455 1.169 0 7.734 7.751 16.8 12.91 5.742 3.267 15.08 4.905 16.42 4.756z"/><path fill="#ACF6AA" d="M285.682 367.45c.338-.311 28.076-2.71 26.23-23.028-.266-2.915-1.607-8.958-6.281-14.9-2.624-3.335-5.94-4.69-8.866-9.82-2.928-5.13-.04-7.133-1.847-9.82-5.023-7.466-13.307-10.18-13.67-11.176-.738-2.031 1.109 9.82 1.109 9.82s-3.694-5.417-3.694-3.047c0 .623.578 4.402-2.217 10.16-1.99 4.099-7.142 9.595-8.866 13.883-1.334 3.317-2.196 7.042-2.586 11.175l-1.847-6.773c-2.322 2.813-3.677 5.07-4.064 6.773-1.402 6.167.174 12.213 1.478 14.223 8.237 12.695 24.752 12.867 25.12 12.53z"/><path fill="#4BFF60" d="M285.752 363.212c.45.039 13.54-1.885 16.352-13.289 1.359-5.51-5.638-23.17-6.69-24.192-1.05-1.022-1.05 8.53-4.83 3.748-1.57-1.984-.142-8.23-1.115-11.585-1.372-4.728-4.832-6.474-4.832-6.474s.63 3.622-1.858 8.86c-2.72 5.724-15.215 15.146-14.494 25.555.721 10.408 5.575 16.355 17.467 17.377z"/><path fill="#2FA012" d="M285.758 333.017c.27-.326 1.94 4.312 2.857 5.39 1.302 1.53 1.785 2.516 2.5 5.032.653 2.3.327 5.113 1.428 5.39 1.428.36 2.142-7.367 2.857-7.367.714 0 2.69 7.296 1.785 11.32-.727 3.235-4.777 6.11-6.785 6.11-4.642 0-8.947.231-10.713-2.516-3.928-6.11-.01-11.704 1.071-12.937.422-.482 1.35 1.294 1.786 2.845.714 2.545 1.428 5.42 2.5 3.983 1.07-1.438-1.072-15.094.714-17.25z"/></g></g></svg>