<svg xmlns="http://www.w3.org/2000/svg" xmlns:xlink="http://www.w3.org/1999/xlink" width="291" height="691"><defs><linearGradient id="a" x1="50%" x2="50%" y1="0%" y2="100%"><stop offset="0%" stop-color="#AF9F87"/><stop offset="100%" stop-color="#E2D2BB"/></linearGradient><linearGradient id="b" x1="50%" x2="50%" y1="0%" y2="100%"><stop offset="0%" stop-color="#D5C2A4"/><stop offset="100%" stop-color="#E2D2BB"/></linearGradient><path id="d" d="M84.687 405.53c-13.342 22.153-15.26 47.298-20.346 55.745-5.005 8.31-13.636 20.36-27.13 32.095-8.52 7.411-30.946 16.592-32.214 21.96-1.268 5.369 25.433 0 25.433 6.757s-26.701 6.757-25.433 10.136c.462 1.233 37.36 10.59 59.344 8.446 18.166-1.77 44.084-15.203 50.866-18.582 4.521-2.252 4.521 20.834 0 69.26 6.733.636 14.645-1.616 23.738-6.758 9.092-5.141 20.96-14.713 35.606-28.717l13.564 35.474s5.898-4.59 11.87-13.514c2.499-3.735 6.455-11.055 11.868-21.96 11.753 10.165 21.926 17.485 30.52 21.96 12.89 6.713 40.767 22.685 47.475 16.893 2.795-2.414-7.124-7.376-13.564-16.893-3.863-5.708-10.174-13.514-8.478-25.338.749-5.22 6.843 9.43 25.433 10.135 9.485.36 38.998-10.135 38.998-13.514 0-3.378-39.462-6.631-54.258-33.785-14.795-27.153-7.839-74.33-10.173-84.462-2.334-10.132-9.285-1.527-13.564-18.581-4.28-17.055 1.174-31.631 0-35.475-1.174-3.843-4.24-6.635-11.87-3.378-7.627 3.257-8.658 4.832-11.868 13.514-3.21 8.681 7.039-9.468 0 18.582-7.038 28.049-15.414 51.347-18.65 55.745-3.238 4.397 1.695-30.407-3.392-30.407-3.391 0-13 1.69-28.824 5.068l13.564-15.203c-10.221-3.084-17.003-5.9-20.346-8.446-5.015-3.821-11.87-6.757-8.478-13.514 2.26-4.505-16.956-6.757-57.649-6.757-11.153 3.129-18.5 7.633-22.042 13.514z"/><filter id="c" width="100.6%" height="101.8%" x="-.3%" y="-.4%" filterUnits="objectBoundingBox"><feOffset dy="2" in="SourceAlpha" result="shadowOffsetOuter1"/><feColorMatrix in="shadowOffsetOuter1" values="0 0 0 0 0.229963861 0 0 0 0 0.229963861 0 0 0 0 0.229963861 0 0 0 0.746744792 0"/></filter><linearGradient id="e" x1="86.613%" x2="20.219%" y1="25.334%" y2="100%"><stop offset="0%" stop-color="#CBCBCB"/><stop offset="97.665%" stop-color="#FFFBD3"/></linearGradient><linearGradient id="h" x1="7.273%" y1="100%" y2="13.513%"><stop offset="0%" stop-color="#C8C8C8"/><stop offset="100%" stop-color="#F1F1F1"/></linearGradient><path id="g" d="M266.98 176.354c28.721 18.399 72.249-30.764 34.404 46.145-37.845 76.91-97.346 129.654-135.898 162.365-13.635 11.57-35.438 15.87-53.327 22.218-10.553 3.745-26.035 8.873-46.446 15.382-25.23 0-40.712-1.71-46.446-5.127-8.601-5.128-15.482-56.4-12.041-58.11 2.293-1.14 37.271 5.128 104.933 18.8 3.46 6.385 6.327 9.803 8.601 10.255 2.274.452 5.142-1.827 8.601-6.836 3.44-35.322 3.44-55.261 0-59.819-5.16-6.836-49.159-15.595-67.088-18.8-32.114-5.74-49.887-2.203-49.887-5.127 0-6.837 12.035-70.63 27.524-100.837 15.489-30.207 30.219-44.948 56.767-56.4 17.699-7.636 42.355-7.636 73.97 0 3.766 0 61.598 13.64 96.332 35.89z"/><filter id="f" width="104.5%" height="104.9%" x="-2.3%" y="-1.7%" filterUnits="objectBoundingBox"><feOffset dy="2" in="SourceAlpha" result="shadowOffsetOuter1"/><feGaussianBlur in="shadowOffsetOuter1" result="shadowBlurOuter1" stdDeviation="2"/><feColorMatrix in="shadowBlurOuter1" values="0 0 0 0 0 0 0 0 0 0 0 0 0 0 0 0 0 0 0.5 0"/></filter><linearGradient id="i" x1="7.273%" y1="100%" y2="13.513%"><stop offset="0%" stop-color="#C8C8C8"/><stop offset="97.419%" stop-color="#B6B6B6"/></linearGradient><ellipse id="j" cx="143.043" cy="234.352" rx="44.816" ry="44.453"/><filter id="k" width="103.3%" height="103.4%" x="-1.7%" y="-1.7%" filterUnits="objectBoundingBox"><feGaussianBlur in="SourceAlpha" result="shadowBlurInner1" stdDeviation="1"/><feOffset dy="1" in="shadowBlurInner1" result="shadowOffsetInner1"/><feComposite in="shadowOffsetInner1" in2="SourceAlpha" k2="-1" k3="1" operator="arithmetic" result="shadowInnerInner1"/><feColorMatrix in="shadowInnerInner1" values="0 0 0 0 0 0 0 0 0 0 0 0 0 0 0 0 0 0 0.5 0"/></filter><ellipse id="m" cx="12.409" cy="14.052" rx="11.8" ry="11.678"/><filter id="l" width="133.9%" height="134.3%" x="-16.9%" y="-8.6%" filterUnits="objectBoundingBox"><feOffset dy="2" in="SourceAlpha" result="shadowOffsetOuter1"/><feGaussianBlur in="shadowOffsetOuter1" result="shadowBlurOuter1" stdDeviation="1"/><feColorMatrix in="shadowBlurOuter1" values="0 0 0 0 0 0 0 0 0 0 0 0 0 0 0 0 0 0 0.5 0"/></filter><path id="n" d="M58.143 232.42c-20.042 22.732-30.063 35.295-30.063 37.688 0 3.59 30.063 12.563 36.744 12.563 4.454 0 2.227-16.75-6.68-50.251z"/><filter id="o" width="107.7%" height="106%" x="-3.8%" y="-3%" filterUnits="objectBoundingBox"><feGaussianBlur in="SourceAlpha" result="shadowBlurInner1" stdDeviation="1"/><feOffset dy="1" in="shadowBlurInner1" result="shadowOffsetInner1"/><feComposite in="shadowOffsetInner1" in2="SourceAlpha" k2="-1" k3="1" operator="arithmetic" result="shadowInnerInner1"/><feColorMatrix in="shadowInnerInner1" values="0 0 0 0 0 0 0 0 0 0 0 0 0 0 0 0 0 0 0.5 0"/></filter><linearGradient id="p" x1="50%" x2="50%" y1="95.202%" y2="3.57%"><stop offset="0%" stop-color="#51ECCC"/><stop offset="100%" stop-color="#7AC65B"/></linearGradient><linearGradient id="q" x1="80.868%" x2="51.177%" y1="85.668%" y2="99.454%"><stop offset="0%" stop-color="#FDFEFF"/><stop offset="100%" stop-color="#F7B0B0" stop-opacity=".425"/></linearGradient><path id="s" d="M37.446 162.825c0-5.113-14.16-27.012 23.383-86.24C68.91 63.838 93.963 38.473 135.99.491c-1.438 29.315-7.563 52.989-18.372 71.021-20.349 33.947-80.17 95.077-80.17 91.313z"/><filter id="r" width="113.8%" height="108.6%" x="-6.9%" y="-3.1%" filterUnits="objectBoundingBox"><feOffset dy="2" in="SourceAlpha" result="shadowOffsetOuter1"/><feGaussianBlur in="shadowOffsetOuter1" result="shadowBlurOuter1" stdDeviation="2"/><feColorMatrix in="shadowBlurOuter1" values="0 0 0 0 0 0 0 0 0 0 0 0 0 0 0 0 0 0 0.229619565 0"/></filter></defs><g fill="none" fill-rule="evenodd"><path d="M168.69 66.381c0 3.452 22.981 94.936 22.981 101.84 0 6.905-21.123-4.293-24.623 0-3.5 4.295-4.925 20.714 1.641 24.166 6.567 3.453 60.739 0 68.947-13.808 3.147-5.296-9.787-45.5-16.416-72.497-3.264-13.292-7.094-31.128-11.491-53.51l-37.757-17.26c-2.188 18.411-3.283 28.768-3.283 31.07zM97.857 47.439s-10.86 3.837-26.234 13.766c-5.53 3.57-11.478 6.883-16.397 13.766-4.919 6.884 22.955 53.345 16.397 60.228-6.559 6.883-49.281 12.7-54.109 12.045-4.827-.653-4.883-12.406 0-18.928 4.883-6.523 11.478-5.163 18.036-5.163 6.559 0-32.793-61.948-31.153-68.831 1.093-4.589 16.943-14.34 47.55-29.253l39.351-20.65 6.559 43.02z" fill="url(#a)" fill-rule="nonzero" transform="scale(-1 1) rotate(-8 3623.353 1952.45)"/><path d="M90.134 162.55c-7.134-4.085-29.207-22.9-41.202-43.026-4.117-6.908-7.467-14.368-8.584-20.654-.74-4.17-.74-8.185 0-12.048-3.837.657-7.27-2.211-10.3-8.605-1.271-2.682-2.416-10.14-3.434-22.375-5.745-5.382-9.75-8.824-12.017-10.327-3.632-2.409-6.867-1.721-8.584-3.442-3.034-3.041-5.15-5.33 0-12.048 5.15-6.719 25.407 18.383 27.468 15.49 2.061-2.893-17.375-21.988-18.884-27.538-1.51-5.55.207-10.327 10.3-5.163 10.094 5.163 11.997 26.95 15.451 29.259 3.454 2.308 3.434-11.995 3.434-20.654 0-8.658-9.785-14.08-3.434-17.21C47.215.821 49.602.821 52.365 7.648c1.668 4.12 2.813 15.594 3.434 34.423 4.578 1.147 8.011 0 10.3-3.442 3.434-5.164-1.716-10.327 3.434-12.048s12.959 2.987 10.3 12.048c-2.658 9.06-10.3 13.769-20.6 17.21-10.301 3.443 4.7 26.65 13.733 39.587 9.033 12.937 26.02 23.042 32.619 30.98 4.399 5.292 7.832 12.177 10.3 20.654-9.156 14.916-17.74 20.08-25.751 15.49zm85.001-7.727c4.57-1.113 34.28-11.681 89.126-31.705l11.998 23.361c17.887-1.643 32.17-5.537 42.85-11.68 16.018-9.216 34.278-28.368 32.564-31.705-.696-1.356-8.844 1.065-11.997-3.337-3.073-4.29-4.216-10.965-3.428-20.024 2.483-4.44 5.34-7.22 8.57-8.344 4.844-1.684 11.238-3.17 15.425 0 4.188 3.172 1.517 9.023 0 11.681-1.517 2.658-8.57.464-8.57 3.337 0 2.874-.238 12.188 8.57 6.675 8.808-5.513 8.264-16.939 15.426-21.693 7.162-4.753 11.494-4.628 17.14-1.668 5.645 2.96 5.19 6.674 1.714 8.343-3.477 1.669-3.477-3.754-10.284 1.669-6.807 5.422-14.682 15.695-8.57 16.686 6.112.992 16.694-9.054 23.995-8.343 7.302.711 10.662 4.917 6.856 10.012-1.709 2.288-11.512-1.73-17.14 0-2.727.838-12.294 1.187-6.855 10.012 1.609 2.61 10.83 1.51 13.712 3.337 3.61 2.29 6.387 5.16 5.141 10.012-1.246 4.853-3.14 3.778-8.57 3.338-5.429-.44 3.142-7.82-6.855-6.675-3.87.443-11.041-.51-15.426 1.669-3.165 1.573-19.727 26.036-39.421 40.048-13.13 9.34-30.27 16.571-51.419 21.692l-59.989 36.71c-34.279-41.16-49.133-62.296-44.563-63.408z" fill="url(#b)" fill-rule="nonzero" transform="scale(-1 1) rotate(-8 1971.326 2281.497)"/><g fill-rule="nonzero" transform="scale(-1 1) rotate(-8 127.112 2410.457)"><use fill="#000" filter="url(#c)" xlink:href="#d"/><use fill="#4E4F55" xlink:href="#d"/></g><path fill="url(#e)" fill-rule="nonzero" d="M15.827 299.124l-3.44 57.824 120.415 33.043c12.615-53.97 17.775-80.954 15.482-80.954-2.294 0-43.006-6.058-122.136-18.174l-10.321 8.26z" transform="scale(-1 1) rotate(-8 82.35 1698.656)"/><path fill="#4F5056" fill-rule="nonzero" d="M180.08 190.308c2.693 5.556 20.634 63.306 16.038 71.29-3.064 5.322-10.433 8.314-22.107 8.974l-9.802-44.098-7.226-32.508c13.603-6.143 21.301-7.362 23.097-3.658z"/><path fill="#FFFBD3" fill-rule="nonzero" d="M196.559 205.54c1.146 2.365 8.785 26.954 6.828 30.354-1.304 2.266-4.442 3.54-9.413 3.82l-4.173-18.776-3.077-13.841c5.792-2.616 9.07-3.135 9.835-1.558z"/><path stroke="#505050" stroke-width=".924" d="M175.448 354.68c-1.57-.22-25.53-7.832-61.801-5.233-10.803.774-32.019 4.876-63.648 12.307"/><g fill-rule="nonzero" transform="scale(-1 1) rotate(-8 82.35 1698.656)"><use fill="#000" filter="url(#f)" xlink:href="#g"/><use fill="url(#h)" xlink:href="#g"/></g><path fill="url(#i)" fill-rule="nonzero" d="M270.362 173.825c28.722 18.4 72.25-30.764 34.405 46.146s-73.757 107.66-154.63 86.594c-20.411-5.317-45.767-23.836-57.601-37.728-35.057-41.151-12.324-122.34 7.524-130.903 17.699-7.635 42.355-7.635 73.97 0 3.766 0 61.598 13.64 96.332 35.89z" transform="scale(-1 1) rotate(-8 82.35 1698.656)"/><path stroke="#505050" stroke-width=".924" d="M147.363 319.667c-1.07 13.697-1.92 24.22-2.548 31.571-.628 7.35-1.577 17.86-2.846 31.53m-36.679-60.384l-3.452 61.647"/><g fill-rule="nonzero" transform="scale(-1 1) rotate(-8 82.35 1698.656)"><use fill="#4F5056" xlink:href="#j"/><use fill="#000" filter="url(#k)" xlink:href="#j"/></g><g fill-rule="nonzero" transform="scale(-1 1) rotate(-8 1580.048 668.46)"><use fill="#000" filter="url(#l)" xlink:href="#m"/><use fill="#FFFBD3" xlink:href="#m"/></g><g fill-rule="nonzero" transform="scale(-1 1) rotate(-8 82.35 1698.656)"><use fill="#4F5056" xlink:href="#n"/><use fill="#000" filter="url(#o)" xlink:href="#n"/></g><path fill="url(#p)" fill-rule="nonzero" d="M38.907 162.991c2.16 0 31.944-.185 67.972-27.083 20.655-15.42 88.887-81.118 67.972-72.785-11.764 4.688-58.86 23.332-93.461 49.57-26.915 20.41-44.713 50.298-42.483 50.298z" opacity=".99" transform="scale(-1 1) rotate(-8 52.626 1273.596)"/><path stroke="url(#q)" stroke-linecap="round" stroke-width=".5" d="M39.568 159.63c7.971 0 31.316-16.765 70.034-50.297" transform="scale(-1 1) rotate(-8 52.626 1273.596)"/><path fill="url(#p)" fill-rule="nonzero" d="M39.725 160.139c-4.651-1.286-24.749-13.999-29.529-29.215C3.5 109.606 3.98 51.872 7.088 41.56c2.017-6.692 12.334 18.062 21.21 41.244 4.8 12.54 12.905 24.924 14.535 30.934 4.645 17.12 9.325 49.837-3.108 46.4z" opacity=".99" transform="scale(-1 1) rotate(-8 52.626 1273.596)"/><path stroke="url(#q)" stroke-linecap="round" stroke-width=".5" d="M41.555 154.152c-8.247-8.827-14.35-17.67-18.31-26.53-3.96-8.86-8.232-23.23-12.817-43.112" transform="scale(-1 1) rotate(-8 52.626 1273.596)"/><g fill-rule="nonzero" opacity=".99" transform="scale(-1 1) rotate(-8 52.626 1273.596)"><use fill="#000" filter="url(#r)" xlink:href="#s"/><use fill="url(#p)" xlink:href="#s"/></g><path stroke="url(#q)" stroke-width=".5" d="M43.34 157.89s-1.709-10.462 16.761-40.623c2.711-4.427 22.129-29.38 27.818-35.208 7.636-7.824 13.636-17.325 18-28.502" transform="scale(-1 1) rotate(-8 52.626 1273.596)"/><g fill-rule="nonzero"><path fill="#E4FFE4" d="M261.68 280.568c8.886-.995 11.716-3.117 18.05-8.211 5.704-4.588 7.337-12.113 6.942-15.178-.833-6.47-5.908-6.243-6.11-11.944-.2-5.7 6.11-7.464 5.277-11.694-.833-4.23-19.205-15.43-20.827-17.667-1.622-2.236 3.887-4.478 2.777-7.216-1.111-2.737-6.692-2.76-7.498-4.976-.806-2.215 5.567-.2 3.332-6.47-2.235-6.268-8.532-10.972-9.72-11.445-1.187-.473 3.06 6.335 2.222 8.46-.837 2.125-4.233-2.01-5.553 0-1.32 2.01 1.424 4.966 0 8.46-1.425 3.494-4.352-.077-5.277 4.479-.924 4.555 1.356 10.56 1.944 11.943.588 1.383 2.025-2.697 2.5-1.493.474 1.204.774 3.746-.834 5.723-4.24 5.216-9.997 6.718-12.218 11.197-1.245 2.509 1.306 7.38.833 9.206-.71 2.74-4.024 3.652-4.999 5.474-1.998 3.736-1.752 7.263-2.221 9.953-.698 4.003 1.568 6.183 3.054 8.46.992 1.518 2.843 3.094 5.554 4.728-1.85-3.152-2.314-4.728-1.388-4.728.85 0 5.625 5.677 12.218 9.455 4.176 2.393 10.967 3.593 11.941 3.484z"/><path fill="#ACF6AA" d="M256.983 274.194c.246-.227 20.42-1.984 19.076-16.865-.193-2.135-1.168-6.56-4.568-10.912-1.908-2.443-4.319-3.436-6.448-7.193-2.129-3.757-.028-5.224-1.343-7.192-3.653-5.467-9.678-7.455-9.941-8.184-.537-1.489.806 7.192.806 7.192s-2.687-3.968-2.687-2.232c0 .456.42 3.224-1.612 7.44-1.447 3.003-5.194 7.028-6.448 10.169-.97 2.429-1.597 5.157-1.88 8.184l-1.344-4.96c-1.689 2.06-2.674 3.713-2.956 4.96-1.02 4.517.127 8.945 1.075 10.417 5.99 9.297 18.002 9.424 18.27 9.176z"/><path fill="#4BFF60" d="M257.034 271.091c.327.028 9.848-1.38 11.893-9.732.988-4.037-4.101-16.97-4.865-17.719-.765-.748-.765 6.247-3.514 2.745-1.141-1.453-.103-6.027-.811-8.484-.998-3.464-3.514-4.742-3.514-4.742s.459 2.652-1.351 6.488c-1.978 4.193-11.065 11.094-10.541 18.717.524 7.623 4.054 11.978 12.703 12.727z"/><path fill="#2FA012" d="M257.038 248.976c.196-.238 1.41 3.159 2.078 3.948.947 1.121 1.299 1.843 1.818 3.685.475 1.685.238 3.745 1.039 3.948 1.039.263 1.558-5.395 2.078-5.395.519 0 1.956 5.343 1.298 8.29-.529 2.37-3.475 4.475-4.934 4.475-3.377 0-6.507.17-7.792-1.842-2.857-4.475-.007-8.573.78-9.476.306-.352.981.948 1.298 2.084.52 1.864 1.039 3.97 1.818 2.917.779-1.053-.78-11.055.52-12.634z"/></g></g></svg>