<svg xmlns="http://www.w3.org/2000/svg" xmlns:xlink="http://www.w3.org/1999/xlink" width="480" height="559"><defs><linearGradient id="a" x1="-95.949%" x2="51.98%" y1="0%" y2="102.386%"><stop offset="0%" stop-color="#0C054A"/><stop offset="44.601%" stop-color="#017A8B"/><stop offset="98.083%" stop-color="#0C054B"/></linearGradient><linearGradient id="b" x1="-107.685%" x2="63.716%" y1="23.862%" y2="78.524%"><stop offset="0%" stop-color="#0C054A"/><stop offset="44.601%" stop-color="#017A8B"/><stop offset="98.083%" stop-color="#0C054B"/></linearGradient><linearGradient id="e" x1="-107.685%" x2="63.716%" y1="23.862%" y2="78.524%"><stop offset="0%" stop-color="#170D62"/><stop offset="44.601%" stop-color="#017A8B"/><stop offset="100%" stop-color="#00E2AC"/></linearGradient><path id="d" d="M123.335 64.646l30.337 128.033c20.041-10.632 31.186-15.028 33.434-13.189 3.371 2.76-16.942 26.684-16.942 26.684s11.935 11.207 36.022 25.79c4.881 2.955 13.793 7.059 26.735 12.31 2.011-6.405 3.175-11.626 3.49-15.662.275-3.52.284-9.714.028-18.582 1.991 9.295 3.201 15.96 3.63 19.996.764 7.183-.281 16.22.676 16.877 1.763 1.209 21.332 5.87 58.705 13.985l-7.88-42.607-24.596-10.297c13.921-3.587 20.675-6.251 20.263-7.993-.62-2.613-7.74-32.662-11.004-37.088-2.176-2.951-9.287-4.908-21.332-5.871l15.9-7.701-24.399-37.518-52.345 3.506c12.75-1.768 21.269-3.223 25.554-4.366 14.009-3.736 20.881-5.38 22.288-8.793.939-2.275-6.941-10.595-23.64-24.96-23.508 8.321-32.729 11.483-27.663 9.484l7.43-20.074-34.166-17.95-40.526 15.987z"/><filter id="c" width="111.4%" height="111.3%" x="-5.7%" y="-2.8%" filterUnits="objectBoundingBox"><feOffset dy="8" in="SourceAlpha" result="shadowOffsetOuter1"/><feGaussianBlur in="shadowOffsetOuter1" result="shadowBlurOuter1" stdDeviation="2"/><feColorMatrix in="shadowBlurOuter1" values="0 0 0 0 0 0 0 0 0 0 0 0 0 0 0 0 0 0 0.5 0"/></filter><linearGradient id="i" x1="50%" x2="15.844%" y1="100%" y2=".49%"><stop offset="0%" stop-color="#2C7FC8"/><stop offset="99.167%" stop-color="#24A8C2" stop-opacity=".591"/></linearGradient><path id="h" d="M0 0h221L119.93 255.477h-9.43z"/><filter id="f" width="163.3%" height="154.8%" x="-31.7%" y="-28.2%" filterUnits="objectBoundingBox"><feGaussianBlur in="SourceGraphic"/></filter><filter id="g" width="195.9%" height="183%" x="-48%" y="-42.3%" filterUnits="objectBoundingBox"><feOffset dy="-2" in="SourceAlpha" result="shadowOffsetOuter1"/><feGaussianBlur in="shadowOffsetOuter1" result="shadowBlurOuter1" stdDeviation="35"/><feComposite in="shadowBlurOuter1" in2="SourceAlpha" operator="out" result="shadowBlurOuter1"/><feColorMatrix in="shadowBlurOuter1" values="0 0 0 0 0.288655698 0 0 0 0 0.56455189 0 0 0 0 0.886238694 0 0 0 0.238734149 0"/></filter><path id="l" d="M35.531 77.059H187.47l-69.486 175.64H111.5z"/><filter id="j" width="192.1%" height="179.7%" x="-46.1%" y="-41%" filterUnits="objectBoundingBox"><feGaussianBlur in="SourceGraphic"/></filter><filter id="k" width="239.5%" height="220.7%" x="-69.8%" y="-61.5%" filterUnits="objectBoundingBox"><feOffset dy="-2" in="SourceAlpha" result="shadowOffsetOuter1"/><feGaussianBlur in="shadowOffsetOuter1" result="shadowBlurOuter1" stdDeviation="35"/><feComposite in="shadowBlurOuter1" in2="SourceAlpha" operator="out" result="shadowBlurOuter1"/><feColorMatrix in="shadowBlurOuter1" values="0 0 0 0 0.288655698 0 0 0 0 0.56455189 0 0 0 0 0.886238694 0 0 0 0.238734149 0"/></filter><filter id="m" width="179.1%" height="191.4%" x="-39.5%" y="-40%" filterUnits="objectBoundingBox"><feOffset dy="5" in="SourceAlpha" result="shadowOffsetOuter1"/><feGaussianBlur in="shadowOffsetOuter1" result="shadowBlurOuter1" stdDeviation="3.5"/><feColorMatrix in="shadowBlurOuter1" result="shadowMatrixOuter1" values="0 0 0 0 0 0 0 0 0 0 0 0 0 0 0 0 0 0 0.142068614 0"/><feMerge><feMergeNode in="shadowMatrixOuter1"/><feMergeNode in="SourceGraphic"/></feMerge></filter><linearGradient id="n" x1="50%" x2="50%" y1="18.541%" y2="82.401%"><stop offset="0%" stop-color="#13228D"/><stop offset="100%" stop-color="#0B115C"/></linearGradient><path id="o" d="M8.266 7.102L.354 2.798V.368l7.374 3.848a1 1 0 0 1 .538.886v2z"/><filter id="p" width="137.9%" height="144.5%" x="-19%" y="-22.3%" filterUnits="objectBoundingBox"><feGaussianBlur in="SourceAlpha" result="shadowBlurInner1" stdDeviation="1"/><feOffset dx="-1" dy="1" in="shadowBlurInner1" result="shadowOffsetInner1"/><feComposite in="shadowOffsetInner1" in2="SourceAlpha" k2="-1" k3="1" operator="arithmetic" result="shadowInnerInner1"/><feColorMatrix in="shadowInnerInner1" values="0 0 0 0 0 0 0 0 0 0 0 0 0 0 0 0 0 0 0.2 0"/></filter><linearGradient id="q" x1="91.561%" x2="35.647%" y1="50%" y2="33.564%"><stop offset="0%" stop-color="#13228D"/><stop offset="100%" stop-color="#0A1461"/></linearGradient><path id="r" d="M25.059 4.308l-14.156 7.31.028-2.162a1 1 0 0 1 .539-.874l13.535-7.04.054 2.766z"/><filter id="s" width="128.3%" height="139.7%" x="-14.1%" y="-19.8%" filterUnits="objectBoundingBox"><feGaussianBlur in="SourceAlpha" result="shadowBlurInner1" stdDeviation="1.5"/><feOffset dx="1" dy="1" in="shadowBlurInner1" result="shadowOffsetInner1"/><feComposite in="shadowOffsetInner1" in2="SourceAlpha" k2="-1" k3="1" operator="arithmetic" result="shadowInnerInner1"/><feColorMatrix in="shadowInnerInner1" values="0 0 0 0 0 0 0 0 0 0 0 0 0 0 0 0 0 0 0.25 0"/></filter><linearGradient id="v" x1="0%" y1="7.52%" y2="7.52%"><stop offset="0%" stop-color="#00EFE4"/><stop offset="39.593%" stop-color="#05CDC4"/><stop offset="50.188%" stop-color="#23ADB9"/><stop offset="60.933%" stop-color="#07B3C9"/><stop offset="100%" stop-color="#117CC0"/></linearGradient><path id="u" d="M42.441.116v2.655l-20.345 9.873a2 2 0 0 1-1.75-.002L0 2.72V.133l20.34 9.92a2 2 0 0 0 1.754 0L42.441.116z"/><filter id="t" width="128.3%" height="201.8%" x="-14.1%" y="-54.8%" filterUnits="objectBoundingBox"><feOffset in="SourceAlpha" result="shadowOffsetOuter1"/><feGaussianBlur in="shadowOffsetOuter1" result="shadowBlurOuter1" stdDeviation="2"/><feComposite in="shadowBlurOuter1" in2="SourceAlpha" operator="out" result="shadowBlurOuter1"/><feColorMatrix in="shadowBlurOuter1" result="shadowMatrixOuter1" values="0 0 0 0 0 0 0 0 0 0.870588235 0 0 0 0 0.843137255 0 0 0 0.4 0"/><feOffset dy="-1" in="SourceAlpha" result="shadowOffsetOuter2"/><feComposite in="shadowOffsetOuter2" in2="SourceAlpha" operator="out" result="shadowOffsetOuter2"/><feColorMatrix in="shadowOffsetOuter2" result="shadowMatrixOuter2" values="0 0 0 0 0 0 0 0 0 0 0 0 0 0 0 0 0 0 0.06 0"/><feMerge><feMergeNode in="shadowMatrixOuter1"/><feMergeNode in="shadowMatrixOuter2"/></feMerge></filter><linearGradient id="w" x1="20.847%" x2="75.606%" y1="20.937%" y2="75.78%"><stop offset="0%" stop-color="#1283E0"/><stop offset="100%" stop-color="#0A47B2"/></linearGradient><path id="y" d="M11.292 9.908l9.813-5.095a.692.692 0 0 1 .632-.003l10.037 5.095a.692.692 0 0 1-.01 1.24l-9.981 4.86a.818.818 0 0 1-.723-.003l-9.758-4.86a.692.692 0 0 1-.01-1.234z"/><filter id="x" width="118.5%" height="135.1%" x="-9.3%" y="-17.6%" filterUnits="objectBoundingBox"><feGaussianBlur in="SourceAlpha" result="shadowBlurInner1" stdDeviation="1.5"/><feOffset dx="1" dy="1" in="shadowBlurInner1" result="shadowOffsetInner1"/><feComposite in="shadowOffsetInner1" in2="SourceAlpha" k2="-1" k3="1" operator="arithmetic" result="shadowInnerInner1"/><feColorMatrix in="shadowInnerInner1" values="0 0 0 0 0 0 0 0 0 0 0 0 0 0 0 0 0 0 0.23 0"/></filter><filter id="z" width="268.5%" height="425.6%" x="-84.2%" y="-162.8%" filterUnits="objectBoundingBox"><feGaussianBlur in="SourceGraphic" stdDeviation="4"/></filter><linearGradient id="A" x1="3.209%" x2="82.465%" y1="0%" y2="0%"><stop offset="0%" stop-color="#0C6DC4"/><stop offset="100%" stop-color="#0D1569"/></linearGradient><ellipse id="B" cx="21.913" cy="10.681" rx="5.788" ry="2.372"/><filter id="C" width="125.9%" height="163.2%" x="-13%" y="-31.6%" filterUnits="objectBoundingBox"><feGaussianBlur in="SourceAlpha" result="shadowBlurInner1" stdDeviation="1"/><feOffset dy="1" in="shadowBlurInner1" result="shadowOffsetInner1"/><feComposite in="shadowOffsetInner1" in2="SourceAlpha" k2="-1" k3="1" operator="arithmetic" result="shadowInnerInner1"/><feColorMatrix in="shadowInnerInner1" values="0 0 0 0 0 0 0 0 0 0 0 0 0 0 0 0 0 0 0.5 0"/></filter><linearGradient id="F" x1="0%" y1="24.184%" y2="72.225%"><stop offset="0%" stop-color="#FE5A85"/><stop offset="100%" stop-color="#294FCC"/></linearGradient><path id="E" d="M382 97.886v7.008l-191 97.152L0 104.894v-7.008L191 0z"/><filter id="D" width="160.2%" height="220.8%" x="-36.6%" y="-30.2%" filterUnits="objectBoundingBox"><feOffset dx="-25" dy="68" in="SourceAlpha" result="shadowOffsetOuter1"/><feGaussianBlur in="shadowOffsetOuter1" result="shadowBlurOuter1" stdDeviation="27"/><feColorMatrix in="shadowBlurOuter1" values="0 0 0 0 0 0 0 0 0 0 0 0 0 0 0 0 0 0 0.0673403533 0"/></filter><path id="G" d="M0 97.824L191 0l191 97.824-191 96.328z"/><filter id="I" width="161.8%" height="165.2%" x="-30.9%" y="-26.1%" filterUnits="objectBoundingBox"><feOffset dy="5" in="SourceAlpha" result="shadowOffsetOuter1"/><feGaussianBlur in="shadowOffsetOuter1" result="shadowBlurOuter1" stdDeviation="3.5"/><feColorMatrix in="shadowBlurOuter1" result="shadowMatrixOuter1" values="0 0 0 0 0 0 0 0 0 0 0 0 0 0 0 0 0 0 0.1 0"/><feMerge><feMergeNode in="shadowMatrixOuter1"/><feMergeNode in="SourceGraphic"/></feMerge></filter><path id="J" d="M10.572 9.335L.452 3.677V.483l9.593 5.143a1 1 0 0 1 .527.882v2.827z"/><filter id="K" width="129.6%" height="133.9%" x="-14.8%" y="-16.9%" filterUnits="objectBoundingBox"><feGaussianBlur in="SourceAlpha" result="shadowBlurInner1" stdDeviation="1"/><feOffset dx="-1" dy="1" in="shadowBlurInner1" result="shadowOffsetInner1"/><feComposite in="shadowOffsetInner1" in2="SourceAlpha" k2="-1" k3="1" operator="arithmetic" result="shadowInnerInner1"/><feColorMatrix in="shadowInnerInner1" values="0 0 0 0 0 0 0 0 0 0 0 0 0 0 0 0 0 0 0.2 0"/></filter><path id="L" d="M32.052 5.662L13.945 15.27l.04-3.037a1 1 0 0 1 .528-.87l17.47-9.337.069 3.636z"/><filter id="M" width="122.1%" height="130.2%" x="-11%" y="-15.1%" filterUnits="objectBoundingBox"><feGaussianBlur in="SourceAlpha" result="shadowBlurInner1" stdDeviation="1.5"/><feOffset dx="1" dy="1" in="shadowBlurInner1" result="shadowOffsetInner1"/><feComposite in="shadowOffsetInner1" in2="SourceAlpha" k2="-1" k3="1" operator="arithmetic" result="shadowInnerInner1"/><feColorMatrix in="shadowInnerInner1" values="0 0 0 0 0 0 0 0 0 0 0 0 0 0 0 0 0 0 0.25 0"/></filter><path id="O" d="M54.285.153v3.49L28.037 16.728a2 2 0 0 1-1.788-.001L0 3.575v-3.4l26.241 13.15a2 2 0 0 0 1.793 0L54.285.153z"/><filter id="N" width="122.1%" height="177.5%" x="-11.1%" y="-41.7%" filterUnits="objectBoundingBox"><feOffset in="SourceAlpha" result="shadowOffsetOuter1"/><feGaussianBlur in="shadowOffsetOuter1" result="shadowBlurOuter1" stdDeviation="2"/><feComposite in="shadowBlurOuter1" in2="SourceAlpha" operator="out" result="shadowBlurOuter1"/><feColorMatrix in="shadowBlurOuter1" result="shadowMatrixOuter1" values="0 0 0 0 0 0 0 0 0 0.870588235 0 0 0 0 0.843137255 0 0 0 0.4 0"/><feOffset dy="-1" in="SourceAlpha" result="shadowOffsetOuter2"/><feComposite in="shadowOffsetOuter2" in2="SourceAlpha" operator="out" result="shadowOffsetOuter2"/><feColorMatrix in="shadowOffsetOuter2" result="shadowMatrixOuter2" values="0 0 0 0 0 0 0 0 0 0 0 0 0 0 0 0 0 0 0.06 0"/><feMerge><feMergeNode in="shadowMatrixOuter1"/><feMergeNode in="shadowMatrixOuter2"/></feMerge></filter><path id="Q" d="M14.066 13.223l13.01-6.94a.692.692 0 0 1 .646-.004l13.306 6.941a.692.692 0 0 1-.01 1.233l-13.25 6.63a.818.818 0 0 1-.738-.004L14.077 14.45a.692.692 0 0 1-.01-1.227z"/><filter id="P" width="114.5%" height="126.7%" x="-7.2%" y="-13.4%" filterUnits="objectBoundingBox"><feGaussianBlur in="SourceAlpha" result="shadowBlurInner1" stdDeviation="1.5"/><feOffset dx="1" dy="1" in="shadowBlurInner1" result="shadowOffsetInner1"/><feComposite in="shadowOffsetInner1" in2="SourceAlpha" k2="-1" k3="1" operator="arithmetic" result="shadowInnerInner1"/><feColorMatrix in="shadowInnerInner1" values="0 0 0 0 0 0 0 0 0 0 0 0 0 0 0 0 0 0 0.23 0"/></filter><filter id="R" width="231.7%" height="347.7%" x="-65.9%" y="-123.9%" filterUnits="objectBoundingBox"><feGaussianBlur in="SourceGraphic" stdDeviation="4"/></filter><filter id="S" width="161.8%" height="165.2%" x="-30.9%" y="-26.1%" filterUnits="objectBoundingBox"><feOffset dy="5" in="SourceAlpha" result="shadowOffsetOuter1"/><feGaussianBlur in="shadowOffsetOuter1" result="shadowBlurOuter1" stdDeviation="3.5"/><feColorMatrix in="shadowBlurOuter1" result="shadowMatrixOuter1" values="0 0 0 0 0 0 0 0 0 0 0 0 0 0 0 0 0 0 0.1 0"/><feMerge><feMergeNode in="shadowMatrixOuter1"/><feMergeNode in="SourceGraphic"/></feMerge></filter><path id="T" d="M10.572 9.335L.452 3.677V.483l9.593 5.143a1 1 0 0 1 .527.882v2.827z"/><filter id="U" width="129.6%" height="133.9%" x="-14.8%" y="-16.9%" filterUnits="objectBoundingBox"><feGaussianBlur in="SourceAlpha" result="shadowBlurInner1" stdDeviation="1"/><feOffset dx="-1" dy="1" in="shadowBlurInner1" result="shadowOffsetInner1"/><feComposite in="shadowOffsetInner1" in2="SourceAlpha" k2="-1" k3="1" operator="arithmetic" result="shadowInnerInner1"/><feColorMatrix in="shadowInnerInner1" values="0 0 0 0 0 0 0 0 0 0 0 0 0 0 0 0 0 0 0.2 0"/></filter><path id="V" d="M32.052 5.662L13.945 15.27l.04-3.037a1 1 0 0 1 .528-.87l17.47-9.337.069 3.636z"/><filter id="W" width="122.1%" height="130.2%" x="-11%" y="-15.1%" filterUnits="objectBoundingBox"><feGaussianBlur in="SourceAlpha" result="shadowBlurInner1" stdDeviation="1.5"/><feOffset dx="1" dy="1" in="shadowBlurInner1" result="shadowOffsetInner1"/><feComposite in="shadowOffsetInner1" in2="SourceAlpha" k2="-1" k3="1" operator="arithmetic" result="shadowInnerInner1"/><feColorMatrix in="shadowInnerInner1" values="0 0 0 0 0 0 0 0 0 0 0 0 0 0 0 0 0 0 0.25 0"/></filter><path id="Y" d="M54.285.153v3.49L28.037 16.728a2 2 0 0 1-1.788-.001L0 3.575v-3.4l26.241 13.15a2 2 0 0 0 1.793 0L54.285.153z"/><filter id="X" width="122.1%" height="177.5%" x="-11.1%" y="-41.7%" filterUnits="objectBoundingBox"><feOffset in="SourceAlpha" result="shadowOffsetOuter1"/><feGaussianBlur in="shadowOffsetOuter1" result="shadowBlurOuter1" stdDeviation="2"/><feComposite in="shadowBlurOuter1" in2="SourceAlpha" operator="out" result="shadowBlurOuter1"/><feColorMatrix in="shadowBlurOuter1" result="shadowMatrixOuter1" values="0 0 0 0 0 0 0 0 0 0.870588235 0 0 0 0 0.843137255 0 0 0 0.4 0"/><feOffset dy="-1" in="SourceAlpha" result="shadowOffsetOuter2"/><feComposite in="shadowOffsetOuter2" in2="SourceAlpha" operator="out" result="shadowOffsetOuter2"/><feColorMatrix in="shadowOffsetOuter2" result="shadowMatrixOuter2" values="0 0 0 0 0 0 0 0 0 0 0 0 0 0 0 0 0 0 0.06 0"/><feMerge><feMergeNode in="shadowMatrixOuter1"/><feMergeNode in="shadowMatrixOuter2"/></feMerge></filter><path id="aa" d="M14.066 13.223l13.01-6.94a.692.692 0 0 1 .646-.004l13.306 6.941a.692.692 0 0 1-.01 1.233l-13.25 6.63a.818.818 0 0 1-.738-.004L14.077 14.45a.692.692 0 0 1-.01-1.227z"/><filter id="Z" width="114.5%" height="126.7%" x="-7.2%" y="-13.4%" filterUnits="objectBoundingBox"><feGaussianBlur in="SourceAlpha" result="shadowBlurInner1" stdDeviation="1.5"/><feOffset dx="1" dy="1" in="shadowBlurInner1" result="shadowOffsetInner1"/><feComposite in="shadowOffsetInner1" in2="SourceAlpha" k2="-1" k3="1" operator="arithmetic" result="shadowInnerInner1"/><feColorMatrix in="shadowInnerInner1" values="0 0 0 0 0 0 0 0 0 0 0 0 0 0 0 0 0 0 0.23 0"/></filter><filter id="ab" width="231.7%" height="347.7%" x="-65.9%" y="-123.9%" filterUnits="objectBoundingBox"><feGaussianBlur in="SourceGraphic" stdDeviation="4"/></filter><filter id="ac" width="161.8%" height="165.2%" x="-30.9%" y="-26.1%" filterUnits="objectBoundingBox"><feOffset dy="5" in="SourceAlpha" result="shadowOffsetOuter1"/><feGaussianBlur in="shadowOffsetOuter1" result="shadowBlurOuter1" stdDeviation="3.5"/><feColorMatrix in="shadowBlurOuter1" result="shadowMatrixOuter1" values="0 0 0 0 0 0 0 0 0 0 0 0 0 0 0 0 0 0 0.1 0"/><feMerge><feMergeNode in="shadowMatrixOuter1"/><feMergeNode in="SourceGraphic"/></feMerge></filter><path id="ad" d="M10.572 9.335L.452 3.677V.483l9.593 5.143a1 1 0 0 1 .527.882v2.827z"/><filter id="ae" width="129.6%" height="133.9%" x="-14.8%" y="-16.9%" filterUnits="objectBoundingBox"><feGaussianBlur in="SourceAlpha" result="shadowBlurInner1" stdDeviation="1"/><feOffset dx="-1" dy="1" in="shadowBlurInner1" result="shadowOffsetInner1"/><feComposite in="shadowOffsetInner1" in2="SourceAlpha" k2="-1" k3="1" operator="arithmetic" result="shadowInnerInner1"/><feColorMatrix in="shadowInnerInner1" values="0 0 0 0 0 0 0 0 0 0 0 0 0 0 0 0 0 0 0.2 0"/></filter><path id="af" d="M32.052 5.662L13.945 15.27l.04-3.037a1 1 0 0 1 .528-.87l17.47-9.337.069 3.636z"/><filter id="ag" width="122.1%" height="130.2%" x="-11%" y="-15.1%" filterUnits="objectBoundingBox"><feGaussianBlur in="SourceAlpha" result="shadowBlurInner1" stdDeviation="1.5"/><feOffset dx="1" dy="1" in="shadowBlurInner1" result="shadowOffsetInner1"/><feComposite in="shadowOffsetInner1" in2="SourceAlpha" k2="-1" k3="1" operator="arithmetic" result="shadowInnerInner1"/><feColorMatrix in="shadowInnerInner1" values="0 0 0 0 0 0 0 0 0 0 0 0 0 0 0 0 0 0 0.25 0"/></filter><path id="ai" d="M54.285.153v3.49L28.037 16.728a2 2 0 0 1-1.788-.001L0 3.575v-3.4l26.241 13.15a2 2 0 0 0 1.793 0L54.285.153z"/><filter id="ah" width="122.1%" height="177.5%" x="-11.1%" y="-41.7%" filterUnits="objectBoundingBox"><feOffset in="SourceAlpha" result="shadowOffsetOuter1"/><feGaussianBlur in="shadowOffsetOuter1" result="shadowBlurOuter1" stdDeviation="2"/><feComposite in="shadowBlurOuter1" in2="SourceAlpha" operator="out" result="shadowBlurOuter1"/><feColorMatrix in="shadowBlurOuter1" result="shadowMatrixOuter1" values="0 0 0 0 0 0 0 0 0 0.870588235 0 0 0 0 0.843137255 0 0 0 0.4 0"/><feOffset dy="-1" in="SourceAlpha" result="shadowOffsetOuter2"/><feComposite in="shadowOffsetOuter2" in2="SourceAlpha" operator="out" result="shadowOffsetOuter2"/><feColorMatrix in="shadowOffsetOuter2" result="shadowMatrixOuter2" values="0 0 0 0 0 0 0 0 0 0 0 0 0 0 0 0 0 0 0.06 0"/><feMerge><feMergeNode in="shadowMatrixOuter1"/><feMergeNode in="shadowMatrixOuter2"/></feMerge></filter><path id="ak" d="M14.066 13.223l13.01-6.94a.692.692 0 0 1 .646-.004l13.306 6.941a.692.692 0 0 1-.01 1.233l-13.25 6.63a.818.818 0 0 1-.738-.004L14.077 14.45a.692.692 0 0 1-.01-1.227z"/><filter id="aj" width="114.5%" height="126.7%" x="-7.2%" y="-13.4%" filterUnits="objectBoundingBox"><feGaussianBlur in="SourceAlpha" result="shadowBlurInner1" stdDeviation="1.5"/><feOffset dx="1" dy="1" in="shadowBlurInner1" result="shadowOffsetInner1"/><feComposite in="shadowOffsetInner1" in2="SourceAlpha" k2="-1" k3="1" operator="arithmetic" result="shadowInnerInner1"/><feColorMatrix in="shadowInnerInner1" values="0 0 0 0 0 0 0 0 0 0 0 0 0 0 0 0 0 0 0.23 0"/></filter><filter id="al" width="231.7%" height="347.7%" x="-65.9%" y="-123.9%" filterUnits="objectBoundingBox"><feGaussianBlur in="SourceGraphic" stdDeviation="4"/></filter><linearGradient id="am" x1="50%" x2="50%" y1="0%" y2="100%"><stop offset="0%" stop-color="#AF9F87"/><stop offset="100%" stop-color="#E2D2BB"/></linearGradient><linearGradient id="an" x1="50%" x2="50%" y1="0%" y2="100%"><stop offset="0%" stop-color="#D5C2A4"/><stop offset="100%" stop-color="#E2D2BB"/></linearGradient><path id="ap" d="M32.746 156.434c-5.16 8.546-5.9 18.246-7.868 21.504-1.935 3.206-5.272 7.854-10.49 12.38-3.294 2.86-11.966 6.401-12.456 8.472-.49 2.071 9.834 0 9.834 2.607 0 2.606-10.324 2.606-9.834 3.91.179.475 14.446 4.084 22.946 3.258 7.025-.684 17.046-5.865 19.669-7.168 1.748-.87 1.748 8.036 0 26.716 2.603.246 5.663-.623 9.178-2.606 3.516-1.983 8.105-5.676 13.768-11.078l5.245 13.684s2.28-1.77 4.59-5.213c.966-1.44 2.496-4.264 4.589-8.47 4.544 3.92 8.478 6.744 11.8 8.47 4.985 2.59 15.764 8.75 18.358 6.517 1.08-.931-2.755-2.846-5.245-6.517-1.494-2.202-3.934-5.213-3.278-9.774.29-2.014 2.646 3.638 9.834 3.91 3.667.139 15.079-3.91 15.079-5.213 0-1.304-15.259-2.558-20.98-13.033-5.72-10.475-3.03-28.673-3.933-32.581-.903-3.909-3.59-.59-5.245-7.168-1.655-6.58.454-12.202 0-13.685-.454-1.482-1.64-2.56-4.59-1.303-2.95 1.257-3.347 1.864-4.589 5.213-1.241 3.35 2.722-3.652 0 7.168-2.721 10.82-5.96 19.807-7.211 21.504-1.252 1.696.655-11.73-1.312-11.73-1.31 0-5.026.652-11.145 1.955l5.245-5.864c-3.952-1.19-6.575-2.276-7.868-3.258-1.939-1.474-4.589-2.607-3.278-5.213.875-1.738-6.556-2.607-22.29-2.607-4.313 1.207-7.154 2.945-8.523 5.213z"/><filter id="ao" width="103.2%" height="109.3%" x="-1.6%" y="-2.3%" filterUnits="objectBoundingBox"><feOffset dy="4" in="SourceAlpha" result="shadowOffsetOuter1"/><feColorMatrix in="shadowOffsetOuter1" values="0 0 0 0 0.229963861 0 0 0 0 0.229963861 0 0 0 0 0.229963861 0 0 0 0.746744792 0"/></filter><linearGradient id="aq" x1="86.613%" x2="20.219%" y1="25.334%" y2="100%"><stop offset="0%" stop-color="#CBCBCB"/><stop offset="97.665%" stop-color="#FFFBD3"/></linearGradient><linearGradient id="at" x1="7.273%" y1="100%" y2="13.513%"><stop offset="0%" stop-color="#C8C8C8"/><stop offset="100%" stop-color="#F1F1F1"/></linearGradient><path id="as" d="M102.812 68.058c11.06 7.1 27.823-11.872 13.249 17.809-14.574 29.68-37.487 50.035-52.333 62.659-5.251 4.465-13.647 6.124-20.536 8.574-4.064 1.446-10.026 3.425-17.886 5.937-9.716 0-15.678-.66-17.886-1.98-3.313-1.978-5.962-21.765-4.637-22.425.883-.44 14.352 1.98 40.409 7.256 1.332 2.464 2.436 3.783 3.312 3.957.876.174 1.98-.705 3.312-2.638 1.325-13.631 1.325-21.326 0-23.085-1.987-2.639-18.93-6.019-25.835-7.256-12.367-2.215-19.211-.85-19.211-1.978 0-2.639 4.634-27.258 10.599-38.915 5.965-11.658 11.637-17.346 21.86-21.766 6.816-2.947 16.311-2.947 28.486 0 1.45 0 23.721 5.264 37.097 13.851z"/><filter id="ar" width="121%" height="122.5%" x="-10.5%" y="-7.7%" filterUnits="objectBoundingBox"><feOffset dy="4" in="SourceAlpha" result="shadowOffsetOuter1"/><feGaussianBlur in="shadowOffsetOuter1" result="shadowBlurOuter1" stdDeviation="3.5"/><feColorMatrix in="shadowBlurOuter1" values="0 0 0 0 0 0 0 0 0 0 0 0 0 0 0 0 0 0 0.5 0"/></filter><linearGradient id="au" x1="7.273%" y1="100%" y2="13.513%"><stop offset="0%" stop-color="#C8C8C8"/><stop offset="97.419%" stop-color="#B6B6B6"/></linearGradient><ellipse id="av" cx="55.085" cy="90.441" rx="17.258" ry="17.155"/><filter id="aw" width="117.4%" height="117.5%" x="-8.7%" y="-8.7%" filterUnits="objectBoundingBox"><feGaussianBlur in="SourceAlpha" result="shadowBlurInner1" stdDeviation="2"/><feOffset dy="2" in="shadowBlurInner1" result="shadowOffsetInner1"/><feComposite in="shadowOffsetInner1" in2="SourceAlpha" k2="-1" k3="1" operator="arithmetic" result="shadowInnerInner1"/><feColorMatrix in="shadowInnerInner1" values="0 0 0 0 0 0 0 0 0 0 0 0 0 0 0 0 0 0 0.5 0"/></filter><ellipse id="ay" cx="4.964" cy="5.059" rx="4.72" ry="4.204"/><filter id="ax" width="269.5%" height="290.3%" x="-84.7%" y="-47.6%" filterUnits="objectBoundingBox"><feOffset dy="4" in="SourceAlpha" result="shadowOffsetOuter1"/><feGaussianBlur in="shadowOffsetOuter1" result="shadowBlurOuter1" stdDeviation="2"/><feColorMatrix in="shadowBlurOuter1" values="0 0 0 0 0 0 0 0 0 0 0 0 0 0 0 0 0 0 0.5 0"/></filter><path id="az" d="M22.39 89.695c-7.717 8.773-11.576 13.621-11.576 14.545 0 1.385 11.577 4.848 14.15 4.848 1.714 0 .857-6.464-2.573-19.393z"/><filter id="aA" width="140%" height="130.9%" x="-20%" y="-15.5%" filterUnits="objectBoundingBox"><feGaussianBlur in="SourceAlpha" result="shadowBlurInner1" stdDeviation="2"/><feOffset dy="2" in="shadowBlurInner1" result="shadowOffsetInner1"/><feComposite in="shadowOffsetInner1" in2="SourceAlpha" k2="-1" k3="1" operator="arithmetic" result="shadowInnerInner1"/><feColorMatrix in="shadowInnerInner1" values="0 0 0 0 0 0 0 0 0 0 0 0 0 0 0 0 0 0 0.5 0"/></filter><linearGradient id="aB" x1="0%" x2="102%" y1="0%" y2="101%"><stop offset="0%" stop-color="#3023AE"/><stop offset="100%" stop-color="#C86DD7"/></linearGradient><linearGradient id="aC" x1="80.868%" x2="51.177%" y1="85.668%" y2="99.454%"><stop offset="0%" stop-color="#FF7D7D"/><stop offset="100%" stop-color="#F7B0B0" stop-opacity=".425"/></linearGradient><linearGradient id="aD" x1="80.868%" x2="51.746%" y1="85.668%" y2="99.189%"><stop offset="0%" stop-color="#FF7D7D"/><stop offset="100%" stop-color="#F7B0B0" stop-opacity=".552"/></linearGradient><path id="aF" d="M14.442 62.973c0-1.978-5.461-10.447 9.018-33.354C26.576 24.69 36.238 14.88 52.446.19c-.555 11.337-2.917 20.493-7.086 27.467-7.847 13.13-30.918 36.772-30.918 35.316z"/><filter id="aE" width="164.1%" height="139.8%" x="-32%" y="-13.5%" filterUnits="objectBoundingBox"><feOffset dy="4" in="SourceAlpha" result="shadowOffsetOuter1"/><feGaussianBlur in="shadowOffsetOuter1" result="shadowBlurOuter1" stdDeviation="3.5"/><feColorMatrix in="shadowBlurOuter1" values="0 0 0 0 0 0 0 0 0 0 0 0 0 0 0 0 0 0 0.229619565 0"/></filter><linearGradient id="aG" x1="80.868%" x2="51.307%" y1="85.668%" y2="99.393%"><stop offset="0%" stop-color="#FF7D7D"/><stop offset="100%" stop-color="#F7B0B0" stop-opacity=".476"/></linearGradient></defs><g fill="none" fill-rule="evenodd"><g fill-rule="nonzero"><path fill="url(#a)" d="M178.584 82.319v83.708c17.322-1.63 26.68-1.63 28.07 0 2.088 2.445-17.863 11.959-17.863 11.959s7.126 9.516 22.967 23.916c3.21 2.919 9.307 7.474 18.289 13.667 2.71-3.356 4.553-6.203 5.529-8.542.852-2.04 1.986-5.74 3.402-11.104-.162 6.028-.445 10.299-.85 12.813-.72 4.474-3.168 9.632-2.552 10.25 1.134 1.139 15.311 8.542 42.531 22.208l1.702-27.333-17.013-11.959c11.342 1.14 17.013 1.14 17.013 0 0-1.708 0-21.354-1.702-24.77-1.134-2.278-6.238-5.125-15.311-8.542l13.61-.854-11.909-28.188-40.83-10.25c10.112 1.95 16.917 3.09 20.415 3.417 11.437 1.07 17.013 1.708 18.714 0 1.134-1.14-3.402-7.972-13.61-20.5-19.565-.57-27.22-.854-22.967-.854l9.357-10.25-22.967-18.792h-34.025z" transform="scale(-1 1) rotate(-17 527.842 1550.569)"/><path fill="url(#a)" d="M132.498 89.728v83.708c17.322-1.63 26.679-1.63 28.07 0 2.087 2.445-17.863 11.958-17.863 11.958s7.126 9.517 22.967 23.917c3.21 2.918 9.307 7.474 18.289 13.667 2.71-3.356 4.552-6.203 5.529-8.542.851-2.04 1.986-5.741 3.402-11.104-.162 6.027-.446 10.298-.85 12.812-.72 4.475-3.168 9.633-2.552 10.25 1.134 1.14 15.311 8.542 42.531 22.209l1.701-27.333-17.012-11.959c11.342 1.139 17.012 1.139 17.012 0 0-1.708 0-21.354-1.7-24.77-1.135-2.279-6.239-5.126-15.312-8.542l13.61-.855-11.909-28.187-40.83-10.25c10.112 1.95 16.917 3.09 20.415 3.416 11.436 1.07 17.013 1.709 18.714 0 1.134-1.138-3.403-7.972-13.61-20.5-19.565-.569-27.22-.854-22.967-.854l9.357-10.25-22.967-18.791h-34.025z" transform="scale(-1 1) rotate(-17 481.756 1557.977)"/><path fill="url(#b)" d="M184.344 116.923l-24.49 79.88c-16.07-6.6-25.008-9.325-26.814-8.175-2.71 1.725 13.565 16.613 13.565 16.613s-9.591 7.006-28.937 16.135c-3.92 1.85-11.076 4.421-21.468 7.715-1.606-3.991-2.534-7.245-2.782-9.761-.217-2.195-.217-6.057-.002-11.587-1.608 5.799-2.587 9.957-2.936 12.474-.62 4.48.208 10.114-.56 10.524-1.418.757-17.126 3.692-47.126 8.807l6.372-26.579 19.75-6.457c-11.167-2.216-16.584-3.867-16.251-4.954.5-1.63 6.247-20.377 8.872-23.142 1.75-1.844 7.458-3.074 17.125-3.692l-12.75-4.779 19.622-23.43 42 2.11c-10.23-1.084-17.063-1.98-20.5-2.685-11.237-2.31-16.75-3.325-17.876-5.45-.75-1.417 5.583-6.617 18.999-15.6 18.855 5.155 26.25 7.113 22.188 5.874l-5.939-12.506 27.437-11.244 32.501 9.91z" transform="scale(-1 1) rotate(-41 114.991 772.844)"/><path fill="url(#a)" d="M21.397 69.971v83.709c17.182-1.63 26.463-1.63 27.843 0 2.07 2.445-17.718 11.958-17.718 11.958s7.067 9.516 22.78 23.917c3.184 2.918 9.23 7.474 18.14 13.666 2.687-3.355 4.516-6.203 5.484-8.541.845-2.04 1.97-5.742 3.375-11.105-.161 6.028-.442 10.299-.844 12.813-.714 4.475-3.142 9.632-2.531 10.25 1.125 1.139 15.187 8.542 42.186 22.208l1.687-27.333-16.874-11.958c11.25 1.139 16.874 1.139 16.874 0 0-1.709 0-21.355-1.687-24.771-1.125-2.278-6.188-5.125-15.187-8.542l13.5-.854-11.813-28.188-40.498-10.25c10.03 1.95 16.78 3.09 20.25 3.417 11.343 1.07 16.873 1.708 18.56 0 1.126-1.139-3.374-7.972-13.499-20.5-19.405-.57-26.998-.854-22.78-.854l9.28-10.25-22.78-18.792H21.398z" transform="rotate(-17 691.646 -612.33)"/><path fill="url(#a)" d="M215.084 68.27v83.709c18.449-1.63 28.414-1.63 29.896 0 2.223 2.445-19.025 11.958-19.025 11.958s7.59 9.516 24.461 23.917c3.42 2.918 9.912 7.474 19.478 13.666 2.886-3.355 4.849-6.203 5.889-8.541.907-2.04 2.115-5.742 3.624-11.104-.173 6.027-.475 10.298-.906 12.812-.768 4.475-3.374 9.632-2.718 10.25 1.208 1.139 16.307 8.542 45.298 22.208l1.811-27.333-18.119-11.958c12.08 1.139 18.12 1.139 18.12 0 0-1.709 0-21.355-1.812-24.771-1.208-2.278-6.644-5.125-16.308-8.542l14.496-.854-12.684-28.188-43.486-10.25c10.77 1.95 18.018 3.09 21.743 3.417 12.18 1.07 18.12 1.708 19.931 0 1.208-1.139-3.623-7.972-14.495-20.5-20.837-.57-28.99-.854-24.46-.854l9.965-10.25-24.461-18.792h-36.238z" transform="scale(-1 1) rotate(-17 567.634 1536.52)"/><g transform="scale(-1 1) rotate(6 -1397.111 -3520.67)"><use fill="#000" filter="url(#c)" xlink:href="#d"/><use fill="url(#e)" xlink:href="#d"/></g><path fill="url(#a)" d="M84.914 13.027v135.86c21.548-2.645 33.187-2.645 34.917 0 2.596 3.968-22.22 19.409-22.22 19.409s8.864 15.445 28.569 38.817c3.993 4.737 11.576 12.13 22.75 22.181 3.37-5.446 5.662-10.067 6.877-13.863 1.06-3.31 2.47-9.318 4.232-18.022-.202 9.782-.554 16.714-1.058 20.795-.896 7.262-3.94 15.633-3.174 16.636 1.41 1.848 19.046 13.863 52.905 36.044l2.116-44.362-21.162-19.409c14.108 1.849 21.162 1.849 21.162 0 0-2.773 0-34.658-2.116-40.204-1.411-3.696-7.76-8.318-19.046-13.863l16.93-1.386-14.814-45.75-50.789-16.635c12.579 3.165 21.044 5.014 25.395 5.545 14.226 1.737 21.162 2.773 23.278 0 1.41-1.848-4.232-12.939-16.93-33.272-24.336-.924-33.859-1.386-28.568-1.386l11.639-16.636-28.569-30.5H84.914z" transform="rotate(-17 691.646 -109.429)"/></g><g filter="url(#f)" opacity=".911" transform="matrix(-1 0 0 1 328 242)"><use fill="#000" filter="url(#g)" xlink:href="#h"/><path fill="url(#i)" fill-opacity=".38" d="M0 0h221L119.93 255.477h-9.43z"/></g><g filter="url(#j)" opacity=".911" transform="matrix(-1 0 0 1 328 242)"><use fill="#000" filter="url(#k)" xlink:href="#l"/><path fill="url(#i)" fill-opacity=".38" d="M35.531 77.059H187.47l-69.486 175.64H111.5z"/></g><g filter="url(#m)" transform="matrix(-1 0 0 1 235.642 491.58)"><path fill="#FFF" d="M42.434 11.062v12.666l-21.175 10.68L0 23.728V11.062l21.217 10.68z"/><path fill="url(#n)" d="M21.217 23.483l21.217-10.68V.137l-21.217 10.68z" transform="translate(0 10.925)"/><path fill="#1283E0" d="M21.217 34.408L0 23.728V11.062l21.217 10.68z"/><g transform="translate(11.714 21.01)"><use fill="#1283E0" xlink:href="#o"/><use fill="#000" filter="url(#p)" xlink:href="#o"/><path stroke="#FFF" stroke-linejoin="square" stroke-opacity=".3" stroke-width=".2" d="M8.166 6.934V5.102a.9.9 0 0 0-.484-.798L.454.532v2.206l7.712 4.196z"/></g><g transform="translate(11.714 21.01)"><use fill="url(#q)" xlink:href="#r"/><use fill="#000" filter="url(#s)" xlink:href="#r"/><path stroke="#FFF" stroke-linejoin="square" stroke-opacity=".15" stroke-width=".2" d="M24.958 4.248l-.05-2.543L11.516 8.67a.9.9 0 0 0-.485.786l-.026 1.996 13.953-7.205z"/></g><g transform="translate(0 10.925)"><use fill="#000" filter="url(#t)" xlink:href="#u"/><use fill="url(#v)" xlink:href="#u"/></g><path fill="url(#w)" d="M0 10.453L21.217 0 42.44 10.437 22.101 20.47a2 2 0 0 1-1.769 0L0 10.453z"/><use fill="#000" filter="url(#x)" xlink:href="#y"/><path fill="#000" d="M15.097 9.417l6.242-3.16c.197-.1.429-.1.625 0l6.242 3.16a.692.692 0 0 1-.028 1.249l-6.19 2.786a.818.818 0 0 1-.672 0l-6.19-2.786a.692.692 0 0 1-.029-1.25z" filter="url(#z)" opacity=".302"/><path fill="url(#A)" d="M42.441 10.437v.94l-20.338 9.968a2 2 0 0 1-1.764-.001L0 11.324v-.87L20.332 20.47a2 2 0 0 0 1.77 0l20.34-10.034z"/><use fill="#E5EBFF" xlink:href="#B"/><use fill="#000" filter="url(#C)" xlink:href="#B"/></g><g fill-rule="nonzero"><path fill="#F8E4FF" d="M105.234 192.17c-9.963 7.204-15.022 7.476-26.704 7.698-10.523.2-20.024-6.703-22.832-10.508-5.923-8.03-.59-12.527-6.346-19.104-5.755-6.576-13.934-2.644-17.518-8.164-3.584-5.52 3.16-35.273 2.451-39.298-.708-4.024-8.584-1.378-10.328-5.485-1.745-4.108 3.833-9.36 2.328-12.597-1.505-3.237-5.8 4.988-10.106-4.13-4.307-9.117-2.9-20.284-2.202-21.926.698-1.642 3.549 9.963 6.61 11.56 3.061 1.598 2.15-6.217 5.576-5.2 3.427 1.017 3.759 6.899 8.84 9.48 5.083 2.582 4.29-4.16 9.979.079 5.688 4.24 9.673 13.103 10.528 15.204.855 2.1-4.851-1.126-4.07.667.783 1.793 3.138 4.922 6.817 5.633 9.71 1.874 17.058-1.832 23.97 1.106 3.87 1.647 6.4 9.494 8.783 11.097 3.575 2.404 7.856.325 10.74 1.454 5.91 2.315 9.348 6.498 12.63 9.073 4.883 3.832 4.886 8.396 5.773 12.34.592 2.63.38 6.129-.636 10.498-1.435-5.265-2.617-7.464-3.546-6.598-.854.796.284 11.628-2.388 22.036-1.692 6.59-7.257 14.294-8.35 15.084z"/><path fill="#8B572A" d="M76.219 173.353l67.614 87.6 29.641 31.787c23.47 29.95 25.05 28.477 4.74-4.42-20.31-32.898-53.412-81.439-99.306-145.625l-2.69 30.658z"/><path fill="#6B431F" d="M62.252 146.788l52.075 70.194 22.55 25.942c18.057 24.031 19.127 23.102 3.208-2.788-15.918-25.89-34.777-53.372-56.576-82.444l-21.257-10.904z"/><path fill="#8B51C7" d="M100.78 180.684c-.494-.017-23.272 17.53-37.478-.5-2.038-2.586-5.666-8.506-6.7-16.688-.581-4.592.88-8.042-.849-14.326-1.73-6.284-5.447-5.9-6.146-9.386-1.941-9.682 2.228-17.747 1.736-18.822-1.002-2.193 6.704 8.866 6.704 8.866s-1.372-7.06.448-5.11c.478.513 2.944 4.033 9.473 6.806 4.65 1.974 12.759 2.874 17.353 5.191 3.553 1.793 7.064 4.253 10.532 7.381l-3.806-6.876c3.912.681 6.667 1.587 8.267 2.716 5.793 4.09 9.246 10.18 9.805 12.751 3.53 16.25-8.802 28.016-9.34 27.997z" opacity=".3"/><path fill="#6D42BE" d="M98.217 176.818c-.308.346-11.597 7.931-22.409.566-5.225-3.559-13.45-22.905-13.442-24.476.009-1.572 7.297 6.244 6.485-.313-.337-2.722-6.174-6.834-8.004-10.26-2.579-4.83-1.315-8.678-1.315-8.678s2.29 3.404 8.154 5.95c6.409 2.78 22.973 1.75 30.375 10.77 7.402 9.022 8.298 17.284.156 26.441z" opacity=".99"/><path fill="#2B105C" d="M76.961 149.747c-.446-.056 1.606 4.758 1.67 6.262.09 2.136.426 3.252 1.688 5.724 1.155 2.26 3.444 4.206 2.785 5.223-.855 1.318-7.003-4.156-7.56-3.636-.558.52 3.177 7.619 6.795 10.083 2.908 1.98 8.15 1.261 9.718-.2 3.625-3.38 7.153-6.335 6.545-9.752-1.353-7.6-8.46-9.089-10.197-9.258-.678-.066-.118 1.987.665 3.508 1.283 2.494 2.806 5.245.93 4.91-1.877-.336-10.085-12.491-13.039-12.864z"/></g><g fill-rule="nonzero"><path fill="#F8E4FF" d="M324.766 196.17c9.963 7.204 15.022 7.476 26.704 7.698 10.523.2 20.024-6.703 22.832-10.508 5.923-8.03.59-12.527 6.346-19.104 5.755-6.576 13.934-2.644 17.518-8.164 3.584-5.52-3.16-35.273-2.451-39.298.708-4.024 8.584-1.378 10.328-5.485 1.745-4.108-3.833-9.36-2.328-12.597 1.505-3.237 5.8 4.988 10.106-4.13 4.307-9.117 2.9-20.284 2.202-21.926-.698-1.642-3.549 9.963-6.61 11.56-3.061 1.598-2.15-6.217-5.576-5.2-3.427 1.017-3.759 6.899-8.84 9.48-5.083 2.582-4.29-4.16-9.979.079-5.688 4.24-9.673 13.103-10.528 15.204-.855 2.1 4.851-1.126 4.07.667-.783 1.793-3.138 4.922-6.817 5.633-9.71 1.874-17.058-1.832-23.97 1.106-3.87 1.647-6.4 9.494-8.783 11.097-3.575 2.404-7.856.325-10.74 1.454-5.91 2.315-9.348 6.498-12.63 9.073-4.883 3.832-4.886 8.396-5.773 12.34-.592 2.63-.38 6.129.636 10.498 1.435-5.265 2.617-7.464 3.546-6.598.854.796-.284 11.628 2.388 22.036 1.692 6.59 7.257 14.294 8.35 15.084z"/><path fill="#8B572A" d="M353.781 177.353l-67.614 87.6-29.641 31.787c-23.47 29.95-25.05 28.477-4.74-4.42 20.31-32.898 53.412-81.439 99.306-145.625l2.69 30.658z"/><path fill="#6B431F" d="M367.748 150.788l-52.075 70.194-22.55 25.942c-18.057 24.031-19.127 23.102-3.208-2.788 15.918-25.89 34.777-53.372 56.576-82.444l21.257-10.904z"/><path fill="#8B51C7" d="M329.22 184.684c.494-.017 23.272 17.53 37.478-.5 2.038-2.586 5.666-8.506 6.7-16.688.581-4.592-.88-8.042.849-14.326 1.73-6.284 5.447-5.9 6.146-9.386 1.941-9.682-2.228-17.747-1.736-18.822 1.002-2.193-6.704 8.866-6.704 8.866s1.372-7.06-.448-5.11c-.478.513-2.944 4.033-9.473 6.806-4.65 1.974-12.759 2.874-17.353 5.191-3.553 1.793-7.064 4.253-10.532 7.381l3.806-6.876c-3.912.681-6.667 1.587-8.267 2.716-5.793 4.09-9.246 10.18-9.805 12.751-3.53 16.25 8.802 28.016 9.34 27.997z" opacity=".3"/><path fill="#6D42BE" d="M331.783 180.818c.308.346 11.597 7.931 22.409.566 5.225-3.559 13.45-22.905 13.442-24.476-.009-1.572-7.297 6.244-6.485-.313.337-2.722 6.174-6.834 8.004-10.26 2.579-4.83 1.315-8.678 1.315-8.678s-2.29 3.404-8.154 5.95c-6.409 2.78-22.973 1.75-30.375 10.77-7.402 9.022-8.298 17.284-.156 26.441z" opacity=".99"/><path fill="#2B105C" d="M353.039 153.747c.446-.056-1.606 4.758-1.67 6.262-.09 2.136-.426 3.252-1.688 5.724-1.155 2.26-3.444 4.206-2.785 5.223.855 1.318 7.003-4.156 7.56-3.636.558.52-3.177 7.619-6.795 10.083-2.908 1.98-8.15 1.261-9.718-.2-3.625-3.38-7.153-6.335-6.545-9.752 1.353-7.6 8.46-9.089 10.197-9.258.678-.066.118 1.987-.665 3.508-1.283 2.494-2.806 5.245-.93 4.91 1.877-.336 10.085-12.491 13.039-12.864z"/></g><g transform="matrix(-1 0 0 1 406 163.477)"><use fill="#000" filter="url(#D)" xlink:href="#E"/><use fill="url(#F)" xlink:href="#E"/></g><g transform="matrix(-1 0 0 1 406 163.477)"><mask id="H" fill="#fff"><use xlink:href="#G"/></mask><use fill="#FFF" xlink:href="#G"/><g stroke="#9B9B9B" stroke-linecap="square" stroke-width=".2" mask="url(#H)"><path d="M-78.852-145.898L724.163 263.26M-85.904-132.058l803.015 409.156M-92.955-118.22L710.06 290.938m-922.89-173.89l803.015 409.157M-100.007-104.38l803.015 409.157M-107.058-90.54l803.015 409.156M-114.11-76.701l803.015 409.156M-121.161-62.862l803.015 409.156M-128.212-49.023l803.015 409.157M-135.264-35.184l803.015 409.157M-142.315-21.344L660.7 387.812M-149.367-7.505L653.648 401.65M-156.418 6.334l803.015 409.157M-163.47 20.173L639.545 429.33M-170.521 34.013l803.015 409.156M-177.573 47.852l803.015 409.157M-184.624 61.691L618.39 470.848M-191.676 75.53L611.34 484.687M-198.727 89.37l803.015 409.156m-810.066-395.317l803.015 409.157" opacity=".552"/><path d="M-107.058-90.54l803.015 409.156M-156.418 6.334l803.015 409.157M-142.315-21.344L660.7 387.812" opacity=".1"/><path d="M629.083-213.352L-378.416 299.994m1014.548-499.51L-371.366 313.83M643.182-185.68L-364.316 327.666m1014.548-499.51L-357.266 341.502m1014.548-499.51L-350.216 355.338m1014.547-499.51L-343.167 369.174m1014.548-499.51L-336.117 383.01M678.43-116.5L-329.066 396.846M685.48-102.664L-322.016 410.682M692.53-88.828L-314.968 424.518M699.58-74.992L-307.918 438.354M706.63-61.156L-300.868 452.19M713.68-47.32L-293.818 466.026M720.73-33.484l-1007.5 513.346M727.78-19.648l-1007.5 513.346M734.83-5.812l-1007.5 513.346M741.879 8.024L-265.62 521.37M748.929 21.86L-258.57 535.205" opacity=".3"/><path d="M643.182-185.68L-364.316 327.666M692.53-88.828L-314.968 424.518M678.43-116.5L-329.066 396.846M685.48-102.664L-322.016 410.682" opacity=".1"/></g></g><g filter="url(#I)" transform="matrix(-1 0 0 1 84 224.587)"><path fill="#FFF" d="M54.276 14.539v16.646L27.192 45.222 0 31.185V14.54l27.138 14.037z"/><path fill="url(#n)" d="M27.138 30.863l27.138-14.037V.18L27.138 14.217z" transform="translate(0 14.359)"/><path fill="#1283E0" d="M27.138 45.222L0 31.185V14.54l27.138 14.037z"/><g transform="translate(14.983 27.613)"><use fill="#1283E0" xlink:href="#J"/><use fill="#000" filter="url(#K)" xlink:href="#J"/><path stroke="#FFF" stroke-linejoin="square" stroke-opacity=".3" stroke-width=".2" d="M10.472 9.164V6.508a.9.9 0 0 0-.474-.793L.553.65v2.968l9.92 5.546z"/></g><g transform="translate(14.983 27.613)"><use fill="url(#q)" xlink:href="#L"/><use fill="#000" filter="url(#M)" xlink:href="#L"/><path stroke="#FFF" stroke-linejoin="square" stroke-opacity=".15" stroke-width=".2" d="M31.95 5.603l-.064-3.412-17.326 9.26a.9.9 0 0 0-.475.783l-.037 2.868 17.903-9.5z"/></g><g transform="translate(0 14.359)"><use fill="#000" filter="url(#N)" xlink:href="#O"/><use fill="url(#v)" xlink:href="#O"/></g><path fill="url(#w)" d="M0 13.739L27.138 0l27.147 13.717L28.042 27.02a2 2 0 0 1-1.808 0L0 13.74z"/><use fill="#000" filter="url(#P)" xlink:href="#Q"/><path fill="#000" d="M18.908 12.585l8.466-4.405a.692.692 0 0 1 .64 0l8.466 4.405a.692.692 0 0 1-.029 1.243l-8.414 3.891c-.217.1-.469.1-.686 0l-8.414-3.891a.692.692 0 0 1-.03-1.243z" filter="url(#R)" opacity=".302"/><path fill="url(#A)" d="M54.285 13.717v1.235l-26.24 13.216a2 2 0 0 1-1.803-.002L0 14.884v-1.145l26.234 13.28a2 2 0 0 0 1.808 0l26.243-13.302z"/></g><g fill-rule="nonzero"><path fill="#F5F2C6" d="M56.375 237.997c2.67-.367 3.522-1.15 5.425-3.03 1.715-1.693 2.206-4.47 2.087-5.602-.25-2.388-1.776-2.304-1.836-4.408-.06-2.104 1.836-2.755 1.586-4.316s-5.773-5.695-6.26-6.52c-.488-.826 1.168-1.653.834-2.664-.334-1.01-2.011-1.019-2.253-1.836-.243-.818 1.673-.074 1.001-2.388-.672-2.314-2.564-4.05-2.921-4.224-.357-.175.92 2.338.668 3.122-.252.784-1.273-.742-1.67 0s.428 1.833 0 3.122c-.428 1.29-1.308-.028-1.586 1.653-.278 1.682.408 3.898.585 4.408.176.511.608-.995.75-.55.143.444.233 1.382-.25 2.112-1.274 1.925-3.005 2.48-3.672 4.132-.374.926.392 2.724.25 3.398-.213 1.01-1.21 1.348-1.502 2.02-.601 1.379-.527 2.68-.668 3.674-.21 1.477.471 2.282.918 3.122.298.56.854 1.142 1.67 1.745-.557-1.163-.696-1.745-.418-1.745.256 0 1.69 2.095 3.673 3.49 1.255.883 3.296 1.326 3.589 1.285z"/><path fill="#F9D850" d="M54.963 235.645c.074-.084 6.138-.732 5.734-6.224-.058-.788-.351-2.422-1.373-4.028-.573-.901-1.298-1.268-1.938-2.654-.64-1.387-.009-1.929-.404-2.655-1.098-2.018-2.909-2.751-2.988-3.02-.161-.55.242 2.654.242 2.654s-.807-1.465-.807-.824c0 .168.126 1.19-.485 2.746-.435 1.108-1.56 2.594-1.938 3.753-.291.897-.48 1.904-.565 3.02l-.404-1.83c-.507.76-.804 1.37-.888 1.83-.307 1.668.038 3.302.323 3.845 1.8 3.432 5.41 3.479 5.491 3.387z"/><path fill="#F7A643" d="M54.979 234.5c.098.01 2.96-.51 3.574-3.592.297-1.49-1.232-6.263-1.462-6.54-.23-.276-.23 2.306-1.056 1.014-.343-.537-.031-2.225-.244-3.132-.3-1.278-1.056-1.75-1.056-1.75s.138.979-.406 2.395c-.595 1.547-3.326 4.094-3.169 6.908.158 2.813 1.219 4.42 3.819 4.697z"/><path fill="#DB4029" d="M54.98 226.338c.059-.088.424 1.165.624 1.457.285.414.39.68.547 1.36.143.622.071 1.382.312 1.457.312.097.468-1.991.625-1.991.156 0 .588 1.972.39 3.06-.16.874-1.044 1.651-1.483 1.651-1.015 0-1.956.063-2.342-.68-.859-1.651-.002-3.164.234-3.497.092-.13.295.35.39.77.156.687.313 1.464.547 1.076.234-.389-.234-4.08.156-4.663z"/></g><g filter="url(#S)" transform="matrix(-1 0 0 1 243 307.587)"><path fill="#FFF" d="M54.276 14.539v16.646L27.192 45.222 0 31.185V14.54l27.138 14.037z"/><path fill="url(#n)" d="M27.138 30.863l27.138-14.037V.18L27.138 14.217z" transform="translate(0 14.359)"/><path fill="#1283E0" d="M27.138 45.222L0 31.185V14.54l27.138 14.037z"/><g transform="translate(14.983 27.613)"><use fill="#1283E0" xlink:href="#T"/><use fill="#000" filter="url(#U)" xlink:href="#T"/><path stroke="#FFF" stroke-linejoin="square" stroke-opacity=".3" stroke-width=".2" d="M10.472 9.164V6.508a.9.9 0 0 0-.474-.793L.553.65v2.968l9.92 5.546z"/></g><g transform="translate(14.983 27.613)"><use fill="url(#q)" xlink:href="#V"/><use fill="#000" filter="url(#W)" xlink:href="#V"/><path stroke="#FFF" stroke-linejoin="square" stroke-opacity=".15" stroke-width=".2" d="M31.95 5.603l-.064-3.412-17.326 9.26a.9.9 0 0 0-.475.783l-.037 2.868 17.903-9.5z"/></g><g transform="translate(0 14.359)"><use fill="#000" filter="url(#X)" xlink:href="#Y"/><use fill="url(#v)" xlink:href="#Y"/></g><path fill="url(#w)" d="M0 13.739L27.138 0l27.147 13.717L28.042 27.02a2 2 0 0 1-1.808 0L0 13.74z"/><use fill="#000" filter="url(#Z)" xlink:href="#aa"/><path fill="#000" d="M18.908 12.585l8.466-4.405a.692.692 0 0 1 .64 0l8.466 4.405a.692.692 0 0 1-.029 1.243l-8.414 3.891c-.217.1-.469.1-.686 0l-8.414-3.891a.692.692 0 0 1-.03-1.243z" filter="url(#ab)" opacity=".302"/><path fill="url(#A)" d="M54.285 13.717v1.235l-26.24 13.216a2 2 0 0 1-1.803-.002L0 14.884v-1.145l26.234 13.28a2 2 0 0 0 1.808 0l26.243-13.302z"/></g><g fill-rule="nonzero"><path fill="#F5F2C6" d="M215.375 320.997c2.67-.367 3.522-1.15 5.425-3.03 1.715-1.693 2.206-4.47 2.087-5.602-.25-2.388-1.776-2.304-1.836-4.408-.06-2.104 1.836-2.755 1.586-4.316s-5.773-5.695-6.26-6.52c-.488-.826 1.168-1.653.834-2.664-.334-1.01-2.011-1.019-2.253-1.836-.243-.818 1.673-.074 1.001-2.388-.672-2.314-2.564-4.05-2.921-4.224-.357-.175.92 2.338.668 3.122-.252.784-1.273-.742-1.67 0s.428 1.833 0 3.122c-.428 1.29-1.308-.028-1.586 1.653-.278 1.682.408 3.898.585 4.408.176.511.608-.995.75-.55.143.444.233 1.382-.25 2.112-1.274 1.925-3.005 2.48-3.672 4.132-.374.926.392 2.724.25 3.398-.213 1.01-1.21 1.348-1.502 2.02-.601 1.379-.527 2.68-.668 3.674-.21 1.477.471 2.282.918 3.122.298.56.854 1.142 1.67 1.745-.557-1.163-.696-1.745-.418-1.745.256 0 1.69 2.095 3.673 3.49 1.255.883 3.296 1.326 3.589 1.285z"/><path fill="#F9D850" d="M213.963 318.645c.074-.084 6.138-.732 5.734-6.224-.058-.788-.351-2.422-1.373-4.028-.573-.901-1.298-1.268-1.938-2.654-.64-1.387-.009-1.929-.404-2.655-1.098-2.018-2.909-2.751-2.988-3.02-.161-.55.242 2.654.242 2.654s-.807-1.465-.807-.824c0 .168.126 1.19-.485 2.746-.435 1.108-1.56 2.594-1.938 3.753-.291.897-.48 1.904-.565 3.02l-.404-1.83c-.507.76-.804 1.37-.888 1.83-.307 1.668.038 3.302.323 3.845 1.8 3.432 5.41 3.479 5.491 3.387z"/><path fill="#F7A643" d="M213.979 317.5c.098.01 2.96-.51 3.574-3.592.297-1.49-1.232-6.263-1.462-6.54-.23-.276-.23 2.306-1.056 1.014-.343-.537-.031-2.225-.244-3.132-.3-1.278-1.056-1.75-1.056-1.75s.138.979-.406 2.395c-.595 1.547-3.326 4.094-3.169 6.908.158 2.813 1.219 4.42 3.819 4.697z"/><path fill="#DB4029" d="M213.98 309.338c.059-.088.424 1.165.624 1.457.285.414.39.68.547 1.36.143.622.071 1.382.312 1.457.312.097.468-1.991.625-1.991.156 0 .588 1.972.39 3.06-.16.874-1.044 1.651-1.483 1.651-1.015 0-1.956.063-2.342-.68-.859-1.651-.002-3.164.234-3.497.092-.13.295.35.39.77.156.687.313 1.464.547 1.076.234-.389-.234-4.08.156-4.663z"/></g><g filter="url(#ac)" transform="matrix(-1 0 0 1 400 226.587)"><path fill="#FFF" d="M54.276 14.539v16.646L27.192 45.222 0 31.185V14.54l27.138 14.037z"/><path fill="url(#n)" d="M27.138 30.863l27.138-14.037V.18L27.138 14.217z" transform="translate(0 14.359)"/><path fill="#1283E0" d="M27.138 45.222L0 31.185V14.54l27.138 14.037z"/><g transform="translate(14.983 27.613)"><use fill="#1283E0" xlink:href="#ad"/><use fill="#000" filter="url(#ae)" xlink:href="#ad"/><path stroke="#FFF" stroke-linejoin="square" stroke-opacity=".3" stroke-width=".2" d="M10.472 9.164V6.508a.9.9 0 0 0-.474-.793L.553.65v2.968l9.92 5.546z"/></g><g transform="translate(14.983 27.613)"><use fill="url(#q)" xlink:href="#af"/><use fill="#000" filter="url(#ag)" xlink:href="#af"/><path stroke="#FFF" stroke-linejoin="square" stroke-opacity=".15" stroke-width=".2" d="M31.95 5.603l-.064-3.412-17.326 9.26a.9.9 0 0 0-.475.783l-.037 2.868 17.903-9.5z"/></g><g transform="translate(0 14.359)"><use fill="#000" filter="url(#ah)" xlink:href="#ai"/><use fill="url(#v)" xlink:href="#ai"/></g><path fill="url(#w)" d="M0 13.739L27.138 0l27.147 13.717L28.042 27.02a2 2 0 0 1-1.808 0L0 13.74z"/><use fill="#000" filter="url(#aj)" xlink:href="#ak"/><path fill="#000" d="M18.908 12.585l8.466-4.405a.692.692 0 0 1 .64 0l8.466 4.405a.692.692 0 0 1-.029 1.243l-8.414 3.891c-.217.1-.469.1-.686 0l-8.414-3.891a.692.692 0 0 1-.03-1.243z" filter="url(#al)" opacity=".302"/><path fill="url(#A)" d="M54.285 13.717v1.235l-26.24 13.216a2 2 0 0 1-1.803-.002L0 14.884v-1.145l26.234 13.28a2 2 0 0 0 1.808 0l26.243-13.302z"/></g><g fill-rule="nonzero"><path fill="#F5F2C6" d="M372.375 239.997c2.67-.367 3.522-1.15 5.425-3.03 1.715-1.693 2.206-4.47 2.087-5.602-.25-2.388-1.776-2.304-1.836-4.408-.06-2.104 1.836-2.755 1.586-4.316s-5.773-5.695-6.26-6.52c-.488-.826 1.168-1.653.834-2.664-.334-1.01-2.011-1.019-2.253-1.836-.243-.818 1.673-.074 1.001-2.388-.672-2.314-2.564-4.05-2.921-4.224-.357-.175.92 2.338.668 3.122-.252.784-1.273-.742-1.67 0s.428 1.833 0 3.122c-.428 1.29-1.308-.028-1.586 1.653-.278 1.682.408 3.898.585 4.408.176.511.608-.995.75-.55.143.444.233 1.382-.25 2.112-1.274 1.925-3.005 2.48-3.672 4.132-.374.926.392 2.724.25 3.398-.213 1.01-1.21 1.348-1.502 2.02-.601 1.379-.527 2.68-.668 3.674-.21 1.477.471 2.282.918 3.122.298.56.854 1.142 1.67 1.745-.557-1.163-.696-1.745-.418-1.745.256 0 1.69 2.095 3.673 3.49 1.255.883 3.296 1.326 3.589 1.285z"/><path fill="#F9D850" d="M370.963 237.645c.074-.084 6.138-.732 5.734-6.224-.058-.788-.351-2.422-1.373-4.028-.573-.901-1.298-1.268-1.938-2.654-.64-1.387-.009-1.929-.404-2.655-1.098-2.018-2.909-2.751-2.988-3.02-.161-.55.242 2.654.242 2.654s-.807-1.465-.807-.824c0 .168.126 1.19-.485 2.746-.435 1.108-1.56 2.594-1.938 3.753-.291.897-.48 1.904-.565 3.02l-.404-1.83c-.507.76-.804 1.37-.888 1.83-.307 1.668.038 3.302.323 3.845 1.8 3.432 5.41 3.479 5.491 3.387z"/><path fill="#F7A643" d="M370.979 236.5c.098.01 2.96-.51 3.574-3.592.297-1.49-1.232-6.263-1.462-6.54-.23-.276-.23 2.306-1.056 1.014-.343-.537-.031-2.225-.244-3.132-.3-1.278-1.056-1.75-1.056-1.75s.138.979-.406 2.395c-.595 1.547-3.326 4.094-3.169 6.908.158 2.813 1.219 4.42 3.819 4.697z"/><path fill="#DB4029" d="M370.98 228.338c.059-.088.424 1.165.624 1.457.285.414.39.68.547 1.36.143.622.071 1.382.312 1.457.312.097.468-1.991.625-1.991.156 0 .588 1.972.39 3.06-.16.874-1.044 1.651-1.483 1.651-1.015 0-1.956.063-2.342-.68-.859-1.651-.002-3.164.234-3.497.092-.13.295.35.39.77.156.687.313 1.464.547 1.076.234-.389-.234-4.08.156-4.663z"/></g><path d="M65.226 25.607c0 1.331 8.887 36.622 8.887 39.285 0 2.663-8.168-1.656-9.521 0-1.354 1.656-1.905 7.99.634 9.322 2.54 1.332 23.486 0 26.66-5.327 1.217-2.043-3.784-17.551-6.348-27.966-1.262-5.127-2.743-12.007-4.443-20.641l-14.599-6.66c-.846 7.103-1.27 11.098-1.27 11.986zM37.838 18.3s-4.2 1.48-10.144 5.31c-2.138 1.377-4.438 2.655-6.34 5.31-1.902 2.656 8.876 20.578 6.34 23.233-2.536 2.656-19.055 4.9-20.922 4.647-1.867-.252-1.888-4.786 0-7.302s4.438-1.991 6.974-1.991c2.536 0-12.68-23.897-12.046-26.552.423-1.77 6.552-5.532 18.386-11.285l15.216-7.965L37.838 18.3z" fill="url(#am)" fill-rule="nonzero" transform="rotate(-8 1536.298 -1074.992)"/><path d="M34.852 62.704c-2.758-1.576-11.294-8.834-15.932-16.598-1.592-2.664-2.887-5.542-3.319-7.967-.286-1.608-.286-3.157 0-4.647-1.483.253-2.811-.854-3.983-3.32-.49-1.034-.933-3.911-1.327-8.631-2.222-2.076-3.77-3.404-4.647-3.984-1.404-.929-2.655-.664-3.319-1.328-1.173-1.173-1.991-2.055 0-4.647s9.824 7.091 10.621 5.975c.797-1.116-6.718-8.482-7.302-10.623-.584-2.14.08-3.983 3.983-1.991 3.903 1.991 4.639 10.396 5.974 11.286 1.336.89 1.328-4.627 1.328-7.967S13.145 2.83 15.6 1.622c2.656-1.304 3.58-1.304 4.648 1.33.645 1.589 1.087 6.015 1.328 13.278 1.77.443 3.097 0 3.982-1.328 1.328-1.991-.663-3.983 1.328-4.647 1.991-.664 5.01 1.152 3.983 4.647-1.028 3.496-3.983 5.312-7.966 6.64-3.983 1.328 1.818 10.28 5.31 15.27 3.493 4.99 10.062 8.889 12.613 11.95 1.701 2.042 3.029 4.698 3.983 7.968-3.54 5.754-6.86 7.746-9.957 5.975zm32.867-2.981c1.767-.429 13.255-4.506 34.462-12.23l4.64 9.012c6.915-.634 12.438-2.136 16.568-4.506 6.193-3.555 13.254-10.943 12.591-12.23-.269-.523-3.42.41-4.639-1.288-1.188-1.654-1.63-4.23-1.325-7.724.96-1.712 2.065-2.785 3.313-3.218 1.874-.65 4.346-1.224 5.965 0 1.62 1.223.587 3.48 0 4.506-.586 1.025-3.314.178-3.314 1.287 0 1.108-.092 4.701 3.314 2.575 3.406-2.127 3.195-6.534 5.965-8.368 2.769-1.834 4.444-1.786 6.627-.644s2.007 2.575.663 3.218c-1.345.644-1.345-1.448-3.977.644-2.632 2.092-5.677 6.054-3.313 6.437 2.363.383 6.455-3.493 9.278-3.218 2.823.274 4.123 1.896 2.65 3.862-.66.882-4.45-.667-6.626 0-1.055.323-4.754.458-2.651 3.862.622 1.007 4.187.582 5.301 1.287 1.397.884 2.47 1.99 1.989 3.862-.482 1.872-1.215 1.458-3.314 1.288-2.1-.17 1.215-3.017-2.65-2.575-1.498.171-4.27-.197-5.966.644-1.224.607-7.627 10.043-15.242 15.448-5.077 3.604-11.704 6.393-19.882 8.368L84.95 84.183c-13.255-15.877-18.998-24.03-17.231-24.46z" fill="url(#an)" fill-rule="nonzero" transform="rotate(-8 899.037 -947.867)"/><g fill-rule="nonzero" transform="rotate(-8 187.627 -898.12)"><use fill="#000" filter="url(#ao)" xlink:href="#ap"/><use fill="#4E4F55" xlink:href="#ap"/></g><path fill="url(#aq)" fill-rule="nonzero" d="M6.095 115.437L4.77 137.753l46.371 12.752c4.858-20.828 6.845-31.242 5.962-31.242s-16.561-2.338-47.034-7.014l-3.974 3.188z" transform="rotate(-8 170.314 -1173.35)"/><path fill="#4F5056" fill-rule="nonzero" d="M186.358 74.929c-1.036 2.144-7.94 24.427-6.168 27.509 1.18 2.054 4.019 3.21 8.514 3.465l3.77-17.016 2.78-12.544c-5.24-2.372-8.205-2.844-8.896-1.414z"/><path fill="#FFFBD3" fill-rule="nonzero" d="M180.014 80.805c-.442.912-3.38 10.4-2.627 11.713.503.874 1.712 1.366 3.626 1.475l1.605-7.245 1.183-5.341c-2.23-1.01-3.493-1.211-3.787-.602z"/><path stroke="#505050" stroke-width="1.663" d="M188.16 138.36c.605-.084 9.832-3.019 23.8-2.012 4.16.3 12.331 1.886 24.513 4.757"/><g fill-rule="nonzero" transform="rotate(-8 170.314 -1173.35)"><use fill="#000" filter="url(#ar)" xlink:href="#as"/><use fill="url(#at)" xlink:href="#as"/></g><path fill="url(#au)" fill-rule="nonzero" d="M104.115 67.082c11.06 7.1 27.822-11.872 13.249 17.809-14.574 29.68-28.404 41.548-59.547 33.418-7.86-2.052-17.625-9.199-22.182-14.56-13.5-15.881-4.746-47.213 2.897-50.518 6.816-2.946 16.311-2.946 28.486 0 1.45 0 23.72 5.264 37.097 13.851z" transform="rotate(-8 170.314 -1173.35)"/><path stroke="#505050" stroke-width="1.663" d="M198.972 124.852c.414 5.286.743 9.347.985 12.184.243 2.837.61 6.892 1.1 12.168m14.118-23.298l1.337 23.79"/><g fill-rule="nonzero" transform="rotate(-8 170.314 -1173.35)"><use fill="#4F5056" xlink:href="#av"/><use fill="#000" filter="url(#aw)" xlink:href="#av"/></g><g fill-rule="nonzero" transform="rotate(-8 748.356 -1570.16)"><use fill="#000" filter="url(#ax)" xlink:href="#ay"/><use fill="#FFFBD3" xlink:href="#ay"/></g><g fill-rule="nonzero" transform="rotate(-8 170.314 -1173.35)"><use fill="#4F5056" xlink:href="#az"/><use fill="#000" filter="url(#aA)" xlink:href="#az"/></g><g fill-rule="nonzero"><path fill="url(#aB)" d="M15.005 63.037c.833 0 12.32-.072 26.214-10.474 7.966-5.964 34.28-31.373 26.214-28.15-4.537 1.813-22.7 9.024-36.044 19.171-10.38 7.894-17.244 19.453-16.384 19.453z" opacity=".99" transform="rotate(-8 158.868 -1337.037)"/><path stroke="url(#aC)" stroke-linecap="round" stroke-width=".9" d="M15.26 61.737c3.074 0 12.077-6.484 27.01-19.452" transform="rotate(-8 158.868 -1337.037)"/><path fill="url(#aB)" d="M15.32 61.934c-1.793-.498-9.544-5.414-11.388-11.3-2.582-8.244-2.397-30.573-1.198-34.56.777-2.588 4.756 6.985 8.18 15.951 1.851 4.85 4.976 9.64 5.605 11.963 1.792 6.622 3.596 19.275-1.199 17.946z" opacity=".99" transform="rotate(-8 158.868 -1337.037)"/><path stroke="url(#aD)" stroke-linecap="round" stroke-width=".9" d="M16.026 59.619c-3.18-3.415-5.534-6.835-7.061-10.261-1.527-3.427-3.175-8.984-4.943-16.674" transform="rotate(-8 158.868 -1337.037)"/><g opacity=".99" transform="rotate(-8 158.868 -1337.037)"><use fill="#000" filter="url(#aE)" xlink:href="#aF"/><use fill="url(#aB)" xlink:href="#aF"/></g><path stroke="url(#aG)" stroke-width=".9" d="M16.715 61.064s-.66-4.046 6.464-15.71c1.045-1.713 8.534-11.363 10.728-13.618 2.945-3.026 5.259-6.7 6.942-11.023" transform="rotate(-8 158.868 -1337.037)"/></g><g fill-rule="nonzero"><path fill="#F8E4FF" d="M154.438 109.398c-3.532-.381-4.657-1.193-7.174-3.142-2.267-1.755-2.916-4.634-2.759-5.807.331-2.475 2.348-2.388 2.428-4.57.08-2.18-2.428-2.855-2.097-4.474.331-1.618 7.633-5.903 8.277-6.759.645-.855-1.545-1.713-1.103-2.76.441-1.047 2.66-1.057 2.98-1.904.32-.848-2.213-.077-1.325-2.475.888-2.399 3.39-4.198 3.863-4.38.472-.18-1.216 2.424-.883 3.237.333.813 1.683-.769 2.207 0 .525.77-.566 1.9 0 3.237.566 1.337 1.73-.03 2.097 1.714.367 1.742-.539 4.04-.773 4.569-.233.53-.804-1.032-.993-.571-.188.46-.307 1.433.331 2.19 1.686 1.995 3.973 2.57 4.856 4.283.495.96-.519 2.824-.33 3.523.281 1.047 1.598 1.397 1.986 2.094.794 1.429.696 2.778.883 3.808.277 1.531-.624 2.365-1.214 3.236-.394.581-1.13 1.184-2.208 1.81.736-1.207.92-1.81.552-1.81-.338 0-2.235 2.172-4.856 3.618-1.66.915-4.358 1.374-4.745 1.333z"/><path fill="#E2AAF6" d="M156.304 106.96c-.098-.088-8.115-.76-7.581-6.453.077-.817.464-2.51 1.815-4.175.758-.935 1.717-1.315 2.563-2.752.846-1.437.011-1.999.534-2.752 1.451-2.091 3.846-2.852 3.95-3.131.214-.57-.32 2.752-.32 2.752s1.068-1.518 1.068-.854c0 .174-.167 1.233.64 2.846.576 1.149 2.065 2.69 2.563 3.89.386.93.635 1.974.748 3.132l.533-1.898c.672.788 1.063 1.421 1.175 1.898.405 1.728-.05 3.422-.427 3.985-2.38 3.558-7.154 3.606-7.26 3.511z"/><path fill="#C04BFF" d="M156.284 105.772c-.13.01-3.914-.528-4.726-3.724-.393-1.544 1.63-6.492 1.933-6.779.304-.286.304 2.39 1.396 1.05.454-.555.041-2.305.323-3.245.396-1.325 1.396-1.815 1.396-1.815s-.182 1.015.537 2.483c.786 1.604 4.398 4.244 4.19 7.16-.21 2.917-1.612 4.584-5.05 4.87z"/><path fill="#8012A0" d="M156.282 97.311c-.078-.091-.56 1.208-.826 1.51-.376.43-.516.705-.722 1.41-.189.645-.095 1.433-.413 1.51-.413.101-.62-2.064-.826-2.064-.206 0-.777 2.045-.516 3.172.21.907 1.381 1.712 1.961 1.712 1.342 0 2.586.065 3.097-.705 1.135-1.711.003-3.28-.31-3.625-.122-.135-.39.363-.516.798-.206.713-.413 1.518-.722 1.116-.31-.403.31-4.23-.207-4.834z"/><path fill="#F8E4FF" d="M299.985 124.704c-3.532-.38-4.657-1.192-7.174-3.141-2.267-1.756-2.916-4.634-2.759-5.807.331-2.475 2.348-2.389 2.428-4.57.08-2.18-2.428-2.856-2.097-4.474.332-1.618 7.633-5.903 8.278-6.759.644-.855-1.546-1.713-1.104-2.76.441-1.048 2.66-1.057 2.98-1.904.32-.848-2.213-.077-1.325-2.476.889-2.398 3.391-4.198 3.863-4.379.472-.18-1.216 2.424-.883 3.237.333.813 1.683-.77 2.207 0 .525.77-.566 1.9 0 3.237.567 1.337 1.73-.03 2.097 1.713.368 1.743-.539 4.04-.772 4.57-.234.529-.805-1.032-.994-.571-.188.46-.307 1.433.331 2.19 1.686 1.995 3.973 2.57 4.856 4.283.495.96-.519 2.824-.33 3.522.282 1.048 1.598 1.397 1.986 2.095.794 1.429.696 2.778.883 3.807.277 1.532-.623 2.366-1.214 3.237-.394.58-1.13 1.184-2.208 1.809.736-1.206.92-1.809.552-1.809-.338 0-2.235 2.172-4.856 3.618-1.659.915-4.358 1.374-4.745 1.332z"/><path fill="#E2AAF6" d="M301.851 122.266c-.097-.087-8.115-.76-7.58-6.453.076-.816.463-2.51 1.814-4.175.759-.934 1.717-1.314 2.563-2.751.846-1.438.011-1.999.534-2.752 1.452-2.092 3.846-2.852 3.95-3.131.214-.57-.32 2.751-.32 2.751s1.068-1.518 1.068-.854c0 .175-.167 1.234.64 2.847.576 1.149 2.065 2.689 2.563 3.89.386.93.635 1.974.748 3.132l.534-1.898c.67.788 1.062 1.42 1.174 1.898.405 1.728-.05 3.422-.427 3.985-2.38 3.557-7.154 3.606-7.26 3.51z"/><path fill="#C04BFF" d="M301.83 121.079c-.129.01-3.913-.528-4.725-3.724-.393-1.544 1.63-6.492 1.933-6.779.304-.286.304 2.39 1.397 1.05.453-.556.04-2.306.322-3.246.396-1.325 1.396-1.814 1.396-1.814s-.182 1.015.537 2.483c.786 1.604 4.398 4.244 4.19 7.16-.209 2.917-1.612 4.583-5.05 4.87z"/><path fill="#8012A0" d="M301.83 112.618c-.079-.092-.561 1.208-.826 1.51-.377.429-.516.705-.723 1.41-.189.645-.095 1.433-.413 1.51-.413.101-.62-2.064-.825-2.064-.207 0-.778 2.044-.517 3.172.21.906 1.381 1.712 1.962 1.712 1.341 0 2.585.065 3.096-.705 1.135-1.712.003-3.28-.31-3.625-.122-.135-.39.363-.516.797-.206.713-.413 1.519-.722 1.116-.31-.403.31-4.23-.207-4.833z"/></g></g></svg>