<svg xmlns="http://www.w3.org/2000/svg" xmlns:xlink="http://www.w3.org/1999/xlink" width="85" height="142"><defs><linearGradient id="a" x1="50%" x2="50%" y1="0%" y2="100%"><stop offset="0%" stop-color="#AF9F87"/><stop offset="100%" stop-color="#E2D2BB"/></linearGradient><linearGradient id="b" x1="50%" x2="50%" y1="0%" y2="100%"><stop offset="0%" stop-color="#D5C2A4"/><stop offset="100%" stop-color="#E2D2BB"/></linearGradient><path id="d" d="M17.099 81.76c-2.694 4.466-3.081 9.536-4.108 11.239a27.383 27.383 0 0 1-5.478 6.47c-1.72 1.495-6.248 3.346-6.504 4.428-.256 1.083 5.135 0 5.135 1.363 0 1.362-5.391 1.362-5.135 2.043.093.249 7.543 2.135 11.982 1.703 3.667-.357 8.9-3.065 10.27-3.746.913-.455.913 4.2 0 13.963 1.36.128 2.957-.326 4.793-1.362 1.835-1.037 4.232-2.967 7.189-5.79l2.738 7.152s1.191-.925 2.397-2.725c.504-.753 1.303-2.229 2.396-4.427 2.373 2.05 4.427 3.525 6.162 4.427 2.603 1.354 8.231 4.574 9.586 3.406.564-.486-1.439-1.487-2.739-3.406-.78-1.15-2.054-2.724-1.712-5.108.151-1.053 1.382 1.901 5.135 2.043 1.915.073 7.874-2.043 7.874-2.724s-7.967-1.337-10.955-6.812c-2.987-5.474-1.582-14.986-2.054-17.028-.47-2.043-1.874-.308-2.738-3.747-.864-3.438.237-6.377 0-7.152-.237-.775-.857-1.338-2.397-.68-1.54.656-1.748.973-2.396 2.724-.648 1.75 1.421-1.91 0 3.746-1.421 5.655-3.112 10.352-3.766 11.239-.653.887.342-6.13-.685-6.13-.684 0-2.624.34-5.82 1.021l2.74-3.065c-2.064-.622-3.434-1.19-4.109-1.703-1.012-.77-2.396-1.362-1.711-2.724.456-.908-3.424-1.363-11.64-1.363-2.252.631-3.735 1.54-4.45 2.725z"/><filter id="c" width="103%" height="108.9%" x="-1.5%" y="-2.2%" filterUnits="objectBoundingBox"><feOffset dy="2" in="SourceAlpha" result="shadowOffsetOuter1"/><feColorMatrix in="shadowOffsetOuter1" values="0 0 0 0 0.229963861 0 0 0 0 0.229963861 0 0 0 0 0.229963861 0 0 0 0.746744792 0"/></filter><linearGradient id="e" x1="86.613%" x2="20.219%" y1="25.334%" y2="100%"><stop offset="0%" stop-color="#CBCBCB"/><stop offset="97.665%" stop-color="#FFFBD3"/></linearGradient><linearGradient id="h" x1="7.273%" y1="100%" y2="13.513%"><stop offset="0%" stop-color="#C8C8C8"/><stop offset="100%" stop-color="#F1F1F1"/></linearGradient><path id="g" d="M53.893 35.519c5.798 3.705 14.585-6.196 6.945 9.294-7.64 15.49-19.65 26.112-27.432 32.7-2.753 2.33-7.154 3.197-10.765 4.475-2.13.755-5.256 1.787-9.376 3.098-5.093 0-8.218-.344-9.376-1.032C2.153 83.02.764 72.694 1.46 72.35c.463-.23 7.523 1.033 21.182 3.787.698 1.286 1.277 1.974 1.736 2.065.46.091 1.038-.368 1.736-1.377.695-7.114.695-11.13 0-12.048-1.041-1.377-9.923-3.14-13.542-3.786-6.483-1.156-10.07-.444-10.07-1.033 0-1.377 2.429-14.225 5.555-20.309 3.127-6.084 6.1-9.052 11.46-11.36 3.572-1.537 8.55-1.537 14.931 0 .76 0 12.435 2.748 19.446 7.23z"/><filter id="f" width="122.4%" height="124.2%" x="-11.2%" y="-8.6%" filterUnits="objectBoundingBox"><feOffset dy="2" in="SourceAlpha" result="shadowOffsetOuter1"/><feGaussianBlur in="shadowOffsetOuter1" result="shadowBlurOuter1" stdDeviation="2"/><feColorMatrix in="shadowBlurOuter1" values="0 0 0 0 0 0 0 0 0 0 0 0 0 0 0 0 0 0 0.5 0"/></filter><linearGradient id="i" x1="7.273%" y1="100%" y2="13.513%"><stop offset="0%" stop-color="#C8C8C8"/><stop offset="97.419%" stop-color="#B6B6B6"/></linearGradient><ellipse id="j" cx="28.875" cy="47.2" rx="9.047" ry="8.953"/><filter id="k" width="116.6%" height="116.8%" x="-8.3%" y="-8.4%" filterUnits="objectBoundingBox"><feGaussianBlur in="SourceAlpha" result="shadowBlurInner1" stdDeviation="1"/><feOffset dy="1" in="shadowBlurInner1" result="shadowOffsetInner1"/><feComposite in="shadowOffsetInner1" in2="SourceAlpha" k2="-1" k3="1" operator="arithmetic" result="shadowInnerInner1"/><feColorMatrix in="shadowInnerInner1" values="0 0 0 0 0 0 0 0 0 0 0 0 0 0 0 0 0 0 0.5 0"/></filter><ellipse id="m" cx="2.482" cy="2.81" rx="2.36" ry="2.336"/><filter id="l" width="269.5%" height="271.3%" x="-84.7%" y="-42.8%" filterUnits="objectBoundingBox"><feOffset dy="2" in="SourceAlpha" result="shadowOffsetOuter1"/><feGaussianBlur in="shadowOffsetOuter1" result="shadowBlurOuter1" stdDeviation="1"/><feColorMatrix in="shadowBlurOuter1" values="0 0 0 0 0 0 0 0 0 0 0 0 0 0 0 0 0 0 0.5 0"/></filter><path id="n" d="M11.737 46.81c-4.046 4.579-6.069 7.11-6.069 7.591 0 .723 6.069 2.53 7.418 2.53.899 0 .45-3.373-1.349-10.12z"/><filter id="o" width="138.1%" height="129.6%" x="-19.1%" y="-14.8%" filterUnits="objectBoundingBox"><feGaussianBlur in="SourceAlpha" result="shadowBlurInner1" stdDeviation="1"/><feOffset dy="1" in="shadowBlurInner1" result="shadowOffsetInner1"/><feComposite in="shadowOffsetInner1" in2="SourceAlpha" k2="-1" k3="1" operator="arithmetic" result="shadowInnerInner1"/><feColorMatrix in="shadowInnerInner1" values="0 0 0 0 0 0 0 0 0 0 0 0 0 0 0 0 0 0 0.5 0"/></filter><linearGradient id="p" x1="50%" x2="50%" y1="0%" y2="100%"><stop offset="0%" stop-color="#FAD961"/><stop offset="100%" stop-color="#F76B1C"/></linearGradient><linearGradient id="q" x1="80.868%" x2="51.177%" y1="85.668%" y2="99.454%"><stop offset="0%" stop-color="#FDFEFF"/><stop offset="100%" stop-color="#F7B0B0" stop-opacity=".425"/></linearGradient><path id="s" d="M7.571 32.764c0-1.03-2.863-5.436 4.728-17.354C13.933 12.845 18.998 7.742 27.495.1c-.29 5.899-1.529 10.662-3.714 14.29C19.666 21.22 7.57 33.522 7.57 32.765z"/><filter id="r" width="168.4%" height="142.8%" x="-34.2%" y="-15.3%" filterUnits="objectBoundingBox"><feOffset dy="2" in="SourceAlpha" result="shadowOffsetOuter1"/><feGaussianBlur in="shadowOffsetOuter1" result="shadowBlurOuter1" stdDeviation="2"/><feColorMatrix in="shadowBlurOuter1" values="0 0 0 0 0 0 0 0 0 0 0 0 0 0 0 0 0 0 0.229619565 0"/></filter></defs><g fill="none" fill-rule="evenodd"><path d="M34.06 13.383c0 .696 4.64 19.14 4.64 20.533 0 1.392-4.266-.866-4.972 0-.707.865-.995 4.176.331 4.872 1.326.696 12.264 0 13.92-2.784.636-1.068-1.975-9.173-3.314-14.617-.659-2.68-1.432-6.275-2.32-10.788l-7.623-3.48c-.442 3.712-.663 5.8-.663 6.264zM19.758 9.564s-2.193.774-5.297 2.776c-1.116.72-2.317 1.387-3.31 2.775-.994 1.388 4.634 10.755 3.31 12.143-1.324 1.388-9.95 2.56-10.925 2.428-.975-.131-.986-2.5 0-3.816.986-1.315 2.318-1.04 3.642-1.04 1.324 0-6.621-12.49-6.29-13.878.22-.925 3.42-2.891 9.6-5.898L18.434.891l1.324 8.673z" fill="url(#a)" fill-rule="nonzero" transform="scale(-1 1) rotate(-8 730.732 577.74)"/><path d="M18.198 32.772c-1.44-.824-5.897-4.617-8.318-8.675-.832-1.392-1.508-2.896-1.734-4.164a6.61 6.61 0 0 1 0-2.429c-.774.133-1.467-.446-2.08-1.735-.256-.54-.487-2.044-.693-4.51-1.16-1.086-1.968-1.78-2.426-2.083-.733-.485-1.386-.347-1.733-.694-.612-.613-1.04-1.074 0-2.429C2.254 4.7 6.344 9.76 6.76 9.176c.416-.583-3.508-4.433-3.813-5.552-.305-1.119.042-2.082 2.08-1.04 2.038 1.04 2.422 5.433 3.12 5.898.697.466.693-2.418.693-4.164 0-1.745-1.976-2.839-.694-3.47 1.387-.682 1.869-.682 2.427.694.337.83.568 3.144.693 6.94.924.232 1.618 0 2.08-.694.693-1.04-.347-2.082.693-2.429s2.616.602 2.08 2.43c-.537 1.826-2.08 2.775-4.16 3.47-2.08.693.95 5.372 2.773 7.98 1.824 2.609 5.254 4.646 6.586 6.246.888 1.067 1.581 2.455 2.08 4.164-1.849 3.008-3.582 4.049-5.2 3.123zm17.162-1.558c.923-.224 6.922-2.355 17.996-6.392l2.422 4.71c3.611-.331 6.495-1.116 8.651-2.355 3.235-1.858 6.922-5.72 6.576-6.392-.141-.273-1.786.215-2.423-.673-.62-.865-.851-2.21-.692-4.037.501-.895 1.078-1.456 1.73-1.682.978-.34 2.27-.64 3.115 0 .845.64.306 1.82 0 2.355-.306.536-1.73.094-1.73.673 0 .58-.049 2.457 1.73 1.346 1.778-1.112 1.668-3.416 3.114-4.374 1.446-.958 2.321-.933 3.46-.336 1.14.596 1.049 1.345.347 1.682-.702.336-.702-.757-2.076.336-1.375 1.093-2.965 3.164-1.73 3.364 1.233.2 3.37-1.825 4.844-1.682 1.474.144 2.153.992 1.384 2.019-.345.461-2.324-.349-3.46 0-.55.169-2.482.24-1.384 2.018.324.527 2.186.305 2.768.673.73.462 1.29 1.04 1.038 2.019-.251.978-.634.761-1.73.673-1.096-.09.634-1.577-1.384-1.346-.782.09-2.23-.103-3.115.336-.639.318-3.983 5.25-7.96 8.075-2.65 1.883-6.11 3.34-10.38 4.373l-12.113 7.401c-6.921-8.298-9.92-12.56-8.997-12.784z" fill="url(#b)" fill-rule="nonzero" transform="scale(-1 1) rotate(-8 397.667 644.142)"/><g fill-rule="nonzero" transform="scale(-1 1) rotate(-8 25.85 670.142)"><use fill="#000" filter="url(#c)" xlink:href="#d"/><use fill="#4E4F55" xlink:href="#d"/></g><path fill="url(#e)" fill-rule="nonzero" d="M3.195 60.245L2.5 71.891l24.308 6.655c2.546-10.87 3.588-16.304 3.125-16.304-.463 0-8.681-1.22-24.655-3.66l-2.083 1.663z" transform="scale(-1 1) rotate(-8 16.81 526.426)"/><path fill="#4F5056" fill-rule="nonzero" d="M61.903 40.152c.544 1.12 4.169 12.752 3.242 14.36-.619 1.071-2.106 1.674-4.462 1.806l-1.981-8.883-1.461-6.548c2.745-1.236 4.3-1.481 4.662-.735z"/><path fill="#FFFBD3" fill-rule="nonzero" d="M65.23 43.22c.232.477 1.775 5.43 1.38 6.115-.263.456-.896.713-1.9.769l-.843-3.782-.622-2.788c1.169-.527 1.83-.631 1.985-.313z"/><path stroke="#505050" stroke-width=".924" d="M60.978 73.259c-.317-.045-5.154-1.58-12.475-1.059-2.18.156-6.463.98-12.847 2.475"/><g fill-rule="nonzero" transform="scale(-1 1) rotate(-8 16.81 526.426)"><use fill="#000" filter="url(#f)" xlink:href="#g"/><use fill="url(#h)" xlink:href="#g"/></g><path fill="url(#i)" fill-rule="nonzero" d="M54.576 35.01c5.798 3.705 14.585-6.197 6.945 9.293-7.64 15.49-14.888 21.684-31.214 17.44-4.12-1.07-9.238-4.8-11.627-7.598-7.077-8.288-2.488-24.64 1.518-26.364 3.573-1.538 8.55-1.538 14.932 0 .76 0 12.435 2.747 19.446 7.228z" transform="scale(-1 1) rotate(-8 16.81 526.426)"/><path stroke="#505050" stroke-width=".924" d="M55.307 66.205a939.48 939.48 0 0 1-.512 6.358c-.127 1.48-.318 3.597-.573 6.35M46.815 66.75l-.694 12.415"/><g fill-rule="nonzero" transform="scale(-1 1) rotate(-8 16.81 526.426)"><use fill="#4F5056" xlink:href="#j"/><use fill="#000" filter="url(#k)" xlink:href="#j"/></g><g fill-rule="nonzero" transform="scale(-1 1) rotate(-8 318.425 318.517)"><use fill="#000" filter="url(#l)" xlink:href="#m"/><use fill="#FFFBD3" xlink:href="#m"/></g><g fill-rule="nonzero" transform="scale(-1 1) rotate(-8 16.81 526.426)"><use fill="#4F5056" xlink:href="#n"/><use fill="#000" filter="url(#o)" xlink:href="#n"/></g><path fill="url(#p)" fill-rule="nonzero" d="M7.867 32.797c.436 0 6.458-.037 13.742-5.45 4.177-3.102 17.972-16.322 13.743-14.645-2.378.943-11.9 4.694-18.896 9.974-5.442 4.107-9.04 10.121-8.59 10.121z" opacity=".99" transform="scale(-1 1) rotate(-8 10.81 440.622)"/><path stroke="url(#q)" stroke-width=".5" d="M8 32.12c1.612 0 6.332-3.373 14.16-10.12" transform="scale(-1 1) rotate(-8 10.81 440.622)"/><path fill="url(#p)" fill-rule="nonzero" d="M8.032 32.223c-.94-.259-5.004-2.817-5.97-5.879C.708 22.054.805 10.438 1.433 8.363c.408-1.347 2.494 3.634 4.288 8.299.971 2.523 2.61 5.015 2.94 6.224.938 3.445 1.885 10.029-.63 9.337z" opacity=".99" transform="scale(-1 1) rotate(-8 10.81 440.622)"/><path stroke="url(#q)" stroke-width=".5" d="M8.402 31.018C6.734 29.242 5.5 27.463 4.7 25.68c-.8-1.783-1.665-4.674-2.592-8.675" transform="scale(-1 1) rotate(-8 10.81 440.622)"/><g fill-rule="nonzero" opacity=".99" transform="scale(-1 1) rotate(-8 10.81 440.622)"><use fill="#000" filter="url(#r)" xlink:href="#s"/><use fill="url(#p)" xlink:href="#s"/></g><path stroke="url(#q)" stroke-width=".5" d="M8.763 31.77s-.346-2.105 3.389-8.173c.548-.891 4.474-5.912 5.624-7.085 1.544-1.574 2.757-3.486 3.64-5.735" transform="scale(-1 1) rotate(-8 10.81 440.622)"/></g></svg>