<svg xmlns="http://www.w3.org/2000/svg" xmlns:xlink="http://www.w3.org/1999/xlink" width="458" height="540"><defs><linearGradient id="c" x1="-107.685%" x2="63.716%" y1="23.862%" y2="78.524%"><stop offset="0%" stop-color="#170D62"/><stop offset="44.601%" stop-color="#017A8B"/><stop offset="100%" stop-color="#00E2AC"/></linearGradient><path id="b" d="M78.867 65.702L115.73 186.36c24.352-10.02 37.894-14.163 40.625-12.43 4.097 2.6-20.586 25.147-20.586 25.147s14.503 10.561 43.77 24.304c5.932 2.785 16.761 6.652 32.487 11.601 2.444-6.037 3.858-10.957 4.24-14.76.335-3.317.347-9.155.035-17.512 2.42 8.76 3.89 15.041 4.411 18.845.928 6.768-.342 15.285.821 15.904 2.143 1.14 25.92 5.532 71.334 13.179l-9.575-40.152-29.888-9.703c16.916-3.38 25.123-5.892 24.622-7.533-.752-2.463-9.404-30.78-13.37-34.951-2.645-2.781-11.286-4.626-25.922-5.533l19.321-7.257-29.648-35.356-63.605 3.304c15.494-1.666 25.844-3.038 31.05-4.115 17.023-3.52 25.374-5.07 27.084-8.286 1.14-2.144-8.435-9.984-28.725-23.522-28.565 7.842-39.77 10.821-33.615 8.938l9.028-18.917-41.514-16.917-49.243 15.065z"/><filter id="a" width="109.3%" height="112%" x="-4.7%" y="-3%" filterUnits="objectBoundingBox"><feOffset dy="8" in="SourceAlpha" result="shadowOffsetOuter1"/><feGaussianBlur in="shadowOffsetOuter1" result="shadowBlurOuter1" stdDeviation="2"/><feColorMatrix in="shadowBlurOuter1" values="0 0 0 0 0 0 0 0 0 0 0 0 0 0 0 0 0 0 0.5 0"/></filter><linearGradient id="g" x1="50%" x2="15.844%" y1="100%" y2=".49%"><stop offset="0%" stop-color="#2C7FC8"/><stop offset="99.167%" stop-color="#24A8C2" stop-opacity=".591"/></linearGradient><path id="f" d="M0 0h221L119.93 255.477h-9.43z"/><filter id="d" width="163.3%" height="154.8%" x="-31.7%" y="-28.2%" filterUnits="objectBoundingBox"><feGaussianBlur in="SourceGraphic"/></filter><filter id="e" width="195.9%" height="183%" x="-48%" y="-42.3%" filterUnits="objectBoundingBox"><feOffset dy="-2" in="SourceAlpha" result="shadowOffsetOuter1"/><feGaussianBlur in="shadowOffsetOuter1" result="shadowBlurOuter1" stdDeviation="35"/><feComposite in="shadowBlurOuter1" in2="SourceAlpha" operator="out" result="shadowBlurOuter1"/><feColorMatrix in="shadowBlurOuter1" values="0 0 0 0 0.288655698 0 0 0 0 0.56455189 0 0 0 0 0.886238694 0 0 0 0.238734149 0"/></filter><linearGradient id="k" x1="50%" x2="50%" y1="100%" y2="0%"><stop offset="0%" stop-color="#2C7FC8"/><stop offset="100%" stop-color="#FFF" stop-opacity=".591"/></linearGradient><path id="j" d="M34.531 76.059H186.47l-69.486 175.64H110.5z"/><filter id="h" width="192.1%" height="179.7%" x="-46.1%" y="-41%" filterUnits="objectBoundingBox"><feGaussianBlur in="SourceGraphic"/></filter><filter id="i" width="239.5%" height="220.7%" x="-69.8%" y="-61.5%" filterUnits="objectBoundingBox"><feOffset dy="-2" in="SourceAlpha" result="shadowOffsetOuter1"/><feGaussianBlur in="shadowOffsetOuter1" result="shadowBlurOuter1" stdDeviation="35"/><feComposite in="shadowBlurOuter1" in2="SourceAlpha" operator="out" result="shadowBlurOuter1"/><feColorMatrix in="shadowBlurOuter1" values="0 0 0 0 0.288655698 0 0 0 0 0.56455189 0 0 0 0 0.886238694 0 0 0 0.238734149 0"/></filter><filter id="l" width="179.1%" height="191.4%" x="-39.5%" y="-40%" filterUnits="objectBoundingBox"><feOffset dy="5" in="SourceAlpha" result="shadowOffsetOuter1"/><feGaussianBlur in="shadowOffsetOuter1" result="shadowBlurOuter1" stdDeviation="3.5"/><feColorMatrix in="shadowBlurOuter1" result="shadowMatrixOuter1" values="0 0 0 0 0 0 0 0 0 0 0 0 0 0 0 0 0 0 0.142068614 0"/><feMerge><feMergeNode in="shadowMatrixOuter1"/><feMergeNode in="SourceGraphic"/></feMerge></filter><linearGradient id="m" x1="50%" x2="50%" y1="18.541%" y2="82.401%"><stop offset="0%" stop-color="#13228D"/><stop offset="100%" stop-color="#0B115C"/></linearGradient><path id="n" d="M8.266 7.102L.354 2.798V.368l7.374 3.848a1 1 0 0 1 .538.886v2z"/><filter id="o" width="137.9%" height="144.5%" x="-19%" y="-22.3%" filterUnits="objectBoundingBox"><feGaussianBlur in="SourceAlpha" result="shadowBlurInner1" stdDeviation="1"/><feOffset dx="-1" dy="1" in="shadowBlurInner1" result="shadowOffsetInner1"/><feComposite in="shadowOffsetInner1" in2="SourceAlpha" k2="-1" k3="1" operator="arithmetic" result="shadowInnerInner1"/><feColorMatrix in="shadowInnerInner1" values="0 0 0 0 0 0 0 0 0 0 0 0 0 0 0 0 0 0 0.2 0"/></filter><linearGradient id="p" x1="91.561%" x2="35.647%" y1="50%" y2="33.564%"><stop offset="0%" stop-color="#13228D"/><stop offset="100%" stop-color="#0A1461"/></linearGradient><path id="q" d="M25.059 4.308l-14.156 7.31.028-2.162a1 1 0 0 1 .539-.874l13.535-7.04.054 2.766z"/><filter id="r" width="128.3%" height="139.7%" x="-14.1%" y="-19.8%" filterUnits="objectBoundingBox"><feGaussianBlur in="SourceAlpha" result="shadowBlurInner1" stdDeviation="1.5"/><feOffset dx="1" dy="1" in="shadowBlurInner1" result="shadowOffsetInner1"/><feComposite in="shadowOffsetInner1" in2="SourceAlpha" k2="-1" k3="1" operator="arithmetic" result="shadowInnerInner1"/><feColorMatrix in="shadowInnerInner1" values="0 0 0 0 0 0 0 0 0 0 0 0 0 0 0 0 0 0 0.25 0"/></filter><linearGradient id="u" x1="0%" y1="7.52%" y2="7.52%"><stop offset="0%" stop-color="#00EFE4"/><stop offset="39.593%" stop-color="#05CDC4"/><stop offset="50.188%" stop-color="#23ADB9"/><stop offset="60.933%" stop-color="#07B3C9"/><stop offset="100%" stop-color="#117CC0"/></linearGradient><path id="t" d="M42.441.116v2.655l-20.345 9.873a2 2 0 0 1-1.75-.002L0 2.72V.133l20.34 9.92a2 2 0 0 0 1.754 0L42.441.116z"/><filter id="s" width="128.3%" height="201.8%" x="-14.1%" y="-54.8%" filterUnits="objectBoundingBox"><feOffset in="SourceAlpha" result="shadowOffsetOuter1"/><feGaussianBlur in="shadowOffsetOuter1" result="shadowBlurOuter1" stdDeviation="2"/><feComposite in="shadowBlurOuter1" in2="SourceAlpha" operator="out" result="shadowBlurOuter1"/><feColorMatrix in="shadowBlurOuter1" result="shadowMatrixOuter1" values="0 0 0 0 0 0 0 0 0 0.870588235 0 0 0 0 0.843137255 0 0 0 0.4 0"/><feOffset dy="-1" in="SourceAlpha" result="shadowOffsetOuter2"/><feComposite in="shadowOffsetOuter2" in2="SourceAlpha" operator="out" result="shadowOffsetOuter2"/><feColorMatrix in="shadowOffsetOuter2" result="shadowMatrixOuter2" values="0 0 0 0 0 0 0 0 0 0 0 0 0 0 0 0 0 0 0.06 0"/><feMerge><feMergeNode in="shadowMatrixOuter1"/><feMergeNode in="shadowMatrixOuter2"/></feMerge></filter><linearGradient id="v" x1="20.847%" x2="75.606%" y1="20.937%" y2="75.78%"><stop offset="0%" stop-color="#1283E0"/><stop offset="100%" stop-color="#0A47B2"/></linearGradient><path id="x" d="M11.292 9.908l9.813-5.095a.692.692 0 0 1 .632-.003l10.037 5.095a.692.692 0 0 1-.01 1.24l-9.981 4.86a.818.818 0 0 1-.723-.003l-9.758-4.86a.692.692 0 0 1-.01-1.234z"/><filter id="w" width="118.5%" height="135.1%" x="-9.3%" y="-17.6%" filterUnits="objectBoundingBox"><feGaussianBlur in="SourceAlpha" result="shadowBlurInner1" stdDeviation="1.5"/><feOffset dx="1" dy="1" in="shadowBlurInner1" result="shadowOffsetInner1"/><feComposite in="shadowOffsetInner1" in2="SourceAlpha" k2="-1" k3="1" operator="arithmetic" result="shadowInnerInner1"/><feColorMatrix in="shadowInnerInner1" values="0 0 0 0 0 0 0 0 0 0 0 0 0 0 0 0 0 0 0.23 0"/></filter><filter id="y" width="268.5%" height="425.6%" x="-84.2%" y="-162.8%" filterUnits="objectBoundingBox"><feGaussianBlur in="SourceGraphic" stdDeviation="4"/></filter><linearGradient id="z" x1="3.209%" x2="82.465%" y1="0%" y2="0%"><stop offset="0%" stop-color="#0C6DC4"/><stop offset="100%" stop-color="#0D1569"/></linearGradient><ellipse id="A" cx="21.913" cy="10.681" rx="5.788" ry="2.372"/><filter id="B" width="125.9%" height="163.2%" x="-13%" y="-31.6%" filterUnits="objectBoundingBox"><feGaussianBlur in="SourceAlpha" result="shadowBlurInner1" stdDeviation="1"/><feOffset dy="1" in="shadowBlurInner1" result="shadowOffsetInner1"/><feComposite in="shadowOffsetInner1" in2="SourceAlpha" k2="-1" k3="1" operator="arithmetic" result="shadowInnerInner1"/><feColorMatrix in="shadowInnerInner1" values="0 0 0 0 0 0 0 0 0 0 0 0 0 0 0 0 0 0 0.5 0"/></filter><linearGradient id="C" x1="-95.949%" x2="51.98%" y1="0%" y2="102.386%"><stop offset="0%" stop-color="#0C054A"/><stop offset="44.601%" stop-color="#017A8B"/><stop offset="98.083%" stop-color="#0C054B"/></linearGradient><linearGradient id="F" x1="50%" x2="50%" y1="97.97%" y2="0%"><stop offset="0%" stop-color="#6188FA"/><stop offset="100%" stop-color="#0EC9F3"/></linearGradient><path id="E" d="M360 92.1v6.593l-180 91.409L0 98.693V92.1L180 0z"/><filter id="D" width="163.9%" height="228.4%" x="-38.9%" y="-32.1%" filterUnits="objectBoundingBox"><feOffset dx="-25" dy="68" in="SourceAlpha" result="shadowOffsetOuter1"/><feGaussianBlur in="shadowOffsetOuter1" result="shadowBlurOuter1" stdDeviation="27"/><feColorMatrix in="shadowBlurOuter1" values="0 0 0 0 0 0 0 0 0 0 0 0 0 0 0 0 0 0 0.0673403533 0"/></filter><path id="G" d="M0 92.07L180 0l180 92.07-180 90.661z"/><filter id="I" width="165.4%" height="172.1%" x="-32.7%" y="-30.2%" filterUnits="objectBoundingBox"><feOffset dy="5" in="SourceAlpha" result="shadowOffsetOuter1"/><feGaussianBlur in="shadowOffsetOuter1" result="shadowBlurOuter1" stdDeviation="3.5"/><feColorMatrix in="shadowBlurOuter1" result="shadowMatrixOuter1" values="0 0 0 0 0 0 0 0 0 0 0 0 0 0 0 0 0 0 0.1 0"/><feMerge><feMergeNode in="shadowMatrixOuter1"/><feMergeNode in="SourceGraphic"/></feMerge></filter><path id="J" d="M9.996 8.726L.428 3.437V.451l9.036 4.791a1 1 0 0 1 .532.884v2.6z"/><filter id="K" width="131.4%" height="136.3%" x="-15.7%" y="-18.1%" filterUnits="objectBoundingBox"><feGaussianBlur in="SourceAlpha" result="shadowBlurInner1" stdDeviation="1"/><feOffset dx="-1" dy="1" in="shadowBlurInner1" result="shadowOffsetInner1"/><feComposite in="shadowOffsetInner1" in2="SourceAlpha" k2="-1" k3="1" operator="arithmetic" result="shadowInnerInner1"/><feColorMatrix in="shadowInnerInner1" values="0 0 0 0 0 0 0 0 0 0 0 0 0 0 0 0 0 0 0.2 0"/></filter><path id="L" d="M30.304 5.293l-17.12 8.981.037-2.798a1 1 0 0 1 .533-.87l16.484-8.712.066 3.4z"/><filter id="M" width="123.4%" height="132.3%" x="-11.7%" y="-16.2%" filterUnits="objectBoundingBox"><feGaussianBlur in="SourceAlpha" result="shadowBlurInner1" stdDeviation="1.5"/><feOffset dx="1" dy="1" in="shadowBlurInner1" result="shadowOffsetInner1"/><feComposite in="shadowOffsetInner1" in2="SourceAlpha" k2="-1" k3="1" operator="arithmetic" result="shadowInnerInner1"/><feColorMatrix in="shadowInnerInner1" values="0 0 0 0 0 0 0 0 0 0 0 0 0 0 0 0 0 0 0.25 0"/></filter><path id="O" d="M51.324.143v3.262L26.55 15.618a2 2 0 0 1-1.773-.001L0 3.34V.163l24.77 12.274a2 2 0 0 0 1.776 0L51.324.142z"/><filter id="N" width="123.4%" height="182.9%" x="-11.7%" y="-44.6%" filterUnits="objectBoundingBox"><feOffset in="SourceAlpha" result="shadowOffsetOuter1"/><feGaussianBlur in="shadowOffsetOuter1" result="shadowBlurOuter1" stdDeviation="2"/><feComposite in="shadowBlurOuter1" in2="SourceAlpha" operator="out" result="shadowBlurOuter1"/><feColorMatrix in="shadowBlurOuter1" result="shadowMatrixOuter1" values="0 0 0 0 0 0 0 0 0 0.870588235 0 0 0 0 0.843137255 0 0 0 0.4 0"/><feOffset dy="-1" in="SourceAlpha" result="shadowOffsetOuter2"/><feComposite in="shadowOffsetOuter2" in2="SourceAlpha" operator="out" result="shadowOffsetOuter2"/><feColorMatrix in="shadowOffsetOuter2" result="shadowMatrixOuter2" values="0 0 0 0 0 0 0 0 0 0 0 0 0 0 0 0 0 0 0.06 0"/><feMerge><feMergeNode in="shadowMatrixOuter1"/><feMergeNode in="shadowMatrixOuter2"/></feMerge></filter><path id="Q" d="M13.38 12.319L25.583 5.88c.2-.105.44-.106.64-.003l12.483 6.439a.692.692 0 0 1-.01 1.235L26.271 19.7a.818.818 0 0 1-.732-.003l-12.15-6.147a.692.692 0 0 1-.01-1.23z"/><filter id="P" width="115.3%" height="128.6%" x="-7.7%" y="-14.3%" filterUnits="objectBoundingBox"><feGaussianBlur in="SourceAlpha" result="shadowBlurInner1" stdDeviation="1.5"/><feOffset dx="1" dy="1" in="shadowBlurInner1" result="shadowOffsetInner1"/><feComposite in="shadowOffsetInner1" in2="SourceAlpha" k2="-1" k3="1" operator="arithmetic" result="shadowInnerInner1"/><feColorMatrix in="shadowInnerInner1" values="0 0 0 0 0 0 0 0 0 0 0 0 0 0 0 0 0 0 0.23 0"/></filter><filter id="R" width="239.3%" height="365%" x="-69.7%" y="-132.5%" filterUnits="objectBoundingBox"><feGaussianBlur in="SourceGraphic" stdDeviation="4"/></filter><filter id="S" width="165.4%" height="172.1%" x="-32.7%" y="-30.2%" filterUnits="objectBoundingBox"><feOffset dy="5" in="SourceAlpha" result="shadowOffsetOuter1"/><feGaussianBlur in="shadowOffsetOuter1" result="shadowBlurOuter1" stdDeviation="3.5"/><feColorMatrix in="shadowBlurOuter1" result="shadowMatrixOuter1" values="0 0 0 0 0 0 0 0 0 0 0 0 0 0 0 0 0 0 0.1 0"/><feMerge><feMergeNode in="shadowMatrixOuter1"/><feMergeNode in="SourceGraphic"/></feMerge></filter><path id="T" d="M9.996 8.726L.428 3.437V.451l9.036 4.791a1 1 0 0 1 .532.884v2.6z"/><filter id="U" width="131.4%" height="136.3%" x="-15.7%" y="-18.1%" filterUnits="objectBoundingBox"><feGaussianBlur in="SourceAlpha" result="shadowBlurInner1" stdDeviation="1"/><feOffset dx="-1" dy="1" in="shadowBlurInner1" result="shadowOffsetInner1"/><feComposite in="shadowOffsetInner1" in2="SourceAlpha" k2="-1" k3="1" operator="arithmetic" result="shadowInnerInner1"/><feColorMatrix in="shadowInnerInner1" values="0 0 0 0 0 0 0 0 0 0 0 0 0 0 0 0 0 0 0.2 0"/></filter><path id="V" d="M30.304 5.293l-17.12 8.981.037-2.798a1 1 0 0 1 .533-.87l16.484-8.712.066 3.4z"/><filter id="W" width="123.4%" height="132.3%" x="-11.7%" y="-16.2%" filterUnits="objectBoundingBox"><feGaussianBlur in="SourceAlpha" result="shadowBlurInner1" stdDeviation="1.5"/><feOffset dx="1" dy="1" in="shadowBlurInner1" result="shadowOffsetInner1"/><feComposite in="shadowOffsetInner1" in2="SourceAlpha" k2="-1" k3="1" operator="arithmetic" result="shadowInnerInner1"/><feColorMatrix in="shadowInnerInner1" values="0 0 0 0 0 0 0 0 0 0 0 0 0 0 0 0 0 0 0.25 0"/></filter><path id="Y" d="M51.324.143v3.262L26.55 15.618a2 2 0 0 1-1.773-.001L0 3.34V.163l24.77 12.274a2 2 0 0 0 1.776 0L51.324.142z"/><filter id="X" width="123.4%" height="182.9%" x="-11.7%" y="-44.6%" filterUnits="objectBoundingBox"><feOffset in="SourceAlpha" result="shadowOffsetOuter1"/><feGaussianBlur in="shadowOffsetOuter1" result="shadowBlurOuter1" stdDeviation="2"/><feComposite in="shadowBlurOuter1" in2="SourceAlpha" operator="out" result="shadowBlurOuter1"/><feColorMatrix in="shadowBlurOuter1" result="shadowMatrixOuter1" values="0 0 0 0 0 0 0 0 0 0.870588235 0 0 0 0 0.843137255 0 0 0 0.4 0"/><feOffset dy="-1" in="SourceAlpha" result="shadowOffsetOuter2"/><feComposite in="shadowOffsetOuter2" in2="SourceAlpha" operator="out" result="shadowOffsetOuter2"/><feColorMatrix in="shadowOffsetOuter2" result="shadowMatrixOuter2" values="0 0 0 0 0 0 0 0 0 0 0 0 0 0 0 0 0 0 0.06 0"/><feMerge><feMergeNode in="shadowMatrixOuter1"/><feMergeNode in="shadowMatrixOuter2"/></feMerge></filter><path id="aa" d="M13.38 12.319L25.583 5.88c.2-.105.44-.106.64-.003l12.483 6.439a.692.692 0 0 1-.01 1.235L26.271 19.7a.818.818 0 0 1-.732-.003l-12.15-6.147a.692.692 0 0 1-.01-1.23z"/><filter id="Z" width="115.3%" height="128.6%" x="-7.7%" y="-14.3%" filterUnits="objectBoundingBox"><feGaussianBlur in="SourceAlpha" result="shadowBlurInner1" stdDeviation="1.5"/><feOffset dx="1" dy="1" in="shadowBlurInner1" result="shadowOffsetInner1"/><feComposite in="shadowOffsetInner1" in2="SourceAlpha" k2="-1" k3="1" operator="arithmetic" result="shadowInnerInner1"/><feColorMatrix in="shadowInnerInner1" values="0 0 0 0 0 0 0 0 0 0 0 0 0 0 0 0 0 0 0.23 0"/></filter><filter id="ab" width="239.3%" height="365%" x="-69.7%" y="-132.5%" filterUnits="objectBoundingBox"><feGaussianBlur in="SourceGraphic" stdDeviation="4"/></filter><filter id="ac" width="165.4%" height="172.1%" x="-32.7%" y="-30.2%" filterUnits="objectBoundingBox"><feOffset dy="5" in="SourceAlpha" result="shadowOffsetOuter1"/><feGaussianBlur in="shadowOffsetOuter1" result="shadowBlurOuter1" stdDeviation="3.5"/><feColorMatrix in="shadowBlurOuter1" result="shadowMatrixOuter1" values="0 0 0 0 0 0 0 0 0 0 0 0 0 0 0 0 0 0 0.1 0"/><feMerge><feMergeNode in="shadowMatrixOuter1"/><feMergeNode in="SourceGraphic"/></feMerge></filter><path id="ad" d="M9.996 8.726L.428 3.437V.451l9.036 4.791a1 1 0 0 1 .532.884v2.6z"/><filter id="ae" width="131.4%" height="136.3%" x="-15.7%" y="-18.1%" filterUnits="objectBoundingBox"><feGaussianBlur in="SourceAlpha" result="shadowBlurInner1" stdDeviation="1"/><feOffset dx="-1" dy="1" in="shadowBlurInner1" result="shadowOffsetInner1"/><feComposite in="shadowOffsetInner1" in2="SourceAlpha" k2="-1" k3="1" operator="arithmetic" result="shadowInnerInner1"/><feColorMatrix in="shadowInnerInner1" values="0 0 0 0 0 0 0 0 0 0 0 0 0 0 0 0 0 0 0.2 0"/></filter><path id="af" d="M30.304 5.293l-17.12 8.981.037-2.798a1 1 0 0 1 .533-.87l16.484-8.712.066 3.4z"/><filter id="ag" width="123.4%" height="132.3%" x="-11.7%" y="-16.2%" filterUnits="objectBoundingBox"><feGaussianBlur in="SourceAlpha" result="shadowBlurInner1" stdDeviation="1.5"/><feOffset dx="1" dy="1" in="shadowBlurInner1" result="shadowOffsetInner1"/><feComposite in="shadowOffsetInner1" in2="SourceAlpha" k2="-1" k3="1" operator="arithmetic" result="shadowInnerInner1"/><feColorMatrix in="shadowInnerInner1" values="0 0 0 0 0 0 0 0 0 0 0 0 0 0 0 0 0 0 0.25 0"/></filter><path id="ai" d="M51.324.143v3.262L26.55 15.618a2 2 0 0 1-1.773-.001L0 3.34V.163l24.77 12.274a2 2 0 0 0 1.776 0L51.324.142z"/><filter id="ah" width="123.4%" height="182.9%" x="-11.7%" y="-44.6%" filterUnits="objectBoundingBox"><feOffset in="SourceAlpha" result="shadowOffsetOuter1"/><feGaussianBlur in="shadowOffsetOuter1" result="shadowBlurOuter1" stdDeviation="2"/><feComposite in="shadowBlurOuter1" in2="SourceAlpha" operator="out" result="shadowBlurOuter1"/><feColorMatrix in="shadowBlurOuter1" result="shadowMatrixOuter1" values="0 0 0 0 0 0 0 0 0 0.870588235 0 0 0 0 0.843137255 0 0 0 0.4 0"/><feOffset dy="-1" in="SourceAlpha" result="shadowOffsetOuter2"/><feComposite in="shadowOffsetOuter2" in2="SourceAlpha" operator="out" result="shadowOffsetOuter2"/><feColorMatrix in="shadowOffsetOuter2" result="shadowMatrixOuter2" values="0 0 0 0 0 0 0 0 0 0 0 0 0 0 0 0 0 0 0.06 0"/><feMerge><feMergeNode in="shadowMatrixOuter1"/><feMergeNode in="shadowMatrixOuter2"/></feMerge></filter><path id="ak" d="M13.38 12.319L25.583 5.88c.2-.105.44-.106.64-.003l12.483 6.439a.692.692 0 0 1-.01 1.235L26.271 19.7a.818.818 0 0 1-.732-.003l-12.15-6.147a.692.692 0 0 1-.01-1.23z"/><filter id="aj" width="115.3%" height="128.6%" x="-7.7%" y="-14.3%" filterUnits="objectBoundingBox"><feGaussianBlur in="SourceAlpha" result="shadowBlurInner1" stdDeviation="1.5"/><feOffset dx="1" dy="1" in="shadowBlurInner1" result="shadowOffsetInner1"/><feComposite in="shadowOffsetInner1" in2="SourceAlpha" k2="-1" k3="1" operator="arithmetic" result="shadowInnerInner1"/><feColorMatrix in="shadowInnerInner1" values="0 0 0 0 0 0 0 0 0 0 0 0 0 0 0 0 0 0 0.23 0"/></filter><filter id="al" width="239.3%" height="365%" x="-69.7%" y="-132.5%" filterUnits="objectBoundingBox"><feGaussianBlur in="SourceGraphic" stdDeviation="4"/></filter><linearGradient id="am" x1="50%" x2="50%" y1="0%" y2="100%"><stop offset="0%" stop-color="#AF9F87"/><stop offset="100%" stop-color="#E2D2BB"/></linearGradient><linearGradient id="an" x1="50%" x2="50%" y1="0%" y2="100%"><stop offset="0%" stop-color="#D5C2A4"/><stop offset="100%" stop-color="#E2D2BB"/></linearGradient><path id="ap" d="M30.778 147.168c-4.85 8.04-5.546 17.165-7.395 20.23-1.819 3.016-4.955 7.389-9.86 11.648-3.096 2.69-11.246 6.02-11.707 7.969-.46 1.948 9.243 0 9.243 2.452s-9.704 2.452-9.243 3.678c.168.448 13.577 3.843 21.567 3.066 6.602-.643 16.022-5.518 18.487-6.744 1.643-.817 1.643 7.56 0 25.134 2.446.232 5.322-.586 8.626-2.452 3.305-1.865 7.618-5.34 12.94-10.421l4.93 12.873s2.144-1.665 4.314-4.904c.908-1.355 2.346-4.012 4.313-7.97 4.272 3.69 7.97 6.346 11.092 7.97 4.685 2.436 14.816 8.232 17.254 6.13 1.016-.875-2.589-2.676-4.93-6.13-1.404-2.071-3.697-4.904-3.08-9.195.271-1.895 2.486 3.422 9.243 3.678 3.447.13 14.172-3.678 14.172-4.904s-14.341-2.407-19.718-12.261c-5.377-9.854-2.85-26.975-3.698-30.652-.848-3.676-3.374-.554-4.93-6.743-1.555-6.19.427-11.479 0-12.874-.426-1.394-1.54-2.408-4.313-1.226-2.772 1.182-3.147 1.754-4.313 4.905-1.167 3.15 2.558-3.436 0 6.743-2.558 10.18-5.602 18.634-6.779 20.23-1.176 1.596.617-11.035-1.232-11.035-1.232 0-4.724.613-10.476 1.84l4.93-5.518c-3.714-1.119-6.18-2.14-7.394-3.065-1.823-1.386-4.314-2.452-3.081-4.904.821-1.635-6.163-2.452-20.952-2.452-4.053 1.135-6.723 2.77-8.01 4.904z"/><filter id="ao" width="103.4%" height="109.8%" x="-1.7%" y="-2.5%" filterUnits="objectBoundingBox"><feOffset dy="4" in="SourceAlpha" result="shadowOffsetOuter1"/><feColorMatrix in="shadowOffsetOuter1" values="0 0 0 0 0.229963861 0 0 0 0 0.229963861 0 0 0 0 0.229963861 0 0 0 0.746744792 0"/></filter><linearGradient id="aq" x1="86.613%" x2="20.219%" y1="25.334%" y2="100%"><stop offset="0%" stop-color="#CBCBCB"/><stop offset="97.665%" stop-color="#FFFBD3"/></linearGradient><linearGradient id="at" x1="7.273%" y1="100%" y2="13.513%"><stop offset="0%" stop-color="#C8C8C8"/><stop offset="100%" stop-color="#F1F1F1"/></linearGradient><path id="as" d="M97.008 63.933c10.436 6.67 26.252-11.152 12.501 16.73-13.751 27.881-35.371 47.003-49.379 58.861-4.954 4.195-12.876 5.753-19.377 8.055-3.834 1.358-9.46 3.217-16.876 5.577-9.167 0-14.793-.62-16.876-1.86-3.125-1.858-5.626-20.446-4.376-21.066.834-.413 13.543 1.86 38.128 6.816 1.258 2.315 2.3 3.554 3.126 3.718.826.163 1.868-.663 3.125-2.479 1.25-12.805 1.25-20.034 0-21.686-1.875-2.478-17.862-5.654-24.377-6.815-11.669-2.081-18.126-.799-18.126-1.86 0-2.478 4.372-25.604 10-36.555s10.98-16.295 20.627-20.447c6.43-2.768 15.39-2.768 26.877 0 1.369 0 22.382 4.945 35.003 13.011z"/><filter id="ar" width="122.2%" height="124%" x="-11.1%" y="-8.1%" filterUnits="objectBoundingBox"><feOffset dy="4" in="SourceAlpha" result="shadowOffsetOuter1"/><feGaussianBlur in="shadowOffsetOuter1" result="shadowBlurOuter1" stdDeviation="3.5"/><feColorMatrix in="shadowBlurOuter1" values="0 0 0 0 0 0 0 0 0 0 0 0 0 0 0 0 0 0 0.5 0"/></filter><linearGradient id="au" x1="7.273%" y1="100%" y2="13.513%"><stop offset="0%" stop-color="#C8C8C8"/><stop offset="97.419%" stop-color="#B6B6B6"/></linearGradient><ellipse id="av" cx="51.975" cy="84.96" rx="16.284" ry="16.116"/><filter id="aw" width="118.4%" height="118.6%" x="-9.2%" y="-9.3%" filterUnits="objectBoundingBox"><feGaussianBlur in="SourceAlpha" result="shadowBlurInner1" stdDeviation="2"/><feOffset dy="2" in="shadowBlurInner1" result="shadowOffsetInner1"/><feComposite in="shadowOffsetInner1" in2="SourceAlpha" k2="-1" k3="1" operator="arithmetic" result="shadowInnerInner1"/><feColorMatrix in="shadowInnerInner1" values="0 0 0 0 0 0 0 0 0 0 0 0 0 0 0 0 0 0 0.5 0"/></filter><ellipse id="ay" cx="4.467" cy="5.059" rx="4.248" ry="4.204"/><filter id="ax" width="288.3%" height="290.3%" x="-94.2%" y="-47.6%" filterUnits="objectBoundingBox"><feOffset dy="4" in="SourceAlpha" result="shadowOffsetOuter1"/><feGaussianBlur in="shadowOffsetOuter1" result="shadowBlurOuter1" stdDeviation="2"/><feColorMatrix in="shadowBlurOuter1" values="0 0 0 0 0 0 0 0 0 0 0 0 0 0 0 0 0 0 0.5 0"/></filter><path id="az" d="M21.127 84.259C13.844 92.5 10.203 97.055 10.203 97.922c0 1.301 10.924 4.554 13.351 4.554 1.618 0 .81-6.072-2.427-18.217z"/><filter id="aA" width="142.4%" height="132.9%" x="-21.2%" y="-16.5%" filterUnits="objectBoundingBox"><feGaussianBlur in="SourceAlpha" result="shadowBlurInner1" stdDeviation="2"/><feOffset dy="2" in="shadowBlurInner1" result="shadowOffsetInner1"/><feComposite in="shadowOffsetInner1" in2="SourceAlpha" k2="-1" k3="1" operator="arithmetic" result="shadowInnerInner1"/><feColorMatrix in="shadowInnerInner1" values="0 0 0 0 0 0 0 0 0 0 0 0 0 0 0 0 0 0 0.5 0"/></filter><linearGradient id="aB" x1="50%" x2="50%" y1="0%" y2="97.97%"><stop offset="0%" stop-color="#6188FA"/><stop offset="100%" stop-color="#0EC9F3"/></linearGradient><linearGradient id="aC" x1="80.868%" x2="51.177%" y1="85.668%" y2="99.454%"><stop offset="0%" stop-color="#FDFEFF"/><stop offset="100%" stop-color="#F7B0B0" stop-opacity=".425"/></linearGradient><path id="aE" d="M13.628 58.974c0-1.852-5.153-9.783 8.51-31.235C25.078 23.122 34.196 13.935 49.49.178c-.522 10.618-2.75 19.192-6.685 25.722-7.406 12.296-29.177 34.437-29.177 33.073z"/><filter id="aD" width="167.9%" height="142.5%" x="-34%" y="-14.4%" filterUnits="objectBoundingBox"><feOffset dy="4" in="SourceAlpha" result="shadowOffsetOuter1"/><feGaussianBlur in="shadowOffsetOuter1" result="shadowBlurOuter1" stdDeviation="3.5"/><feColorMatrix in="shadowBlurOuter1" values="0 0 0 0 0 0 0 0 0 0 0 0 0 0 0 0 0 0 0.229619565 0"/></filter></defs><g fill="none" fill-rule="evenodd"><g fill-rule="nonzero" transform="scale(-1 1) rotate(6 -1353.935 -3126.603)"><use fill="#000" filter="url(#a)" xlink:href="#b"/><use fill="url(#c)" xlink:href="#b"/></g><g filter="url(#d)" opacity=".911" transform="matrix(-1 0 0 1 321 223)"><use fill="#000" filter="url(#e)" xlink:href="#f"/><path fill="url(#g)" fill-opacity=".38" d="M0 0h221L119.93 255.477h-9.43z"/></g><g filter="url(#h)" transform="matrix(-1 0 0 1 321 223)"><use fill="#000" filter="url(#i)" xlink:href="#j"/><path fill="url(#k)" fill-opacity=".63" d="M34.531 76.059H186.47l-69.486 175.64H110.5z"/></g><g filter="url(#l)" transform="matrix(-1 0 0 1 228.642 472.58)"><path fill="#FFF" d="M42.434 11.062v12.666l-21.175 10.68L0 23.728V11.062l21.217 10.68z"/><path fill="url(#m)" d="M21.217 23.483l21.217-10.68V.137l-21.217 10.68z" transform="translate(0 10.925)"/><path fill="#1283E0" d="M21.217 34.408L0 23.728V11.062l21.217 10.68z"/><g transform="translate(11.714 21.01)"><use fill="#1283E0" xlink:href="#n"/><use fill="#000" filter="url(#o)" xlink:href="#n"/><path stroke="#FFF" stroke-linejoin="square" stroke-opacity=".3" stroke-width=".2" d="M8.166 6.934V5.102a.9.9 0 0 0-.484-.798L.454.532v2.206l7.712 4.196z"/></g><g transform="translate(11.714 21.01)"><use fill="url(#p)" xlink:href="#q"/><use fill="#000" filter="url(#r)" xlink:href="#q"/><path stroke="#FFF" stroke-linejoin="square" stroke-opacity=".15" stroke-width=".2" d="M24.958 4.248l-.05-2.543L11.516 8.67a.9.9 0 0 0-.485.786l-.026 1.996 13.953-7.205z"/></g><g transform="translate(0 10.925)"><use fill="#000" filter="url(#s)" xlink:href="#t"/><use fill="url(#u)" xlink:href="#t"/></g><path fill="url(#v)" d="M0 10.453L21.217 0 42.44 10.437 22.101 20.47a2 2 0 0 1-1.769 0L0 10.453z"/><use fill="#000" filter="url(#w)" xlink:href="#x"/><path fill="#000" d="M15.097 9.417l6.242-3.16c.197-.1.429-.1.625 0l6.242 3.16a.692.692 0 0 1-.028 1.249l-6.19 2.786a.818.818 0 0 1-.672 0l-6.19-2.786a.692.692 0 0 1-.029-1.25z" filter="url(#y)" opacity=".302"/><path fill="url(#z)" d="M42.441 10.437v.94l-20.338 9.968a2 2 0 0 1-1.764-.001L0 11.324v-.87L20.332 20.47a2 2 0 0 0 1.77 0l20.34-10.034z"/><use fill="#E5EBFF" xlink:href="#A"/><use fill="#000" filter="url(#B)" xlink:href="#A"/></g><path fill="url(#C)" fill-rule="nonzero" d="M32.18 17.057V145.09c26.183-2.493 40.326-2.493 42.429 0 3.155 3.74-27 18.29-27 18.29s10.77 14.555 34.714 36.58c4.853 4.464 14.067 11.432 27.643 20.904 4.096-5.133 6.882-9.488 8.357-13.065 1.288-3.12 3.002-8.781 5.143-16.983-.245 9.218-.674 15.75-1.286 19.596-1.088 6.844-4.787 14.732-3.857 15.678 1.715 1.742 23.143 13.064 64.286 33.967l2.571-41.806-25.714-18.29c17.143 1.742 25.714 1.742 25.714 0 0-2.613 0-32.662-2.571-37.887-1.714-3.484-9.429-7.84-23.143-13.065l20.572-1.306-18-43.113-61.715-15.678c15.284 2.983 25.57 4.725 30.857 5.226 17.286 1.637 25.715 2.613 28.286 0 1.714-1.742-5.143-12.193-20.571-31.355-29.572-.87-41.143-1.306-34.715-1.306l14.143-15.678L83.61 17.057H32.18z" transform="rotate(-17 653.918 -237.042)"/><g transform="matrix(-1 0 0 1 384 152.449)"><use fill="#000" filter="url(#D)" xlink:href="#E"/><use fill="url(#F)" xlink:href="#E"/></g><g transform="matrix(-1 0 0 1 384 152.449)"><mask id="H" fill="#fff"><use xlink:href="#G"/></mask><use fill="#FFF" xlink:href="#G"/><g stroke="#9B9B9B" stroke-linecap="square" stroke-width=".2" mask="url(#H)"><path d="M-74.394-137.568l756.768 385.593M-81.03-124.542L675.738 261.05M-87.667-111.517l756.768 385.592M-200.49 109.91l756.768 385.594M-94.304-98.492L662.464 287.1M-100.94-85.467l756.768 385.593M-107.577-72.442l756.768 385.593M-114.214-59.417l756.768 385.593M-120.85-46.391L635.918 339.2M-127.487-33.366l756.768 385.592M-134.124-20.341l756.768 385.593M-140.76-7.316l756.768 385.593M-147.397 5.71l756.768 385.592M-154.034 18.735l756.769 385.592M-160.67 31.76l756.768 385.592M-167.307 44.785l756.768 385.593M-173.944 57.81l756.769 385.593M-180.58 70.835l756.768 385.593M-187.217 83.86l756.768 385.593M-193.854 96.886l756.769 385.592" opacity=".552"/><path d="M-100.94-85.467l756.768 385.593M-147.397 5.71l756.768 385.592M-134.124-20.341l756.768 385.593" opacity=".1"/><path d="M592.232-200.947l-948.234 483.15m954.877-470.11l-948.233 483.149m954.878-470.11L-342.715 308.28m954.878-470.11l-948.234 483.15m954.878-470.11l-948.234 483.15M625.45-135.75l-948.233 483.148m954.877-470.11l-948.233 483.15m954.877-470.111l-948.234 483.15M645.382-96.634l-948.234 483.15m954.878-470.11l-948.234 483.149M658.67-70.555l-948.234 483.149m954.877-470.11L-282.92 425.633m954.877-470.11l-948.234 483.149M678.6-31.438l-948.233 483.15M685.244-18.399l-948.233 483.15M691.888-5.36l-948.233 483.15M698.532 7.68l-948.234 483.149m954.878-470.11l-948.234 483.149" opacity=".3"/><path d="M605.52-174.868L-342.715 308.28M652.026-83.594l-948.234 483.149m934.946-509.228l-948.234 483.15M645.382-96.634l-948.234 483.15" opacity=".1"/></g></g><g filter="url(#I)" transform="matrix(-1 0 0 1 81 210)"><path fill="#FFF" d="M51.315 13.59v15.561L25.71 42.273 0 29.15V13.59l25.658 13.121z"/><path fill="url(#m)" d="M25.658 28.85l25.657-13.12V.169l-25.657 13.12z" transform="translate(0 13.423)"/><path fill="#1283E0" d="M25.658 42.273L0 29.15V13.59l25.658 13.121z"/><g transform="translate(14.166 25.813)"><use fill="#1283E0" xlink:href="#J"/><use fill="#000" filter="url(#K)" xlink:href="#J"/><path stroke="#FFF" stroke-linejoin="square" stroke-opacity=".3" stroke-width=".2" d="M9.896 8.556v-2.43a.9.9 0 0 0-.479-.796L.527.617v2.761l9.369 5.178z"/></g><g transform="translate(14.166 25.813)"><use fill="url(#p)" xlink:href="#L"/><use fill="#000" filter="url(#M)" xlink:href="#L"/><path stroke="#FFF" stroke-linejoin="square" stroke-opacity=".15" stroke-width=".2" d="M30.202 5.233l-.06-3.175L13.8 10.694a.9.9 0 0 0-.48.784l-.034 2.63 16.915-8.875z"/></g><g transform="translate(0 13.423)"><use fill="#000" filter="url(#N)" xlink:href="#O"/><use fill="url(#u)" xlink:href="#O"/></g><path fill="url(#v)" d="M0 12.843L25.658 0l25.666 12.823-24.77 12.414a2 2 0 0 1-1.792 0L0 12.843z"/><use fill="#000" filter="url(#P)" xlink:href="#Q"/><path fill="#000" d="M17.962 11.72l7.905-4.066a.692.692 0 0 1 .633 0l7.905 4.067a.692.692 0 0 1-.029 1.245l-7.852 3.59a.818.818 0 0 1-.68 0l-7.853-3.59a.692.692 0 0 1-.03-1.245z" filter="url(#R)" opacity=".302"/><path fill="url(#z)" d="M51.324 12.823v1.154L26.556 26.31a2 2 0 0 1-1.787-.002L0 13.913v-1.07l24.762 12.394a2 2 0 0 0 1.791 0l24.771-12.414z"/></g><g fill-rule="nonzero"><path fill="#F5F2C6" d="M54.914 221.998c2.514-.336 3.315-1.052 5.106-2.771 1.614-1.548 2.076-4.087 1.964-5.122-.235-2.183-1.671-2.106-1.728-4.03-.057-1.924 1.728-2.519 1.493-3.946-.236-1.428-5.433-5.207-5.892-5.962-.46-.754 1.1-1.51.785-2.435-.314-.923-1.893-.931-2.12-1.679-.229-.747 1.574-.068.942-2.183-.632-2.115-2.414-3.703-2.75-3.862-.336-.16.866 2.138.629 2.855-.237.717-1.198-.679-1.571 0-.374.678.403 1.675 0 2.854-.404 1.18-1.232-.026-1.493 1.512-.262 1.537.384 3.563.55 4.03.166.467.573-.91.707-.504s.219 1.264-.236 1.931c-1.2 1.76-2.828 2.267-3.456 3.779-.352.846.37 2.49.235 3.106-.2.924-1.138 1.233-1.414 1.847-.565 1.26-.495 2.451-.628 3.359-.198 1.35.443 2.086.864 2.855.28.512.804 1.044 1.571 1.595-.524-1.064-.655-1.595-.393-1.595.24 0 1.592 1.915 3.457 3.19 1.181.808 3.102 1.213 3.378 1.176z"/><path fill="#F9D850" d="M53.585 219.847c.07-.077 5.777-.67 5.397-5.69-.055-.721-.33-2.215-1.292-3.683-.54-.825-1.222-1.16-1.824-2.427-.603-1.268-.008-1.763-.38-2.427-1.034-1.845-2.738-2.516-2.813-2.762-.152-.502.228 2.427.228 2.427s-.76-1.34-.76-.753c0 .154.12 1.088-.456 2.51-.41 1.014-1.47 2.372-1.824 3.432-.274.82-.452 1.74-.532 2.761l-.38-1.673c-.478.695-.756 1.253-.836 1.673-.289 1.525.036 3.019.304 3.515 1.695 3.138 5.092 3.18 5.168 3.097z"/><path fill="#F7A643" d="M53.6 218.8c.092.01 2.786-.466 3.364-3.284.28-1.362-1.16-5.727-1.376-5.98-.216-.252-.216 2.109-.994.927-.323-.49-.03-2.034-.23-2.863-.282-1.169-.994-1.6-.994-1.6s.13.895-.382 2.19c-.56 1.414-3.13 3.743-2.982 6.315.148 2.573 1.147 4.042 3.594 4.295z"/><path fill="#DB4029" d="M53.601 211.337c.055-.08.399 1.066.588 1.333.268.378.367.621.514 1.243.134.569.067 1.264.294 1.332.294.09.44-1.82.588-1.82.147 0 .553 1.803.367 2.797-.15.8-.983 1.51-1.396 1.51-.955 0-1.84.057-2.204-.622-.808-1.51-.002-2.892.22-3.197.087-.119.278.32.368.703.147.63.294 1.34.514.985.22-.356-.22-3.73.147-4.264z"/></g><g filter="url(#S)" transform="matrix(-1 0 0 1 230 288)"><path fill="#FFF" d="M51.315 13.59v15.561L25.71 42.273 0 29.15V13.59l25.658 13.121z"/><path fill="url(#m)" d="M25.658 28.85l25.657-13.12V.169l-25.657 13.12z" transform="translate(0 13.423)"/><path fill="#1283E0" d="M25.658 42.273L0 29.15V13.59l25.658 13.121z"/><g transform="translate(14.166 25.813)"><use fill="#1283E0" xlink:href="#T"/><use fill="#000" filter="url(#U)" xlink:href="#T"/><path stroke="#FFF" stroke-linejoin="square" stroke-opacity=".3" stroke-width=".2" d="M9.896 8.556v-2.43a.9.9 0 0 0-.479-.796L.527.617v2.761l9.369 5.178z"/></g><g transform="translate(14.166 25.813)"><use fill="url(#p)" xlink:href="#V"/><use fill="#000" filter="url(#W)" xlink:href="#V"/><path stroke="#FFF" stroke-linejoin="square" stroke-opacity=".15" stroke-width=".2" d="M30.202 5.233l-.06-3.175L13.8 10.694a.9.9 0 0 0-.48.784l-.034 2.63 16.915-8.875z"/></g><g transform="translate(0 13.423)"><use fill="#000" filter="url(#X)" xlink:href="#Y"/><use fill="url(#u)" xlink:href="#Y"/></g><path fill="url(#v)" d="M0 12.843L25.658 0l25.666 12.823-24.77 12.414a2 2 0 0 1-1.792 0L0 12.843z"/><use fill="#000" filter="url(#Z)" xlink:href="#aa"/><path fill="#000" d="M17.962 11.72l7.905-4.066a.692.692 0 0 1 .633 0l7.905 4.067a.692.692 0 0 1-.029 1.245l-7.852 3.59a.818.818 0 0 1-.68 0l-7.853-3.59a.692.692 0 0 1-.03-1.245z" filter="url(#ab)" opacity=".302"/><path fill="url(#z)" d="M51.324 12.823v1.154L26.556 26.31a2 2 0 0 1-1.787-.002L0 13.913v-1.07l24.762 12.394a2 2 0 0 0 1.791 0l24.771-12.414z"/></g><g fill-rule="nonzero"><path fill="#F5F2C6" d="M203.914 299.998c2.514-.336 3.315-1.052 5.106-2.771 1.614-1.548 2.076-4.087 1.964-5.122-.235-2.183-1.671-2.106-1.728-4.03-.057-1.924 1.728-2.519 1.493-3.946-.236-1.428-5.433-5.207-5.892-5.962-.46-.754 1.1-1.51.785-2.435-.314-.923-1.893-.931-2.12-1.679-.229-.747 1.574-.068.942-2.183-.632-2.115-2.414-3.703-2.75-3.862-.336-.16.866 2.138.629 2.855-.237.717-1.198-.679-1.571 0-.374.678.403 1.675 0 2.854-.404 1.18-1.232-.026-1.493 1.512-.262 1.537.384 3.563.55 4.03.166.467.573-.91.707-.504s.219 1.264-.236 1.931c-1.2 1.76-2.828 2.267-3.456 3.779-.352.846.37 2.49.235 3.106-.2.924-1.138 1.233-1.414 1.847-.565 1.26-.495 2.451-.628 3.359-.198 1.35.443 2.086.864 2.855.28.512.804 1.044 1.571 1.595-.524-1.064-.655-1.595-.393-1.595.24 0 1.592 1.915 3.457 3.19 1.181.808 3.102 1.213 3.378 1.176z"/><path fill="#F9D850" d="M202.585 297.847c.07-.077 5.777-.67 5.397-5.69-.055-.721-.33-2.215-1.292-3.683-.54-.825-1.222-1.16-1.824-2.427-.603-1.268-.008-1.763-.38-2.427-1.034-1.845-2.738-2.516-2.813-2.762-.152-.502.228 2.427.228 2.427s-.76-1.34-.76-.753c0 .154.12 1.088-.456 2.51-.41 1.014-1.47 2.372-1.824 3.432-.274.82-.452 1.74-.532 2.761l-.38-1.673c-.478.695-.756 1.253-.836 1.673-.289 1.525.036 3.019.304 3.515 1.695 3.138 5.092 3.18 5.168 3.097z"/><path fill="#F7A643" d="M202.6 296.8c.092.01 2.786-.466 3.364-3.284.28-1.362-1.16-5.727-1.376-5.98-.216-.252-.216 2.109-.994.927-.323-.49-.03-2.034-.23-2.863-.282-1.169-.994-1.6-.994-1.6s.13.895-.382 2.19c-.56 1.414-3.13 3.743-2.982 6.315.148 2.573 1.147 4.042 3.594 4.295z"/><path fill="#DB4029" d="M202.601 289.337c.055-.08.399 1.066.588 1.333.268.378.367.621.514 1.243.134.569.067 1.264.294 1.332.294.09.44-1.82.588-1.82.147 0 .553 1.803.367 2.797-.15.8-.983 1.51-1.396 1.51-.955 0-1.84.057-2.204-.622-.808-1.51-.002-2.892.22-3.197.087-.119.278.32.368.703.147.63.294 1.34.514.985.22-.356-.22-3.73.147-4.264z"/></g><g filter="url(#ac)" transform="matrix(-1 0 0 1 378 212)"><path fill="#FFF" d="M51.315 13.59v15.561L25.71 42.273 0 29.15V13.59l25.658 13.121z"/><path fill="url(#m)" d="M25.658 28.85l25.657-13.12V.169l-25.657 13.12z" transform="translate(0 13.423)"/><path fill="#1283E0" d="M25.658 42.273L0 29.15V13.59l25.658 13.121z"/><g transform="translate(14.166 25.813)"><use fill="#1283E0" xlink:href="#ad"/><use fill="#000" filter="url(#ae)" xlink:href="#ad"/><path stroke="#FFF" stroke-linejoin="square" stroke-opacity=".3" stroke-width=".2" d="M9.896 8.556v-2.43a.9.9 0 0 0-.479-.796L.527.617v2.761l9.369 5.178z"/></g><g transform="translate(14.166 25.813)"><use fill="url(#p)" xlink:href="#af"/><use fill="#000" filter="url(#ag)" xlink:href="#af"/><path stroke="#FFF" stroke-linejoin="square" stroke-opacity=".15" stroke-width=".2" d="M30.202 5.233l-.06-3.175L13.8 10.694a.9.9 0 0 0-.48.784l-.034 2.63 16.915-8.875z"/></g><g transform="translate(0 13.423)"><use fill="#000" filter="url(#ah)" xlink:href="#ai"/><use fill="url(#u)" xlink:href="#ai"/></g><path fill="url(#v)" d="M0 12.843L25.658 0l25.666 12.823-24.77 12.414a2 2 0 0 1-1.792 0L0 12.843z"/><use fill="#000" filter="url(#aj)" xlink:href="#ak"/><path fill="#000" d="M17.962 11.72l7.905-4.066a.692.692 0 0 1 .633 0l7.905 4.067a.692.692 0 0 1-.029 1.245l-7.852 3.59a.818.818 0 0 1-.68 0l-7.853-3.59a.692.692 0 0 1-.03-1.245z" filter="url(#al)" opacity=".302"/><path fill="url(#z)" d="M51.324 12.823v1.154L26.556 26.31a2 2 0 0 1-1.787-.002L0 13.913v-1.07l24.762 12.394a2 2 0 0 0 1.791 0l24.771-12.414z"/></g><g fill-rule="nonzero"><path fill="#F5F2C6" d="M351.914 223.998c2.514-.336 3.315-1.052 5.106-2.771 1.614-1.548 2.076-4.087 1.964-5.122-.235-2.183-1.671-2.106-1.728-4.03-.057-1.924 1.728-2.519 1.493-3.946-.236-1.428-5.433-5.207-5.892-5.962-.46-.754 1.1-1.51.785-2.435-.314-.923-1.893-.931-2.12-1.679-.229-.747 1.574-.068.942-2.183-.632-2.115-2.414-3.703-2.75-3.862-.336-.16.866 2.138.629 2.855-.237.717-1.198-.679-1.571 0-.374.678.403 1.675 0 2.854-.404 1.18-1.232-.026-1.493 1.512-.262 1.537.384 3.563.55 4.03.166.467.573-.91.707-.504s.219 1.264-.236 1.931c-1.2 1.76-2.828 2.267-3.456 3.779-.352.846.37 2.49.235 3.106-.2.924-1.138 1.233-1.414 1.847-.565 1.26-.495 2.451-.628 3.359-.198 1.35.443 2.086.864 2.855.28.512.804 1.044 1.571 1.595-.524-1.064-.655-1.595-.393-1.595.24 0 1.592 1.915 3.457 3.19 1.181.808 3.102 1.213 3.378 1.176z"/><path fill="#F9D850" d="M350.585 221.847c.07-.077 5.777-.67 5.397-5.69-.055-.721-.33-2.215-1.292-3.683-.54-.825-1.222-1.16-1.824-2.427-.603-1.268-.008-1.763-.38-2.427-1.034-1.845-2.738-2.516-2.813-2.762-.152-.502.228 2.427.228 2.427s-.76-1.34-.76-.753c0 .154.12 1.088-.456 2.51-.41 1.014-1.47 2.372-1.824 3.432-.274.82-.452 1.74-.532 2.761l-.38-1.673c-.478.695-.756 1.253-.836 1.673-.289 1.525.036 3.019.304 3.515 1.695 3.138 5.092 3.18 5.168 3.097z"/><path fill="#F7A643" d="M350.6 220.8c.092.01 2.786-.466 3.364-3.284.28-1.362-1.16-5.727-1.376-5.98-.216-.252-.216 2.109-.994.927-.323-.49-.03-2.034-.23-2.863-.282-1.169-.994-1.6-.994-1.6s.13.895-.382 2.19c-.56 1.414-3.13 3.743-2.982 6.315.148 2.573 1.147 4.042 3.594 4.295z"/><path fill="#DB4029" d="M350.601 213.337c.055-.08.399 1.066.588 1.333.268.378.367.621.514 1.243.134.569.067 1.264.294 1.332.294.09.44-1.82.588-1.82.147 0 .553 1.803.367 2.797-.15.8-.983 1.51-1.396 1.51-.955 0-1.84.057-2.204-.622-.808-1.51-.002-2.892.22-3.197.087-.119.278.32.368.703.147.63.294 1.34.514.985.22-.356-.22-3.73.147-4.264z"/></g><path d="M61.306 24.09c0 1.253 8.353 34.453 8.353 36.958 0 2.506-7.677-1.558-8.95 0-1.271 1.559-1.789 7.517.597 8.77 2.387 1.253 22.075 0 25.058-5.011 1.144-1.922-3.557-16.512-5.966-26.31-1.186-4.823-2.579-11.296-4.177-19.418L62.5 12.815c-.796 6.681-1.194 10.44-1.194 11.275zm-25.742-6.874s-3.947 1.392-9.534 4.996c-2.01 1.295-4.172 2.497-5.96 4.995-1.787 2.498 8.343 19.36 5.96 21.857-2.384 2.498-17.91 4.609-19.665 4.371-1.754-.237-1.775-4.502 0-6.869s4.171-1.873 6.555-1.873c2.384 0-11.918-22.481-11.322-24.98.397-1.665 6.158-5.203 17.281-10.616L33.18 1.604l2.384 15.612z" fill="url(#am)" fill-rule="nonzero" transform="rotate(-8 1441.618 -971.742)"/><path d="M32.757 58.99c-2.592-1.483-10.614-8.31-14.974-15.615-1.496-2.507-2.713-5.214-3.12-7.495-.269-1.513-.269-2.97 0-4.372-1.394.238-2.642-.803-3.743-3.123-.462-.973-.878-3.68-1.248-8.12-2.088-1.953-3.543-3.202-4.367-3.748-1.32-.874-2.496-.624-3.12-1.249-1.102-1.104-1.871-1.934 0-4.372 1.872-2.439 9.234 6.671 9.983 5.621.75-1.05-6.314-7.98-6.863-9.993-.549-2.014.075-3.748 3.743-1.874 3.669 1.874 4.36 9.78 5.616 10.618 1.255.838 1.247-4.353 1.247-7.495 0-3.142-3.556-5.11-1.247-6.246C17.159.298 18.027.298 19.03 2.776c.606 1.495 1.022 5.66 1.248 12.492 1.664.416 2.911 0 3.743-1.25 1.248-1.873-.624-3.747 1.248-4.371 1.872-.625 4.71 1.084 3.744 4.372-.966 3.288-3.744 4.997-7.487 6.246-3.744 1.25 1.708 9.67 4.991 14.366 3.283 4.695 9.456 8.362 11.854 11.243 1.6 1.92 2.847 4.419 3.744 7.495-3.328 5.413-6.447 7.287-9.359 5.621zm30.893-2.804c1.66-.404 12.457-4.24 32.39-11.506l4.36 8.478c6.501-.597 11.692-2.01 15.573-4.24 5.822-3.343 12.458-10.294 11.835-11.505-.253-.492-3.214.387-4.36-1.211-1.117-1.557-1.532-3.979-1.246-7.267.903-1.61 1.94-2.62 3.115-3.028 1.76-.61 4.084-1.15 5.606 0 1.522 1.151.551 3.275 0 4.24-.552.964-3.115.168-3.115 1.21 0 1.043-.086 4.423 3.115 2.423 3.2-2 3.003-6.147 5.606-7.873 2.603-1.725 4.177-1.68 6.229-.605 2.052 1.074 1.886 2.422.623 3.028-1.264.605-1.264-1.363-3.738.605s-5.336 5.696-3.114 6.056c2.221.36 6.067-3.286 8.72-3.028 2.654.258 3.875 1.784 2.492 3.633-.621.83-4.184-.627-6.229 0-.991.305-4.468.431-2.492 3.634.585.947 3.936.548 4.984 1.211 1.312.831 2.321 1.872 1.868 3.633-.452 1.761-1.14 1.371-3.114 1.211-1.973-.16 1.141-2.837-2.492-2.422-1.406.161-4.012-.185-5.606.606-1.15.57-7.17 9.448-14.327 14.533-4.771 3.39-11 6.014-18.687 7.873L79.845 79.197C67.387 64.26 61.988 56.589 63.649 56.186z" fill="url(#an)" fill-rule="nonzero" transform="rotate(-8 842.1 -852.219)"/><g fill-rule="nonzero" transform="rotate(-8 172.828 -805.419)"><use fill="#000" filter="url(#ao)" xlink:href="#ap"/><use fill="#4E4F55" xlink:href="#ap"/></g><path fill="url(#aq)" fill-rule="nonzero" d="M5.75 108.441L4.5 129.404l43.754 11.98c4.584-19.566 6.459-29.35 5.626-29.35-.834 0-15.627-2.195-44.379-6.588l-3.75 2.995z" transform="rotate(-8 156.558 -1064.107)"/><path fill="#4F5056" fill-rule="nonzero" d="M169.775 70.273c-.98 2.015-7.504 22.954-5.835 25.848 1.112 1.93 3.79 3.013 8.03 3.251l3.567-15.988 2.63-11.787c-4.942-2.226-7.74-2.667-8.392-1.324z"/><path fill="#FFFBD3" fill-rule="nonzero" d="M163.786 75.797c-.417.858-3.195 9.774-2.485 11.006.474.821 1.614 1.283 3.42 1.384l1.518-6.808 1.12-5.018c-2.104-.948-3.295-1.136-3.573-.564z"/><path stroke="#505050" stroke-width="1.663" d="M171.44 129.865c.57-.08 9.276-2.842 22.455-1.904 3.924.28 11.632 1.764 23.124 4.455"/><g fill-rule="nonzero" transform="rotate(-8 156.558 -1064.107)"><use fill="#000" filter="url(#ar)" xlink:href="#as"/><use fill="url(#at)" xlink:href="#as"/></g><path fill="url(#au)" fill-rule="nonzero" d="M98.237 63.017c10.436 6.67 26.252-11.153 12.501 16.729-13.75 27.882-26.8 39.03-56.185 31.393-7.417-1.928-16.63-8.642-20.93-13.678-12.738-14.918-4.478-44.352 2.734-47.456 6.431-2.768 15.39-2.768 26.877 0 1.369 0 22.383 4.945 35.003 13.012z" transform="rotate(-8 156.558 -1064.107)"/><path stroke="#505050" stroke-width="1.663" d="M181.648 117.168c.387 4.966.694 8.781.922 11.446.227 2.665.57 6.475 1.03 11.43m13.334-21.896l1.247 22.35"/><g fill-rule="nonzero" transform="rotate(-8 156.558 -1064.107)"><use fill="#4F5056" xlink:href="#av"/><use fill="#000" filter="url(#aw)" xlink:href="#av"/></g><g fill-rule="nonzero" transform="rotate(-8 699.464 -1438.343)"><use fill="#000" filter="url(#ax)" xlink:href="#ay"/><use fill="#FFFBD3" xlink:href="#ay"/></g><g fill-rule="nonzero" transform="rotate(-8 156.558 -1064.107)"><use fill="#4F5056" xlink:href="#az"/><use fill="#000" filter="url(#aA)" xlink:href="#az"/></g><g fill-rule="nonzero"><path fill="url(#aB)" d="M14.16 59.035c.786 0 11.625-.068 24.737-9.81 7.517-5.585 32.349-29.38 24.737-26.362-4.281 1.698-21.42 8.45-34.013 17.954-9.796 7.392-16.273 18.218-15.461 18.218z" opacity=".99" transform="rotate(-8 145.758 -1218.554)"/><path stroke="url(#aC)" stroke-linecap="round" stroke-width=".9" d="M14.4 57.818c2.901 0 11.397-6.073 25.488-18.218" transform="rotate(-8 145.758 -1218.554)"/><path fill="url(#aB)" d="M14.457 58.001c-1.692-.465-9.007-5.07-10.746-10.581-2.437-7.721-2.263-28.632-1.131-32.367.734-2.424 4.488 6.542 7.719 14.939 1.747 4.542 4.696 9.027 5.29 11.204 1.69 6.2 3.393 18.05-1.132 16.805z" opacity=".99" transform="rotate(-8 145.758 -1218.554)"/><path stroke="url(#aC)" stroke-linecap="round" stroke-width=".9" d="M15.123 55.833c-3.001-3.197-5.222-6.4-6.663-9.609-1.441-3.209-2.996-8.414-4.665-15.615" transform="rotate(-8 145.758 -1218.554)"/><g opacity=".99" transform="rotate(-8 145.758 -1218.554)"><use fill="#000" filter="url(#aD)" xlink:href="#aE"/><use fill="url(#aB)" xlink:href="#aE"/></g><path stroke="url(#aC)" stroke-width=".9" d="M15.773 57.187s-.622-3.79 6.1-14.713c.986-1.604 8.053-10.641 10.124-12.753 2.779-2.833 4.962-6.275 6.55-10.323" transform="rotate(-8 145.758 -1218.554)"/></g><g fill-rule="nonzero"><path fill="#FFF" d="M140.037 103.139c-3.249-.362-4.284-1.133-6.6-2.985-2.085-1.667-2.682-4.402-2.537-5.516.304-2.352 2.16-2.27 2.233-4.341.074-2.072-2.233-2.713-1.929-4.25.305-1.538 7.022-5.61 7.615-6.422.593-.813-1.421-1.628-1.015-2.623.406-.994 2.446-1.003 2.741-1.808.295-.805-2.035-.073-1.218-2.352.817-2.278 3.12-3.988 3.553-4.16.434-.172-1.118 2.303-.812 3.075.306.773 1.548-.73 2.03 0 .483.731-.52 1.805 0 3.075.522 1.27 1.592-.028 1.93 1.628.338 1.656-.496 3.838-.71 4.34-.216.504-.741-.98-.915-.542-.173.438-.283 1.362.305 2.08 1.55 1.896 3.655 2.442 4.467 4.07.455.912-.477 2.682-.304 3.346.26.996 1.47 1.327 1.827 1.99.731 1.357.641 2.64.813 3.617.255 1.455-.574 2.247-1.117 3.075-.363.552-1.04 1.125-2.031 1.718.677-1.145.846-1.718.508-1.718-.311 0-2.057 2.063-4.468 3.437-1.526.87-4.01 1.305-4.366 1.266z"/><path fill="#AABBF6" d="M141.754 100.822c-.09-.082-7.465-.72-6.974-6.13.07-.775.427-2.384 1.67-3.966.697-.888 1.58-1.248 2.357-2.614.779-1.365.01-1.899.492-2.614 1.335-1.987 3.538-2.71 3.634-2.975.197-.54-.294 2.614-.294 2.614s.982-1.442.982-.811c0 .166-.154 1.172.59 2.704.529 1.092 1.898 2.555 2.357 3.696.355.883.584 1.875.688 2.975l.49-1.803c.618.749.978 1.35 1.081 1.803.373 1.641-.046 3.251-.393 3.786-2.19 3.38-6.581 3.425-6.68 3.335z"/><path fill="#4B74FF" d="M141.736 99.694c-.12.01-3.6-.501-4.348-3.537-.362-1.467 1.499-6.168 1.778-6.44.28-.272.28 2.27 1.285.998.417-.528.038-2.191.297-3.084.364-1.259 1.284-1.723 1.284-1.723s-.167.964.494 2.358c.724 1.524 4.046 4.032 3.854 6.802-.191 2.771-1.482 4.354-4.644 4.626z"/><path fill="#1232A0" d="M141.734 91.656c-.071-.086-.515 1.148-.76 1.435-.346.408-.474.67-.664 1.34-.174.612-.087 1.36-.38 1.435-.38.095-.57-1.961-.76-1.961-.19 0-.715 1.942-.474 3.013.193.861 1.27 1.626 1.804 1.626 1.234 0 2.379.062 2.849-.67 1.044-1.626.002-3.115-.285-3.443-.113-.128-.36.344-.475.757-.19.678-.38 1.443-.665 1.06-.285-.382.285-4.018-.19-4.592z"/><path fill="#FFF" d="M276.837 117.539c-3.249-.362-4.284-1.133-6.6-2.985-2.085-1.667-2.682-4.402-2.537-5.516.304-2.352 2.16-2.27 2.233-4.341.074-2.072-2.233-2.713-1.929-4.25.305-1.538 7.022-5.61 7.615-6.422.593-.813-1.421-1.628-1.015-2.623.406-.994 2.446-1.003 2.741-1.808.295-.805-2.035-.073-1.218-2.352.817-2.278 3.12-3.988 3.553-4.16.434-.172-1.118 2.303-.812 3.075.306.773 1.548-.73 2.03 0 .483.731-.52 1.805 0 3.075.522 1.27 1.592-.028 1.93 1.628.338 1.656-.496 3.838-.71 4.34-.216.504-.741-.98-.915-.542-.173.438-.283 1.362.305 2.08 1.55 1.896 3.655 2.442 4.467 4.07.455.912-.477 2.682-.304 3.346.26.996 1.47 1.327 1.827 1.99.731 1.357.641 2.64.813 3.617.255 1.455-.574 2.247-1.117 3.075-.363.552-1.04 1.125-2.031 1.718.677-1.145.846-1.718.508-1.718-.311 0-2.057 2.063-4.468 3.437-1.526.87-4.01 1.305-4.366 1.266z"/><path fill="#AABBF6" d="M278.554 115.222c-.09-.082-7.465-.72-6.974-6.13.07-.775.427-2.384 1.67-3.966.697-.888 1.58-1.248 2.357-2.614.779-1.365.01-1.899.492-2.614 1.335-1.987 3.538-2.71 3.634-2.975.197-.54-.294 2.614-.294 2.614s.982-1.442.982-.811c0 .166-.154 1.172.59 2.704.529 1.092 1.898 2.555 2.357 3.696.355.883.584 1.875.688 2.975l.49-1.803c.618.749.978 1.35 1.081 1.803.373 1.641-.046 3.251-.393 3.786-2.19 3.38-6.581 3.425-6.68 3.335z"/><path fill="#4B74FF" d="M278.536 114.094c-.12.01-3.6-.501-4.348-3.537-.362-1.467 1.499-6.168 1.778-6.44.28-.272.28 2.27 1.285.998.417-.528.038-2.191.297-3.084.364-1.259 1.284-1.723 1.284-1.723s-.167.964.494 2.358c.724 1.524 4.046 4.032 3.854 6.802-.191 2.771-1.482 4.354-4.644 4.626z"/><path fill="#1232A0" d="M278.534 106.056c-.071-.086-.515 1.148-.76 1.435-.346.408-.474.67-.664 1.34-.174.612-.087 1.36-.38 1.435-.38.095-.57-1.961-.76-1.961-.19 0-.715 1.942-.474 3.013.193.861 1.27 1.626 1.804 1.626 1.234 0 2.379.062 2.849-.67 1.044-1.626.002-3.115-.285-3.443-.113-.128-.36.344-.475.757-.19.678-.38 1.443-.665 1.06-.285-.382.285-4.018-.19-4.592z"/></g></g></svg>