<svg xmlns="http://www.w3.org/2000/svg" xmlns:xlink="http://www.w3.org/1999/xlink" width="423" height="456"><defs><linearGradient id="b" x1="50%" x2="16.129%" y1="100%" y2="1.319%"><stop offset="0%" stop-color="#2C7FC8"/><stop offset="100%" stop-color="#24A8C2" stop-opacity=".591"/></linearGradient><linearGradient id="e" x1="50%" x2="50%" y1="0%" y2="100%"><stop offset="0%" stop-color="#3A8AD7"/><stop offset="98.04%" stop-color="#FFF"/></linearGradient><path id="c" d="M269.196 164.434l-15.239-27.416h-.313l-8.354 27.416h-15.348l16.617-40.797h11.352l26.69 40.797h-15.405zm-93.665 44.423h56.422l-.493-10.879h-54.874l-1.055 10.88zm-1.934 19.945h59.258l-.492-10.879h-57.711l-1.055 10.88zm-9.294-77.44l-11.239 12.634-9.031-5.865 13.366-12.358-14.778-4.031 5.584-9.798 13.82 5.553 1.641-15.673h10.985l-2.987 15.953 15.132-5.417 2.66 9.943-16.192 4.033 9.307 12.017-10.707 6.081-7.561-13.072zM320.06 163.36l-3.308-10.954h-14.235l-7.825-30.076h14.975l-5.817-18.86L239.155 91l-34.817 86.37h-17.125L226.08 91l-101.93 12.47-5.818 18.862h14.76l-7.845 30.075h-14l-3.308 10.954L99 178.928h11.808l10.606-11.825-3.414 13.09C107.124 221.887 150.255 256 213.847 256c63.59 0 106.745-34.113 95.898-75.807l-3.51-13.49 10.958 12.223H329l-8.94-15.566z"/><filter id="a" width="102.3%" height="103.2%" x="-1.2%" y="-1.6%" filterUnits="objectBoundingBox"><feGaussianBlur in="SourceGraphic" stdDeviation=".57"/></filter><filter id="d" width="113.2%" height="118.4%" x="-6.6%" y="-9.2%" filterUnits="objectBoundingBox"><feGaussianBlur in="SourceAlpha" result="shadowBlurInner1" stdDeviation="12"/><feOffset dy="1" in="shadowBlurInner1" result="shadowOffsetInner1"/><feComposite in="shadowOffsetInner1" in2="SourceAlpha" k2="-1" k3="1" operator="arithmetic" result="shadowInnerInner1"/><feColorMatrix in="shadowInnerInner1" values="0 0 0 0 0.273841344 0 0 0 0 0.651231198 0 0 0 0 0.864503614 0 0 0 0.5 0"/></filter><linearGradient id="i" x1="50%" x2="16.303%" y1="100%" y2="1.828%"><stop offset="0%" stop-color="#2C7FC8"/><stop offset="100%" stop-color="#24A8C2" stop-opacity=".222"/></linearGradient><path id="h" d="M.672.807C21.984 31.776 51.289 47.26 88.586 47.26c37.298 0 69.108-15.484 95.43-46.453L99.177 191.39H92.4L.672.807z"/><filter id="f" width="172%" height="169.3%" x="-36%" y="-35.7%" filterUnits="objectBoundingBox"><feGaussianBlur in="SourceGraphic"/></filter><filter id="g" width="209.1%" height="204.9%" x="-54.5%" y="-53.5%" filterUnits="objectBoundingBox"><feOffset dy="-2" in="SourceAlpha" result="shadowOffsetOuter1"/><feGaussianBlur in="shadowOffsetOuter1" result="shadowBlurOuter1" stdDeviation="33"/><feComposite in="shadowBlurOuter1" in2="SourceAlpha" operator="out" result="shadowBlurOuter1"/><feColorMatrix in="shadowBlurOuter1" values="0 0 0 0 0.288655698 0 0 0 0 0.56455189 0 0 0 0 0.886238694 0 0 0 0.00602921196 0"/></filter><filter id="j" width="192.9%" height="214.1%" x="-46.8%" y="-50.2%" filterUnits="objectBoundingBox"><feOffset dy="5" in="SourceAlpha" result="shadowOffsetOuter1"/><feGaussianBlur in="shadowOffsetOuter1" result="shadowBlurOuter1" stdDeviation="3.5"/><feColorMatrix in="shadowBlurOuter1" result="shadowMatrixOuter1" values="0 0 0 0 0 0 0 0 0 0 0 0 0 0 0 0 0 0 0.142068614 0"/><feMerge><feMergeNode in="shadowMatrixOuter1"/><feMergeNode in="SourceGraphic"/></feMerge></filter><linearGradient id="k" x1="50%" x2="50%" y1="18.541%" y2="82.401%"><stop offset="0%" stop-color="#13228D"/><stop offset="100%" stop-color="#0B115C"/></linearGradient><path id="l" d="M6.977 6.066L.299 2.389V.314L6.47 3.572a.95.95 0 0 1 .507.84v1.654z"/><filter id="m" width="144.9%" height="152.2%" x="-22.5%" y="-26.1%" filterUnits="objectBoundingBox"><feGaussianBlur in="SourceAlpha" result="shadowBlurInner1" stdDeviation="1"/><feOffset dx="-1" dy="1" in="shadowBlurInner1" result="shadowOffsetInner1"/><feComposite in="shadowOffsetInner1" in2="SourceAlpha" k2="-1" k3="1" operator="arithmetic" result="shadowInnerInner1"/><feColorMatrix in="shadowInnerInner1" values="0 0 0 0 0 0 0 0 0 0 0 0 0 0 0 0 0 0 0.2 0"/></filter><linearGradient id="n" x1="91.561%" x2="35.647%" y1="50%" y2="33.564%"><stop offset="0%" stop-color="#13228D"/><stop offset="100%" stop-color="#0A1461"/></linearGradient><path id="o" d="M21.15 3.68L9.203 9.921l.024-1.792a.95.95 0 0 1 .507-.828l11.372-5.985.046 2.362z"/><filter id="p" width="133.5%" height="146.5%" x="-16.7%" y="-23.2%" filterUnits="objectBoundingBox"><feGaussianBlur in="SourceAlpha" result="shadowBlurInner1" stdDeviation="1.5"/><feOffset dx="1" dy="1" in="shadowBlurInner1" result="shadowOffsetInner1"/><feComposite in="shadowOffsetInner1" in2="SourceAlpha" k2="-1" k3="1" operator="arithmetic" result="shadowInnerInner1"/><feColorMatrix in="shadowInnerInner1" values="0 0 0 0 0 0 0 0 0 0 0 0 0 0 0 0 0 0 0.25 0"/></filter><linearGradient id="s" x1="0%" y1="7.52%" y2="7.52%"><stop offset="0%" stop-color="#00EFE4"/><stop offset="39.593%" stop-color="#05CDC4"/><stop offset="50.188%" stop-color="#23ADB9"/><stop offset="60.933%" stop-color="#07B3C9"/><stop offset="100%" stop-color="#117CC0"/></linearGradient><path id="r" d="M35.822.1v2.267l-17.071 8.381a1.9 1.9 0 0 1-1.679-.001L0 2.323V.113l17.067 8.423a1.9 1.9 0 0 0 1.682 0L35.822.098z"/><filter id="q" width="133.5%" height="219.2%" x="-16.7%" y="-64.2%" filterUnits="objectBoundingBox"><feOffset in="SourceAlpha" result="shadowOffsetOuter1"/><feGaussianBlur in="shadowOffsetOuter1" result="shadowBlurOuter1" stdDeviation="2"/><feComposite in="shadowBlurOuter1" in2="SourceAlpha" operator="out" result="shadowBlurOuter1"/><feColorMatrix in="shadowBlurOuter1" result="shadowMatrixOuter1" values="0 0 0 0 0 0 0 0 0 0.870588235 0 0 0 0 0.843137255 0 0 0 0.4 0"/><feOffset dy="-1" in="SourceAlpha" result="shadowOffsetOuter2"/><feComposite in="shadowOffsetOuter2" in2="SourceAlpha" operator="out" result="shadowOffsetOuter2"/><feColorMatrix in="shadowOffsetOuter2" result="shadowMatrixOuter2" values="0 0 0 0 0 0 0 0 0 0 0 0 0 0 0 0 0 0 0.06 0"/><feMerge><feMergeNode in="shadowMatrixOuter1"/><feMergeNode in="shadowMatrixOuter2"/></feMerge></filter><linearGradient id="t" x1="20.847%" x2="75.606%" y1="20.937%" y2="75.78%"><stop offset="0%" stop-color="#1283E0"/><stop offset="100%" stop-color="#0A47B2"/></linearGradient><path id="v" d="M9.642 8.403l8.135-4.274c.19-.1.416-.1.607-.002l8.32 4.273a.658.658 0 0 1-.01 1.175l-8.267 4.073a.777.777 0 0 1-.693-.003L9.652 9.573a.658.658 0 0 1-.01-1.17z"/><filter id="u" width="122%" height="141.1%" x="-11%" y="-20.6%" filterUnits="objectBoundingBox"><feGaussianBlur in="SourceAlpha" result="shadowBlurInner1" stdDeviation="1.5"/><feOffset dx="1" dy="1" in="shadowBlurInner1" result="shadowOffsetInner1"/><feComposite in="shadowOffsetInner1" in2="SourceAlpha" k2="-1" k3="1" operator="arithmetic" result="shadowInnerInner1"/><feColorMatrix in="shadowInnerInner1" values="0 0 0 0 0 0 0 0 0 0 0 0 0 0 0 0 0 0 0.23 0"/></filter><filter id="w" width="289.6%" height="462.2%" x="-94.8%" y="-181.1%" filterUnits="objectBoundingBox"><feGaussianBlur in="SourceGraphic" stdDeviation="3.8"/></filter><linearGradient id="x" x1="3.209%" x2="82.465%" y1="0%" y2="0%"><stop offset="0%" stop-color="#0C6DC4"/><stop offset="100%" stop-color="#0D1569"/></linearGradient><ellipse id="y" cx="18.496" cy="9.122" rx="4.886" ry="2.026"/><filter id="z" width="130.7%" height="174%" x="-15.4%" y="-37%" filterUnits="objectBoundingBox"><feGaussianBlur in="SourceAlpha" result="shadowBlurInner1" stdDeviation="1"/><feOffset dy="1" in="shadowBlurInner1" result="shadowOffsetInner1"/><feComposite in="shadowOffsetInner1" in2="SourceAlpha" k2="-1" k3="1" operator="arithmetic" result="shadowInnerInner1"/><feColorMatrix in="shadowInnerInner1" values="0 0 0 0 0 0 0 0 0 0 0 0 0 0 0 0 0 0 0.5 0"/></filter><linearGradient id="B" x1="50%" x2="16.129%" y1="100%" y2="1.319%"><stop offset="0%" stop-color="#2C7FC8"/><stop offset="100%" stop-color="#FFF" stop-opacity=".591"/></linearGradient><path id="C" d="M269.196 164.434l-15.239-27.416h-.313l-8.354 27.416h-15.348l16.617-40.797h11.352l26.69 40.797h-15.405zm-93.665 44.423h56.422l-.493-10.879h-54.874l-1.055 10.88zm-1.934 19.945h59.258l-.492-10.879h-57.711l-1.055 10.88zm-9.294-77.44l-11.239 12.634-9.031-5.865 13.366-12.358-14.778-4.031 5.584-9.798 13.82 5.553 1.641-15.673h10.985l-2.987 15.953 15.132-5.417 2.66 9.943-16.192 4.033 9.307 12.017-10.707 6.081-7.561-13.072zM320.06 163.36l-3.308-10.954h-14.235l-7.825-30.076h14.975l-5.817-18.86L239.155 91l-34.817 86.37h-17.125L226.08 91l-101.93 12.47-5.818 18.862h14.76l-7.845 30.075h-14l-3.308 10.954L99 178.928h11.808l10.606-11.825-3.414 13.09C107.124 221.887 150.255 256 213.847 256c63.59 0 106.745-34.113 95.898-75.807l-3.51-13.49 10.958 12.223H329l-8.94-15.566z"/><filter id="A" width="101.5%" height="102.1%" x="-.7%" y="-1%" filterUnits="objectBoundingBox"><feGaussianBlur in="SourceGraphic" stdDeviation=".57"/></filter><filter id="D" width="112.4%" height="117.2%" x="-6.2%" y="-8.6%" filterUnits="objectBoundingBox"><feGaussianBlur in="SourceAlpha" result="shadowBlurInner1" stdDeviation="12"/><feOffset dy="1" in="shadowBlurInner1" result="shadowOffsetInner1"/><feComposite in="shadowOffsetInner1" in2="SourceAlpha" k2="-1" k3="1" operator="arithmetic" result="shadowInnerInner1"/><feColorMatrix in="shadowInnerInner1" values="0 0 0 0 0.273841344 0 0 0 0 0.651231198 0 0 0 0 0.864503614 0 0 0 0.5 0"/></filter><linearGradient id="E" x1="86.613%" x2="20.219%" y1="25.334%" y2="100%"><stop offset="0%" stop-color="#CBCBCB"/><stop offset="97.665%" stop-color="#FFFBD3"/></linearGradient><linearGradient id="H" x1="7.273%" y1="100%" y2="13.513%"><stop offset="0%" stop-color="#C8C8C8"/><stop offset="100%" stop-color="#F1F1F1"/></linearGradient><path id="G" d="M45.418 29.628c4.886 3.09 12.291-5.169 5.853 7.752-6.438 12.921-16.56 21.782-23.119 27.278-2.32 1.943-6.028 2.666-9.072 3.732-1.795.63-4.429 1.491-7.901 2.585-4.292 0-6.926-.288-7.901-.862-1.464-.861-2.634-9.475-2.049-9.762.39-.192 6.34.861 17.851 3.158.589 1.073 1.077 1.647 1.464 1.723.386.076.874-.307 1.463-1.149.585-5.934.585-9.284 0-10.05-.878-1.148-8.363-2.62-11.413-3.158-5.463-.964-8.487-.37-8.487-.861 0-1.149 2.047-11.866 4.682-16.94 2.635-5.076 5.141-7.552 9.658-9.476 3.01-1.283 7.205-1.283 12.583 0 .64 0 10.48 2.291 16.388 6.03z"/><filter id="F" width="126.6%" height="129%" x="-13.3%" y="-10.3%" filterUnits="objectBoundingBox"><feOffset dy="2" in="SourceAlpha" result="shadowOffsetOuter1"/><feGaussianBlur in="shadowOffsetOuter1" result="shadowBlurOuter1" stdDeviation="2"/><feColorMatrix in="shadowBlurOuter1" values="0 0 0 0 0 0 0 0 0 0 0 0 0 0 0 0 0 0 0.5 0"/></filter><linearGradient id="I" x1="7.273%" y1="100%" y2="13.513%"><stop offset="0%" stop-color="#C8C8C8"/><stop offset="97.419%" stop-color="#B6B6B6"/></linearGradient><ellipse id="J" cx="24.334" cy="39.371" rx="7.624" ry="7.468"/><filter id="K" width="119.7%" height="120.1%" x="-9.8%" filterUnits="objectBoundingBox"><feGaussianBlur in="SourceAlpha" result="shadowBlurInner1" stdDeviation="1"/><feOffset dy="1" in="shadowBlurInner1" result="shadowOffsetInner1"/><feComposite in="shadowOffsetInner1" in2="SourceAlpha" k2="-1" k3="1" operator="arithmetic" result="shadowInnerInner1"/><feColorMatrix in="shadowInnerInner1" values="0 0 0 0 0 0 0 0 0 0 0 0 0 0 0 0 0 0 0.5 0"/></filter><ellipse id="M" cx="1.886" cy="2.225" rx="1.794" ry="1.849"/><filter id="L" width="323%" height="316.3%" x="-111.5%" y="-54.1%" filterUnits="objectBoundingBox"><feOffset dy="2" in="SourceAlpha" result="shadowOffsetOuter1"/><feGaussianBlur in="shadowOffsetOuter1" result="shadowBlurOuter1" stdDeviation="1"/><feColorMatrix in="shadowBlurOuter1" values="0 0 0 0 0 0 0 0 0 0 0 0 0 0 0 0 0 0 0.5 0"/></filter><path id="N" d="M9.891 39.047c-3.41 3.819-5.114 5.93-5.114 6.332 0 .603 5.114 2.11 6.25 2.11.758 0 .38-2.814-1.136-8.442z"/><filter id="O" width="145.3%" height="135.5%" x="-22.6%" y="-17.8%" filterUnits="objectBoundingBox"><feGaussianBlur in="SourceAlpha" result="shadowBlurInner1" stdDeviation="1"/><feOffset dy="1" in="shadowBlurInner1" result="shadowOffsetInner1"/><feComposite in="shadowOffsetInner1" in2="SourceAlpha" k2="-1" k3="1" operator="arithmetic" result="shadowInnerInner1"/><feColorMatrix in="shadowInnerInner1" values="0 0 0 0 0 0 0 0 0 0 0 0 0 0 0 0 0 0 0.5 0"/></filter><linearGradient id="P" x1="50%" x2="50%" y1="0%" y2="100%"><stop offset="0%" stop-color="#EE5663"/><stop offset="98.124%" stop-color="#EE667A"/></linearGradient><linearGradient id="Q" x1="80.868%" x2="51.177%" y1="85.668%" y2="99.454%"><stop offset="0%" stop-color="#FDFEFF"/><stop offset="100%" stop-color="#F7B0B0" stop-opacity=".425"/></linearGradient><linearGradient id="T" x1="50%" x2="50%" y1="0%" y2="98.124%"><stop offset="0%" stop-color="#EE5663"/><stop offset="100%" stop-color="#EE667A"/></linearGradient><path id="S" d="M6.37 28.113c0-.883-2.408-4.664 3.979-14.89 1.374-2.2 5.636-6.58 12.786-13.138-.245 5.061-1.286 9.149-3.125 12.262C16.548 18.21 6.37 28.763 6.37 28.113z"/><filter id="R" width="181.3%" height="149.9%" x="-40.7%" y="-17.8%" filterUnits="objectBoundingBox"><feOffset dy="2" in="SourceAlpha" result="shadowOffsetOuter1"/><feGaussianBlur in="shadowOffsetOuter1" result="shadowBlurOuter1" stdDeviation="2"/><feColorMatrix in="shadowBlurOuter1" values="0 0 0 0 0 0 0 0 0 0 0 0 0 0 0 0 0 0 0.229619565 0"/></filter><path id="V" d="M45.418 29.628c4.886 3.09 12.291-5.169 5.853 7.752-6.438 12.921-16.56 21.782-23.119 27.278-2.32 1.943-6.028 2.666-9.072 3.732-1.795.63-4.429 1.491-7.901 2.585-4.292 0-6.926-.288-7.901-.862-1.464-.861-2.634-9.475-2.049-9.762.39-.192 6.34.861 17.851 3.158.589 1.073 1.077 1.647 1.464 1.723.386.076.874-.307 1.463-1.149.585-5.934.585-9.284 0-10.05-.878-1.148-8.363-2.62-11.413-3.158-5.463-.964-8.487-.37-8.487-.861 0-1.149 2.047-11.866 4.682-16.94 2.635-5.076 5.141-7.552 9.658-9.476 3.01-1.283 7.205-1.283 12.583 0 .64 0 10.48 2.291 16.388 6.03z"/><filter id="U" width="126.6%" height="129%" x="-13.3%" y="-10.3%" filterUnits="objectBoundingBox"><feOffset dy="2" in="SourceAlpha" result="shadowOffsetOuter1"/><feGaussianBlur in="shadowOffsetOuter1" result="shadowBlurOuter1" stdDeviation="2"/><feColorMatrix in="shadowBlurOuter1" values="0 0 0 0 0 0 0 0 0 0 0 0 0 0 0 0 0 0 0.5 0"/></filter><ellipse id="W" cx="24.334" cy="39.371" rx="7.624" ry="7.468"/><filter id="X" width="119.7%" height="120.1%" x="-9.8%" filterUnits="objectBoundingBox"><feGaussianBlur in="SourceAlpha" result="shadowBlurInner1" stdDeviation="1"/><feOffset dy="1" in="shadowBlurInner1" result="shadowOffsetInner1"/><feComposite in="shadowOffsetInner1" in2="SourceAlpha" k2="-1" k3="1" operator="arithmetic" result="shadowInnerInner1"/><feColorMatrix in="shadowInnerInner1" values="0 0 0 0 0 0 0 0 0 0 0 0 0 0 0 0 0 0 0.5 0"/></filter><ellipse id="Z" cx="1.886" cy="2.225" rx="1.794" ry="1.849"/><filter id="Y" width="323%" height="316.3%" x="-111.5%" y="-54.1%" filterUnits="objectBoundingBox"><feOffset dy="2" in="SourceAlpha" result="shadowOffsetOuter1"/><feGaussianBlur in="shadowOffsetOuter1" result="shadowBlurOuter1" stdDeviation="1"/><feColorMatrix in="shadowBlurOuter1" values="0 0 0 0 0 0 0 0 0 0 0 0 0 0 0 0 0 0 0.5 0"/></filter><path id="aa" d="M9.891 39.047c-3.41 3.819-5.114 5.93-5.114 6.332 0 .603 5.114 2.11 6.25 2.11.758 0 .38-2.814-1.136-8.442z"/><filter id="ab" width="145.3%" height="135.5%" x="-22.6%" y="-17.8%" filterUnits="objectBoundingBox"><feGaussianBlur in="SourceAlpha" result="shadowBlurInner1" stdDeviation="1"/><feOffset dy="1" in="shadowBlurInner1" result="shadowOffsetInner1"/><feComposite in="shadowOffsetInner1" in2="SourceAlpha" k2="-1" k3="1" operator="arithmetic" result="shadowInnerInner1"/><feColorMatrix in="shadowInnerInner1" values="0 0 0 0 0 0 0 0 0 0 0 0 0 0 0 0 0 0 0.5 0"/></filter><linearGradient id="ac" x1="50%" x2="50%" y1="95.202%" y2="5.748%"><stop offset="0%" stop-color="#EAEC51"/><stop offset="100%" stop-color="#C6C15B"/></linearGradient><path id="ae" d="M6.37 28.113c0-.883-2.408-4.664 3.979-14.89 1.374-2.2 5.636-6.58 12.786-13.138-.245 5.061-1.286 9.149-3.125 12.262C16.548 18.21 6.37 28.763 6.37 28.113z"/><filter id="ad" width="181.3%" height="149.9%" x="-40.7%" y="-17.8%" filterUnits="objectBoundingBox"><feOffset dy="2" in="SourceAlpha" result="shadowOffsetOuter1"/><feGaussianBlur in="shadowOffsetOuter1" result="shadowBlurOuter1" stdDeviation="2"/><feColorMatrix in="shadowBlurOuter1" values="0 0 0 0 0 0 0 0 0 0 0 0 0 0 0 0 0 0 0.229619565 0"/></filter><path id="ag" d="M45.418 29.628c4.886 3.09 12.291-5.169 5.853 7.752-6.438 12.921-16.56 21.782-23.119 27.278-2.32 1.943-6.028 2.666-9.072 3.732-1.795.63-4.429 1.491-7.901 2.585-4.292 0-6.926-.288-7.901-.862-1.464-.861-2.634-9.475-2.049-9.762.39-.192 6.34.861 17.851 3.158.589 1.073 1.077 1.647 1.464 1.723.386.076.874-.307 1.463-1.149.585-5.934.585-9.284 0-10.05-.878-1.148-8.363-2.62-11.413-3.158-5.463-.964-8.487-.37-8.487-.861 0-1.149 2.047-11.866 4.682-16.94 2.635-5.076 5.141-7.552 9.658-9.476 3.01-1.283 7.205-1.283 12.583 0 .64 0 10.48 2.291 16.388 6.03z"/><filter id="af" width="126.6%" height="129%" x="-13.3%" y="-10.3%" filterUnits="objectBoundingBox"><feOffset dy="2" in="SourceAlpha" result="shadowOffsetOuter1"/><feGaussianBlur in="shadowOffsetOuter1" result="shadowBlurOuter1" stdDeviation="2"/><feColorMatrix in="shadowBlurOuter1" values="0 0 0 0 0 0 0 0 0 0 0 0 0 0 0 0 0 0 0.5 0"/></filter><ellipse id="ah" cx="24.334" cy="39.371" rx="7.624" ry="7.468"/><filter id="ai" width="119.7%" height="120.1%" x="-9.8%" filterUnits="objectBoundingBox"><feGaussianBlur in="SourceAlpha" result="shadowBlurInner1" stdDeviation="1"/><feOffset dy="1" in="shadowBlurInner1" result="shadowOffsetInner1"/><feComposite in="shadowOffsetInner1" in2="SourceAlpha" k2="-1" k3="1" operator="arithmetic" result="shadowInnerInner1"/><feColorMatrix in="shadowInnerInner1" values="0 0 0 0 0 0 0 0 0 0 0 0 0 0 0 0 0 0 0.5 0"/></filter><ellipse id="ak" cx="1.886" cy="2.225" rx="1.794" ry="1.849"/><filter id="aj" width="323%" height="316.3%" x="-111.5%" y="-54.1%" filterUnits="objectBoundingBox"><feOffset dy="2" in="SourceAlpha" result="shadowOffsetOuter1"/><feGaussianBlur in="shadowOffsetOuter1" result="shadowBlurOuter1" stdDeviation="1"/><feColorMatrix in="shadowBlurOuter1" values="0 0 0 0 0 0 0 0 0 0 0 0 0 0 0 0 0 0 0.5 0"/></filter><path id="al" d="M9.891 39.047c-3.41 3.819-5.114 5.93-5.114 6.332 0 .603 5.114 2.11 6.25 2.11.758 0 .38-2.814-1.136-8.442z"/><filter id="am" width="145.3%" height="135.5%" x="-22.6%" y="-17.8%" filterUnits="objectBoundingBox"><feGaussianBlur in="SourceAlpha" result="shadowBlurInner1" stdDeviation="1"/><feOffset dy="1" in="shadowBlurInner1" result="shadowOffsetInner1"/><feComposite in="shadowOffsetInner1" in2="SourceAlpha" k2="-1" k3="1" operator="arithmetic" result="shadowInnerInner1"/><feColorMatrix in="shadowInnerInner1" values="0 0 0 0 0 0 0 0 0 0 0 0 0 0 0 0 0 0 0.5 0"/></filter><linearGradient id="an" x1="50%" x2="50%" y1="0%" y2="97.97%"><stop offset="0%" stop-color="#6188FA"/><stop offset="100%" stop-color="#0EC9F3"/></linearGradient><path id="ap" d="M6.37 28.113c0-.883-2.408-4.664 3.979-14.89 1.374-2.2 5.636-6.58 12.786-13.138-.245 5.061-1.286 9.149-3.125 12.262C16.548 18.21 6.37 28.763 6.37 28.113z"/><filter id="ao" width="181.3%" height="149.9%" x="-40.7%" y="-17.8%" filterUnits="objectBoundingBox"><feOffset dy="2" in="SourceAlpha" result="shadowOffsetOuter1"/><feGaussianBlur in="shadowOffsetOuter1" result="shadowBlurOuter1" stdDeviation="2"/><feColorMatrix in="shadowBlurOuter1" values="0 0 0 0 0 0 0 0 0 0 0 0 0 0 0 0 0 0 0.229619565 0"/></filter><path id="ar" d="M45.418 29.628c4.886 3.09 12.291-5.169 5.853 7.752-6.438 12.921-16.56 21.782-23.119 27.278-2.32 1.943-6.028 2.666-9.072 3.732-1.795.63-4.429 1.491-7.901 2.585-4.292 0-6.926-.288-7.901-.862-1.464-.861-2.634-9.475-2.049-9.762.39-.192 6.34.861 17.851 3.158.589 1.073 1.077 1.647 1.464 1.723.386.076.874-.307 1.463-1.149.585-5.934.585-9.284 0-10.05-.878-1.148-8.363-2.62-11.413-3.158-5.463-.964-8.487-.37-8.487-.861 0-1.149 2.047-11.866 4.682-16.94 2.635-5.076 5.141-7.552 9.658-9.476 3.01-1.283 7.205-1.283 12.583 0 .64 0 10.48 2.291 16.388 6.03z"/><filter id="aq" width="126.6%" height="129%" x="-13.3%" y="-10.3%" filterUnits="objectBoundingBox"><feOffset dy="2" in="SourceAlpha" result="shadowOffsetOuter1"/><feGaussianBlur in="shadowOffsetOuter1" result="shadowBlurOuter1" stdDeviation="2"/><feColorMatrix in="shadowBlurOuter1" values="0 0 0 0 0 0 0 0 0 0 0 0 0 0 0 0 0 0 0.5 0"/></filter><ellipse id="as" cx="24.334" cy="39.371" rx="7.624" ry="7.468"/><filter id="at" width="119.7%" height="120.1%" x="-9.8%" filterUnits="objectBoundingBox"><feGaussianBlur in="SourceAlpha" result="shadowBlurInner1" stdDeviation="1"/><feOffset dy="1" in="shadowBlurInner1" result="shadowOffsetInner1"/><feComposite in="shadowOffsetInner1" in2="SourceAlpha" k2="-1" k3="1" operator="arithmetic" result="shadowInnerInner1"/><feColorMatrix in="shadowInnerInner1" values="0 0 0 0 0 0 0 0 0 0 0 0 0 0 0 0 0 0 0.5 0"/></filter><ellipse id="av" cx="1.886" cy="2.225" rx="1.794" ry="1.849"/><filter id="au" width="323%" height="316.3%" x="-111.5%" y="-54.1%" filterUnits="objectBoundingBox"><feOffset dy="2" in="SourceAlpha" result="shadowOffsetOuter1"/><feGaussianBlur in="shadowOffsetOuter1" result="shadowBlurOuter1" stdDeviation="1"/><feColorMatrix in="shadowBlurOuter1" values="0 0 0 0 0 0 0 0 0 0 0 0 0 0 0 0 0 0 0.5 0"/></filter><path id="aw" d="M9.891 39.047c-3.41 3.819-5.114 5.93-5.114 6.332 0 .603 5.114 2.11 6.25 2.11.758 0 .38-2.814-1.136-8.442z"/><filter id="ax" width="145.3%" height="135.5%" x="-22.6%" y="-17.8%" filterUnits="objectBoundingBox"><feGaussianBlur in="SourceAlpha" result="shadowBlurInner1" stdDeviation="1"/><feOffset dy="1" in="shadowBlurInner1" result="shadowOffsetInner1"/><feComposite in="shadowOffsetInner1" in2="SourceAlpha" k2="-1" k3="1" operator="arithmetic" result="shadowInnerInner1"/><feColorMatrix in="shadowInnerInner1" values="0 0 0 0 0 0 0 0 0 0 0 0 0 0 0 0 0 0 0.5 0"/></filter><linearGradient id="ay" x1="50%" x2="50%" y1="95.202%" y2="3.57%"><stop offset="0%" stop-color="#51ECCC"/><stop offset="100%" stop-color="#7AC65B"/></linearGradient><path id="aA" d="M6.37 28.113c0-.883-2.408-4.664 3.979-14.89 1.374-2.2 5.636-6.58 12.786-13.138-.245 5.061-1.286 9.149-3.125 12.262C16.548 18.21 6.37 28.763 6.37 28.113z"/><filter id="az" width="181.3%" height="149.9%" x="-40.7%" y="-17.8%" filterUnits="objectBoundingBox"><feOffset dy="2" in="SourceAlpha" result="shadowOffsetOuter1"/><feGaussianBlur in="shadowOffsetOuter1" result="shadowBlurOuter1" stdDeviation="2"/><feColorMatrix in="shadowBlurOuter1" values="0 0 0 0 0 0 0 0 0 0 0 0 0 0 0 0 0 0 0.229619565 0"/></filter><path id="aC" d="M45.418 29.628c4.886 3.09 12.291-5.169 5.853 7.752-6.438 12.921-16.56 21.782-23.119 27.278-2.32 1.943-6.028 2.666-9.072 3.732-1.795.63-4.429 1.491-7.901 2.585-4.292 0-6.926-.288-7.901-.862-1.464-.861-2.634-9.475-2.049-9.762.39-.192 6.34.861 17.851 3.158.589 1.073 1.077 1.647 1.464 1.723.386.076.874-.307 1.463-1.149.585-5.934.585-9.284 0-10.05-.878-1.148-8.363-2.62-11.413-3.158-5.463-.964-8.487-.37-8.487-.861 0-1.149 2.047-11.866 4.682-16.94 2.635-5.076 5.141-7.552 9.658-9.476 3.01-1.283 7.205-1.283 12.583 0 .64 0 10.48 2.291 16.388 6.03z"/><filter id="aB" width="126.6%" height="129%" x="-13.3%" y="-10.3%" filterUnits="objectBoundingBox"><feOffset dy="2" in="SourceAlpha" result="shadowOffsetOuter1"/><feGaussianBlur in="shadowOffsetOuter1" result="shadowBlurOuter1" stdDeviation="2"/><feColorMatrix in="shadowBlurOuter1" values="0 0 0 0 0 0 0 0 0 0 0 0 0 0 0 0 0 0 0.5 0"/></filter><ellipse id="aD" cx="24.334" cy="39.371" rx="7.624" ry="7.468"/><filter id="aE" width="119.7%" height="120.1%" x="-9.8%" filterUnits="objectBoundingBox"><feGaussianBlur in="SourceAlpha" result="shadowBlurInner1" stdDeviation="1"/><feOffset dy="1" in="shadowBlurInner1" result="shadowOffsetInner1"/><feComposite in="shadowOffsetInner1" in2="SourceAlpha" k2="-1" k3="1" operator="arithmetic" result="shadowInnerInner1"/><feColorMatrix in="shadowInnerInner1" values="0 0 0 0 0 0 0 0 0 0 0 0 0 0 0 0 0 0 0.5 0"/></filter><ellipse id="aG" cx="1.886" cy="2.225" rx="1.794" ry="1.849"/><filter id="aF" width="323%" height="316.3%" x="-111.5%" y="-54.1%" filterUnits="objectBoundingBox"><feOffset dy="2" in="SourceAlpha" result="shadowOffsetOuter1"/><feGaussianBlur in="shadowOffsetOuter1" result="shadowBlurOuter1" stdDeviation="1"/><feColorMatrix in="shadowBlurOuter1" values="0 0 0 0 0 0 0 0 0 0 0 0 0 0 0 0 0 0 0.5 0"/></filter><path id="aH" d="M9.891 39.047c-3.41 3.819-5.114 5.93-5.114 6.332 0 .603 5.114 2.11 6.25 2.11.758 0 .38-2.814-1.136-8.442z"/><filter id="aI" width="145.3%" height="135.5%" x="-22.6%" y="-17.8%" filterUnits="objectBoundingBox"><feGaussianBlur in="SourceAlpha" result="shadowBlurInner1" stdDeviation="1"/><feOffset dy="1" in="shadowBlurInner1" result="shadowOffsetInner1"/><feComposite in="shadowOffsetInner1" in2="SourceAlpha" k2="-1" k3="1" operator="arithmetic" result="shadowInnerInner1"/><feColorMatrix in="shadowInnerInner1" values="0 0 0 0 0 0 0 0 0 0 0 0 0 0 0 0 0 0 0.5 0"/></filter><linearGradient id="aJ" x1="50%" x2="50%" y1="0%" y2="100%"><stop offset="0%" stop-color="#FAD961"/><stop offset="100%" stop-color="#F76B1C"/></linearGradient><path id="aL" d="M6.37 28.113c0-.883-2.408-4.664 3.979-14.89 1.374-2.2 5.636-6.58 12.786-13.138-.245 5.061-1.286 9.149-3.125 12.262C16.548 18.21 6.37 28.763 6.37 28.113z"/><filter id="aK" width="181.3%" height="149.9%" x="-40.7%" y="-17.8%" filterUnits="objectBoundingBox"><feOffset dy="2" in="SourceAlpha" result="shadowOffsetOuter1"/><feGaussianBlur in="shadowOffsetOuter1" result="shadowBlurOuter1" stdDeviation="2"/><feColorMatrix in="shadowBlurOuter1" values="0 0 0 0 0 0 0 0 0 0 0 0 0 0 0 0 0 0 0.229619565 0"/></filter><path id="aN" d="M45.418 29.628c4.886 3.09 12.291-5.169 5.853 7.752-6.438 12.921-16.56 21.782-23.119 27.278-2.32 1.943-6.028 2.666-9.072 3.732-1.795.63-4.429 1.491-7.901 2.585-4.292 0-6.926-.288-7.901-.862-1.464-.861-2.634-9.475-2.049-9.762.39-.192 6.34.861 17.851 3.158.589 1.073 1.077 1.647 1.464 1.723.386.076.874-.307 1.463-1.149.585-5.934.585-9.284 0-10.05-.878-1.148-8.363-2.62-11.413-3.158-5.463-.964-8.487-.37-8.487-.861 0-1.149 2.047-11.866 4.682-16.94 2.635-5.076 5.141-7.552 9.658-9.476 3.01-1.283 7.205-1.283 12.583 0 .64 0 10.48 2.291 16.388 6.03z"/><filter id="aM" width="126.6%" height="129%" x="-13.3%" y="-10.3%" filterUnits="objectBoundingBox"><feOffset dy="2" in="SourceAlpha" result="shadowOffsetOuter1"/><feGaussianBlur in="shadowOffsetOuter1" result="shadowBlurOuter1" stdDeviation="2"/><feColorMatrix in="shadowBlurOuter1" values="0 0 0 0 0 0 0 0 0 0 0 0 0 0 0 0 0 0 0.5 0"/></filter><ellipse id="aO" cx="24.334" cy="39.371" rx="7.624" ry="7.468"/><filter id="aP" width="119.7%" height="120.1%" x="-9.8%" filterUnits="objectBoundingBox"><feGaussianBlur in="SourceAlpha" result="shadowBlurInner1" stdDeviation="1"/><feOffset dy="1" in="shadowBlurInner1" result="shadowOffsetInner1"/><feComposite in="shadowOffsetInner1" in2="SourceAlpha" k2="-1" k3="1" operator="arithmetic" result="shadowInnerInner1"/><feColorMatrix in="shadowInnerInner1" values="0 0 0 0 0 0 0 0 0 0 0 0 0 0 0 0 0 0 0.5 0"/></filter><ellipse id="aR" cx="1.886" cy="2.225" rx="1.794" ry="1.849"/><filter id="aQ" width="323%" height="316.3%" x="-111.5%" y="-54.1%" filterUnits="objectBoundingBox"><feOffset dy="2" in="SourceAlpha" result="shadowOffsetOuter1"/><feGaussianBlur in="shadowOffsetOuter1" result="shadowBlurOuter1" stdDeviation="1"/><feColorMatrix in="shadowBlurOuter1" values="0 0 0 0 0 0 0 0 0 0 0 0 0 0 0 0 0 0 0.5 0"/></filter><path id="aS" d="M9.891 39.047c-3.41 3.819-5.114 5.93-5.114 6.332 0 .603 5.114 2.11 6.25 2.11.758 0 .38-2.814-1.136-8.442z"/><filter id="aT" width="145.3%" height="135.5%" x="-22.6%" y="-17.8%" filterUnits="objectBoundingBox"><feGaussianBlur in="SourceAlpha" result="shadowBlurInner1" stdDeviation="1"/><feOffset dy="1" in="shadowBlurInner1" result="shadowOffsetInner1"/><feComposite in="shadowOffsetInner1" in2="SourceAlpha" k2="-1" k3="1" operator="arithmetic" result="shadowInnerInner1"/><feColorMatrix in="shadowInnerInner1" values="0 0 0 0 0 0 0 0 0 0 0 0 0 0 0 0 0 0 0.5 0"/></filter><linearGradient id="aU" x1="0%" x2="102%" y1="0%" y2="101%"><stop offset="0%" stop-color="#3023AE"/><stop offset="100%" stop-color="#C86DD7"/></linearGradient><linearGradient id="aV" x1="80.868%" x2="51.177%" y1="85.668%" y2="99.454%"><stop offset="0%" stop-color="#FF7D7D"/><stop offset="100%" stop-color="#F7B0B0" stop-opacity=".425"/></linearGradient><linearGradient id="aW" x1="80.868%" x2="51.746%" y1="85.668%" y2="99.189%"><stop offset="0%" stop-color="#FF7D7D"/><stop offset="100%" stop-color="#F7B0B0" stop-opacity=".552"/></linearGradient><path id="aY" d="M6.37 28.113c0-.883-2.408-4.664 3.979-14.89 1.374-2.2 5.636-6.58 12.786-13.138-.245 5.061-1.286 9.149-3.125 12.262C16.548 18.21 6.37 28.763 6.37 28.113z"/><filter id="aX" width="181.3%" height="149.9%" x="-40.7%" y="-17.8%" filterUnits="objectBoundingBox"><feOffset dy="2" in="SourceAlpha" result="shadowOffsetOuter1"/><feGaussianBlur in="shadowOffsetOuter1" result="shadowBlurOuter1" stdDeviation="2"/><feColorMatrix in="shadowBlurOuter1" values="0 0 0 0 0 0 0 0 0 0 0 0 0 0 0 0 0 0 0.229619565 0"/></filter><linearGradient id="aZ" x1="80.868%" x2="51.307%" y1="85.668%" y2="99.393%"><stop offset="0%" stop-color="#FF7D7D"/><stop offset="100%" stop-color="#F7B0B0" stop-opacity=".476"/></linearGradient></defs><g fill="none" fill-rule="evenodd"><g filter="url(#a)" opacity=".571" transform="translate(2 1)"><use fill="url(#b)" fill-opacity=".34" xlink:href="#c"/><use fill="#000" filter="url(#d)" xlink:href="#c"/><path stroke="url(#e)" stroke-width=".95" d="M269.475 163.96h14.248l-26.07-39.848h-10.775l-16.23 39.847h14.29l8.354-27.416h.945l15.238 27.416zm-93.42 44.422h55.4l-.449-9.929h-53.989l-.963 9.93zm-1.935 19.945h58.238l-.449-9.929h-56.826l-.963 9.93zm-2.08-64.539l9.82-5.577-9.418-12.16 16.43-4.092-2.402-8.978-15.425 5.522 3.034-16.204h-9.985l-1.663 15.874-14.019-5.634-5.075 8.906 15.013 4.095-13.546 12.525 8.177 5.31 11.404-12.82 7.655 13.233zm148.46-.617l9.32 16.23h-12.839l-9.793-10.925 3.017 11.597c10.943 42.062-32.499 76.402-96.358 76.402-63.861 0-107.278-34.34-96.307-76.402l2.92-11.195-9.44 10.525H98.18l9.32-16.231 3.395-11.24h13.986l7.597-29.125H117.69l6.097-19.77 103.074-12.61-38.914 86.469h16.07l34.844-86.436 65.359 12.598 6.09 19.747h-15.003l7.577 29.126h14.221l3.394 11.24zm-213 0l.028-.046-.043.099.016-.052z"/></g><g filter="url(#f)" transform="translate(123 208)"><use fill="#000" filter="url(#g)" xlink:href="#h"/><path fill="url(#i)" fill-opacity=".35" d="M.672.807C21.984 31.776 51.289 47.26 88.586 47.26c37.298 0 69.108-15.484 95.43-46.453L99.177 191.39H92.4L.672.807z"/></g><g filter="url(#j)" transform="translate(200.341 389.482)"><path fill="#FFF" d="M35.816 9.447v10.817l-17.872 9.12L0 20.265V9.447l17.908 9.121z"/><path fill="url(#k)" d="M17.908 20.054l17.908-9.12V.116l-17.908 9.12z" transform="translate(0 9.33)"/><path fill="#1283E0" d="M17.908 29.385L0 20.264V9.447l17.908 9.121z"/><g transform="translate(9.887 17.943)"><use fill="#1283E0" xlink:href="#l"/><use fill="#000" filter="url(#m)" xlink:href="#l"/><path stroke="#FFF" stroke-linejoin="square" stroke-opacity=".3" stroke-width=".5" d="M6.727 5.643v-1.23a.7.7 0 0 0-.374-.62L.55.728v1.514l6.178 3.4z"/></g><g transform="translate(9.887 17.943)"><use fill="url(#n)" xlink:href="#o"/><use fill="#000" filter="url(#p)" xlink:href="#o"/><path stroke="#FFF" stroke-linejoin="square" stroke-opacity=".15" stroke-width=".5" d="M20.898 3.53l-.035-1.804L9.85 7.523a.7.7 0 0 0-.374.61l-.018 1.374 11.44-5.978z"/></g><g transform="translate(0 9.33)"><use fill="#000" filter="url(#q)" xlink:href="#r"/><use fill="url(#s)" xlink:href="#r"/></g><path fill="url(#t)" d="M0 8.927L17.908 0l17.914 8.913-17.066 8.518a1.9 1.9 0 0 1-1.696 0L0 8.928z"/><use fill="#000" filter="url(#u)" xlink:href="#v"/><path fill="#000" d="M12.862 7.98l5.113-2.619a.658.658 0 0 1 .6 0l5.113 2.62a.658.658 0 0 1-.028 1.183l-5.063 2.306a.777.777 0 0 1-.644 0L12.89 9.164a.658.658 0 0 1-.028-1.183z" filter="url(#w)" opacity=".302"/><path fill="url(#x)" d="M35.822 8.913v.803l-17.065 8.463a1.9 1.9 0 0 1-1.691-.002L0 9.671v-.744l17.06 8.505a1.9 1.9 0 0 0 1.696 0l17.066-8.519z"/><use fill="#E5EBFF" xlink:href="#y"/><use fill="#000" filter="url(#z)" xlink:href="#y"/></g><g filter="url(#A)" opacity=".6" transform="translate(2 1)"><use fill="url(#B)" xlink:href="#C"/><use fill="#000" filter="url(#D)" xlink:href="#C"/></g><g fill-rule="nonzero"><path fill="#FFF" d="M39.28 212.646c3.716-.41 4.9-1.286 7.547-3.387 2.385-1.892 3.068-4.995 2.903-6.26-.349-2.668-2.47-2.574-2.555-4.925-.084-2.352 2.555-3.079 2.206-4.824-.348-1.744-8.03-6.363-8.707-7.286-.679-.922 1.625-1.847 1.16-2.976-.464-1.128-2.797-1.138-3.134-2.052-.337-.914 2.327-.083 1.393-2.668-.934-2.586-3.567-4.526-4.064-4.72-.496-.196 1.28 2.612.93 3.488-.35.877-1.77-.829-2.323 0-.552.83.596 2.048 0 3.49-.596 1.44-1.82-.032-2.206 1.847-.386 1.878.567 4.355.813 4.925.246.571.847-1.112 1.045-.615.198.496.324 1.545-.348 2.36-1.774 2.151-4.18 2.77-5.109 4.618-.52 1.035.546 3.044.348 3.797-.297 1.13-1.682 1.506-2.09 2.258-.835 1.54-.732 2.995-.928 4.104-.292 1.651.655 2.55 1.277 3.49.414.626 1.188 1.276 2.322 1.95-.774-1.3-.968-1.95-.58-1.95.355 0 2.351 2.34 5.108 3.9 1.746.986 4.585 1.48 4.992 1.436z"/><path fill="#AABBF6" d="M37.317 210.017c.103-.094 8.537-.818 7.975-6.955-.08-.88-.488-2.706-1.91-4.501-.797-1.007-1.805-1.417-2.695-2.966-.89-1.55-.012-2.155-.562-2.967-1.527-2.255-4.046-3.074-4.156-3.375-.225-.614.337 2.966.337 2.966s-1.123-1.636-1.123-.92c0 .188.175 1.33-.674 3.068-.606 1.238-2.172 2.899-2.696 4.194-.406 1.002-.668 2.127-.787 3.375l-.561-2.045c-.706.85-1.118 1.531-1.236 2.045-.426 1.863.053 3.69.45 4.297 2.504 3.834 7.526 3.886 7.638 3.784z"/><path fill="#4B74FF" d="M37.338 208.737c.137.012 4.118-.569 4.972-4.014.414-1.664-1.714-6.998-2.034-7.307-.32-.309-.32 2.576-1.469 1.132-.477-.6-.043-2.486-.339-3.5-.417-1.428-1.469-1.955-1.469-1.955s.192 1.094-.565 2.676c-.827 1.73-4.626 4.575-4.407 7.72.22 3.143 1.695 4.94 5.311 5.248z"/><path fill="#1232A0" d="M37.34 199.617c.082-.099.59 1.302.869 1.628.396.462.543.76.76 1.52.198.695.1 1.544.434 1.628.434.108.652-2.225.869-2.225.217 0 .818 2.203.543 3.419-.221.977-1.453 1.845-2.063 1.845-1.412 0-2.72.07-3.258-.76-1.194-1.845-.003-3.535.326-3.907.128-.146.41.39.543.86.217.768.434 1.636.76 1.202.326-.434-.326-4.56.217-5.21z"/></g><g fill-rule="nonzero"><path fill="#FFF" d="M76.28 82.646c3.716-.41 4.9-1.286 7.547-3.387 2.385-1.892 3.068-4.995 2.903-6.26-.349-2.668-2.47-2.574-2.555-4.925-.084-2.352 2.555-3.079 2.206-4.824-.348-1.744-8.03-6.363-8.707-7.286-.679-.922 1.625-1.847 1.16-2.976-.464-1.128-2.797-1.138-3.134-2.052-.337-.914 2.327-.083 1.393-2.668-.934-2.586-3.567-4.526-4.064-4.72-.496-.196 1.28 2.612.93 3.488-.35.877-1.77-.829-2.323 0-.552.83.596 2.048 0 3.49-.596 1.44-1.82-.032-2.206 1.847-.386 1.878.567 4.355.813 4.925.246.571.847-1.112 1.045-.615.198.496.324 1.545-.348 2.36-1.774 2.151-4.18 2.77-5.109 4.618-.52 1.035.546 3.044.348 3.797-.297 1.13-1.682 1.506-2.09 2.258-.835 1.54-.732 2.995-.928 4.104-.292 1.651.655 2.55 1.277 3.49.414.626 1.188 1.276 2.322 1.95-.774-1.3-.968-1.95-.58-1.95.355 0 2.351 2.34 5.108 3.9 1.746.986 4.585 1.48 4.992 1.436z"/><path fill="#AABBF6" d="M74.317 80.017c.103-.094 8.537-.818 7.975-6.955-.08-.88-.488-2.706-1.91-4.501-.797-1.007-1.805-1.417-2.695-2.966-.89-1.55-.012-2.155-.562-2.967-1.527-2.255-4.046-3.074-4.156-3.375-.225-.614.337 2.966.337 2.966s-1.123-1.636-1.123-.92c0 .188.175 1.33-.674 3.068-.606 1.238-2.172 2.899-2.696 4.194-.406 1.002-.668 2.127-.787 3.375l-.561-2.045c-.706.85-1.118 1.531-1.236 2.045-.426 1.863.053 3.69.45 4.297 2.504 3.834 7.526 3.886 7.638 3.784z"/><path fill="#4B74FF" d="M74.338 78.737c.137.012 4.118-.569 4.972-4.014.414-1.664-1.714-6.998-2.034-7.307-.32-.309-.32 2.576-1.469 1.132-.477-.6-.043-2.486-.339-3.5C75.051 63.62 74 63.094 74 63.094s.192 1.094-.565 2.676c-.827 1.73-4.626 4.575-4.407 7.72.22 3.143 1.695 4.94 5.311 5.248z"/><path fill="#1232A0" d="M74.34 69.617c.082-.099.59 1.302.869 1.628.396.462.543.76.76 1.52.198.695.1 1.544.434 1.628.434.108.652-2.225.869-2.225.217 0 .818 2.203.543 3.419-.221.977-1.453 1.845-2.063 1.845-1.412 0-2.72.07-3.258-.76-1.194-1.845-.003-3.535.326-3.907.128-.146.41.39.543.86.217.768.434 1.636.76 1.202.326-.434-.326-4.56.217-5.21z"/></g><g fill-rule="nonzero"><path fill="#FFF" d="M213.28 40.646c3.716-.41 4.9-1.286 7.547-3.387 2.385-1.892 3.068-4.995 2.903-6.26-.349-2.668-2.47-2.574-2.555-4.925-.084-2.352 2.555-3.079 2.206-4.824-.348-1.744-8.03-6.363-8.707-7.286-.679-.922 1.625-1.847 1.16-2.976-.464-1.128-2.797-1.138-3.134-2.052-.337-.914 2.327-.083 1.393-2.668-.934-2.586-3.567-4.526-4.064-4.72-.496-.196 1.28 2.612.93 3.488-.35.877-1.77-.829-2.323 0-.552.83.596 2.048 0 3.49-.596 1.44-1.82-.032-2.206 1.847-.386 1.878.567 4.355.813 4.925.246.571.847-1.112 1.045-.615.198.496.324 1.545-.348 2.36-1.774 2.151-4.18 2.77-5.109 4.618-.52 1.035.546 3.044.348 3.797-.297 1.13-1.682 1.506-2.09 2.258-.835 1.54-.732 2.995-.928 4.104-.292 1.651.655 2.55 1.277 3.49.414.626 1.188 1.276 2.322 1.95-.774-1.3-.968-1.95-.58-1.95.355 0 2.351 2.34 5.108 3.9 1.746.986 4.585 1.48 4.992 1.436z"/><path fill="#AABBF6" d="M211.317 38.017c.103-.094 8.537-.818 7.975-6.955-.08-.88-.488-2.706-1.91-4.501-.797-1.007-1.805-1.417-2.695-2.966-.89-1.55-.012-2.155-.562-2.967-1.527-2.255-4.046-3.074-4.156-3.375-.225-.614.337 2.966.337 2.966s-1.123-1.636-1.123-.92c0 .188.175 1.33-.674 3.068-.606 1.238-2.172 2.899-2.696 4.194-.406 1.002-.668 2.127-.787 3.375l-.561-2.045c-.706.85-1.118 1.531-1.236 2.045-.426 1.863.053 3.69.45 4.297 2.504 3.834 7.526 3.886 7.638 3.784z"/><path fill="#4B74FF" d="M211.338 36.737c.137.012 4.118-.569 4.972-4.014.414-1.664-1.714-6.998-2.034-7.307-.32-.309-.32 2.576-1.469 1.132-.477-.6-.043-2.486-.339-3.5-.417-1.428-1.469-1.955-1.469-1.955s.192 1.094-.565 2.676c-.827 1.73-4.626 4.575-4.407 7.72.22 3.143 1.695 4.94 5.311 5.248z"/><path fill="#1232A0" d="M211.34 27.617c.082-.099.59 1.302.869 1.628.396.462.543.76.76 1.52.198.695.1 1.544.434 1.628.434.108.652-2.225.869-2.225.217 0 .818 2.203.543 3.419-.221.977-1.453 1.845-2.063 1.845-1.412 0-2.72.07-3.258-.76-1.194-1.845-.003-3.535.326-3.907.128-.146.41.39.543.86.217.768.434 1.636.76 1.202.326-.434-.326-4.56.217-5.21z"/></g><g fill-rule="nonzero"><path fill="#FFF" d="M354.28 82.646c3.716-.41 4.9-1.286 7.547-3.387 2.385-1.892 3.068-4.995 2.903-6.26-.349-2.668-2.47-2.574-2.555-4.925-.084-2.352 2.555-3.079 2.206-4.824-.348-1.744-8.03-6.363-8.707-7.286-.679-.922 1.625-1.847 1.16-2.976-.464-1.128-2.797-1.138-3.134-2.052-.337-.914 2.327-.083 1.393-2.668-.934-2.586-3.567-4.526-4.064-4.72-.496-.196 1.28 2.612.93 3.488-.35.877-1.77-.829-2.323 0-.552.83.596 2.048 0 3.49-.596 1.44-1.82-.032-2.206 1.847-.386 1.878.567 4.355.813 4.925.246.571.847-1.112 1.045-.615.198.496.324 1.545-.348 2.36-1.774 2.151-4.18 2.77-5.109 4.618-.52 1.035.546 3.044.348 3.797-.297 1.13-1.682 1.506-2.09 2.258-.835 1.54-.732 2.995-.928 4.104-.292 1.651.655 2.55 1.277 3.49.414.626 1.188 1.276 2.322 1.95-.774-1.3-.968-1.95-.58-1.95.355 0 2.351 2.34 5.108 3.9 1.746.986 4.585 1.48 4.992 1.436z"/><path fill="#AABBF6" d="M352.317 80.017c.103-.094 8.537-.818 7.975-6.955-.08-.88-.488-2.706-1.91-4.501-.797-1.007-1.805-1.417-2.695-2.966-.89-1.55-.012-2.155-.562-2.967-1.527-2.255-4.046-3.074-4.156-3.375-.225-.614.337 2.966.337 2.966s-1.123-1.636-1.123-.92c0 .188.175 1.33-.674 3.068-.606 1.238-2.172 2.899-2.696 4.194-.406 1.002-.668 2.127-.787 3.375l-.561-2.045c-.706.85-1.118 1.531-1.236 2.045-.426 1.863.053 3.69.45 4.297 2.504 3.834 7.526 3.886 7.638 3.784z"/><path fill="#4B74FF" d="M352.338 78.737c.137.012 4.118-.569 4.972-4.014.414-1.664-1.714-6.998-2.034-7.307-.32-.309-.32 2.576-1.469 1.132-.477-.6-.043-2.486-.339-3.5-.417-1.428-1.469-1.955-1.469-1.955s.192 1.094-.565 2.676c-.827 1.73-4.626 4.575-4.407 7.72.22 3.143 1.695 4.94 5.311 5.248z"/><path fill="#1232A0" d="M352.34 69.617c.082-.099.59 1.302.869 1.628.396.462.543.76.76 1.52.198.695.1 1.544.434 1.628.434.108.652-2.225.869-2.225.217 0 .818 2.203.543 3.419-.221.977-1.453 1.845-2.063 1.845-1.412 0-2.72.07-3.258-.76-1.194-1.845-.003-3.535.326-3.907.128-.146.41.39.543.86.217.768.434 1.636.76 1.202.326-.434-.326-4.56.217-5.21z"/></g><g fill-rule="nonzero"><path fill="#FFF" d="M374.28 212.646c3.716-.41 4.9-1.286 7.547-3.387 2.385-1.892 3.068-4.995 2.903-6.26-.349-2.668-2.47-2.574-2.555-4.925-.084-2.352 2.555-3.079 2.206-4.824-.348-1.744-8.03-6.363-8.707-7.286-.679-.922 1.625-1.847 1.16-2.976-.464-1.128-2.797-1.138-3.134-2.052-.337-.914 2.327-.083 1.393-2.668-.934-2.586-3.567-4.526-4.064-4.72-.496-.196 1.28 2.612.93 3.488-.35.877-1.77-.829-2.323 0-.552.83.596 2.048 0 3.49-.596 1.44-1.82-.032-2.206 1.847-.386 1.878.567 4.355.813 4.925.246.571.847-1.112 1.045-.615.198.496.324 1.545-.348 2.36-1.774 2.151-4.18 2.77-5.109 4.618-.52 1.035.546 3.044.348 3.797-.297 1.13-1.682 1.506-2.09 2.258-.835 1.54-.732 2.995-.928 4.104-.292 1.651.655 2.55 1.277 3.49.414.626 1.188 1.276 2.322 1.95-.774-1.3-.968-1.95-.58-1.95.355 0 2.351 2.34 5.108 3.9 1.746.986 4.585 1.48 4.992 1.436z"/><path fill="#AABBF6" d="M372.317 210.017c.103-.094 8.537-.818 7.975-6.955-.08-.88-.488-2.706-1.91-4.501-.797-1.007-1.805-1.417-2.695-2.966-.89-1.55-.012-2.155-.562-2.967-1.527-2.255-4.046-3.074-4.156-3.375-.225-.614.337 2.966.337 2.966s-1.123-1.636-1.123-.92c0 .188.175 1.33-.674 3.068-.606 1.238-2.172 2.899-2.696 4.194-.406 1.002-.668 2.127-.787 3.375l-.561-2.045c-.706.85-1.118 1.531-1.236 2.045-.426 1.863.053 3.69.45 4.297 2.504 3.834 7.526 3.886 7.638 3.784z"/><path fill="#4B74FF" d="M372.338 208.737c.137.012 4.118-.569 4.972-4.014.414-1.664-1.714-6.998-2.034-7.307-.32-.309-.32 2.576-1.469 1.132-.477-.6-.043-2.486-.339-3.5-.417-1.428-1.469-1.955-1.469-1.955s.192 1.094-.565 2.676c-.827 1.73-4.626 4.575-4.407 7.72.22 3.143 1.695 4.94 5.311 5.248z"/><path fill="#1232A0" d="M372.34 199.617c.082-.099.59 1.302.869 1.628.396.462.543.76.76 1.52.198.695.1 1.544.434 1.628.434.108.652-2.225.869-2.225.217 0 .818 2.203.543 3.419-.221.977-1.453 1.845-2.063 1.845-1.412 0-2.72.07-3.258-.76-1.194-1.845-.003-3.535.326-3.907.128-.146.41.39.543.86.217.768.434 1.636.76 1.202.326-.434-.326-4.56.217-5.21z"/></g><path fill="url(#E)" fill-rule="nonzero" d="M2.692 50.253l-.585 9.715 20.485 5.551c2.146-9.067 3.024-13.6 2.634-13.6-.39 0-7.316-1.018-20.778-3.054l-1.756 1.388z" transform="translate(313 226)"/><path fill="#4F5056" fill-rule="nonzero" d="M318.511 254.302c-.585.862-4.975 10.05-4.39 11.485.39.958 1.561 1.628 3.512 2.01l2.695-7.107 1.987-5.24c-2.146-1.34-3.414-1.722-3.804-1.148z"/><path fill="#FFFBD3" fill-rule="nonzero" d="M315.374 256.45c-.249.368-2.118 4.28-1.869 4.891.167.408.665.693 1.496.856l1.147-3.026.846-2.231c-.913-.57-1.453-.734-1.62-.49z"/><path stroke="#505050" stroke-width=".878" d="M315.4 281.757c.27 0 4.486-.707 10.535.574 1.801.381 5.278 1.56 10.43 3.535"/><g fill-rule="nonzero" transform="translate(313 226)"><use fill="#000" filter="url(#F)" xlink:href="#G"/><use fill="url(#H)" xlink:href="#G"/></g><path fill="url(#I)" fill-rule="nonzero" d="M45.994 29.203c4.886 3.091 12.29-5.169 5.853 7.752-6.439 12.921-12.548 18.087-26.306 14.548-3.472-.893-7.786-4.004-9.799-6.338-5.964-6.914-2.096-20.553 1.28-21.992 3.011-1.283 7.206-1.283 12.584 0 .64 0 10.479 2.292 16.388 6.03z" transform="translate(313 226)"/><path stroke="#505050" stroke-width=".878" d="M320.96 276.588a762.21 762.21 0 0 0-.318 5.312 774.57 774.57 0 0 0-.267 5.312m7.608-9.188l-.878 10.337"/><g fill-rule="nonzero" transform="translate(313 226)"><use fill="#4F5056" xlink:href="#J"/><use fill="#000" filter="url(#K)" xlink:href="#J"/></g><g fill-rule="nonzero" transform="translate(334.911 262.702)"><use fill="#000" filter="url(#L)" xlink:href="#M"/><use fill="#FFFBD3" xlink:href="#M"/></g><g fill-rule="nonzero" transform="translate(313 226)"><use fill="#4F5056" xlink:href="#N"/><use fill="#000" filter="url(#O)" xlink:href="#N"/></g><path fill="url(#P)" fill-rule="nonzero" d="M6.62 28.142c.367 0 5.434-.032 11.563-4.676 3.514-2.663 15.122-14.006 11.564-12.567-2.002.81-10.014 4.028-15.9 8.559-4.58 3.523-7.607 8.684-7.228 8.684z" opacity=".99" transform="translate(323.113 226)"/><path stroke="url(#Q)" stroke-linecap="round" stroke-width=".5" d="M6.731 27.562c1.357 0 5.328-2.895 11.915-8.685" transform="translate(323.113 226)"/><path fill="url(#P)" fill-rule="nonzero" d="M6.758 27.65c-.791-.223-4.21-2.417-5.023-5.045-1.14-3.68-1.058-13.649-.53-15.43.344-1.155 2.1 3.12 3.61 7.122.816 2.165 2.195 4.303 2.472 5.341.79 2.956 1.586 8.605-.529 8.011z" opacity=".99" transform="translate(323.113 226)"/><path stroke="url(#Q)" stroke-linecap="round" stroke-width=".5" d="M7.07 26.616c-1.403-1.524-2.442-3.051-3.115-4.58-.674-1.53-1.4-4.012-2.18-7.445" transform="translate(323.113 226)"/><g fill-rule="nonzero" opacity=".99" transform="translate(323.113 226)"><use fill="#000" filter="url(#R)" xlink:href="#S"/><use fill="url(#T)" xlink:href="#S"/></g><path stroke="url(#Q)" stroke-width=".5" d="M7.373 27.261s-.29-1.806 2.852-7.014c.46-.764 3.764-5.072 4.732-6.079 1.3-1.35 2.32-2.991 3.062-4.92" transform="translate(323.113 226)"/><path fill="url(#E)" fill-rule="nonzero" d="M2.692 50.253l-.585 9.715 20.485 5.551c2.146-9.067 3.024-13.6 2.634-13.6-.39 0-7.316-1.018-20.778-3.054l-1.756 1.388z" transform="translate(366 92)"/><path fill="#4F5056" fill-rule="nonzero" d="M371.511 120.302c-.585.862-4.975 10.05-4.39 11.485.39.958 1.561 1.628 3.512 2.01l2.695-7.107 1.987-5.24c-2.146-1.34-3.414-1.722-3.804-1.148z"/><path fill="#FFFBD3" fill-rule="nonzero" d="M368.374 122.45c-.249.368-2.118 4.28-1.869 4.891.167.408.665.693 1.496.856l1.147-3.026.846-2.231c-.913-.57-1.453-.734-1.62-.49z"/><path stroke="#505050" stroke-width=".878" d="M368.4 147.757c.27 0 4.486-.707 10.535.574 1.801.381 5.278 1.56 10.43 3.535"/><g fill-rule="nonzero" transform="translate(366 92)"><use fill="#000" filter="url(#U)" xlink:href="#V"/><use fill="url(#H)" xlink:href="#V"/></g><path fill="url(#I)" fill-rule="nonzero" d="M45.994 29.203c4.886 3.091 12.29-5.169 5.853 7.752-6.439 12.921-12.548 18.087-26.306 14.548-3.472-.893-7.786-4.004-9.799-6.338-5.964-6.914-2.096-20.553 1.28-21.992 3.011-1.283 7.206-1.283 12.584 0 .64 0 10.479 2.292 16.388 6.03z" transform="translate(366 92)"/><path stroke="#505050" stroke-width=".878" d="M373.96 142.588a762.21 762.21 0 0 0-.318 5.312 774.57 774.57 0 0 0-.267 5.312m7.608-9.188l-.878 10.337"/><g fill-rule="nonzero" transform="translate(366 92)"><use fill="#4F5056" xlink:href="#W"/><use fill="#000" filter="url(#X)" xlink:href="#W"/></g><g fill-rule="nonzero" transform="translate(387.911 128.702)"><use fill="#000" filter="url(#Y)" xlink:href="#Z"/><use fill="#FFFBD3" xlink:href="#Z"/></g><g fill-rule="nonzero" transform="translate(366 92)"><use fill="#4F5056" xlink:href="#aa"/><use fill="#000" filter="url(#ab)" xlink:href="#aa"/></g><path fill="url(#ac)" fill-rule="nonzero" d="M6.62 28.142c.367 0 5.434-.032 11.563-4.676 3.514-2.663 15.122-14.006 11.564-12.567-2.002.81-10.014 4.028-15.9 8.559-4.58 3.523-7.607 8.684-7.228 8.684z" opacity=".99" transform="translate(376.113 92)"/><path stroke="url(#Q)" stroke-linecap="round" stroke-width=".5" d="M6.731 27.562c1.357 0 5.328-2.895 11.915-8.685" transform="translate(376.113 92)"/><path fill="url(#ac)" fill-rule="nonzero" d="M6.758 27.65c-.791-.223-4.21-2.417-5.023-5.045-1.14-3.68-1.058-13.649-.53-15.43.344-1.155 2.1 3.12 3.61 7.122.816 2.165 2.195 4.303 2.472 5.341.79 2.956 1.586 8.605-.529 8.011z" opacity=".99" transform="translate(376.113 92)"/><path stroke="url(#Q)" stroke-linecap="round" stroke-width=".5" d="M7.07 26.616c-1.403-1.524-2.442-3.051-3.115-4.58-.674-1.53-1.4-4.012-2.18-7.445" transform="translate(376.113 92)"/><g fill-rule="nonzero" opacity=".99" transform="translate(376.113 92)"><use fill="#000" filter="url(#ad)" xlink:href="#ae"/><use fill="url(#ac)" xlink:href="#ae"/></g><path stroke="url(#Q)" stroke-width=".5" d="M7.373 27.261s-.29-1.806 2.852-7.014c.46-.764 3.764-5.072 4.732-6.079 1.3-1.35 2.32-2.991 3.062-4.92" transform="translate(376.113 92)"/><path fill="url(#E)" fill-rule="nonzero" d="M2.692 50.253l-.585 9.715 20.485 5.551c2.146-9.067 3.024-13.6 2.634-13.6-.39 0-7.316-1.018-20.778-3.054l-1.756 1.388z" transform="translate(278 1)"/><path fill="#4F5056" fill-rule="nonzero" d="M283.511 29.302c-.585.862-4.975 10.05-4.39 11.485.39.958 1.561 1.628 3.512 2.01l2.695-7.107 1.987-5.24c-2.146-1.34-3.414-1.722-3.804-1.148z"/><path fill="#FFFBD3" fill-rule="nonzero" d="M280.374 31.45c-.249.368-2.118 4.28-1.869 4.891.167.408.665.693 1.496.856l1.147-3.026.846-2.231c-.913-.57-1.453-.734-1.62-.49z"/><path stroke="#505050" stroke-width=".878" d="M280.4 56.757c.27 0 4.486-.707 10.535.574 1.801.381 5.278 1.56 10.43 3.535"/><g fill-rule="nonzero" transform="translate(278 1)"><use fill="#000" filter="url(#af)" xlink:href="#ag"/><use fill="url(#H)" xlink:href="#ag"/></g><path fill="url(#I)" fill-rule="nonzero" d="M45.994 29.203c4.886 3.091 12.29-5.169 5.853 7.752-6.439 12.921-12.548 18.087-26.306 14.548-3.472-.893-7.786-4.004-9.799-6.338-5.964-6.914-2.096-20.553 1.28-21.992 3.011-1.283 7.206-1.283 12.584 0 .64 0 10.479 2.292 16.388 6.03z" transform="translate(278 1)"/><path stroke="#505050" stroke-width=".878" d="M285.96 51.588a762.21 762.21 0 0 0-.318 5.312 774.57 774.57 0 0 0-.267 5.312m7.608-9.188l-.878 10.337"/><g fill-rule="nonzero" transform="translate(278 1)"><use fill="#4F5056" xlink:href="#ah"/><use fill="#000" filter="url(#ai)" xlink:href="#ah"/></g><g fill-rule="nonzero" transform="translate(299.911 37.702)"><use fill="#000" filter="url(#aj)" xlink:href="#ak"/><use fill="#FFFBD3" xlink:href="#ak"/></g><g fill-rule="nonzero" transform="translate(278 1)"><use fill="#4F5056" xlink:href="#al"/><use fill="#000" filter="url(#am)" xlink:href="#al"/></g><path fill="url(#an)" fill-rule="nonzero" d="M6.62 28.142c.367 0 5.434-.032 11.563-4.676 3.514-2.663 15.122-14.006 11.564-12.567-2.002.81-10.014 4.028-15.9 8.559-4.58 3.523-7.607 8.684-7.228 8.684z" opacity=".99" transform="translate(288.113 1)"/><path stroke="url(#Q)" stroke-linecap="round" stroke-width=".5" d="M6.731 27.562c1.357 0 5.328-2.895 11.915-8.685" transform="translate(288.113 1)"/><path fill="url(#an)" fill-rule="nonzero" d="M6.758 27.65c-.791-.223-4.21-2.417-5.023-5.045-1.14-3.68-1.058-13.649-.53-15.43.344-1.155 2.1 3.12 3.61 7.122.816 2.165 2.195 4.303 2.472 5.341.79 2.956 1.586 8.605-.529 8.011z" opacity=".99" transform="translate(288.113 1)"/><path stroke="url(#Q)" stroke-linecap="round" stroke-width=".5" d="M7.07 26.616c-1.403-1.524-2.442-3.051-3.115-4.58-.674-1.53-1.4-4.012-2.18-7.445" transform="translate(288.113 1)"/><g fill-rule="nonzero" opacity=".99" transform="translate(288.113 1)"><use fill="#000" filter="url(#ao)" xlink:href="#ap"/><use fill="url(#an)" xlink:href="#ap"/></g><path stroke="url(#Q)" stroke-width=".5" d="M7.373 27.261s-.29-1.806 2.852-7.014c.46-.764 3.764-5.072 4.732-6.079 1.3-1.35 2.32-2.991 3.062-4.92" transform="translate(288.113 1)"/><path fill="url(#E)" fill-rule="nonzero" d="M2.692 50.253l-.585 9.715 20.485 5.551c2.146-9.067 3.024-13.6 2.634-13.6-.39 0-7.316-1.018-20.778-3.054l-1.756 1.388z" transform="matrix(-1 0 0 1 162 1)"/><path fill="#4F5056" fill-rule="nonzero" d="M156.489 29.302c.585.862 4.975 10.05 4.39 11.485-.39.958-1.561 1.628-3.512 2.01l-2.695-7.107-1.987-5.24c2.146-1.34 3.414-1.722 3.804-1.148z"/><path fill="#FFFBD3" fill-rule="nonzero" d="M159.626 31.45c.249.368 2.118 4.28 1.869 4.891-.167.408-.665.693-1.496.856l-1.147-3.026-.846-2.231c.913-.57 1.453-.734 1.62-.49z"/><path stroke="#505050" stroke-width=".878" d="M159.6 56.757c-.27 0-4.486-.707-10.535.574-1.801.381-5.278 1.56-10.43 3.535"/><g fill-rule="nonzero" transform="matrix(-1 0 0 1 162 1)"><use fill="#000" filter="url(#aq)" xlink:href="#ar"/><use fill="url(#H)" xlink:href="#ar"/></g><path fill="url(#I)" fill-rule="nonzero" d="M45.994 29.203c4.886 3.091 12.29-5.169 5.853 7.752-6.439 12.921-12.548 18.087-26.306 14.548-3.472-.893-7.786-4.004-9.799-6.338-5.964-6.914-2.096-20.553 1.28-21.992 3.011-1.283 7.206-1.283 12.584 0 .64 0 10.479 2.292 16.388 6.03z" transform="matrix(-1 0 0 1 162 1)"/><path stroke="#505050" stroke-width=".878" d="M154.04 51.588c.144 2.304.25 4.075.318 5.312.068 1.238.157 3.008.267 5.312m-7.608-9.188l.878 10.337"/><g fill-rule="nonzero" transform="matrix(-1 0 0 1 162 1)"><use fill="#4F5056" xlink:href="#as"/><use fill="#000" filter="url(#at)" xlink:href="#as"/></g><g fill-rule="nonzero" transform="matrix(-1 0 0 1 140.089 37.702)"><use fill="#000" filter="url(#au)" xlink:href="#av"/><use fill="#FFFBD3" xlink:href="#av"/></g><g fill-rule="nonzero" transform="matrix(-1 0 0 1 162 1)"><use fill="#4F5056" xlink:href="#aw"/><use fill="#000" filter="url(#ax)" xlink:href="#aw"/></g><path fill="url(#ay)" fill-rule="nonzero" d="M6.62 28.142c.367 0 5.434-.032 11.563-4.676 3.514-2.663 15.122-14.006 11.564-12.567-2.002.81-10.014 4.028-15.9 8.559-4.58 3.523-7.607 8.684-7.228 8.684z" opacity=".99" transform="matrix(-1 0 0 1 151.887 1)"/><path stroke="url(#Q)" stroke-linecap="round" stroke-width=".5" d="M6.731 27.562c1.357 0 5.328-2.895 11.915-8.685" transform="matrix(-1 0 0 1 151.887 1)"/><path fill="url(#ay)" fill-rule="nonzero" d="M6.758 27.65c-.791-.223-4.21-2.417-5.023-5.045-1.14-3.68-1.058-13.649-.53-15.43.344-1.155 2.1 3.12 3.61 7.122.816 2.165 2.195 4.303 2.472 5.341.79 2.956 1.586 8.605-.529 8.011z" opacity=".99" transform="matrix(-1 0 0 1 151.887 1)"/><path stroke="url(#Q)" stroke-linecap="round" stroke-width=".5" d="M7.07 26.616c-1.403-1.524-2.442-3.051-3.115-4.58-.674-1.53-1.4-4.012-2.18-7.445" transform="matrix(-1 0 0 1 151.887 1)"/><g fill-rule="nonzero" opacity=".99" transform="matrix(-1 0 0 1 151.887 1)"><use fill="#000" filter="url(#az)" xlink:href="#aA"/><use fill="url(#ay)" xlink:href="#aA"/></g><path stroke="url(#Q)" stroke-width=".5" d="M7.373 27.261s-.29-1.806 2.852-7.014c.46-.764 3.764-5.072 4.732-6.079 1.3-1.35 2.32-2.991 3.062-4.92" transform="matrix(-1 0 0 1 151.887 1)"/><path fill="url(#E)" fill-rule="nonzero" d="M2.692 50.253l-.585 9.715 20.485 5.551c2.146-9.067 3.024-13.6 2.634-13.6-.39 0-7.316-1.018-20.778-3.054l-1.756 1.388z" transform="matrix(-1 0 0 1 57 92)"/><path fill="#4F5056" fill-rule="nonzero" d="M51.489 120.302c.585.862 4.975 10.05 4.39 11.485-.39.958-1.561 1.628-3.512 2.01l-2.695-7.107-1.987-5.24c2.146-1.34 3.414-1.722 3.804-1.148z"/><path fill="#FFFBD3" fill-rule="nonzero" d="M54.626 122.45c.249.368 2.118 4.28 1.869 4.891-.167.408-.665.693-1.496.856l-1.147-3.026-.846-2.231c.913-.57 1.453-.734 1.62-.49z"/><path stroke="#505050" stroke-width=".878" d="M54.6 147.757c-.27 0-4.486-.707-10.535.574-1.801.381-5.278 1.56-10.43 3.535"/><g fill-rule="nonzero" transform="matrix(-1 0 0 1 57 92)"><use fill="#000" filter="url(#aB)" xlink:href="#aC"/><use fill="url(#H)" xlink:href="#aC"/></g><path fill="url(#I)" fill-rule="nonzero" d="M45.994 29.203c4.886 3.091 12.29-5.169 5.853 7.752-6.439 12.921-12.548 18.087-26.306 14.548-3.472-.893-7.786-4.004-9.799-6.338-5.964-6.914-2.096-20.553 1.28-21.992 3.011-1.283 7.206-1.283 12.584 0 .64 0 10.479 2.292 16.388 6.03z" transform="matrix(-1 0 0 1 57 92)"/><path stroke="#505050" stroke-width=".878" d="M49.04 142.588c.144 2.304.25 4.075.318 5.312.068 1.238.157 3.008.267 5.312m-7.608-9.188l.878 10.337"/><g fill-rule="nonzero" transform="matrix(-1 0 0 1 57 92)"><use fill="#4F5056" xlink:href="#aD"/><use fill="#000" filter="url(#aE)" xlink:href="#aD"/></g><g fill-rule="nonzero" transform="matrix(-1 0 0 1 35.089 128.702)"><use fill="#000" filter="url(#aF)" xlink:href="#aG"/><use fill="#FFFBD3" xlink:href="#aG"/></g><g fill-rule="nonzero" transform="matrix(-1 0 0 1 57 92)"><use fill="#4F5056" xlink:href="#aH"/><use fill="#000" filter="url(#aI)" xlink:href="#aH"/></g><path fill="url(#aJ)" fill-rule="nonzero" d="M6.62 28.142c.367 0 5.434-.032 11.563-4.676 3.514-2.663 15.122-14.006 11.564-12.567-2.002.81-10.014 4.028-15.9 8.559-4.58 3.523-7.607 8.684-7.228 8.684z" opacity=".99" transform="matrix(-1 0 0 1 46.887 92)"/><path stroke="url(#Q)" stroke-width=".5" d="M6.731 27.562c1.357 0 5.328-2.895 11.915-8.685" transform="matrix(-1 0 0 1 46.887 92)"/><path fill="url(#aJ)" fill-rule="nonzero" d="M6.758 27.65c-.791-.223-4.21-2.417-5.023-5.045-1.14-3.68-1.058-13.649-.53-15.43.344-1.155 2.1 3.12 3.61 7.122.816 2.165 2.195 4.303 2.472 5.341.79 2.956 1.586 8.605-.529 8.011z" opacity=".99" transform="matrix(-1 0 0 1 46.887 92)"/><path stroke="url(#Q)" stroke-width=".5" d="M7.07 26.616c-1.403-1.524-2.442-3.051-3.115-4.58-.674-1.53-1.4-4.012-2.18-7.445" transform="matrix(-1 0 0 1 46.887 92)"/><g fill-rule="nonzero" opacity=".99" transform="matrix(-1 0 0 1 46.887 92)"><use fill="#000" filter="url(#aK)" xlink:href="#aL"/><use fill="url(#aJ)" xlink:href="#aL"/></g><path stroke="url(#Q)" stroke-width=".5" d="M7.373 27.261s-.29-1.806 2.852-7.014c.46-.764 3.764-5.072 4.732-6.079 1.3-1.35 2.32-2.991 3.062-4.92" transform="matrix(-1 0 0 1 46.887 92)"/><path fill="url(#E)" fill-rule="nonzero" d="M2.692 50.253l-.585 9.715 20.485 5.551c2.146-9.067 3.024-13.6 2.634-13.6-.39 0-7.316-1.018-20.778-3.054l-1.756 1.388z" transform="matrix(-1 0 0 1 108 226)"/><path fill="#4F5056" fill-rule="nonzero" d="M102.489 254.302c.585.862 4.975 10.05 4.39 11.485-.39.958-1.561 1.628-3.512 2.01l-2.695-7.107-1.987-5.24c2.146-1.34 3.414-1.722 3.804-1.148z"/><path fill="#FFFBD3" fill-rule="nonzero" d="M105.626 256.45c.249.368 2.118 4.28 1.869 4.891-.167.408-.665.693-1.496.856l-1.147-3.026-.846-2.231c.913-.57 1.453-.734 1.62-.49z"/><path stroke="#505050" stroke-width=".878" d="M105.6 281.757c-.27 0-4.486-.707-10.535.574-1.801.381-5.278 1.56-10.43 3.535"/><g fill-rule="nonzero" transform="matrix(-1 0 0 1 108 226)"><use fill="#000" filter="url(#aM)" xlink:href="#aN"/><use fill="url(#H)" xlink:href="#aN"/></g><path fill="url(#I)" fill-rule="nonzero" d="M45.994 29.203c4.886 3.091 12.29-5.169 5.853 7.752-6.439 12.921-12.548 18.087-26.306 14.548-3.472-.893-7.786-4.004-9.799-6.338-5.964-6.914-2.096-20.553 1.28-21.992 3.011-1.283 7.206-1.283 12.584 0 .64 0 10.479 2.292 16.388 6.03z" transform="matrix(-1 0 0 1 108 226)"/><path stroke="#505050" stroke-width=".878" d="M100.04 276.588c.144 2.304.25 4.075.318 5.312.068 1.238.157 3.008.267 5.312m-7.608-9.188l.878 10.337"/><g fill-rule="nonzero" transform="matrix(-1 0 0 1 108 226)"><use fill="#4F5056" xlink:href="#aO"/><use fill="#000" filter="url(#aP)" xlink:href="#aO"/></g><g fill-rule="nonzero" transform="matrix(-1 0 0 1 86.089 262.702)"><use fill="#000" filter="url(#aQ)" xlink:href="#aR"/><use fill="#FFFBD3" xlink:href="#aR"/></g><g fill-rule="nonzero" transform="matrix(-1 0 0 1 108 226)"><use fill="#4F5056" xlink:href="#aS"/><use fill="#000" filter="url(#aT)" xlink:href="#aS"/></g><path fill="url(#aU)" fill-rule="nonzero" d="M6.62 28.142c.367 0 5.434-.032 11.563-4.676 3.514-2.663 15.122-14.006 11.564-12.567-2.002.81-10.014 4.028-15.9 8.559-4.58 3.523-7.607 8.684-7.228 8.684z" opacity=".99" transform="matrix(-1 0 0 1 97.887 226)"/><path stroke="url(#aV)" stroke-linecap="round" stroke-width=".5" d="M6.731 27.562c1.357 0 5.328-2.895 11.915-8.685" transform="matrix(-1 0 0 1 97.887 226)"/><path fill="url(#aU)" fill-rule="nonzero" d="M6.758 27.65c-.791-.223-4.21-2.417-5.023-5.045-1.14-3.68-1.058-13.649-.53-15.43.344-1.155 2.1 3.12 3.61 7.122.816 2.165 2.195 4.303 2.472 5.341.79 2.956 1.586 8.605-.529 8.011z" opacity=".99" transform="matrix(-1 0 0 1 97.887 226)"/><path stroke="url(#aW)" stroke-linecap="round" stroke-width=".5" d="M7.07 26.616c-1.403-1.524-2.442-3.051-3.115-4.58-.674-1.53-1.4-4.012-2.18-7.445" transform="matrix(-1 0 0 1 97.887 226)"/><g fill-rule="nonzero" opacity=".99" transform="matrix(-1 0 0 1 97.887 226)"><use fill="#000" filter="url(#aX)" xlink:href="#aY"/><use fill="url(#aU)" xlink:href="#aY"/></g><path stroke="url(#aZ)" stroke-width=".5" d="M7.373 27.261s-.29-1.806 2.852-7.014c.46-.764 3.764-5.072 4.732-6.079 1.3-1.35 2.32-2.991 3.062-4.92" transform="matrix(-1 0 0 1 97.887 226)"/></g></svg>