<svg xmlns="http://www.w3.org/2000/svg" xmlns:xlink="http://www.w3.org/1999/xlink" width="139" height="123"><defs><linearGradient id="c" x1="100%" x2="0%" y1="50%" y2="50%"><stop offset="0%" stop-color="#82ACFF"/><stop offset="100%" stop-color="#4B74FF"/></linearGradient><path id="b" d="M333.693 63.953L0 87.465l99.43 138.43 176.262 31.552 228.86-31.552s15.612-32.29 46.833-96.872L404.095 53l-70.402 10.953z"/><filter id="a" width="102.5%" height="106.8%" x="-1.3%" y="-2.4%" filterUnits="objectBoundingBox"><feOffset dy="2" in="SourceAlpha" result="shadowOffsetOuter1"/><feGaussianBlur in="shadowOffsetOuter1" result="shadowBlurOuter1" stdDeviation="2"/><feColorMatrix in="shadowBlurOuter1" values="0 0 0 0 0 0 0 0 0 0 0 0 0 0 0 0 0 0 0.5 0"/></filter><path id="e" d="M105 0h728c6.627 0 12 5.373 12 12v161c0 6.627-5.373 12-12 12H105c-6.627 0-12-5.373-12-12V12c0-6.627 5.373-12 12-12z"/><filter id="d" width="112.6%" height="151.4%" x="-6.3%" y="-21.4%" filterUnits="objectBoundingBox"><feOffset dy="8" in="SourceAlpha" result="shadowOffsetOuter1"/><feGaussianBlur in="shadowOffsetOuter1" result="shadowBlurOuter1" stdDeviation="14.5"/><feColorMatrix in="shadowBlurOuter1" values="0 0 0 0 0.372130102 0 0 0 0 0.372130102 0 0 0 0 0.372130102 0 0 0 0.0831351902 0"/></filter><path id="f" d="M0 .649h113.755v99.861H0z"/><path id="h" d="M0 101.318h113.755V1.456H0z"/></defs><g fill="none" fill-rule="evenodd"><path fill="#FFF" d="M-394-5929h1440v9919H-394z"/><g opacity=".03" transform="matrix(-1 0 0 1 408.385 -33)"><use fill="#000" filter="url(#a)" xlink:href="#b"/><use fill="url(#c)" xlink:href="#b"/></g><g transform="translate(-143 -33)"><use fill="#000" filter="url(#d)" xlink:href="#e"/><use fill="#FFF" xlink:href="#e"/></g><g transform="translate(0 -5)"><g transform="translate(3.498 19.746)"><g transform="translate(0 .808)"><mask id="g" fill="#fff"><use xlink:href="#f"/></mask><path fill="#4B74FF" d="M110.085 85.265h-58.72c.05-.102.092-.21.14-.313a28.369 28.369 0 0 0 .695-1.636c.069-.176.138-.351.202-.529.163-.45.314-.902.452-1.36.028-.09.06-.183.088-.274.16-.548.298-1.103.423-1.661.034-.156.062-.316.094-.472a25.374 25.374 0 0 0 .434-3.031c.017-.178.034-.354.046-.533.037-.577.062-1.154.062-1.735 0-5.268-1.602-10.265-4.36-14.494l3.021-2.584 1.874 1.915c.36.367.838.552 1.317.552.46 0 .922-.17 1.278-.514.727-.7.745-1.853.037-2.574l-5.933-6.065a1.845 1.845 0 0 0-2.593-.04 1.812 1.812 0 0 0-.039 2.576l1.5 1.532-2.666 2.28c-3.401-3.939-7.928-6.912-13.143-8.369v-3.263h1.704c1.47 0 2.912-.591 3.957-1.627a5.566 5.566 0 0 0 1.637-3.924c0-3.053-2.509-5.538-5.594-5.538H17.995a5.63 5.63 0 0 0-3.954 1.612 5.496 5.496 0 0 0-1.641 3.926c0 3.062 2.51 5.551 5.595 5.551h1.703v3.24c-.134.036-.264.08-.396.118-.178.052-.353.11-.527.163a28.27 28.27 0 0 0-1.35.465c-.162.061-.325.12-.487.182-.58.23-1.155.476-1.715.744-.07.034-.137.072-.206.107-.493.241-.979.5-1.456.772-.163.093-.324.189-.486.285-.41.246-.813.501-1.21.77-.133.088-.266.174-.397.264-.479.335-.95.682-1.408 1.05V23.275h100.025v61.989zm-79.46-40.592v2.493c-.131-.018-.263-.024-.394-.04-.228-.026-.452-.046-.68-.068a27.649 27.649 0 0 0-2.479-.131h-.194c-.822.004-1.642.055-2.46.132-.22.02-.438.04-.659.066-.129.016-.26.022-.392.04v-2.492h7.257zm1.834-3.641H17.995a1.92 1.92 0 0 1-1.925-1.91c0-.653.306-1.093.553-1.337.37-.36.857-.56 1.372-.56h18.003c1.061 0 1.924.851 1.924 1.897a1.915 1.915 0 0 1-1.924 1.91h-3.539zm-5.465 55.837c-12.86 0-23.324-10.383-23.324-23.148a23.058 23.058 0 0 1 5.924-15.434 23.141 23.141 0 0 1 12.317-7.17c.006-.002.014-.002.018-.004a23.786 23.786 0 0 1 10.137.002l.033.003C42.665 53.46 50.331 62.96 50.331 73.72a22.887 22.887 0 0 1-3.63 12.389c-4.308 6.737-11.675 10.759-19.707 10.759zM10.06 8.902c0-.772.188-1.512.568-2.219.191-.36.452-.703.806-1.054a4.574 4.574 0 0 1 3.272-1.339h90.734c2.561 0 4.645 2.069 4.645 4.612v10.733H10.06V8.902zM105.44.649H14.706c-2.238 0-4.327.859-5.874 2.412a7.911 7.911 0 0 0-1.446 1.92 8.172 8.172 0 0 0-.995 3.921v47.53C2.277 61.266 0 67.368 0 73.72c0 14.772 12.11 26.79 26.994 26.79 8.951 0 17.18-4.326 22.227-11.605h62.7a1.828 1.828 0 0 0 1.834-1.82V8.902c0-4.55-3.73-8.253-8.315-8.253z" mask="url(#g)"/></g><path fill="#4B74FF" d="M18.356 11.246c1.013 0 1.835.815 1.835 1.82a1.828 1.828 0 0 1-1.835 1.821 1.829 1.829 0 0 1-1.835-1.82c0-1.006.822-1.821 1.835-1.821m8.358 0c1.013 0 1.835.815 1.835 1.82a1.828 1.828 0 0 1-1.835 1.821 1.829 1.829 0 0 1-1.834-1.82c0-1.006.822-1.821 1.834-1.821m8.359 0c1.013 0 1.835.815 1.835 1.82a1.828 1.828 0 0 1-1.835 1.821 1.829 1.829 0 0 1-1.835-1.82c0-1.006.822-1.821 1.835-1.821M26.995 76.65a2.133 2.133 0 0 1-2.138-2.122c0-1.173.958-2.124 2.138-2.124s2.14.951 2.14 2.124c0 1.17-.96 2.122-2.14 2.122m1.835-7.565v-6.348c0-1.005-.822-1.82-1.835-1.82a1.829 1.829 0 0 0-1.834 1.82v6.348c-2.3.767-3.974 2.904-3.974 5.443 0 3.178 2.606 5.764 5.808 5.764 3.205 0 5.81-2.586 5.81-5.764 0-2.54-1.673-4.676-3.975-5.443"/><mask id="i" fill="#fff"><use xlink:href="#h"/></mask><path fill="#4B74FF" d="M71.953 43.764h24.362v-6.649H71.953v6.649zm-1.834 3.643h28.029a1.828 1.828 0 0 0 1.835-1.821V35.295c0-1.006-.82-1.821-1.835-1.821h-28.03a1.828 1.828 0 0 0-1.834 1.82v10.292c0 1.005.82 1.82 1.835 1.82zm-.001 7.075h28.03a1.829 1.829 0 0 0 1.835-1.82 1.829 1.829 0 0 0-1.834-1.822H70.118a1.829 1.829 0 0 0-1.835 1.821c0 1.005.822 1.821 1.835 1.821m0 7.025h28.03a1.829 1.829 0 0 0 1.835-1.82 1.828 1.828 0 0 0-1.834-1.821H70.118a1.829 1.829 0 0 0-1.835 1.82c0 1.005.822 1.821 1.835 1.821m0 7.025h28.03a1.829 1.829 0 0 0 1.835-1.82 1.828 1.828 0 0 0-1.834-1.821H70.118a1.829 1.829 0 0 0-1.835 1.82c0 1.006.822 1.821 1.835 1.821m0 7.025h28.03a1.828 1.828 0 0 0 1.835-1.82 1.83 1.83 0 0 0-1.834-1.821H70.118a1.83 1.83 0 0 0-1.835 1.82c0 1.007.822 1.821 1.835 1.821" mask="url(#i)"/></g><ellipse cx="114.719" cy="27.279" fill="#FFF" rx="27.281" ry="27.279"/><path fill="#4B74FF" d="M122.207 28.411l-2.07-5.885h-.06l-2.04 5.885h-2.678L119 19.654h2.24l3.653 8.757h-2.687zm-15.69 9.508h8.919v-2.3h-8.919v2.3zm0 4.329h8.919v-2.3h-8.919v2.3zm-3.106-16.544l-1.67 2.736-1.816-1.27 2.038-2.676-2.935-.873.677-2.122 2.878 1.203-.175-3.394h2.22l-.185 3.454 2.82-1.173.664 2.154-2.976.873 1.947 2.602-1.803 1.317-1.684-2.83zm27.823 2.455v-2.357h-2.596v-6.47h2.996v-4.059L118.09 12.59l-7.24 18.584h-2.91l7.24-18.584-21.829 2.683v4.059h2.953v6.47h-2.553v2.358l-.718 3.349h1.998l1.273-2.544v2.816c0 8.971 7.275 16.311 16.166 16.311 8.892 0 16.167-7.34 16.167-16.31v-2.904l1.316 2.63h1.998l-.718-3.349z"/></g></g></svg>