<svg xmlns="http://www.w3.org/2000/svg" xmlns:xlink="http://www.w3.org/1999/xlink" width="24" height="24"><defs><path id="a" d="M2 4.388C2 3.07 2.94 2 4.1 2h15.8C21.057 2 22 3.069 22 4.388v12.239c0 1.316-.94 2.387-2.1 2.387H7.41c-.273 0-.674.129-.895.287l-3.39 2.413A1.833 1.833 0 0 1 2.23 22h.266A.499.499 0 0 1 2 21.492V4.388zm17.971 12.57V3.97h-16v15l2.012-2.014h13.988zM7 12a1.5 1.5 0 1 1 0-3 1.5 1.5 0 0 1 0 3zm5 0a1.5 1.5 0 1 1 0-3 1.5 1.5 0 0 1 0 3zm5 0a1.5 1.5 0 1 1 0-3 1.5 1.5 0 0 1 0 3z"/></defs><g fill="none" fill-rule="evenodd"><mask id="b" fill="#fff"><use xlink:href="#a"/></mask><g fill="#b8c1cb" mask="url(#b)"><path d="M0 0h24v24H0z"/></g></g></svg>