<svg xmlns="http://www.w3.org/2000/svg" xmlns:xlink="http://www.w3.org/1999/xlink" width="24" height="24"><defs><path id="a" d="M12.779 12.098l3.738 2.219c.47.279.626.884.35 1.355a.976.976 0 0 1-1.335.35l-4.768-2.896V7.733a1.007 1.007 0 1 1 2.015 0v4.365zM12 20.028a7.814 7.814 0 0 0 4.038-1.105 7.785 7.785 0 0 0 2.885-2.885A7.814 7.814 0 0 0 20.03 12a7.814 7.814 0 0 0-1.106-4.038 7.785 7.785 0 0 0-2.885-2.885A7.814 7.814 0 0 0 12 3.97a7.814 7.814 0 0 0-4.038 1.106 7.785 7.785 0 0 0-2.885 2.885A7.814 7.814 0 0 0 3.97 12c0 1.442.369 2.788 1.106 4.038a7.785 7.785 0 0 0 2.885 2.885A7.814 7.814 0 0 0 12 20.03zM12 2c1.827 0 3.518.457 5.072 1.37a9.478 9.478 0 0 1 3.558 3.558A9.835 9.835 0 0 1 22 12a9.835 9.835 0 0 1-1.37 5.072 9.478 9.478 0 0 1-3.558 3.558A9.835 9.835 0 0 1 12 22a9.835 9.835 0 0 1-5.072-1.37 9.657 9.657 0 0 1-3.558-3.582A9.79 9.79 0 0 1 2 12a9.79 9.79 0 0 1 1.37-5.048A9.842 9.842 0 0 1 6.952 3.37 9.79 9.79 0 0 1 12 2z"/></defs><g fill="none" fill-rule="evenodd"><mask id="b" fill="#fff"><use xlink:href="#a"/></mask><g fill="#b8c1cb" mask="url(#b)"><path d="M0 0h24v24H0z"/></g></g></svg>