<svg xmlns="http://www.w3.org/2000/svg" width="177" height="259"><g fill="none"><path fill="#F5F2C6" d="M90.9 126.57c8.822-5.982 10.542-10.029 14.18-19.494 3.278-8.525.461-18.332-1.81-21.755-4.794-7.223-10.04-4.212-13.698-10.865C85.914 67.802 91.54 62.3 88.1 57.733c-3.44-4.567-29.694-7.925-32.766-9.7-3.072-1.776 1.417-7.414-1.416-10.06-2.832-2.647-8.766.34-10.96-1.851-2.193-2.192 5.784-3.247-.375-9.475s-15.68-8.405-17.226-8.324c-1.545.08 7.073 5.861 7.47 8.834.396 2.973-5.706-.097-5.89 3.001-.185 3.099 4.512 5.12 5.112 10.035.6 4.915-4.662 2.26-2.889 8.164 1.773 5.903 7.82 11.793 9.28 13.116 1.46 1.323.518-4.293 1.749-3.121 1.23 1.172 3.085 4.025 2.575 7.238-1.345 8.48-6.542 13.372-6.192 19.885.197 3.648 5.847 8.048 6.448 10.47.902 3.632-2.06 6.506-1.993 9.194.138 5.51 2.531 9.562 3.66 13.006 1.678 5.125 5.4 6.486 8.352 8.384 1.969 1.266 4.885 2.134 8.748 2.607-3.869-2.738-5.312-4.358-4.33-4.858.901-.46 9.396 3.694 18.673 4.613 5.874.582 13.802-1.665 14.77-2.32z"/><path fill="#8B572A" d="M84.145 97.296l51.413 81.245 17.143 33.646c17.473 28.065 15.805 28.915-5.007 2.55-20.81-26.363-50.59-67.822-89.34-124.375l25.791 6.934z"/><path fill="#6B431F" d="M66.616 77.995l41.824 63.381 14.48 26.121c14.25 21.886 13.176 22.481-3.224 1.787-16.4-20.695-33.226-44.262-50.48-70.701l-2.6-20.588z"/><path fill="#F9D850" d="M82.854 119.517c.132-.408 21.18-13.766 10.684-30.724-1.505-2.433-5.258-7.156-11.623-10.436-3.573-1.84-6.818-1.675-11.43-4.957-4.611-3.282-3.198-6.201-5.833-7.809-7.32-4.466-15.129-3.466-15.86-4.187-1.491-1.471 5.245 8.109 5.245 8.109s-5.352-3.222-4.299-1.156c.277.543 2.416 3.602 2.745 9.755.233 4.38-1.433 11.264-.903 15.702.41 3.432 1.376 7.03 2.9 10.79L50 99.451c-.602 3.395-.679 5.913-.231 7.554 1.62 5.944 5.562 10.574 7.494 11.796 12.204 7.718 25.447 1.16 25.59.716z"/><path fill="#F7A643" d="M80.46 116.275c.373-.148 9.899-7.1 7.094-18.113-1.356-5.322-14.695-17.793-15.978-18.254-1.284-.461 2.931 7.812-2.175 5.197-2.119-1.085-3.745-7.072-5.996-9.584-3.175-3.542-6.686-3.657-6.686-3.657s2.098 2.882 2.437 8.424c.37 6.056-5.372 19.263-.207 27.988 5.165 8.724 11.636 11.916 21.511 8z"/><path fill="#DB4029" d="M64.679 90.874c.086-.38 3.404 2.727 4.612 3.227 1.714.71 2.525 1.315 4.167 3.081 1.501 1.615 2.41 4.062 3.434 3.827 1.328-.305-1.316-6.95-.727-7.25.589-.301 5.272 4.86 6.21 8.546.753 2.962-1.384 7.025-3.04 7.868-3.828 1.951-7.281 3.95-9.888 2.436-5.796-3.366-4.906-9.608-4.53-11.075.147-.573 1.655.495 2.663 1.587 1.654 1.79 3.446 3.85 3.728 2.22.282-1.63-7.2-11.946-6.629-14.467z"/></g></svg>