<svg xmlns="http://www.w3.org/2000/svg" width="88" height="28"><g fill="none"><path fill="#FFFEE4" d="M82.424 19.41c1.805-.2 2.38-.629 3.666-1.658 1.159-.926 1.49-2.445 1.41-3.064-.169-1.307-1.2-1.26-1.24-2.412-.041-1.151 1.24-1.507 1.071-2.361-.17-.855-3.901-3.116-4.23-3.568-.33-.451.79-.904.564-1.457-.226-.552-1.36-.557-1.523-1.005-.164-.447 1.13-.04.677-1.306-.454-1.266-1.734-2.216-1.975-2.311-.24-.096.622 1.28.452 1.708-.17.43-.86-.406-1.129 0-.268.406.29 1.003 0 1.708-.289.706-.884-.015-1.071.905-.188.92.275 2.132.395 2.411.119.28.41-.544.507-.301.096.243.157.756-.169 1.156-.862 1.053-2.03 1.356-2.482 2.26-.253.507.265 1.49.17 1.86-.145.553-.818.737-1.016 1.105-.406.754-.356 1.466-.451 2.01-.142.808.318 1.248.62 1.708.201.306.578.625 1.128.954-.376-.636-.47-.954-.282-.954.173 0 1.143 1.146 2.482 1.909.848.483 2.228.725 2.426.703z"/><path fill="#F6E9AA" d="M81.47 18.123c.05-.045 4.147-.4 3.875-3.405-.04-.431-.238-1.325-.928-2.203-.388-.494-.878-.694-1.31-1.453-.432-.758-.006-1.055-.273-1.452-.742-1.104-1.966-1.505-2.02-1.653-.108-.3.165 1.453.165 1.453s-.546-.802-.546-.451c0 .092.085.65-.328 1.502-.294.607-1.055 1.42-1.31 2.054a5.906 5.906 0 0 0-.381 1.652l-.273-1.001c-.343.416-.543.75-.6 1.001-.208.912.025 1.806.218 2.104 1.216 1.877 3.656 1.902 3.71 1.852z"/><path fill="#F3FF4B" d="M81.48 17.497c.066.006 2-.279 2.416-1.965.2-.815-.833-3.427-.988-3.578-.156-.151-.156 1.261-.714.554-.232-.293-.021-1.217-.165-1.713-.203-.7-.714-.957-.714-.957s.094.535-.274 1.31c-.402.846-2.248 2.24-2.141 3.779.106 1.54.823 2.419 2.58 2.57z"/><path fill="#9EA012" d="M81.48 13.031c.04-.048.287.638.423.798.192.226.264.372.37.744.096.34.048.756.21.797.211.053.317-1.09.422-1.09.106 0 .398 1.08.264 1.674-.107.479-.706.904-1.002.904-.686 0-1.322.034-1.583-.372-.58-.904-.001-1.731.158-1.913.063-.072.2.191.264.42.106.377.211.802.37.59.158-.213-.159-2.233.105-2.552z"/><path fill="#FFFEE4" d="M6.424 27.41c1.805-.2 2.38-.629 3.666-1.658 1.159-.926 1.49-2.445 1.41-3.064-.169-1.307-1.2-1.26-1.24-2.412-.041-1.151 1.24-1.507 1.071-2.361-.17-.855-3.901-3.116-4.23-3.568-.33-.451.79-.904.564-1.457-.226-.552-1.36-.557-1.523-1.005-.164-.447 1.13-.04.677-1.306-.454-1.266-1.734-2.216-1.975-2.311-.24-.096.622 1.28.452 1.708-.17.43-.86-.406-1.129 0-.268.406.29 1.003 0 1.708-.289.706-.884-.015-1.071.905-.188.92.275 2.132.395 2.411.119.28.41-.544.507-.301.096.243.157.756-.169 1.156-.862 1.053-2.03 1.356-2.482 2.26-.253.507.265 1.49.17 1.86-.145.553-.818.737-1.016 1.105-.406.754-.356 1.466-.451 2.01-.142.808.318 1.248.62 1.708.201.306.578.625 1.128.954-.376-.636-.47-.954-.282-.954.173 0 1.143 1.146 2.482 1.909.848.483 2.228.725 2.426.703z"/><path fill="#F6E9AA" d="M5.47 26.123c.05-.045 4.147-.4 3.875-3.405-.04-.431-.238-1.325-.928-2.203-.388-.494-.878-.694-1.31-1.453-.432-.758-.006-1.055-.273-1.452-.742-1.104-1.966-1.505-2.02-1.653-.108-.3.165 1.453.165 1.453s-.546-.802-.546-.451c0 .092.085.65-.328 1.502-.294.607-1.055 1.42-1.31 2.054a5.906 5.906 0 0 0-.381 1.652l-.273-1.001c-.343.416-.543.75-.6 1.001-.208.912.025 1.806.218 2.104 1.216 1.877 3.656 1.902 3.71 1.852z"/><path fill="#F3FF4B" d="M5.48 25.497c.066.006 2-.279 2.416-1.965.2-.815-.833-3.427-.988-3.578-.156-.151-.156 1.261-.714.554-.232-.293-.021-1.217-.165-1.713-.203-.7-.714-.957-.714-.957s.094.535-.274 1.31c-.402.846-2.248 2.24-2.141 3.779.106 1.54.823 2.419 2.58 2.57z"/><path fill="#9EA012" d="M5.48 21.031c.04-.048.287.638.423.798.192.226.264.372.37.744.096.34.048.756.21.797.211.053.317-1.09.422-1.09.106 0 .398 1.08.264 1.674-.107.479-.706.904-1.002.904-.686 0-1.322.034-1.583-.372-.58-.904-.001-1.731.158-1.913.063-.072.2.191.264.42.106.377.211.802.37.59.158-.213-.159-2.233.105-2.552z"/></g></svg>