<svg xmlns="http://www.w3.org/2000/svg" width="102" height="88" viewBox="0 0 102 88">
    <g fill="none" fill-rule="evenodd" stroke="#000" stroke-width="4.267" opacity=".087">
        <path d="M13.55 32.844h14.344v17.531H13.55"/>
        <path d="M13.366 13.719h86.246v62.156h-58.88v-7.8H25.226v7.8H11.956"/>
        <path d="M61.932 31.331h23.174v23.174H61.932zM73.478 23.444v7.237M80.634 23.444v7.237M66.323 23.444v7.237M93.075 42.878h-7.318M93.075 49.627h-7.318M93.075 36.048h-7.318"/>
        <g>
            <path d="M61.362 35.885h-7.236M61.362 43.04h-7.236M61.362 49.708h-7.236"/>
        </g>
        <g>
            <path d="M73.478 55.156v7.318M80.634 55.156v7.318M66.323 55.156v7.318"/>
        </g>
        <path d="M.8 2.563h6.865c2.34 0 4.291 2.054 4.291 4.519v79.95"/>
    </g>
</svg>
