<svg xmlns="http://www.w3.org/2000/svg" xmlns:xlink="http://www.w3.org/1999/xlink" width="1440" height="1304" viewBox="0 0 1440 1304">
    <defs>
        <path id="a" d="M0 0h1440v1306H0z"/>
        <linearGradient id="c" x1="82.422%" x2="14.078%" y1="80.178%" y2="11.255%">
            <stop offset="0%" stop-color="#09E" stop-opacity="0"/>
            <stop offset="51.073%" stop-color="#09E"/>
            <stop offset="100%" stop-color="#09E" stop-opacity="0"/>
        </linearGradient>
    </defs>
    <g fill="none" fill-rule="evenodd" transform="translate(0 -2)">
        <mask id="b" fill="#fff">
            <use xlink:href="#a"/>
        </mask>
        <g stroke-linecap="square" mask="url(#b)" opacity=".4">
            <g stroke="#9B9B9B" stroke-width=".2">
                <path d="M-169.674 274.502l1482.053 755.144M-179.97 294.707l1482.054 755.144M-190.264 314.912l1482.054 755.144M-365.276 658.392l1482.054 755.144M-200.559 335.117l1482.054 755.144M-210.854 355.321L1271.2 1110.465M-221.148 375.526l1482.053 755.144M-231.443 395.73l1482.053 755.145M-241.738 415.935l1482.053 755.144M-252.033 436.14l1482.054 755.144M-262.328 456.345l1482.054 755.144M-272.623 476.55l1482.054 755.144M-282.917 496.754l1482.053 755.144M-293.212 516.959l1482.053 755.144M-303.507 537.164l1482.054 755.144M-313.802 557.368l1482.054 755.144M-324.097 577.573l1482.054 755.144M-334.391 597.778l1482.053 755.144M-344.686 617.983l1482.053 755.144M-354.981 638.187l1482.054 755.144"/>
                <g>
                    <path d="M52.526-96.043l1549.84 789.683M42.231-75.838l1549.84 789.682M31.937-55.634l1549.84 789.683M21.642-35.429l1549.84 789.683M11.347-15.224l1549.84 789.682M1.052 4.98l1549.84 789.683M-9.243 25.185l1549.84 789.683M-19.538 45.39l1549.84 789.683M-29.832 65.595l1549.84 789.682M-40.127 85.8l1549.84 789.682M-50.422 106.004l1549.84 789.683M-60.717 126.209l1549.84 789.682M-71.012 146.413l1549.84 789.683M-81.306 166.618l1549.84 789.683M-91.601 186.823l1549.84 789.683M-101.896 207.028l1549.84 789.682M-112.19 227.232l1549.839 789.683M-122.486 247.437l1549.84 789.683M-132.78 267.642l1549.84 789.682"/>
                </g>
                <g>
                    <path d="M431.438-360.978L1602.44 235.678M421.143-340.773l1171.003 596.655M410.848-320.569L1581.85 276.087M400.553-300.364l1171.003 596.656M390.258-280.16l1171.003 596.657M379.963-259.955l1171.004 596.656M369.669-239.75l1171.003 596.656M359.374-219.545L1530.377 377.11M349.079-199.34l1171.003 596.655M338.784-179.136L1509.787 417.52M328.49-158.931l1171.002 596.656M318.195-138.726L1489.198 457.93M307.9-118.522l1171.003 596.656M297.605-98.317L1468.608 498.34M287.31-78.112l1171.003 596.656M277.015-57.907l1171.003 596.655M266.72-37.703l1171.004 596.656M256.426-17.498l1171.003 596.656"/>
                </g>
                <g>
                    <path d="M431.438-793.978L1602.44-197.322M421.143-773.773l1171.003 596.655M410.848-753.569L1581.85-156.913M400.553-733.364l1171.003 596.656M390.258-713.16l1171.003 596.657M379.963-692.955L1550.967-96.299M369.669-672.75L1540.672-76.094M359.374-652.545L1530.377-55.89M349.079-632.34L1520.082-35.685M338.784-612.136L1509.787-15.48M328.49-591.931L1499.491 4.725M318.195-571.726L1489.198 24.93M307.9-551.522L1478.903 45.134M297.605-531.317L1468.608 65.34M287.31-511.112L1458.313 85.544M277.015-490.907l1171.003 596.655M266.72-470.703l1171.004 596.656"/>
                </g>
            </g>
            <g stroke="#9B9B9B" stroke-width=".2">
                <path d="M1664.532 325.396L193.628 1074.86M1674.812 345.573L203.909 1095.035M1685.092 365.749L214.19 1115.212M1695.373 385.925L224.469 1135.388M1705.653 406.102L234.75 1155.564M1715.933 426.278L245.03 1175.741M1726.214 446.455L255.31 1195.917M1736.494 466.631L265.591 1216.094M1746.775 486.807L275.87 1236.27M1757.055 506.984L286.152 1256.446M1767.335 527.16L296.432 1276.623M1777.616 547.337L306.713 1296.799M1787.896 567.513L316.993 1316.976M1798.177 587.69L327.273 1337.151M1808.457 607.866L337.554 1357.328M1818.737 628.042L347.834 1377.505M1829.018 648.219L358.114 1397.68M1839.298 668.395L368.395 1417.858"/>
                <g>
                    <path d="M1380.728 37.467l-1623.746 827.34M1391.008 57.643l-1623.746 827.34M1401.289 77.82L-222.458 905.16M1411.57 97.996l-1623.747 827.34M1421.85 118.172l-1623.747 827.34M1432.13 138.349l-1623.747 827.34M1442.41 158.525l-1623.746 827.34M1452.69 178.702l-1623.746 827.34M1462.971 198.878l-1623.746 827.34M1473.251 219.054l-1623.746 827.34M1483.532 239.23l-1623.747 827.341M1493.812 259.407l-1623.746 827.34M1504.093 279.584l-1623.747 827.34M1514.373 299.76L-109.373 1127.1M1524.653 319.936l-1623.746 827.34M1534.934 340.113l-1623.747 827.34M1545.214 360.29L-78.532 1187.63"/>
                </g>
                <g>
                    <path d="M1380.728-369.533l-1623.746 827.34M1391.008-349.357l-1623.746 827.34M1401.289-329.18L-222.458 498.16M1411.57-309.004l-1623.747 827.34M1421.85-288.828l-1623.747 827.34M1432.13-268.651l-1623.747 827.34M1442.41-248.475l-1623.746 827.34M1452.69-228.298l-1623.746 827.34M1462.971-208.122l-1623.746 827.34M1473.251-187.946l-1623.746 827.34M1483.532-167.77L-140.215 659.572M1493.812-147.593l-1623.746 827.34M1504.093-127.416l-1623.747 827.34M1514.373-107.24L-109.373 720.1M1524.653-87.064L-99.093 740.276M1534.934-66.887L-88.813 760.453"/>
                </g>
                <g>
                    <path d="M1380.728-750.533L-243.018 76.807M1391.008-730.357L-232.738 96.983M1401.289-710.18L-222.458 117.16M1411.57-690.004l-1623.747 827.34M1421.85-669.828l-1623.747 827.34M1432.13-649.651l-1623.747 827.34M1442.41-629.475l-1623.746 827.34M1452.69-609.298l-1623.746 827.34M1462.971-589.122l-1623.746 827.34M1473.251-568.946l-1623.746 827.34M1483.532-548.77L-140.215 278.572M1493.812-528.593l-1623.746 827.34M1504.093-508.416l-1623.747 827.34M1514.373-488.24L-109.373 339.1M1524.653-468.064L-99.093 359.276"/>
                </g>
            </g>
            <g stroke="url(#c)" stroke-width=".6" transform="translate(-410 -387)">
                <path d="M370.793 168.426l1549.84 789.683M602.793 108.426l1549.84 789.683M64 266l1549.84 789.683M1804.138 87.517L180.39 914.857M1624.138.517L.39 827.857M2384.138 172.517L760.39 999.857M2384.138 376.517L760.39 1203.857"/>
            </g>
        </g>
    </g>
</svg>
